<svg width="94" height="41" viewBox="0 0 94 41" fill="none" xmlns="http://www.w3.org/2000/svg">
<path d="M4.85161 12.572C3.77961 12.572 2.93561 12.264 2.31961 11.648C1.70361 11.032 1.39561 10.12 1.39561 8.912V4.1H2.28361V8.876C2.28361 9.868 2.50761 10.6 2.95561 11.072C3.40361 11.544 4.03561 11.78 4.85161 11.78C5.67561 11.78 6.31161 11.544 6.75961 11.072C7.20761 10.6 7.43161 9.868 7.43161 8.876V4.1H8.29561V8.912C8.29561 10.12 7.98761 11.032 7.37161 11.648C6.76361 12.264 5.92361 12.572 4.85161 12.572ZM14.0435 12.56C13.4995 12.56 13.0075 12.436 12.5675 12.188C12.1275 11.932 11.7755 11.568 11.5115 11.096C11.2555 10.616 11.1275 10.032 11.1275 9.344C11.1275 8.656 11.2555 8.076 11.5115 7.604C11.7675 7.124 12.1155 6.76 12.5555 6.512C12.9955 6.264 13.4915 6.14 14.0435 6.14C14.6435 6.14 15.1795 6.276 15.6515 6.548C16.1315 6.812 16.5075 7.188 16.7795 7.676C17.0515 8.156 17.1875 8.712 17.1875 9.344C17.1875 9.984 17.0515 10.544 16.7795 11.024C16.5075 11.504 16.1315 11.88 15.6515 12.152C15.1795 12.424 14.6435 12.56 14.0435 12.56ZM10.7915 14.828V6.2H11.6075V8.096L11.5235 9.356L11.6435 10.628V14.828H10.7915ZM13.9835 11.804C14.4315 11.804 14.8315 11.704 15.1835 11.504C15.5355 11.296 15.8155 11.008 16.0235 10.64C16.2315 10.264 16.3355 9.832 16.3355 9.344C16.3355 8.856 16.2315 8.428 16.0235 8.06C15.8155 7.692 15.5355 7.404 15.1835 7.196C14.8315 6.988 14.4315 6.884 13.9835 6.884C13.5355 6.884 13.1315 6.988 12.7715 7.196C12.4195 7.404 12.1395 7.692 11.9315 8.06C11.7315 8.428 11.6315 8.856 11.6315 9.344C11.6315 9.832 11.7315 10.264 11.9315 10.64C12.1395 11.008 12.4195 11.296 12.7715 11.504C13.1315 11.704 13.5355 11.804 13.9835 11.804ZM18.9243 12.5V3.596H19.7763V12.5H18.9243ZM24.715 12.56C24.107 12.56 23.559 12.424 23.071 12.152C22.591 11.872 22.211 11.492 21.931 11.012C21.651 10.524 21.511 9.968 21.511 9.344C21.511 8.712 21.651 8.156 21.931 7.676C22.211 7.196 22.591 6.82 23.071 6.548C23.551 6.276 24.099 6.14 24.715 6.14C25.339 6.14 25.891 6.276 26.371 6.548C26.859 6.82 27.239 7.196 27.511 7.676C27.791 8.156 27.931 8.712 27.931 9.344C27.931 9.968 27.791 10.524 27.511 11.012C27.239 11.492 26.859 11.872 26.371 12.152C25.883 12.424 25.331 12.56 24.715 12.56ZM24.715 11.804C25.171 11.804 25.575 11.704 25.927 11.504C26.279 11.296 26.555 11.008 26.755 10.64C26.963 10.264 27.067 9.832 27.067 9.344C27.067 8.848 26.963 8.416 26.755 8.048C26.555 7.68 26.279 7.396 25.927 7.196C25.575 6.988 25.175 6.884 24.727 6.884C24.279 6.884 23.879 6.988 23.527 7.196C23.175 7.396 22.895 7.68 22.687 8.048C22.479 8.416 22.375 8.848 22.375 9.344C22.375 9.832 22.479 10.264 22.687 10.64C22.895 11.008 23.175 11.296 23.527 11.504C23.879 11.704 24.275 11.804 24.715 11.804ZM33.5833 12.5V11.108L33.5473 10.88V8.552C33.5473 8.016 33.3953 7.604 33.0913 7.316C32.7953 7.028 32.3513 6.884 31.7593 6.884C31.3513 6.884 30.9633 6.952 30.5953 7.088C30.2273 7.224 29.9153 7.404 29.6593 7.628L29.2753 6.992C29.5953 6.72 29.9793 6.512 30.4273 6.368C30.8753 6.216 31.3473 6.14 31.8433 6.14C32.6593 6.14 33.2873 6.344 33.7273 6.752C34.1753 7.152 34.3993 7.764 34.3993 8.588V12.5H33.5833ZM31.4113 12.56C30.9393 12.56 30.5273 12.484 30.1753 12.332C29.8313 12.172 29.5673 11.956 29.3833 11.684C29.1993 11.404 29.1073 11.084 29.1073 10.724C29.1073 10.396 29.1833 10.1 29.3353 9.836C29.4953 9.564 29.7513 9.348 30.1033 9.188C30.4633 9.02 30.9433 8.936 31.5433 8.936H33.7153V9.572H31.5673C30.9593 9.572 30.5353 9.68 30.2953 9.896C30.0633 10.112 29.9473 10.38 29.9473 10.7C29.9473 11.06 30.0873 11.348 30.3673 11.564C30.6473 11.78 31.0393 11.888 31.5433 11.888C32.0233 11.888 32.4353 11.78 32.7793 11.564C33.1313 11.34 33.3873 11.02 33.5473 10.604L33.7393 11.192C33.5793 11.608 33.2993 11.94 32.8993 12.188C32.5073 12.436 32.0113 12.56 31.4113 12.56ZM39.2214 12.56C38.6214 12.56 38.0814 12.424 37.6014 12.152C37.1294 11.88 36.7574 11.504 36.4854 11.024C36.2134 10.536 36.0774 9.976 36.0774 9.344C36.0774 8.704 36.2134 8.144 36.4854 7.664C36.7574 7.184 37.1294 6.812 37.6014 6.548C38.0814 6.276 38.6214 6.14 39.2214 6.14C39.7734 6.14 40.2654 6.264 40.6974 6.512C41.1374 6.76 41.4854 7.124 41.7414 7.604C42.0054 8.076 42.1374 8.656 42.1374 9.344C42.1374 10.024 42.0094 10.604 41.7534 11.084C41.4974 11.564 41.1494 11.932 40.7094 12.188C40.2774 12.436 39.7814 12.56 39.2214 12.56ZM39.2814 11.804C39.7294 11.804 40.1294 11.704 40.4814 11.504C40.8414 11.296 41.1214 11.008 41.3214 10.64C41.5294 10.264 41.6334 9.832 41.6334 9.344C41.6334 8.848 41.5294 8.416 41.3214 8.048C41.1214 7.68 40.8414 7.396 40.4814 7.196C40.1294 6.988 39.7294 6.884 39.2814 6.884C38.8414 6.884 38.4454 6.988 38.0934 7.196C37.7414 7.396 37.4614 7.68 37.2534 8.048C37.0454 8.416 36.9414 8.848 36.9414 9.344C36.9414 9.832 37.0454 10.264 37.2534 10.64C37.4614 11.008 37.7414 11.296 38.0934 11.504C38.4454 11.704 38.8414 11.804 39.2814 11.804ZM41.6574 12.5V10.604L41.7414 9.332L41.6214 8.06V3.596H42.4734V12.5H41.6574ZM48.1668 12.5V4.1H49.0548V12.5H48.1668ZM59.4799 6.14C59.9919 6.14 60.4359 6.24 60.8119 6.44C61.1959 6.632 61.4919 6.928 61.6999 7.328C61.9159 7.728 62.0239 8.232 62.0239 8.84V12.5H61.1719V8.924C61.1719 8.26 61.0119 7.76 60.6919 7.424C60.3799 7.08 59.9359 6.908 59.3599 6.908C58.9279 6.908 58.5519 7 58.2319 7.184C57.9199 7.36 57.6759 7.62 57.4999 7.964C57.3319 8.3 57.2479 8.708 57.2479 9.188V12.5H56.3959V8.924C56.3959 8.26 56.2359 7.76 55.9159 7.424C55.5959 7.08 55.1479 6.908 54.5719 6.908C54.1479 6.908 53.7759 7 53.4559 7.184C53.1359 7.36 52.8879 7.62 52.7119 7.964C52.5439 8.3 52.4599 8.708 52.4599 9.188V12.5H51.6079V6.2H52.4239V7.904L52.2919 7.604C52.4839 7.148 52.7919 6.792 53.2159 6.536C53.6479 6.272 54.1559 6.14 54.7399 6.14C55.3559 6.14 55.8799 6.296 56.3119 6.608C56.7439 6.912 57.0239 7.372 57.1519 7.988L56.8159 7.856C56.9999 7.344 57.3239 6.932 57.7879 6.62C58.2599 6.3 58.8239 6.14 59.4799 6.14ZM68.2825 12.5V11.108L68.2465 10.88V8.552C68.2465 8.016 68.0945 7.604 67.7905 7.316C67.4945 7.028 67.0505 6.884 66.4585 6.884C66.0505 6.884 65.6625 6.952 65.2945 7.088C64.9265 7.224 64.6145 7.404 64.3585 7.628L63.9745 6.992C64.2945 6.72 64.6785 6.512 65.1265 6.368C65.5745 6.216 66.0465 6.14 66.5425 6.14C67.3585 6.14 67.9865 6.344 68.4265 6.752C68.8745 7.152 69.0985 7.764 69.0985 8.588V12.5H68.2825ZM66.1105 12.56C65.6385 12.56 65.2265 12.484 64.8745 12.332C64.5305 12.172 64.2665 11.956 64.0825 11.684C63.8985 11.404 63.8065 11.084 63.8065 10.724C63.8065 10.396 63.8825 10.1 64.0345 9.836C64.1945 9.564 64.4505 9.348 64.8025 9.188C65.1625 9.02 65.6425 8.936 66.2425 8.936H68.4145V9.572H66.2665C65.6585 9.572 65.2345 9.68 64.9945 9.896C64.7625 10.112 64.6465 10.38 64.6465 10.7C64.6465 11.06 64.7865 11.348 65.0665 11.564C65.3465 11.78 65.7385 11.888 66.2425 11.888C66.7225 11.888 67.1345 11.78 67.4785 11.564C67.8305 11.34 68.0865 11.02 68.2465 10.604L68.4385 11.192C68.2785 11.608 67.9985 11.94 67.5985 12.188C67.2065 12.436 66.7105 12.56 66.1105 12.56ZM74.1006 14.888C73.5246 14.888 72.9726 14.804 72.4446 14.636C71.9166 14.468 71.4886 14.228 71.1606 13.916L71.5926 13.268C71.8886 13.532 72.2526 13.74 72.6846 13.892C73.1246 14.052 73.5886 14.132 74.0766 14.132C74.8766 14.132 75.4646 13.944 75.8406 13.568C76.2166 13.2 76.4046 12.624 76.4046 11.84V10.268L76.5246 9.188L76.4406 8.108V6.2H77.2566V11.732C77.2566 12.82 76.9886 13.616 76.4526 14.12C75.9246 14.632 75.1406 14.888 74.1006 14.888ZM73.9446 12.26C73.3446 12.26 72.8046 12.132 72.3246 11.876C71.8446 11.612 71.4646 11.248 71.1846 10.784C70.9126 10.32 70.7766 9.788 70.7766 9.188C70.7766 8.588 70.9126 8.06 71.1846 7.604C71.4646 7.14 71.8446 6.78 72.3246 6.524C72.8046 6.268 73.3446 6.14 73.9446 6.14C74.5046 6.14 75.0086 6.256 75.4566 6.488C75.9046 6.72 76.2606 7.064 76.5246 7.52C76.7886 7.976 76.9206 8.532 76.9206 9.188C76.9206 9.844 76.7886 10.4 76.5246 10.856C76.2606 11.312 75.9046 11.66 75.4566 11.9C75.0086 12.14 74.5046 12.26 73.9446 12.26ZM74.0286 11.504C74.4926 11.504 74.9046 11.408 75.2646 11.216C75.6246 11.016 75.9086 10.744 76.1166 10.4C76.3246 10.048 76.4286 9.644 76.4286 9.188C76.4286 8.732 76.3246 8.332 76.1166 7.988C75.9086 7.644 75.6246 7.376 75.2646 7.184C74.9046 6.984 74.4926 6.884 74.0286 6.884C73.5726 6.884 73.1606 6.984 72.7926 7.184C72.4326 7.376 72.1486 7.644 71.9406 7.988C71.7406 8.332 71.6406 8.732 71.6406 9.188C71.6406 9.644 71.7406 10.048 71.9406 10.4C72.1486 10.744 72.4326 11.016 72.7926 11.216C73.1606 11.408 73.5726 11.504 74.0286 11.504ZM82.3035 12.56C81.6475 12.56 81.0715 12.424 80.5755 12.152C80.0795 11.872 79.6915 11.492 79.4115 11.012C79.1315 10.524 78.9915 9.968 78.9915 9.344C78.9915 8.72 79.1235 8.168 79.3875 7.688C79.6595 7.208 80.0275 6.832 80.4915 6.56C80.9635 6.28 81.4915 6.14 82.0755 6.14C82.6675 6.14 83.1915 6.276 83.6475 6.548C84.1115 6.812 84.4755 7.188 84.7395 7.676C85.0035 8.156 85.1355 8.712 85.1355 9.344C85.1355 9.384 85.1315 9.428 85.1235 9.476C85.1235 9.516 85.1235 9.56 85.1235 9.608H79.6395V8.972H84.6675L84.3315 9.224C84.3315 8.768 84.2315 8.364 84.0315 8.012C83.8395 7.652 83.5755 7.372 83.2395 7.172C82.9035 6.972 82.5155 6.872 82.0755 6.872C81.6435 6.872 81.2555 6.972 80.9115 7.172C80.5675 7.372 80.2995 7.652 80.1075 8.012C79.9155 8.372 79.8195 8.784 79.8195 9.248V9.38C79.8195 9.86 79.9235 10.284 80.1315 10.652C80.3475 11.012 80.6435 11.296 81.0195 11.504C81.4035 11.704 81.8395 11.804 82.3275 11.804C82.7115 11.804 83.0675 11.736 83.3955 11.6C83.7315 11.464 84.0195 11.256 84.2595 10.976L84.7395 11.528C84.4595 11.864 84.1075 12.12 83.6835 12.296C83.2675 12.472 82.8075 12.56 82.3035 12.56Z" fill="#AFACA9"/>
<path d="M44.3496 35.25V30.75M44.3496 30.75L42.8496 32.25M44.3496 30.75L45.8496 32.25" stroke="#AFACA9" stroke-width="1.125" stroke-linecap="round" stroke-linejoin="round"/>
<path d="M54.0996 30V33.75C54.0996 37.5 52.5996 39 48.8496 39H44.3496C40.5996 39 39.0996 37.5 39.0996 33.75V29.25C39.0996 25.5 40.5996 24 44.3496 24H48.0996" stroke="#AFACA9" stroke-width="1.125" stroke-linecap="round" stroke-linejoin="round"/>
<path d="M54.0996 30H51.0996C48.8496 30 48.0996 29.25 48.0996 27V24L54.0996 30Z" stroke="#AFACA9" stroke-width="1.125" stroke-linecap="round" stroke-linejoin="round"/>
</svg>
