<?xml version="1.0" encoding="UTF-8"?>
<svg version="1.1" xmlns="http://www.w3.org/2000/svg" width="25" height="25" viewBox="0 0 25 25" fill="none">
<path d="M0 0 C5.16884409 0.04271772 9.94283668 0.57676845 14 4 C14.75 6.0625 14.75 6.0625 15 8 C15.33 8.66 15.66 9.32 16 10 C16.66 10 17.32 10 18 10 C18 13.63 18 17.26 18 21 C17.34 21 16.68 21 16 21 C16 18.69 16 16.38 16 14 C15.34 14 14.68 14 14 14 C14 15.32 14 16.64 14 18 C4.58997722 20.11161731 4.58997722 20.11161731 0 21 C-0.66 19.02 -1.32 17.04 -2 15 C-2.33 16.98 -2.66 18.96 -3 21 C-3.66 21 -4.32 21 -5 21 C-5 17.37 -5 13.74 -5 10 C-4.34 10 -3.68 10 -3 10 C-1.20968895 7.7667506 -1.20968895 7.7667506 0 5 C-0.29805007 2.80252869 -0.29805007 2.80252869 -1 1 C-0.67 0.67 -0.34 0.34 0 0 Z M4 4 C5 6 5 6 5 6 Z " fill="#0B0B0B" transform="translate(6,2)"/>
</svg>
