<svg width="25" height="25" viewBox="0 0 25 25" fill="none" xmlns="http://www.w3.org/2000/svg">
<path d="M22.9167 8.61524V4.4069C22.9167 2.75065 22.25 2.08398 20.5938 2.08398H16.3855C14.7292 2.08398 14.0625 2.75065 14.0625 4.4069V8.61524C14.0625 10.2715 14.7292 10.9382 16.3855 10.9382H20.5938C22.25 10.9382 22.9167 10.2715 22.9167 8.61524ZM10.9375 8.87565V4.14648C10.9375 2.67773 10.2709 2.08398 8.61462 2.08398H4.40629C2.75004 2.08398 2.08337 2.67773 2.08337 4.14648V8.86524C2.08337 10.3444 2.75004 10.9277 4.40629 10.9277H8.61462C10.2709 10.9382 10.9375 10.3444 10.9375 8.87565ZM10.9375 20.5944V16.3861C10.9375 14.7298 10.2709 14.0632 8.61462 14.0632H4.40629C2.75004 14.0632 2.08337 14.7298 2.08337 16.3861V20.5944C2.08337 22.2507 2.75004 22.9173 4.40629 22.9173H8.61462C10.2709 22.9173 10.9375 22.2507 10.9375 20.5944Z" stroke="white" stroke-width="1.5625" stroke-linecap="round" stroke-linejoin="round"/>
<path d="M15.1041 18.2285H21.3541M18.2291 21.3535V15.1035" stroke="white" stroke-width="1.5625" stroke-linecap="round"/>
</svg>
