<svg width="25" height="25" viewBox="0 0 25 25" fill="none" xmlns="http://www.w3.org/2000/svg">
<path d="M22.9173 8.61524V4.4069C22.9173 2.75065 22.2507 2.08398 20.5944 2.08398H16.3861C14.7298 2.08398 14.0632 2.75065 14.0632 4.4069V8.61524C14.0632 10.2715 14.7298 10.9382 16.3861 10.9382H20.5944C22.2507 10.9382 22.9173 10.2715 22.9173 8.61524ZM10.9382 8.87565V4.14648C10.9382 2.67773 10.2715 2.08398 8.61524 2.08398H4.4069C2.75065 2.08398 2.08398 2.67773 2.08398 4.14648V8.86524C2.08398 10.3444 2.75065 10.9277 4.4069 10.9277H8.61524C10.2715 10.9382 10.9382 10.3444 10.9382 8.87565ZM10.9382 20.5944V16.3861C10.9382 14.7298 10.2715 14.0632 8.61524 14.0632H4.4069C2.75065 14.0632 2.08398 14.7298 2.08398 16.3861V20.5944C2.08398 22.2507 2.75065 22.9173 4.4069 22.9173H8.61524C10.2715 22.9173 10.9382 22.2507 10.9382 20.5944Z" stroke="#333333" stroke-width="1.5625" stroke-linecap="round" stroke-linejoin="round"/>
<path d="M15.1035 18.2285H21.3535M18.2285 21.3535V15.1035" stroke="#333333" stroke-width="1.5625" stroke-linecap="round"/>
</svg>
