<svg width="27" height="27" viewBox="0 0 27 27" fill="none" xmlns="http://www.w3.org/2000/svg">
<rect x="0.61464" y="0.782609" width="25.4348" height="25.4348" rx="12.7174" stroke="#D87500" stroke-width="0.565217"/>
<path d="M14.1196 9.25001L8.98837 14.6813C8.79462 14.8875 8.60712 15.2938 8.56962 15.575L8.33837 17.6C8.25712 18.3313 8.78212 18.8313 9.50712 18.7063L11.5196 18.3625C11.8009 18.3125 12.1946 18.1063 12.3884 17.8938L17.5196 12.4625C18.4071 11.525 18.8071 10.4563 17.4259 9.15001C16.0509 7.85626 15.0071 8.31251 14.1196 9.25001Z" stroke="#D87500" stroke-width="0.9375" stroke-miterlimit="10" stroke-linecap="round" stroke-linejoin="round"/>
<path d="M13.2617 10.1562C13.3927 10.9943 13.7983 11.7651 14.4149 12.3477C15.0314 12.9302 15.8239 13.2916 16.668 13.375" stroke="#D87500" stroke-width="0.9375" stroke-miterlimit="10" stroke-linecap="round" stroke-linejoin="round"/>
</svg>
