<svg width="25" height="25" viewBox="0 0 25 25" fill="none" xmlns="http://www.w3.org/2000/svg">
<path d="M23.9581 18.656C23.9789 19.4373 23.7706 20.1769 23.3956 20.8123C23.1872 21.1873 22.906 21.531 22.5935 21.8123C21.8747 22.4789 20.9268 22.8852 19.8747 22.9164C18.3539 22.9477 17.0101 22.1664 16.2706 20.9685C15.8747 20.3539 15.6351 19.6144 15.6247 18.8331C15.5935 17.5206 16.1768 16.3331 17.1143 15.5519C17.8226 14.9685 18.7185 14.6039 19.6976 14.5831C20.2449 14.5707 20.7892 14.6661 21.2995 14.8641C21.8098 15.0621 22.276 15.3587 22.6717 15.7369C23.0673 16.1151 23.3846 16.5676 23.6053 17.0685C23.826 17.5694 23.9459 18.1088 23.9581 18.656Z" stroke="white" stroke-width="1.5625" stroke-miterlimit="10" stroke-linecap="round" stroke-linejoin="round"/>
<path d="M18.1667 18.7812L19.2188 19.7812L21.3959 17.6771M3.30212 7.75L12.5 13.0729L21.6355 7.78125M12.5 22.5104V13.0625" stroke="white" stroke-width="1.5625" stroke-linecap="round" stroke-linejoin="round"/>
<path d="M22.5103 9.55274V15.4486C22.5103 15.5007 22.5103 15.5423 22.4999 15.5944C21.7708 14.959 20.8333 14.584 19.7916 14.584C18.8124 14.584 17.9062 14.9277 17.1874 15.5007C16.6985 15.8892 16.3039 16.3835 16.0333 16.9464C15.7626 17.5092 15.623 18.1261 15.6249 18.7507C15.6249 19.5319 15.8437 20.2715 16.2291 20.8965C16.3228 21.0632 16.4374 21.2194 16.5624 21.3652L14.6562 22.4173C13.4687 23.084 11.5312 23.084 10.3437 22.4173L4.78117 19.334C3.52075 18.6361 2.4895 16.8861 2.4895 15.4486V9.55274C2.4895 8.11523 3.52075 6.36523 4.78117 5.66732L10.3437 2.58398C11.5312 1.91732 13.4687 1.91732 14.6562 2.58398L20.2187 5.66732C21.4791 6.36523 22.5103 8.11523 22.5103 9.55274Z" stroke="white" stroke-width="1.5625" stroke-linecap="round" stroke-linejoin="round"/>
</svg>
