<svg width="25" height="25" viewBox="0 0 25 25" fill="none" xmlns="http://www.w3.org/2000/svg">
<path d="M23.9576 18.656C23.9784 19.4373 23.7701 20.1769 23.3951 20.8123C23.1867 21.1873 22.9055 21.531 22.593 21.8123C21.8742 22.4789 20.9263 22.8852 19.8742 22.9164C18.3534 22.9477 17.0097 22.1664 16.2701 20.9685C15.8742 20.3539 15.6347 19.6144 15.6242 18.8331C15.593 17.5206 16.1763 16.3331 17.1138 15.5519C17.8222 14.9685 18.718 14.6039 19.6972 14.5831C20.2444 14.5707 20.7887 14.6661 21.299 14.8641C21.8093 15.0621 22.2756 15.3587 22.6712 15.7369C23.0668 16.1151 23.3841 16.5676 23.6048 17.0685C23.8255 17.5694 23.9454 18.1088 23.9576 18.656Z" stroke="#333333" stroke-width="1.5625" stroke-miterlimit="10" stroke-linecap="round" stroke-linejoin="round"/>
<path d="M18.1673 18.7812L19.2194 19.7812L21.3965 17.6771M3.30273 7.75L12.5007 13.0729L21.6361 7.78125M12.5007 22.5104V13.0625" stroke="#333333" stroke-width="1.5625" stroke-linecap="round" stroke-linejoin="round"/>
<path d="M22.5111 9.55274V15.4486C22.5111 15.5007 22.5111 15.5423 22.5007 15.5944C21.7715 14.959 20.834 14.584 19.7923 14.584C18.8132 14.584 17.9069 14.9277 17.1882 15.5007C16.6992 15.8892 16.3046 16.3835 16.034 16.9464C15.7634 17.5092 15.6238 18.1261 15.6257 18.7507C15.6257 19.5319 15.8444 20.2715 16.2298 20.8965C16.3236 21.0632 16.4382 21.2194 16.5632 21.3652L14.6569 22.4173C13.4694 23.084 11.5319 23.084 10.3444 22.4173L4.7819 19.334C3.52148 18.6361 2.49023 16.8861 2.49023 15.4486V9.55274C2.49023 8.11523 3.52148 6.36523 4.7819 5.66732L10.3444 2.58398C11.5319 1.91732 13.4694 1.91732 14.6569 2.58398L20.2194 5.66732C21.4798 6.36523 22.5111 8.11523 22.5111 9.55274Z" stroke="#333333" stroke-width="1.5625" stroke-linecap="round" stroke-linejoin="round"/>
</svg>
