<svg width="100" height="100" viewBox="0 0 100 100" fill="none" xmlns="http://www.w3.org/2000/svg">
<path d="M50.0007 8.3335C27.0423 8.3335 8.33398 27.0418 8.33398 50.0002C8.33398 72.9585 27.0423 91.6668 50.0007 91.6668C72.959 91.6668 91.6673 72.9585 91.6673 50.0002C91.6673 27.0418 72.959 8.3335 50.0007 8.3335ZM66.6673 53.1252H53.1257V66.6668C53.1257 68.3752 51.709 69.7918 50.0007 69.7918C48.2923 69.7918 46.8757 68.3752 46.8757 66.6668V53.1252H33.334C31.6257 53.1252 30.209 51.7085 30.209 50.0002C30.209 48.2918 31.6257 46.8752 33.334 46.8752H46.8757V33.3335C46.8757 31.6252 48.2923 30.2085 50.0007 30.2085C51.709 30.2085 53.1257 31.6252 53.1257 33.3335V46.8752H66.6673C68.3757 46.8752 69.7923 48.2918 69.7923 50.0002C69.7923 51.7085 68.3757 53.1252 66.6673 53.1252Z" fill="#D87500"/>
</svg>
