<svg width="25" height="25" viewBox="0 0 25 25" fill="none" xmlns="http://www.w3.org/2000/svg">
<path d="M19.7917 12.5007V6.25065C19.7917 3.94857 19.7917 2.08398 15.625 2.08398H9.375C5.20833 2.08398 5.20833 3.94857 5.20833 6.25065V12.5007M7.29167 12.5007C3.125 12.5007 3.125 14.3652 3.125 16.6673V17.709C3.125 20.584 3.125 22.9173 8.33333 22.9173H16.6667C20.8333 22.9173 21.875 20.584 21.875 17.709V16.6673C21.875 14.3652 21.875 12.5007 17.7083 12.5007C16.6667 12.5007 16.375 12.7194 15.8333 13.1257L14.7708 14.2507C14.4787 14.5614 14.1261 14.809 13.7346 14.9782C13.3432 15.1475 12.9213 15.2348 12.4948 15.2348C12.0683 15.2348 11.6464 15.1475 11.2549 14.9782C10.8635 14.809 10.5109 14.5614 10.2188 14.2507L9.16667 13.1257C8.625 12.7194 8.33333 12.5007 7.29167 12.5007Z" stroke="#333333" stroke-width="1.5625" stroke-miterlimit="10" stroke-linecap="round" stroke-linejoin="round"/>
<path d="M10.9896 9.61523H14.4583M10.125 6.49023H15.3333" stroke="#333333" stroke-width="1.5625" stroke-linecap="round" stroke-linejoin="round"/>
</svg>
