<svg width="32" height="32" viewBox="0 0 32 32" fill="none" xmlns="http://www.w3.org/2000/svg">
<path d="M11.9999 20.0002L19.9999 12.0002M5.31854 19.5469L3.29188 17.5202C2.46521 16.6935 2.46521 15.3335 3.29188 14.5069L5.31854 12.4802C5.66521 12.1335 5.94521 11.4535 5.94521 10.9735V8.10686C5.94521 6.93353 6.90521 5.97353 8.07854 5.97353H10.9452C11.4252 5.97353 12.1052 5.69353 12.4519 5.34686L14.4785 3.3202C15.3052 2.49353 16.6652 2.49353 17.4919 3.3202L19.5185 5.34686C19.8652 5.69353 20.5452 5.97353 21.0252 5.97353H23.8919C25.0652 5.97353 26.0252 6.93353 26.0252 8.10686V10.9735C26.0252 11.4535 26.3052 12.1335 26.6519 12.4802L28.6785 14.5069C29.5052 15.3335 29.5052 16.6935 28.6785 17.5202L26.6519 19.5469C26.3052 19.8935 26.0252 20.5735 26.0252 21.0535V23.9202C26.0252 25.0935 25.0652 26.0535 23.8919 26.0535H21.0252C20.5452 26.0535 19.8652 26.3335 19.5185 26.6802L17.4919 28.7069C16.6652 29.5335 15.3052 29.5335 14.4785 28.7069L12.4519 26.6802C12.1052 26.3335 11.4252 26.0535 10.9452 26.0535H8.07854C6.90521 26.0535 5.94521 25.0935 5.94521 23.9202V21.0535C5.94521 20.5602 5.66521 19.8802 5.31854 19.5469Z" stroke="#D87500" stroke-width="2" stroke-linecap="round" stroke-linejoin="round"/>
<path d="M19.3268 19.3337H19.3388M12.6602 12.667H12.6708" stroke="#D87500" stroke-width="2.66667" stroke-linecap="round" stroke-linejoin="round"/>
</svg>
