<svg width="33" height="32" viewBox="0 0 33 32" fill="none" xmlns="http://www.w3.org/2000/svg">
<g clip-path="url(#clip0_839_719)">
<path d="M29.7399 9.01361L25.2465 27.0536C25.0906 27.706 24.7185 28.2864 24.1907 28.7004C23.6629 29.1143 23.0106 29.3375 22.3399 29.3336H4.81987C2.80653 29.3336 1.36653 27.3603 1.96653 25.4269L7.57987 7.40027C7.76744 6.78894 8.14544 6.25353 8.65873 5.87216C9.17202 5.49079 9.79375 5.28341 10.4332 5.28027H26.8332C28.0999 5.28027 29.1532 6.05361 29.5932 7.12027C29.8465 7.69361 29.8999 8.34694 29.7399 9.01361Z" stroke="#323232" stroke-width="2" stroke-miterlimit="10"/>
<path d="M21.8331 29.3334H28.2064C29.9264 29.3334 31.2731 27.8801 31.1531 26.1601L29.8331 8.00007M13.4064 8.50673L14.7931 2.74673M22.3398 8.52007L23.5931 2.7334M10.7664 16.0001H21.4331M9.43311 21.3334H20.0998" stroke="#323232" stroke-width="2" stroke-miterlimit="10" stroke-linecap="round" stroke-linejoin="round"/>
</g>
<defs>
<clipPath id="clip0_839_719">
<rect width="32" height="32" fill="white" transform="translate(0.5)"/>
</clipPath>
</defs>
</svg>
