<svg width="33" height="32" viewBox="0 0 33 32" fill="none" xmlns="http://www.w3.org/2000/svg">
<path d="M25.8333 16.0003V8.00033C25.8333 5.05366 25.8333 2.66699 20.5 2.66699H12.5C7.16667 2.66699 7.16667 5.05366 7.16667 8.00033V16.0003M9.83333 16.0003C4.5 16.0003 4.5 18.387 4.5 21.3337V22.667C4.5 26.347 4.5 29.3337 11.1667 29.3337H21.8333C27.1667 29.3337 28.5 26.347 28.5 22.667V21.3337C28.5 18.387 28.5 16.0003 23.1667 16.0003C21.8333 16.0003 21.46 16.2803 20.7667 16.8003L19.4067 18.2403C19.0328 18.638 18.5814 18.955 18.0803 19.1716C17.5793 19.3883 17.0392 19.5 16.4933 19.5C15.9475 19.5 15.4074 19.3883 14.9063 19.1716C14.4053 18.955 13.9539 18.638 13.58 18.2403L12.2333 16.8003C11.54 16.2803 11.1667 16.0003 9.83333 16.0003Z" stroke="#333333" stroke-width="2" stroke-miterlimit="10" stroke-linecap="round" stroke-linejoin="round"/>
<path d="M14.5666 12.3066H19.0066M13.46 8.30664H20.1266" stroke="#333333" stroke-width="2" stroke-linecap="round" stroke-linejoin="round"/>
</svg>
