<svg width="32" height="32" viewBox="0 0 32 32" fill="none" xmlns="http://www.w3.org/2000/svg">
<path d="M2.6665 2.66699H4.9865C6.4265 2.66699 7.55984 3.90699 7.43984 5.33366L6.33317 18.6137C6.28996 19.1281 6.35409 19.646 6.52148 20.1344C6.68888 20.6228 6.9559 21.0711 7.30562 21.4509C7.65535 21.8307 8.08015 22.1337 8.55311 22.3408C9.02607 22.5478 9.53688 22.6544 10.0532 22.6537H24.2532C26.1732 22.6537 27.8532 21.0803 27.9998 19.1737L28.7198 9.17366C28.8798 6.96033 27.1998 5.16033 24.9732 5.16033H7.75984M11.9998 10.667H27.9998M21.6665 29.3337C22.1085 29.3337 22.5325 29.1581 22.845 28.8455C23.1576 28.5329 23.3332 28.109 23.3332 27.667C23.3332 27.225 23.1576 26.801 22.845 26.4885C22.5325 26.1759 22.1085 26.0003 21.6665 26.0003C21.2245 26.0003 20.8006 26.1759 20.488 26.4885C20.1754 26.801 19.9998 27.225 19.9998 27.667C19.9998 28.109 20.1754 28.5329 20.488 28.8455C20.8006 29.1581 21.2245 29.3337 21.6665 29.3337ZM10.9998 29.3337C11.4419 29.3337 11.8658 29.1581 12.1783 28.8455C12.4909 28.5329 12.6665 28.109 12.6665 27.667C12.6665 27.225 12.4909 26.801 12.1783 26.4885C11.8658 26.1759 11.4419 26.0003 10.9998 26.0003C10.5578 26.0003 10.1339 26.1759 9.82133 26.4885C9.50877 26.801 9.33317 27.225 9.33317 27.667C9.33317 28.109 9.50877 28.5329 9.82133 28.8455C10.1339 29.1581 10.5578 29.3337 10.9998 29.3337Z" stroke="#333333" stroke-width="2" stroke-miterlimit="10" stroke-linecap="round" stroke-linejoin="round"/>
</svg>
