<svg width="32" height="32" viewBox="0 0 32 32" fill="none" xmlns="http://www.w3.org/2000/svg">
<path d="M2.66699 2.66699H4.98699C6.42699 2.66699 7.56033 3.90699 7.44033 5.33366L6.33366 18.6137C6.29045 19.1281 6.35457 19.646 6.52197 20.1344C6.68937 20.6228 6.95639 21.0711 7.30611 21.4509C7.65583 21.8307 8.08063 22.1337 8.5536 22.3408C9.02656 22.5478 9.53737 22.6544 10.0537 22.6537H24.2537C26.1737 22.6537 27.8537 21.0803 28.0003 19.1737L28.7203 9.17366C28.8803 6.96033 27.2003 5.16033 24.9737 5.16033H7.76033M12.0003 10.667H28.0003M21.667 29.3337C22.109 29.3337 22.5329 29.1581 22.8455 28.8455C23.1581 28.5329 23.3337 28.109 23.3337 27.667C23.3337 27.225 23.1581 26.801 22.8455 26.4885C22.5329 26.1759 22.109 26.0003 21.667 26.0003C21.225 26.0003 20.801 26.1759 20.4885 26.4885C20.1759 26.801 20.0003 27.225 20.0003 27.667C20.0003 28.109 20.1759 28.5329 20.4885 28.8455C20.801 29.1581 21.225 29.3337 21.667 29.3337ZM11.0003 29.3337C11.4424 29.3337 11.8663 29.1581 12.1788 28.8455C12.4914 28.5329 12.667 28.109 12.667 27.667C12.667 27.225 12.4914 26.801 12.1788 26.4885C11.8663 26.1759 11.4424 26.0003 11.0003 26.0003C10.5583 26.0003 10.1344 26.1759 9.82181 26.4885C9.50925 26.801 9.33366 27.225 9.33366 27.667C9.33366 28.109 9.50925 28.5329 9.82181 28.8455C10.1344 29.1581 10.5583 29.3337 11.0003 29.3337Z" stroke="#D87500" stroke-width="2" stroke-miterlimit="10" stroke-linecap="round" stroke-linejoin="round"/>
</svg>
