<svg width="200" height="201" viewBox="0 0 200 201" fill="none" xmlns="http://www.w3.org/2000/svg">
<g clip-path="url(#clip0_1_7329)">
<path d="M190 0.5H10C4.47715 0.5 0 4.97715 0 10.5V190.5C0 196.023 4.47715 200.5 10 200.5H190C195.523 200.5 200 196.023 200 190.5V10.5C200 4.97715 195.523 0.5 190 0.5Z" fill="white"/>
<path fill-rule="evenodd" clip-rule="evenodd" d="M66.6675 10.8673C66.6675 10.0814 66.9796 9.32779 67.5353 8.77213C68.091 8.21647 68.8446 7.9043 69.6304 7.9043H93.3341C94.12 7.9043 94.8736 8.21647 95.4293 8.77213C95.9849 9.32779 96.2971 10.0814 96.2971 10.8673V12.3487C96.2971 13.1346 96.6093 13.8882 97.1649 14.4439C97.7206 14.9995 98.4742 15.3117 99.2601 15.3117H108.149C108.935 15.3117 109.688 14.9995 110.244 14.4439C110.8 13.8882 111.112 13.1346 111.112 12.3487V10.8673C111.112 10.0814 111.424 9.32779 111.98 8.77213C112.535 8.21647 113.289 7.9043 114.075 7.9043H115.556C116.342 7.9043 117.096 8.21647 117.651 8.77213C118.207 9.32779 118.519 10.0814 118.519 10.8673V27.1636C118.519 27.9494 118.207 28.703 117.651 29.2587C117.096 29.8144 116.342 30.1265 115.556 30.1265H114.075C113.289 30.1265 112.535 30.4387 111.98 30.9944C111.424 31.55 111.112 32.3037 111.112 33.0895V34.571C111.112 35.3568 111.424 36.1104 111.98 36.6661C112.535 37.2218 113.289 37.5339 114.075 37.5339H115.556C116.342 37.5339 117.096 37.8461 117.651 38.4018C118.207 38.9574 118.519 39.7111 118.519 40.4969V56.7932C118.519 57.579 118.207 58.3327 117.651 58.8883C117.096 59.444 116.342 59.7561 115.556 59.7561H114.075C113.289 59.7561 112.535 59.444 111.98 58.8883C111.424 58.3327 111.112 57.579 111.112 56.7932V55.3117C111.112 54.5259 110.8 53.7722 110.244 53.2166C109.688 52.6609 108.935 52.3487 108.149 52.3487H106.667C105.882 52.3487 105.128 52.0366 104.572 51.4809C104.017 50.9252 103.705 50.1716 103.705 49.3858V47.9043C103.705 47.1185 103.392 46.3648 102.837 45.8092C102.281 45.2535 101.527 44.9413 100.742 44.9413H99.2601C98.4742 44.9413 97.7206 45.2535 97.1649 45.8092C96.6093 46.3648 96.2971 47.1185 96.2971 47.9043V49.3858C96.2971 50.1716 95.9849 50.9252 95.4293 51.4809C94.8736 52.0366 94.12 52.3487 93.3341 52.3487H91.8526C91.0668 52.3487 90.3132 52.0366 89.7575 51.4809C89.2019 50.9252 88.8897 50.1716 88.8897 49.3858V47.9043C88.8897 47.1185 88.5775 46.3648 88.0219 45.8092C87.4662 45.2535 86.7126 44.9413 85.9267 44.9413H84.4452C83.6594 44.9413 82.9058 44.6292 82.3501 44.0735C81.7944 43.5178 81.4823 42.7642 81.4823 41.9784V33.0895C81.4823 32.3037 81.7944 31.55 82.3501 30.9944C82.9058 30.4387 83.6594 30.1265 84.4452 30.1265H85.9267C86.7126 30.1265 87.4662 29.8144 88.0219 29.2587C88.5775 28.703 88.8897 27.9494 88.8897 27.1636V18.2747C88.8897 17.4888 88.5775 16.7352 88.0219 16.1795C87.4662 15.6239 86.7126 15.3117 85.9267 15.3117H69.6304C68.8446 15.3117 68.091 14.9995 67.5353 14.4439C66.9796 13.8882 66.6675 13.1346 66.6675 12.3487V10.8673ZM96.2971 25.6821C96.2971 24.8962 96.6093 24.1426 97.1649 23.5869C97.7206 23.0313 98.4742 22.7191 99.2601 22.7191H100.742C101.527 22.7191 102.281 23.0313 102.837 23.5869C103.392 24.1426 103.705 24.8962 103.705 25.6821V34.571C103.705 35.3568 103.392 36.1104 102.837 36.6661C102.281 37.2218 101.527 37.5339 100.742 37.5339H99.2601C98.4742 37.5339 97.7206 37.2218 97.1649 36.6661C96.6093 36.1104 96.2971 35.3568 96.2971 34.571V25.6821ZM74.0749 25.6821C74.0749 24.8962 74.387 24.1426 74.9427 23.5869C75.4984 23.0313 76.252 22.7191 77.0378 22.7191H78.5193C79.3051 22.7191 80.0588 23.0313 80.6144 23.5869C81.1701 24.1426 81.4823 24.8962 81.4823 25.6821V27.1636C81.4823 27.9494 81.1701 28.703 80.6144 29.2587C80.0588 29.8144 79.3051 30.1265 78.5193 30.1265H77.0378C76.252 30.1265 75.4984 29.8144 74.9427 29.2587C74.387 28.703 74.0749 27.9494 74.0749 27.1636V25.6821ZM118.519 33.0895C118.519 32.3037 118.831 31.55 119.387 30.9944C119.943 30.4387 120.696 30.1265 121.482 30.1265H130.371C131.157 30.1265 131.911 30.4387 132.466 30.9944C133.022 31.55 133.334 32.3037 133.334 33.0895V34.571C133.334 35.3568 133.022 36.1104 132.466 36.6661C131.911 37.2218 131.157 37.5339 130.371 37.5339H121.482C120.696 37.5339 119.943 37.2218 119.387 36.6661C118.831 36.1104 118.519 35.3568 118.519 34.571V33.0895ZM74.0749 47.9043C74.0749 47.1185 74.387 46.3648 74.9427 45.8092C75.4984 45.2535 76.252 44.9413 77.0378 44.9413H78.5193C79.3051 44.9413 80.0588 45.2535 80.6144 45.8092C81.1701 46.3648 81.4823 47.1185 81.4823 47.9043V49.3858C81.4823 50.1716 81.1701 50.9252 80.6144 51.4809C80.0588 52.0366 79.3051 52.3487 78.5193 52.3487H77.0378C76.252 52.3487 75.4984 52.0366 74.9427 51.4809C74.387 50.9252 74.0749 50.1716 74.0749 49.3858V47.9043ZM66.6675 55.3117C66.6675 54.5259 66.9796 53.7722 67.5353 53.2166C68.091 52.6609 68.8446 52.3487 69.6304 52.3487H71.1119C71.8977 52.3487 72.6514 52.6609 73.207 53.2166C73.7627 53.7722 74.0749 54.5259 74.0749 55.3117V56.7932C74.0749 57.579 74.387 58.3327 74.9427 58.8883C75.4984 59.444 76.252 59.7561 77.0378 59.7561H78.5193C79.3051 59.7562 80.0588 60.0683 80.6144 60.624C81.1701 61.1796 81.4823 61.9333 81.4823 62.7191V71.608C81.4823 72.3938 81.1701 73.1475 80.6144 73.7031C80.0588 74.2588 79.3051 74.571 78.5193 74.571H77.0378C76.252 74.571 75.4984 74.2588 74.9427 73.7031C74.387 73.1475 74.0749 72.3938 74.0749 71.608V70.1265C74.0749 69.3407 73.7627 68.5871 73.207 68.0314C72.6514 67.4757 71.8977 67.1636 71.1119 67.1636H69.6304C68.8446 67.1636 68.091 66.8514 67.5353 66.2957C66.9796 65.7401 66.6675 64.9864 66.6675 64.2006V55.3117ZM81.4823 55.3117C81.4823 54.5259 81.7944 53.7722 82.3501 53.2166C82.9058 52.6609 83.6594 52.3487 84.4452 52.3487H85.9267C86.7126 52.3487 87.4662 52.6609 88.0219 53.2166C88.5775 53.7722 88.8897 54.5259 88.8897 55.3117V56.7932C88.8897 57.579 88.5775 58.3327 88.0219 58.8883C87.4662 59.444 86.7126 59.7561 85.9267 59.7561H84.4452C83.6594 59.7561 82.9058 59.444 82.3501 58.8883C81.7944 58.3327 81.4823 57.579 81.4823 56.7932V55.3117ZM96.2971 55.3117C96.2971 54.5259 96.6093 53.7722 97.1649 53.2166C97.7206 52.6609 98.4742 52.3487 99.2601 52.3487H100.742C101.527 52.3487 102.281 52.6609 102.837 53.2166C103.392 53.7722 103.705 54.5259 103.705 55.3117V56.7932C103.705 57.579 104.017 58.3327 104.572 58.8883C105.128 59.444 105.882 59.7561 106.667 59.7561H108.149C108.935 59.7562 109.688 60.0683 110.244 60.624C110.8 61.1796 111.112 61.9333 111.112 62.7191V64.2006C111.112 64.9864 110.8 65.7401 110.244 66.2957C109.688 66.8514 108.935 67.1636 108.149 67.1636H106.667C105.882 67.1636 105.128 67.4757 104.572 68.0314C104.017 68.5871 103.705 69.3407 103.705 70.1265V71.608C103.705 72.3938 103.392 73.1475 102.837 73.7031C102.281 74.2588 101.527 74.571 100.742 74.571H99.2601C98.4742 74.571 97.7206 74.2588 97.1649 73.7031C96.6093 73.1475 96.2971 72.3938 96.2971 71.608V55.3117ZM125.927 55.3117C125.927 54.5259 126.239 53.7722 126.795 53.2166C127.35 52.6609 128.104 52.3487 128.89 52.3487H130.371C131.157 52.3487 131.911 52.6609 132.466 53.2166C133.022 53.7722 133.334 54.5259 133.334 55.3117V56.7932C133.334 57.579 133.022 58.3327 132.466 58.8883C131.911 59.444 131.157 59.7561 130.371 59.7561H128.89C128.104 59.7561 127.35 59.444 126.795 58.8883C126.239 58.3327 125.927 57.579 125.927 56.7932V55.3117ZM118.519 62.7191C118.519 61.9333 118.831 61.1796 119.387 60.624C119.943 60.0683 120.696 59.7562 121.482 59.7561H122.964C123.75 59.7562 124.503 60.0683 125.059 60.624C125.615 61.1796 125.927 61.9333 125.927 62.7191V79.0154C125.927 79.8012 126.239 80.5549 126.795 81.1105C127.35 81.6662 128.104 81.9784 128.89 81.9784H130.371C131.157 81.9784 131.911 81.6662 132.466 81.1105C133.022 80.5549 133.334 79.8012 133.334 79.0154V77.5339C133.334 76.7481 133.646 75.9945 134.202 75.4388C134.758 74.8831 135.511 74.571 136.297 74.571H137.779C138.564 74.571 139.318 74.8831 139.874 75.4388C140.429 75.9945 140.742 76.7481 140.742 77.5339V79.0154C140.742 79.8012 141.054 80.5549 141.609 81.1105C142.165 81.6662 142.919 81.9784 143.704 81.9784H145.186C145.972 81.9784 146.725 81.6662 147.281 81.1105C147.837 80.5549 148.149 79.8012 148.149 79.0154V77.5339C148.149 76.7481 148.461 75.9945 149.017 75.4388C149.572 74.8831 150.326 74.571 151.112 74.571H182.223C183.009 74.571 183.762 74.8831 184.318 75.4388C184.874 75.9945 185.186 76.7481 185.186 77.5339V79.0154C185.186 79.8012 184.874 80.5549 184.318 81.1105C183.762 81.6662 183.009 81.9784 182.223 81.9784H173.334C172.548 81.9784 171.795 82.2905 171.239 82.8462C170.683 83.4019 170.371 84.1555 170.371 84.9413V86.4228C170.371 87.2086 170.683 87.9623 171.239 88.518C171.795 89.0736 172.548 89.3858 173.334 89.3858H182.223C183.009 89.3858 183.762 89.0736 184.318 88.518C184.874 87.9623 185.186 87.2086 185.186 86.4228V84.9413C185.186 84.1555 185.498 83.4019 186.054 82.8462C186.609 82.2905 187.363 81.9784 188.149 81.9784H189.63C190.416 81.9784 191.17 82.2905 191.726 82.8462C192.281 83.4019 192.593 84.1555 192.593 84.9413V101.238C192.593 102.023 192.281 102.777 191.726 103.333C191.17 103.888 190.416 104.201 189.63 104.201H188.149C187.363 104.201 186.609 103.888 186.054 103.333C185.498 102.777 185.186 102.023 185.186 101.238V99.7561C185.186 98.9703 184.874 98.2167 184.318 97.661C183.762 97.1054 183.009 96.7932 182.223 96.7932H165.927C165.141 96.7932 164.387 96.481 163.832 95.9254C163.276 95.3697 162.964 94.6161 162.964 93.8302V92.3487C162.964 91.5629 162.652 90.8093 162.096 90.2536C161.54 89.6979 160.787 89.3858 160.001 89.3858H143.704C142.919 89.3858 142.165 89.6979 141.609 90.2536C141.054 90.8093 140.742 91.5629 140.742 92.3487V93.8302C140.742 94.6161 141.054 95.3697 141.609 95.9254C142.165 96.481 142.919 96.7932 143.704 96.7932H145.186C145.972 96.7932 146.725 97.1054 147.281 97.661C147.837 98.2167 148.149 98.9703 148.149 99.7561V101.238C148.149 102.023 147.837 102.777 147.281 103.333C146.725 103.888 145.972 104.201 145.186 104.201H136.297C135.511 104.201 134.758 104.513 134.202 105.068C133.646 105.624 133.334 106.378 133.334 107.164V108.645C133.334 109.431 133.646 110.185 134.202 110.74C134.758 111.296 135.511 111.608 136.297 111.608H137.779C138.564 111.608 139.318 111.92 139.874 112.476C140.429 113.032 140.742 113.785 140.742 114.571V116.052C140.742 116.838 141.054 117.592 141.609 118.148C142.165 118.703 142.919 119.015 143.704 119.015H152.593C153.379 119.015 154.133 119.328 154.689 119.883C155.244 120.439 155.556 121.193 155.556 121.978V123.46C155.556 124.246 155.869 124.999 156.424 125.555C156.98 126.111 157.733 126.423 158.519 126.423H160.001C160.787 126.423 161.54 126.735 162.096 127.291C162.652 127.846 162.964 128.6 162.964 129.386V160.497C162.964 161.283 162.652 162.036 162.096 162.592C161.54 163.148 160.787 163.46 160.001 163.46H151.112C150.326 163.46 149.572 163.772 149.017 164.328C148.461 164.883 148.149 165.637 148.149 166.423V167.904C148.149 168.69 147.837 169.444 147.281 169.999C146.725 170.555 145.972 170.867 145.186 170.867H143.704C142.919 170.867 142.165 171.179 141.609 171.735C141.054 172.291 140.742 173.044 140.742 173.83V175.312C140.742 176.098 141.054 176.851 141.609 177.407C142.165 177.963 142.919 178.275 143.704 178.275H152.593C153.379 178.275 154.133 177.963 154.689 177.407C155.244 176.851 155.556 176.098 155.556 175.312V173.83C155.556 173.044 155.869 172.291 156.424 171.735C156.98 171.179 157.733 170.867 158.519 170.867H174.816C175.601 170.867 176.355 170.555 176.911 169.999C177.466 169.444 177.779 168.69 177.779 167.904V166.423C177.779 165.637 178.091 164.883 178.646 164.328C179.202 163.772 179.956 163.46 180.742 163.46H189.63C190.416 163.46 191.17 163.772 191.726 164.328C192.281 164.883 192.593 165.637 192.593 166.423V190.127C192.593 190.912 192.281 191.666 191.726 192.222C191.17 192.777 190.416 193.089 189.63 193.089H188.149C187.363 193.089 186.609 192.777 186.054 192.222C185.498 191.666 185.186 190.912 185.186 190.127V188.645C185.186 187.859 184.874 187.106 184.318 186.55C183.762 185.994 183.009 185.682 182.223 185.682H173.334C172.548 185.682 171.795 185.37 171.239 184.814C170.683 184.259 170.371 183.505 170.371 182.719V181.238C170.371 180.452 170.059 179.698 169.503 179.143C168.948 178.587 168.194 178.275 167.408 178.275H165.927C165.141 178.275 164.387 178.587 163.832 179.143C163.276 179.698 162.964 180.452 162.964 181.238V182.719C162.964 183.505 162.652 184.259 162.096 184.814C161.54 185.37 160.787 185.682 160.001 185.682H136.297C135.511 185.682 134.758 185.37 134.202 184.814C133.646 184.259 133.334 183.505 133.334 182.719V181.238C133.334 180.452 133.022 179.698 132.466 179.143C131.911 178.587 131.157 178.275 130.371 178.275H128.89C128.104 178.275 127.35 177.963 126.795 177.407C126.239 176.851 125.927 176.098 125.927 175.312V173.83C125.927 173.044 126.239 172.291 126.795 171.735C127.35 171.179 128.104 170.867 128.89 170.867H130.371C131.157 170.867 131.911 170.555 132.466 169.999C133.022 169.444 133.334 168.69 133.334 167.904V166.423C133.334 165.637 133.022 164.883 132.466 164.328C131.911 163.772 131.157 163.46 130.371 163.46H128.89C128.104 163.46 127.35 163.772 126.795 164.328C126.239 164.883 125.927 165.637 125.927 166.423V167.904C125.927 168.69 125.615 169.444 125.059 169.999C124.503 170.555 123.75 170.867 122.964 170.867H121.482C120.696 170.867 119.943 170.555 119.387 169.999C118.831 169.444 118.519 168.69 118.519 167.904V166.423C118.519 165.637 118.207 164.883 117.651 164.328C117.096 163.772 116.342 163.46 115.556 163.46H114.075C113.289 163.46 112.535 163.148 111.98 162.592C111.424 162.036 111.112 161.283 111.112 160.497V159.015C111.112 158.23 111.424 157.476 111.98 156.92C112.535 156.365 113.289 156.052 114.075 156.052H115.556C116.342 156.052 117.096 155.74 117.651 155.185C118.207 154.629 118.519 153.875 118.519 153.089V151.608C118.519 150.822 118.831 150.069 119.387 149.513C119.943 148.957 120.696 148.645 121.482 148.645H122.964C123.75 148.645 124.503 148.333 125.059 147.777C125.615 147.222 125.927 146.468 125.927 145.682V136.793C125.927 136.007 125.615 135.254 125.059 134.698C124.503 134.142 123.75 133.83 122.964 133.83H121.482C120.696 133.83 119.943 134.142 119.387 134.698C118.831 135.254 118.519 136.007 118.519 136.793V138.275C118.519 139.061 118.207 139.814 117.651 140.37C117.096 140.925 116.342 141.238 115.556 141.238H114.075C113.289 141.238 112.535 140.925 111.98 140.37C111.424 139.814 111.112 139.061 111.112 138.275V136.793C111.112 136.007 110.8 135.254 110.244 134.698C109.688 134.142 108.935 133.83 108.149 133.83H106.667C105.882 133.83 105.128 133.518 104.572 132.962C104.017 132.407 103.705 131.653 103.705 130.867V129.386C103.705 128.6 104.017 127.846 104.572 127.291C105.128 126.735 105.882 126.423 106.667 126.423H108.149C108.935 126.423 109.688 126.111 110.244 125.555C110.8 124.999 111.112 124.246 111.112 123.46V121.978C111.112 121.193 111.424 120.439 111.98 119.883C112.535 119.328 113.289 119.015 114.075 119.015H115.556C116.342 119.015 117.096 119.328 117.651 119.883C118.207 120.439 118.519 121.193 118.519 121.978V123.46C118.519 124.246 118.831 124.999 119.387 125.555C119.943 126.111 120.696 126.423 121.482 126.423H130.371C131.157 126.423 131.911 126.111 132.466 125.555C133.022 124.999 133.334 124.246 133.334 123.46V121.978C133.334 121.193 133.022 120.439 132.466 119.883C131.911 119.328 131.157 119.015 130.371 119.015H121.482C120.696 119.015 119.943 118.703 119.387 118.148C118.831 117.592 118.519 116.838 118.519 116.052V114.571C118.519 113.785 118.207 113.032 117.651 112.476C117.096 111.92 116.342 111.608 115.556 111.608H114.075C113.289 111.608 112.535 111.296 111.98 110.74C111.424 110.185 111.112 109.431 111.112 108.645V107.164C111.112 106.378 111.424 105.624 111.98 105.068C112.535 104.513 113.289 104.201 114.075 104.201H115.556C116.342 104.201 117.096 103.888 117.651 103.333C118.207 102.777 118.519 102.023 118.519 101.238V99.7561C118.519 98.9703 118.831 98.2167 119.387 97.661C119.943 97.1054 120.696 96.7932 121.482 96.7932H130.371C131.157 96.7932 131.911 96.481 132.466 95.9254C133.022 95.3697 133.334 94.6161 133.334 93.8302V92.3487C133.334 91.5629 133.022 90.8093 132.466 90.2536C131.911 89.6979 131.157 89.3858 130.371 89.3858H121.482C120.696 89.3858 119.943 89.0736 119.387 88.518C118.831 87.9623 118.519 87.2086 118.519 86.4228V84.9413C118.519 84.1555 118.207 83.4019 117.651 82.8462C117.096 82.2905 116.342 81.9784 115.556 81.9784H114.075C113.289 81.9784 112.535 82.2905 111.98 82.8462C111.424 83.4019 111.112 84.1555 111.112 84.9413V86.4228C111.112 87.2086 110.8 87.9623 110.244 88.518C109.688 89.0736 108.935 89.3858 108.149 89.3858H99.2601C98.4742 89.3858 97.7206 89.0736 97.1649 88.518C96.6093 87.9623 96.2971 87.2086 96.2971 86.4228V84.9413C96.2971 84.1555 96.6093 83.4019 97.1649 82.8462C97.7206 82.2905 98.4742 81.9784 99.2601 81.9784H100.742C101.527 81.9784 102.281 81.6662 102.837 81.1105C103.392 80.5549 103.705 79.8012 103.705 79.0154V77.5339C103.705 76.7481 104.017 75.9945 104.572 75.4388C105.128 74.8831 105.882 74.571 106.667 74.571H115.556C116.342 74.571 117.096 74.2588 117.651 73.7031C118.207 73.1475 118.519 72.3938 118.519 71.608V62.7191ZM133.334 136.793C133.334 136.007 133.646 135.254 134.202 134.698C134.758 134.142 135.511 133.83 136.297 133.83H152.593C153.379 133.83 154.133 134.142 154.689 134.698C155.244 135.254 155.556 136.007 155.556 136.793V153.089C155.556 153.875 155.244 154.629 154.689 155.185C154.133 155.74 153.379 156.052 152.593 156.052H136.297C135.511 156.052 134.758 155.74 134.202 155.185C133.646 154.629 133.334 153.875 133.334 153.089V136.793ZM7.4082 70.1265C7.4082 69.3407 7.72037 68.5871 8.27603 68.0314C8.8317 67.4757 9.58534 67.1636 10.3712 67.1636H19.2601C20.0459 67.1636 20.7995 67.4757 21.3552 68.0314C21.9108 68.5871 22.223 69.3407 22.223 70.1265V71.608C22.223 72.3938 21.9108 73.1475 21.3552 73.7031C20.7995 74.2588 20.0459 74.571 19.2601 74.571H10.3712C9.58534 74.571 8.8317 74.2588 8.27603 73.7031C7.72037 73.1475 7.4082 72.3938 7.4082 71.608V70.1265ZM29.6304 70.1265C29.6304 69.3407 29.9426 68.5871 30.4983 68.0314C31.0539 67.4757 31.8076 67.1636 32.5934 67.1636H41.4823C42.2681 67.1636 43.0217 67.4757 43.5774 68.0314C44.1331 68.5871 44.4452 69.3407 44.4452 70.1265V71.608C44.4452 72.3938 44.1331 73.1475 43.5774 73.7031C43.0217 74.2588 42.2681 74.571 41.4823 74.571H32.5934C31.8076 74.571 31.0539 74.2588 30.4983 73.7031C29.9426 73.1475 29.6304 72.3938 29.6304 71.608V70.1265ZM51.8526 70.1265C51.8526 69.3407 52.1648 68.5871 52.7205 68.0314C53.2761 67.4757 54.0298 67.1636 54.8156 67.1636H56.2971C57.0829 67.1636 57.8366 67.4757 58.3922 68.0314C58.9479 68.5871 59.2601 69.3407 59.2601 70.1265V71.608C59.2601 72.3938 58.9479 73.1475 58.3922 73.7031C57.8366 74.2588 57.0829 74.571 56.2971 74.571H54.8156C54.0298 74.571 53.2761 74.2588 52.7205 73.7031C52.1648 73.1475 51.8526 72.3938 51.8526 71.608V70.1265ZM140.742 70.1265C140.742 69.3407 141.054 68.5871 141.609 68.0314C142.165 67.4757 142.919 67.1636 143.704 67.1636H145.186C145.972 67.1636 146.725 67.4757 147.281 68.0314C147.837 68.5871 148.149 69.3407 148.149 70.1265V71.608C148.149 72.3938 147.837 73.1475 147.281 73.7031C146.725 74.2588 145.972 74.571 145.186 74.571H143.704C142.919 74.571 142.165 74.2588 141.609 73.7031C141.054 73.1475 140.742 72.3938 140.742 71.608V70.1265ZM185.186 70.1265C185.186 69.3407 185.498 68.5871 186.054 68.0314C186.609 67.4757 187.363 67.1636 188.149 67.1636H189.63C190.416 67.1636 191.17 67.4757 191.726 68.0314C192.281 68.5871 192.593 69.3407 192.593 70.1265V71.608C192.593 72.3938 192.281 73.1475 191.726 73.7031C191.17 74.2588 190.416 74.571 189.63 74.571H188.149C187.363 74.571 186.609 74.2588 186.054 73.7031C185.498 73.1475 185.186 72.3938 185.186 71.608V70.1265ZM44.4452 77.5339C44.4452 76.7481 44.7574 75.9945 45.3131 75.4388C45.8687 74.8831 46.6224 74.571 47.4082 74.571H48.8897C49.6755 74.571 50.4292 74.8831 50.9848 75.4388C51.5405 75.9945 51.8526 76.7481 51.8526 77.5339V79.0154C51.8526 79.8012 51.5405 80.5549 50.9848 81.1105C50.4292 81.6662 49.6755 81.9784 48.8897 81.9784H47.4082C46.6224 81.9784 45.8687 81.6662 45.3131 81.1105C44.7574 80.5549 44.4452 79.8012 44.4452 79.0154V77.5339ZM66.6675 77.5339C66.6675 76.7481 66.9796 75.9945 67.5353 75.4388C68.091 74.8831 68.8446 74.571 69.6304 74.571H71.1119C71.8977 74.571 72.6514 74.8831 73.207 75.4388C73.7627 75.9945 74.0749 76.7481 74.0749 77.5339V79.0154C74.0749 79.8012 73.7627 80.5549 73.207 81.1105C72.6514 81.6662 71.8977 81.9784 71.1119 81.9784H69.6304C68.8446 81.9784 68.091 81.6662 67.5353 81.1105C66.9796 80.5549 66.6675 79.8012 66.6675 79.0154V77.5339ZM81.4823 77.5339C81.4823 76.7481 81.7944 75.9945 82.3501 75.4388C82.9058 74.8831 83.6594 74.571 84.4452 74.571H85.9267C86.7126 74.571 87.4662 74.8831 88.0219 75.4388C88.5775 75.9945 88.8897 76.7481 88.8897 77.5339V79.0154C88.8897 79.8012 88.5775 80.5549 88.0219 81.1105C87.4662 81.6662 86.7126 81.9784 85.9267 81.9784H84.4452C83.6594 81.9784 82.9058 81.6662 82.3501 81.1105C81.7944 80.5549 81.4823 79.8012 81.4823 79.0154V77.5339ZM14.8156 84.9413C14.8156 84.1555 15.1278 83.4019 15.6834 82.8462C16.2391 82.2905 16.9927 81.9784 17.7786 81.9784H26.6675C27.4533 81.9784 28.2069 82.2905 28.7626 82.8462C29.3183 83.4019 29.6304 84.1555 29.6304 84.9413V86.4228C29.6304 87.2086 29.3183 87.9623 28.7626 88.518C28.2069 89.0736 27.4533 89.3858 26.6675 89.3858H25.186C24.4002 89.3858 23.6465 89.6979 23.0908 90.2536C22.5352 90.8093 22.223 91.5629 22.223 92.3487V101.238C22.223 102.023 21.9108 102.777 21.3552 103.333C20.7995 103.888 20.0459 104.201 19.2601 104.201H17.7786C16.9927 104.201 16.2391 103.888 15.6834 103.333C15.1278 102.777 14.8156 102.023 14.8156 101.238V84.9413ZM37.0378 84.9413C37.0378 84.1555 37.35 83.4019 37.9057 82.8462C38.4613 82.2905 39.215 81.9784 40.0008 81.9784H41.4823C42.2681 81.9784 43.0217 82.2905 43.5774 82.8462C44.1331 83.4019 44.4452 84.1555 44.4452 84.9413V101.238C44.4452 102.023 44.7574 102.777 45.3131 103.333C45.8687 103.888 46.6224 104.201 47.4082 104.201H48.8897C49.6755 104.201 50.4292 104.513 50.9848 105.068C51.5405 105.624 51.8526 106.378 51.8526 107.164V108.645C51.8526 109.431 51.5405 110.185 50.9848 110.74C50.4292 111.296 49.6755 111.608 48.8897 111.608H47.4082C46.6224 111.608 45.8687 111.92 45.3131 112.476C44.7574 113.032 44.4452 113.785 44.4452 114.571V116.052C44.4452 116.838 44.1331 117.592 43.5774 118.148C43.0217 118.703 42.2681 119.015 41.4823 119.015H32.5934C31.8076 119.015 31.0539 118.703 30.4983 118.148C29.9426 117.592 29.6304 116.838 29.6304 116.052V99.7561C29.6304 98.9703 29.9426 98.2167 30.4983 97.661C31.0539 97.1054 31.8076 96.7932 32.5934 96.7932H34.0749C34.8607 96.7932 35.6143 96.481 36.17 95.9254C36.7257 95.3697 37.0378 94.6161 37.0378 93.8302V84.9413ZM51.8526 84.9413C51.8526 84.1555 52.1648 83.4019 52.7205 82.8462C53.2761 82.2905 54.0298 81.9784 54.8156 81.9784H63.7045C64.4903 81.9784 65.244 82.2905 65.7996 82.8462C66.3553 83.4019 66.6675 84.1555 66.6675 84.9413V86.4228C66.6675 87.2086 66.3553 87.9623 65.7996 88.518C65.244 89.0736 64.4903 89.3858 63.7045 89.3858H54.8156C54.0298 89.3858 53.2761 89.0736 52.7205 88.518C52.1648 87.9623 51.8526 87.2086 51.8526 86.4228V84.9413ZM74.0749 84.9413C74.0749 84.1555 74.387 83.4019 74.9427 82.8462C75.4984 82.2905 76.252 81.9784 77.0378 81.9784H78.5193C79.3051 81.9784 80.0588 82.2905 80.6144 82.8462C81.1701 83.4019 81.4823 84.1555 81.4823 84.9413V86.4228C81.4823 87.2086 81.1701 87.9623 80.6144 88.518C80.0588 89.0736 79.3051 89.3858 78.5193 89.3858H77.0378C76.252 89.3858 75.4984 89.0736 74.9427 88.518C74.387 87.9623 74.0749 87.2086 74.0749 86.4228V84.9413ZM111.112 92.3487C111.112 91.5629 111.424 90.8093 111.98 90.2536C112.535 89.6979 113.289 89.3858 114.075 89.3858H115.556C116.342 89.3858 117.096 89.6979 117.651 90.2536C118.207 90.8093 118.519 91.5629 118.519 92.3487V93.8302C118.519 94.6161 118.207 95.3697 117.651 95.9254C117.096 96.481 116.342 96.7932 115.556 96.7932H114.075C113.289 96.7932 112.535 96.481 111.98 95.9254C111.424 95.3697 111.112 94.6161 111.112 93.8302V92.3487ZM51.8526 99.7561C51.8526 98.9703 52.1648 98.2167 52.7205 97.661C53.2761 97.1054 54.0298 96.7932 54.8156 96.7932H63.7045C64.4903 96.7932 65.244 97.1054 65.7996 97.661C66.3553 98.2167 66.6675 98.9703 66.6675 99.7561V101.238C66.6675 102.023 66.3553 102.777 65.7996 103.333C65.244 103.888 64.4903 104.201 63.7045 104.201H54.8156C54.0298 104.201 53.2761 103.888 52.7205 103.333C52.1648 102.777 51.8526 102.023 51.8526 101.238V99.7561ZM74.0749 99.7561C74.0749 98.9703 74.387 98.2167 74.9427 97.661C75.4984 97.1054 76.252 96.7932 77.0378 96.7932H85.9267C86.7126 96.7932 87.4662 97.1054 88.0219 97.661C88.5775 98.2167 88.8897 98.9703 88.8897 99.7561V108.645C88.8897 109.431 88.5775 110.185 88.0219 110.74C87.4662 111.296 86.7126 111.608 85.9267 111.608H84.4452C83.6594 111.608 82.9058 111.296 82.3501 110.74C81.7944 110.185 81.4823 109.431 81.4823 108.645V107.164C81.4823 106.378 81.1701 105.624 80.6144 105.068C80.0588 104.513 79.3051 104.201 78.5193 104.201H77.0378C76.252 104.201 75.4984 103.888 74.9427 103.333C74.387 102.777 74.0749 102.023 74.0749 101.238V99.7561ZM96.2971 99.7561C96.2971 98.9703 96.6093 98.2167 97.1649 97.661C97.7206 97.1054 98.4742 96.7932 99.2601 96.7932H108.149C108.935 96.7932 109.688 97.1054 110.244 97.661C110.8 98.2167 111.112 98.9703 111.112 99.7561V101.238C111.112 102.023 110.8 102.777 110.244 103.333C109.688 103.888 108.935 104.201 108.149 104.201H106.667C105.882 104.201 105.128 104.513 104.572 105.068C104.017 105.624 103.705 106.378 103.705 107.164V123.46C103.705 124.246 103.392 124.999 102.837 125.555C102.281 126.111 101.527 126.423 100.742 126.423H99.2601C98.4742 126.423 97.7206 126.111 97.1649 125.555C96.6093 124.999 96.2971 124.246 96.2971 123.46V99.7561ZM7.4082 107.164C7.4082 106.378 7.72037 105.624 8.27603 105.068C8.8317 104.513 9.58534 104.201 10.3712 104.201H11.8526C12.6385 104.201 13.3921 104.513 13.9478 105.068C14.5034 105.624 14.8156 106.378 14.8156 107.164V108.645C14.8156 109.431 15.1278 110.185 15.6834 110.74C16.2391 111.296 16.9927 111.608 17.7786 111.608H19.2601C20.0459 111.608 20.7995 111.92 21.3552 112.476C21.9108 113.032 22.223 113.785 22.223 114.571V116.052C22.223 116.838 21.9108 117.592 21.3552 118.148C20.7995 118.703 20.0459 119.015 19.2601 119.015H17.7786C16.9927 119.015 16.2391 119.328 15.6834 119.883C15.1278 120.439 14.8156 121.193 14.8156 121.978V130.867C14.8156 131.653 14.5034 132.407 13.9478 132.962C13.3921 133.518 12.6385 133.83 11.8526 133.83H10.3712C9.58534 133.83 8.8317 133.518 8.27603 132.962C7.72037 132.407 7.4082 131.653 7.4082 130.867V107.164ZM155.556 107.164C155.556 106.378 155.869 105.624 156.424 105.068C156.98 104.513 157.733 104.201 158.519 104.201H160.001C160.787 104.201 161.54 104.513 162.096 105.068C162.652 105.624 162.964 106.378 162.964 107.164V108.645C162.964 109.431 163.276 110.185 163.832 110.74C164.387 111.296 165.141 111.608 165.927 111.608H174.816C175.601 111.608 176.355 111.296 176.911 110.74C177.466 110.185 177.779 109.431 177.779 108.645V107.164C177.779 106.378 178.091 105.624 178.646 105.068C179.202 104.513 179.956 104.201 180.742 104.201H182.223C183.009 104.201 183.762 104.513 184.318 105.068C184.874 105.624 185.186 106.378 185.186 107.164V108.645C185.186 109.431 185.498 110.185 186.054 110.74C186.609 111.296 187.363 111.608 188.149 111.608H189.63C190.416 111.608 191.17 111.92 191.726 112.476C192.281 113.032 192.593 113.785 192.593 114.571V123.46C192.593 124.246 192.281 124.999 191.726 125.555C191.17 126.111 190.416 126.423 189.63 126.423H188.149C187.363 126.423 186.609 126.111 186.054 125.555C185.498 124.999 185.186 124.246 185.186 123.46V121.978C185.186 121.193 184.874 120.439 184.318 119.883C183.762 119.328 183.009 119.015 182.223 119.015H180.742C179.956 119.015 179.202 119.328 178.646 119.883C178.091 120.439 177.779 121.193 177.779 121.978V123.46C177.779 124.246 178.091 124.999 178.646 125.555C179.202 126.111 179.956 126.423 180.742 126.423H182.223C183.009 126.423 183.762 126.735 184.318 127.291C184.874 127.846 185.186 128.6 185.186 129.386V138.275C185.186 139.061 184.874 139.814 184.318 140.37C183.762 140.925 183.009 141.238 182.223 141.238H173.334C172.548 141.238 171.795 140.925 171.239 140.37C170.683 139.814 170.371 139.061 170.371 138.275V129.386C170.371 128.6 170.059 127.846 169.503 127.291C168.948 126.735 168.194 126.423 167.408 126.423H165.927C165.141 126.423 164.387 126.111 163.832 125.555C163.276 124.999 162.964 124.246 162.964 123.46V121.978C162.964 121.193 162.652 120.439 162.096 119.883C161.54 119.328 160.787 119.015 160.001 119.015H158.519C157.733 119.015 156.98 118.703 156.424 118.148C155.869 117.592 155.556 116.838 155.556 116.052V107.164ZM51.8526 114.571C51.8526 113.785 52.1648 113.032 52.7205 112.476C53.2761 111.92 54.0298 111.608 54.8156 111.608H56.2971C57.0829 111.608 57.8366 111.92 58.3922 112.476C58.9479 113.032 59.2601 113.785 59.2601 114.571V116.052C59.2601 116.838 58.9479 117.592 58.3922 118.148C57.8366 118.703 57.0829 119.015 56.2971 119.015H54.8156C54.0298 119.015 53.2761 118.703 52.7205 118.148C52.1648 117.592 51.8526 116.838 51.8526 116.052V114.571ZM66.6675 114.571C66.6675 113.785 66.9796 113.032 67.5353 112.476C68.091 111.92 68.8446 111.608 69.6304 111.608H71.1119C71.8977 111.608 72.6514 111.92 73.207 112.476C73.7627 113.032 74.0749 113.785 74.0749 114.571V116.052C74.0749 116.838 74.387 117.592 74.9427 118.148C75.4984 118.703 76.252 119.015 77.0378 119.015H85.9267C86.7126 119.015 87.4662 119.328 88.0219 119.883C88.5775 120.439 88.8897 121.193 88.8897 121.978V138.275C88.8897 139.061 88.5775 139.814 88.0219 140.37C87.4662 140.925 86.7126 141.238 85.9267 141.238H84.4452C83.6594 141.238 82.9058 141.55 82.3501 142.105C81.7944 142.661 81.4823 143.415 81.4823 144.201V145.682C81.4823 146.468 81.7944 147.222 82.3501 147.777C82.9058 148.333 83.6594 148.645 84.4452 148.645H85.9267C86.7126 148.645 87.4662 148.333 88.0219 147.777C88.5775 147.222 88.8897 146.468 88.8897 145.682V144.201C88.8897 143.415 89.2019 142.661 89.7575 142.105C90.3132 141.55 91.0668 141.238 91.8526 141.238H100.742C101.527 141.238 102.281 141.55 102.837 142.105C103.392 142.661 103.705 143.415 103.705 144.201V145.682C103.705 146.468 104.017 147.222 104.572 147.777C105.128 148.333 105.882 148.645 106.667 148.645H108.149C108.935 148.645 109.688 148.957 110.244 149.513C110.8 150.069 111.112 150.822 111.112 151.608V153.089C111.112 153.875 110.8 154.629 110.244 155.185C109.688 155.74 108.935 156.052 108.149 156.052H106.667C105.882 156.052 105.128 156.365 104.572 156.92C104.017 157.476 103.705 158.23 103.705 159.015V160.497C103.705 161.283 103.392 162.036 102.837 162.592C102.281 163.148 101.527 163.46 100.742 163.46H99.2601C98.4742 163.46 97.7206 163.148 97.1649 162.592C96.6093 162.036 96.2971 161.283 96.2971 160.497V159.015C96.2971 158.23 95.9849 157.476 95.4293 156.92C94.8736 156.365 94.12 156.052 93.3341 156.052H84.4452C83.6594 156.052 82.9058 156.365 82.3501 156.92C81.7944 157.476 81.4823 158.23 81.4823 159.015V160.497C81.4823 161.283 81.1701 162.036 80.6144 162.592C80.0588 163.148 79.3051 163.46 78.5193 163.46H77.0378C76.252 163.46 75.4984 163.772 74.9427 164.328C74.387 164.883 74.0749 165.637 74.0749 166.423V167.904C74.0749 168.69 73.7627 169.444 73.207 169.999C72.6514 170.555 71.8977 170.867 71.1119 170.867H69.6304C68.8446 170.867 68.091 170.555 67.5353 169.999C66.9796 169.444 66.6675 168.69 66.6675 167.904V159.015C66.6675 158.23 66.9796 157.476 67.5353 156.92C68.091 156.365 68.8446 156.052 69.6304 156.052H71.1119C71.8977 156.052 72.6514 155.74 73.207 155.185C73.7627 154.629 74.0749 153.875 74.0749 153.089V144.201C74.0749 143.415 73.7627 142.661 73.207 142.105C72.6514 141.55 71.8977 141.238 71.1119 141.238H69.6304C68.8446 141.238 68.091 140.925 67.5353 140.37C66.9796 139.814 66.6675 139.061 66.6675 138.275V136.793C66.6675 136.007 66.9796 135.254 67.5353 134.698C68.091 134.142 68.8446 133.83 69.6304 133.83H78.5193C79.3051 133.83 80.0588 133.518 80.6144 132.962C81.1701 132.407 81.4823 131.653 81.4823 130.867V129.386C81.4823 128.6 81.1701 127.846 80.6144 127.291C80.0588 126.735 79.3051 126.423 78.5193 126.423H69.6304C68.8446 126.423 68.091 126.111 67.5353 125.555C66.9796 124.999 66.6675 124.246 66.6675 123.46V114.571ZM22.223 121.978C22.223 121.193 22.5352 120.439 23.0908 119.883C23.6465 119.328 24.4002 119.015 25.186 119.015H26.6675C27.4533 119.015 28.2069 119.328 28.7626 119.883C29.3183 120.439 29.6304 121.193 29.6304 121.978V130.867C29.6304 131.653 29.3183 132.407 28.7626 132.962C28.2069 133.518 27.4533 133.83 26.6675 133.83H25.186C24.4002 133.83 23.6465 133.518 23.0908 132.962C22.5352 132.407 22.223 131.653 22.223 130.867V121.978ZM37.0378 129.386C37.0378 128.6 37.35 127.846 37.9057 127.291C38.4613 126.735 39.215 126.423 40.0008 126.423H56.2971C57.0829 126.423 57.8366 126.735 58.3922 127.291C58.9479 127.846 59.2601 128.6 59.2601 129.386V130.867C59.2601 131.653 58.9479 132.407 58.3922 132.962C57.8366 133.518 57.0829 133.83 56.2971 133.83H40.0008C39.215 133.83 38.4613 133.518 37.9057 132.962C37.35 132.407 37.0378 131.653 37.0378 130.867V129.386ZM140.742 144.201C140.742 143.415 141.054 142.661 141.609 142.105C142.165 141.55 142.919 141.238 143.704 141.238H145.186C145.972 141.238 146.725 141.55 147.281 142.105C147.837 142.661 148.149 143.415 148.149 144.201V145.682C148.149 146.468 147.837 147.222 147.281 147.777C146.725 148.333 145.972 148.645 145.186 148.645H143.704C142.919 148.645 142.165 148.333 141.609 147.777C141.054 147.222 140.742 146.468 140.742 145.682V144.201ZM185.186 144.201C185.186 143.415 185.498 142.661 186.054 142.105C186.609 141.55 187.363 141.238 188.149 141.238H189.63C190.416 141.238 191.17 141.55 191.726 142.105C192.281 142.661 192.593 143.415 192.593 144.201V145.682C192.593 146.468 192.281 147.222 191.726 147.777C191.17 148.333 190.416 148.645 189.63 148.645H188.149C187.363 148.645 186.609 148.333 186.054 147.777C185.498 147.222 185.186 146.468 185.186 145.682V144.201ZM74.0749 173.83C74.0749 173.044 74.387 172.291 74.9427 171.735C75.4984 171.179 76.252 170.867 77.0378 170.867H78.5193C79.3051 170.867 80.0588 171.179 80.6144 171.735C81.1701 172.291 81.4823 173.044 81.4823 173.83V190.127C81.4823 190.912 81.1701 191.666 80.6144 192.222C80.0588 192.777 79.3051 193.089 78.5193 193.089H69.6304C68.8446 193.089 68.091 192.777 67.5353 192.222C66.9796 191.666 66.6675 190.912 66.6675 190.127V181.238C66.6675 180.452 66.9796 179.698 67.5353 179.143C68.091 178.587 68.8446 178.275 69.6304 178.275H71.1119C71.8977 178.275 72.6514 177.963 73.207 177.407C73.7627 176.851 74.0749 176.098 74.0749 175.312V173.83ZM88.8897 173.83C88.8897 173.044 89.2019 172.291 89.7575 171.735C90.3132 171.179 91.0668 170.867 91.8526 170.867H93.3341C94.12 170.867 94.8736 171.179 95.4293 171.735C95.9849 172.291 96.2971 173.044 96.2971 173.83V175.312C96.2971 176.098 95.9849 176.851 95.4293 177.407C94.8736 177.963 94.12 178.275 93.3341 178.275H91.8526C91.0668 178.275 90.3132 177.963 89.7575 177.407C89.2019 176.851 88.8897 176.098 88.8897 175.312V173.83ZM96.2971 188.645C96.2971 187.859 96.6093 187.106 97.1649 186.55C97.7206 185.994 98.4742 185.682 99.2601 185.682H100.742C101.527 185.682 102.281 185.994 102.837 186.55C103.392 187.106 103.705 187.859 103.705 188.645V190.127C103.705 190.912 103.392 191.666 102.837 192.222C102.281 192.777 101.527 193.089 100.742 193.089H99.2601C98.4742 193.089 97.7206 192.777 97.1649 192.222C96.6093 191.666 96.2971 190.912 96.2971 190.127V188.645ZM125.927 188.645C125.927 187.859 126.239 187.106 126.795 186.55C127.35 185.994 128.104 185.682 128.89 185.682H130.371C131.157 185.682 131.911 185.994 132.466 186.55C133.022 187.106 133.334 187.859 133.334 188.645V190.127C133.334 190.912 133.022 191.666 132.466 192.222C131.911 192.777 131.157 193.089 130.371 193.089H128.89C128.104 193.089 127.35 192.777 126.795 192.222C126.239 191.666 125.927 190.912 125.927 190.127V188.645ZM162.964 188.645C162.964 187.859 163.276 187.106 163.832 186.55C164.387 185.994 165.141 185.682 165.927 185.682H167.408C168.194 185.682 168.948 185.994 169.503 186.55C170.059 187.106 170.371 187.859 170.371 188.645V190.127C170.371 190.912 170.059 191.666 169.503 192.222C168.948 192.777 168.194 193.089 167.408 193.089H165.927C165.141 193.089 164.387 192.777 163.832 192.222C163.276 191.666 162.964 190.912 162.964 190.127V188.645Z" fill="#EAC496"/>
<path fill-rule="evenodd" clip-rule="evenodd" d="M15.186 7.9043H51.4823C53.5451 7.9043 55.5234 8.72374 56.982 10.1824C58.4406 11.641 59.2601 13.6193 59.2601 15.6821V51.9784C59.2601 54.0412 58.4406 56.0195 56.982 57.4781C55.5234 58.9367 53.5451 59.7561 51.4823 59.7561H15.186C13.1232 59.7561 11.1449 58.9367 9.68626 57.4781C8.22765 56.0195 7.4082 54.0412 7.4082 51.9784L7.4082 15.6821C7.4082 13.6193 8.22765 11.641 9.68626 10.1824C11.1449 8.72374 13.1232 7.9043 15.186 7.9043ZM20.3712 15.3117H46.2971C47.7705 15.3117 49.1836 15.897 50.2255 16.9389C51.2673 17.9808 51.8526 19.3938 51.8526 20.8673V46.7932C51.8526 48.2666 51.2673 49.6797 50.2255 50.7216C49.1836 51.7634 47.7705 52.3487 46.2971 52.3487H20.3712C18.8977 52.3487 17.4847 51.7634 16.4428 50.7216C15.4009 49.6797 14.8156 48.2666 14.8156 46.7932V20.8673C14.8156 19.3938 15.4009 17.9808 16.4428 16.9389C17.4847 15.897 18.8977 15.3117 20.3712 15.3117ZM25.5564 22.7191H41.1119C41.5496 22.7191 41.9831 22.8053 42.3875 22.9728C42.7919 23.1404 43.1594 23.3859 43.4689 23.6954C43.7785 24.005 44.024 24.3724 44.1915 24.7768C44.359 25.1813 44.4452 25.6147 44.4452 26.0524V41.608C44.4452 42.0457 44.359 42.4792 44.1915 42.8836C44.024 43.288 43.7785 43.6555 43.4689 43.965C43.1594 44.2746 42.7919 44.5201 42.3875 44.6876C41.9831 44.8551 41.5496 44.9413 41.1119 44.9413H25.5564C25.1186 44.9413 24.6852 44.8551 24.2807 44.6876C23.8763 44.5201 23.5089 44.2746 23.1993 43.965C22.8898 43.6555 22.6443 43.288 22.4768 42.8836C22.3092 42.4792 22.223 42.0457 22.223 41.608V26.0524C22.223 25.6147 22.3092 25.1813 22.4768 24.7768C22.6443 24.3724 22.8898 24.005 23.1993 23.6954C23.5089 23.3859 23.8763 23.1404 24.2807 22.9728C24.6852 22.8053 25.1186 22.7191 25.5564 22.7191ZM148.519 7.9043H184.816C186.878 7.9043 188.857 8.72374 190.315 10.1824C191.774 11.641 192.593 13.6193 192.593 15.6821V51.9784C192.593 54.0412 191.774 56.0195 190.315 57.4781C188.857 58.9367 186.878 59.7561 184.816 59.7561H148.519C146.457 59.7561 144.478 58.9367 143.02 57.4781C141.561 56.0195 140.742 54.0412 140.742 51.9784V15.6821C140.742 13.6193 141.561 11.641 143.02 10.1824C144.478 8.72374 146.457 7.9043 148.519 7.9043ZM153.705 15.3117H179.63C181.104 15.3117 182.517 15.897 183.559 16.9389C184.601 17.9808 185.186 19.3938 185.186 20.8673V46.7932C185.186 48.2666 184.601 49.6797 183.559 50.7216C182.517 51.7634 181.104 52.3487 179.63 52.3487H153.705C152.231 52.3487 150.818 51.7634 149.776 50.7216C148.734 49.6797 148.149 48.2666 148.149 46.7932V20.8673C148.149 19.3938 148.734 17.9808 149.776 16.9389C150.818 15.897 152.231 15.3117 153.705 15.3117ZM158.89 22.7191H174.445C175.329 22.7191 176.177 23.0703 176.802 23.6954C177.427 24.3205 177.779 25.1684 177.779 26.0524V41.608C177.779 42.0457 177.692 42.4792 177.525 42.8836C177.357 43.288 177.112 43.6555 176.802 43.965C176.493 44.2746 176.125 44.5201 175.721 44.6876C175.316 44.8551 174.883 44.9413 174.445 44.9413H158.89C158.452 44.9413 158.018 44.8551 157.614 44.6876C157.21 44.5201 156.842 44.2746 156.533 43.965C156.223 43.6555 155.978 43.288 155.81 42.8836C155.643 42.4792 155.556 42.0457 155.556 41.608V26.0524C155.556 25.1684 155.908 24.3205 156.533 23.6954C157.158 23.0703 158.006 22.7191 158.89 22.7191ZM15.186 141.238H51.4823C53.5451 141.238 55.5234 142.057 56.982 143.516C58.4406 144.974 59.2601 146.953 59.2601 149.015V185.312C59.2601 187.375 58.4406 189.353 56.982 190.811C55.5234 192.27 53.5451 193.089 51.4823 193.089H15.186C13.1232 193.089 11.1449 192.27 9.68626 190.811C8.22765 189.353 7.4082 187.375 7.4082 185.312V149.015C7.4082 146.953 8.22765 144.974 9.68626 143.516C11.1449 142.057 13.1232 141.238 15.186 141.238ZM20.3712 148.645H46.2971C47.7705 148.645 49.1836 149.23 50.2255 150.272C51.2673 151.314 51.8526 152.727 51.8526 154.201V180.127C51.8526 181.6 51.2673 183.013 50.2255 184.055C49.1836 185.097 47.7705 185.682 46.2971 185.682H20.3712C18.8977 185.682 17.4847 185.097 16.4428 184.055C15.4009 183.013 14.8156 181.6 14.8156 180.127V154.201C14.8156 152.727 15.4009 151.314 16.4428 150.272C17.4847 149.23 18.8977 148.645 20.3712 148.645ZM25.5564 156.052H41.1119C41.5496 156.052 41.9831 156.139 42.3875 156.306C42.7919 156.474 43.1594 156.719 43.4689 157.029C43.7785 157.338 44.024 157.706 44.1915 158.11C44.359 158.515 44.4452 158.948 44.4452 159.386V174.941C44.4452 175.379 44.359 175.813 44.1915 176.217C44.024 176.621 43.7785 176.989 43.4689 177.298C43.1594 177.608 42.7919 177.853 42.3875 178.021C41.9831 178.188 41.5496 178.275 41.1119 178.275H25.5564C24.6723 178.275 23.8244 177.923 23.1993 177.298C22.5742 176.673 22.223 175.825 22.223 174.941V159.386C22.223 158.948 22.3092 158.515 22.4768 158.11C22.6443 157.706 22.8898 157.338 23.1993 157.029C23.5089 156.719 23.8763 156.474 24.2807 156.306C24.6852 156.139 25.1186 156.052 25.5564 156.052Z" fill="#EAC496"/>
</g>
<defs>
<clipPath id="clip0_1_7329">
<rect y="0.5" width="200" height="200" rx="13.3333" fill="white"/>
</clipPath>
</defs>
</svg>
