<svg width="25" height="25" viewBox="0 0 25 25" fill="none" xmlns="http://www.w3.org/2000/svg">
<path d="M2.08398 9.37565V6.77148C2.08398 4.17773 4.17773 2.08398 6.77148 2.08398H9.37565M15.6257 2.08398H18.2298C20.8236 2.08398 22.9173 4.17773 22.9173 6.77148V9.37565M22.9173 16.6673V18.2298C22.9173 20.8236 20.8236 22.9173 18.2298 22.9173H16.6673M9.37565 22.9173H6.77148C4.17773 22.9173 2.08398 20.8236 2.08398 18.2298V15.6257M10.9382 7.29232V9.37565C10.9382 10.4173 10.4173 10.9382 9.37565 10.9382H7.29232C6.25065 10.9382 5.72982 10.4173 5.72982 9.37565V7.29232C5.72982 6.25065 6.25065 5.72982 7.29232 5.72982H9.37565C10.4173 5.72982 10.9382 6.25065 10.9382 7.29232ZM19.2715 7.29232V9.37565C19.2715 10.4173 18.7507 10.9382 17.709 10.9382H15.6257C14.584 10.9382 14.0632 10.4173 14.0632 9.37565V7.29232C14.0632 6.25065 14.584 5.72982 15.6257 5.72982H17.709C18.7507 5.72982 19.2715 6.25065 19.2715 7.29232ZM10.9382 15.6257V17.709C10.9382 18.7507 10.4173 19.2715 9.37565 19.2715H7.29232C6.25065 19.2715 5.72982 18.7507 5.72982 17.709V15.6257C5.72982 14.584 6.25065 14.0632 7.29232 14.0632H9.37565C10.4173 14.0632 10.9382 14.584 10.9382 15.6257ZM19.2715 15.6257V17.709C19.2715 18.7507 18.7507 19.2715 17.709 19.2715H15.6257C14.584 19.2715 14.0632 18.7507 14.0632 17.709V15.6257C14.0632 14.584 14.584 14.0632 15.6257 14.0632H17.709C18.7507 14.0632 19.2715 14.584 19.2715 15.6257Z" stroke="white" stroke-width="1.5625" stroke-linecap="round" stroke-linejoin="round"/>
</svg>
