<svg width="25" height="25" viewBox="0 0 25 25" fill="none" xmlns="http://www.w3.org/2000/svg">
<path d="M3.55273 22.9173C3.55273 18.8861 7.56315 15.6257 12.5007 15.6257C13.5007 15.6257 14.4694 15.7611 15.3757 16.0111M12.5007 12.5007C13.882 12.5007 15.2067 11.9519 16.1835 10.9752C17.1603 9.99841 17.709 8.67365 17.709 7.29232C17.709 5.91098 17.1603 4.58622 16.1835 3.60947C15.2067 2.63272 13.882 2.08398 12.5007 2.08398C11.1193 2.08398 9.79456 2.63272 8.8178 3.60947C7.84105 4.58622 7.29232 5.91098 7.29232 7.29232C7.29232 8.67365 7.84105 9.99841 8.8178 10.9752C9.79456 11.9519 11.1193 12.5007 12.5007 12.5007Z" stroke="#333333" stroke-width="1.5625" stroke-linecap="round" stroke-linejoin="round"/>
<path d="M20.3027 18.7298H17.1986M18.7507 17.209V20.3236M22.9173 18.7507C22.9173 19.084 22.8757 19.4069 22.7923 19.7194C22.6986 20.1361 22.5319 20.5423 22.3132 20.8965C21.9459 21.5137 21.4243 22.0246 20.7997 22.3789C20.175 22.7333 19.4688 22.9188 18.7507 22.9173C17.7251 22.9203 16.7359 22.5373 15.9798 21.8444C15.6673 21.5736 15.3965 21.2507 15.1882 20.8965C14.7916 20.2511 14.5825 19.5081 14.584 18.7507C14.5833 18.2033 14.6906 17.6612 14.8998 17.1553C15.1089 16.6495 15.4158 16.1899 15.8029 15.8028C16.1899 15.4158 16.6495 15.1089 17.1553 14.8998C17.6612 14.6906 18.2033 14.5833 18.7507 14.584C19.9798 14.584 21.0944 15.1152 21.8444 15.9694C22.5111 16.709 22.9173 17.6882 22.9173 18.7507Z" stroke="#333333" stroke-width="1.5625" stroke-miterlimit="10" stroke-linecap="round" stroke-linejoin="round"/>
</svg>
