<svg width="25" height="25" viewBox="0 0 25 25" fill="none" xmlns="http://www.w3.org/2000/svg">
<path d="M3.55212 22.9173C3.55212 18.8861 7.56254 15.6257 12.5 15.6257C13.5 15.6257 14.4688 15.7611 15.375 16.0111M12.5 12.5007C13.8814 12.5007 15.2061 11.9519 16.1829 10.9752C17.1596 9.99841 17.7084 8.67365 17.7084 7.29232C17.7084 5.91098 17.1596 4.58622 16.1829 3.60947C15.2061 2.63272 13.8814 2.08398 12.5 2.08398C11.1187 2.08398 9.79395 2.63272 8.81719 3.60947C7.84044 4.58622 7.29171 5.91098 7.29171 7.29232C7.29171 8.67365 7.84044 9.99841 8.81719 10.9752C9.79395 11.9519 11.1187 12.5007 12.5 12.5007Z" stroke="white" stroke-width="1.5625" stroke-linecap="round" stroke-linejoin="round"/>
<path d="M20.3019 18.7298H17.1977M18.7498 17.209V20.3236M22.9165 18.7507C22.9165 19.084 22.8748 19.4069 22.7915 19.7194C22.6977 20.1361 22.5311 20.5423 22.3123 20.8965C21.9451 21.5137 21.4235 22.0246 20.7988 22.3789C20.1741 22.7333 19.468 22.9188 18.7498 22.9173C17.7242 22.9203 16.7351 22.5373 15.979 21.8444C15.6665 21.5736 15.3956 21.2507 15.1873 20.8965C14.7908 20.2511 14.5816 19.5081 14.5831 18.7507C14.5825 18.2033 14.6898 17.6612 14.8989 17.1553C15.1081 16.6495 15.415 16.1899 15.802 15.8028C16.189 15.4158 16.6486 15.1089 17.1545 14.8998C17.6603 14.6906 18.2024 14.5833 18.7498 14.584C19.979 14.584 21.0936 15.1152 21.8436 15.9694C22.5102 16.709 22.9165 17.6882 22.9165 18.7507Z" stroke="white" stroke-width="1.5625" stroke-miterlimit="10" stroke-linecap="round" stroke-linejoin="round"/>
</svg>
