<svg width="17" height="18" viewBox="0 0 17 18" fill="none" xmlns="http://www.w3.org/2000/svg">
<path d="M15.5477 16.0477L13.0796 13.5796M7.57731 14.2269C8.38488 14.2269 9.18455 14.0678 9.93065 13.7588C10.6768 13.4497 11.3547 12.9968 11.9257 12.4257C12.4968 11.8547 12.9497 11.1768 13.2588 10.4306C13.5678 9.68455 13.7269 8.88488 13.7269 8.07731C13.7269 7.26974 13.5678 6.47007 13.2588 5.72397C12.9497 4.97787 12.4968 4.29994 11.9257 3.7289C11.3547 3.15786 10.6768 2.70489 9.93065 2.39584C9.18455 2.0868 8.38488 1.92773 7.57731 1.92773C5.94634 1.92773 4.38217 2.57563 3.2289 3.7289C2.07563 4.88217 1.42773 6.44634 1.42773 8.07731C1.42773 9.70828 2.07563 11.2724 3.2289 12.4257C4.38217 13.579 5.94634 14.2269 7.57731 14.2269Z" stroke="#5C554C" stroke-width="0.970989" stroke-linecap="round" stroke-linejoin="round"/>
</svg>
