<svg width="25" height="25" viewBox="0 0 25 25" fill="none" xmlns="http://www.w3.org/2000/svg">
<path d="M3.12488 9.48893V15.4994C3.12488 17.7077 3.12488 17.7077 5.20821 19.1139L10.9374 22.4264C11.802 22.9264 13.2082 22.9264 14.0624 22.4264L19.7915 19.1139C21.8749 17.7077 21.8749 17.7077 21.8749 15.5098V9.48893C21.8749 7.29102 21.8749 7.29102 19.7915 5.88477L14.0624 2.57227C13.2082 2.07227 11.802 2.07227 10.9374 2.57227L5.20821 5.88477C3.12488 7.29102 3.12488 7.29102 3.12488 9.48893Z" stroke="white" stroke-width="1.5625" stroke-linecap="round" stroke-linejoin="round"/>
<path d="M12.4999 15.625C13.3287 15.625 14.1235 15.2958 14.7096 14.7097C15.2956 14.1237 15.6249 13.3288 15.6249 12.5C15.6249 11.6712 15.2956 10.8763 14.7096 10.2903C14.1235 9.70424 13.3287 9.375 12.4999 9.375C11.6711 9.375 10.8762 9.70424 10.2902 10.2903C9.70412 10.8763 9.37488 11.6712 9.37488 12.5C9.37488 13.3288 9.70412 14.1237 10.2902 14.7097C10.8762 15.2958 11.6711 15.625 12.4999 15.625Z" stroke="white" stroke-width="1.5625" stroke-linecap="round" stroke-linejoin="round"/>
</svg>
