<svg width="25" height="25" viewBox="0 0 25 25" fill="none" xmlns="http://www.w3.org/2000/svg">
<path d="M3.125 9.48893V15.4994C3.125 17.7077 3.125 17.7077 5.20833 19.1139L10.9375 22.4264C11.8021 22.9264 13.2083 22.9264 14.0625 22.4264L19.7917 19.1139C21.875 17.7077 21.875 17.7077 21.875 15.5098V9.48893C21.875 7.29102 21.875 7.29102 19.7917 5.88477L14.0625 2.57227C13.2083 2.07227 11.8021 2.07227 10.9375 2.57227L5.20833 5.88477C3.125 7.29102 3.125 7.29102 3.125 9.48893Z" stroke="#333333" stroke-width="1.5625" stroke-linecap="round" stroke-linejoin="round"/>
<path d="M12.5 15.625C13.3288 15.625 14.1237 15.2958 14.7097 14.7097C15.2958 14.1237 15.625 13.3288 15.625 12.5C15.625 11.6712 15.2958 10.8763 14.7097 10.2903C14.1237 9.70424 13.3288 9.375 12.5 9.375C11.6712 9.375 10.8763 9.70424 10.2903 10.2903C9.70424 10.8763 9.375 11.6712 9.375 12.5C9.375 13.3288 9.70424 14.1237 10.2903 14.7097C10.8763 15.2958 11.6712 15.625 12.5 15.625Z" stroke="#333333" stroke-width="1.5625" stroke-linecap="round" stroke-linejoin="round"/>
</svg>
