<svg width="8530" height="4781" viewBox="0 0 8530 4781" fill="none" xmlns="http://www.w3.org/2000/svg">
<g clip-path="url(#clip0_4_126)">
<path d="M4262.47 4780.45C2850.62 4780.45 1438.76 4780.39 26.91 4781C4.94601 4781.01 -0.00699033 4776.05 0.00100967 4754.09C0.60001 3178.36 0.60001 1602.63 9.66722e-06 26.904C-0.00799033 4.942 4.94601 -0.00399758 26.909 2.42345e-06C2852.57 0.574002 5678.23 0.574002 8503.89 2.42345e-06C8525.86 -0.00399758 8530.81 4.942 8530.8 26.904C8530.2 1602.63 8530.2 3178.36 8530.8 4754.09C8530.81 4776.05 8525.86 4781.01 8503.89 4781C7090.09 4780.39 5676.28 4780.45 4262.47 4780.45Z" fill="#FCFCFC"/>
<path d="M4106.51 4295.02C3815.86 4281.94 3524.92 4282.14 3234.11 4276.14C2941.42 4270.1 2648.74 4262.5 2357.04 4235.19C2304.65 4230.29 2252.16 4225.09 2200.98 4211.85C2190.67 4209.18 2180.64 4205.16 2170.77 4201.06C2163.5 4198.03 2155.97 4193.51 2156.05 4184.7C2156.14 4175.77 2164.13 4171.94 2171.29 4168.7C2208.3 4151.99 2248.37 4147.59 2287.78 4142.41C2500.84 4114.45 2715.35 4105.2 2929.72 4094.56C3021.29 4090.02 3113.03 4088.44 3204.19 4077.41C3209.43 4076.77 3216 4078.93 3221.67 4067.84C3197.49 4065.55 3175.07 4062.17 3152.58 4061.51C2986.72 4056.62 2820.79 4053.48 2654.98 4047.35C2537.12 4043 2418.78 4042.49 2302.28 4019.94C2284.4 4016.48 2257.82 4014.56 2257.22 3995.51C2256.55 3974.53 2283.75 3974.73 2301.05 3970.71C2398.24 3948.09 2497.59 3940.98 2596.5 3931.22C2822.77 3908.89 3049.76 3896.99 3276.81 3886.34C3345.05 3883.14 3413.39 3881.94 3481.68 3879.9C3487.4 3879.72 3493.48 3878.62 3498.17 3883.47C3503.16 3888.93 3519.45 3881.32 3514.85 3897.9C3512.37 3899.96 3509.59 3901.4 3506.49 3902.29C3481 3906.87 3454.79 3899.96 3429.44 3907.28C3426.1 3908.37 3422.72 3909.05 3419.25 3909.55C3277.95 3911.48 3137 3920.84 2995.99 3928.55C2922.09 3930.22 2848.3 3934.83 2774.7 3941.03C2645.67 3951.91 2516.47 3961.55 2388.31 3981.1C2362.62 3985.02 2336.98 3989.18 2311.42 3995.27C2451.1 4015.67 2591.84 4019.26 2732.65 4021.99C2873.07 4024.69 3013.41 4029.12 3153.72 4034.32C3181.98 4043.42 3212.64 4037.64 3240.74 4048.04C3251.57 4052.97 3267.52 4053.1 3267.36 4069.76C3267.2 4085.71 3253.99 4092.68 3241.26 4097.15C3213.84 4106.78 3185.28 4110.41 3156.19 4109.49C3086.99 4113.43 3017.78 4117.25 2948.63 4121.8C2925.58 4123.31 2902.28 4117.56 2879.46 4124.47C2876 4125.47 2872.47 4126.01 2868.9 4126.28C2649.21 4135.84 2429.46 4144.69 2212.12 4183.99C2237.78 4197.58 2265.85 4198.81 2292.95 4200.78C2401.76 4208.69 2510.08 4222.09 2619.19 4227.1C2799.24 4235.36 2979.26 4242.39 3159.52 4245.6C3229.57 4246.85 3299.73 4249.08 3369.87 4250.08C3525.69 4250.97 3681.44 4255.48 3837.24 4257.13C3942.22 4258.24 4047.16 4267.93 4152.35 4267.51C4172.94 4267.43 4193.15 4270.96 4213.08 4275.61C4225.29 4278.45 4240.78 4281.36 4241.45 4296.42C4242.14 4312.21 4226.24 4314.59 4214.34 4317.61C4169.82 4328.9 4124.1 4332.63 4078.65 4338.01C4009.38 4337.73 3941.04 4350.37 3871.86 4352.72C3813.48 4354.7 3755.14 4359.43 3696.75 4362.25C3612.23 4366.33 3528.09 4374.27 3444.33 4386.91C3538.56 4396.48 3632.97 4401.14 3727.11 4408.7C3871.11 4420.27 4015.57 4414.83 4159.51 4424.92C4173.15 4425.87 4186.82 4425.46 4200.48 4425.47C4469.78 4425.68 4739.08 4425.08 5008.38 4425.68C5084.32 4425.01 5160.1 4428.55 5236.23 4421.67C5316.7 4414.39 5397.94 4418 5478.87 4415.02C5645.46 4408.89 5811.82 4399.93 5978.19 4388.15C5775.98 4365.02 5572.73 4359.04 5369.7 4349.62C5359.09 4349.52 5348.45 4349.89 5338 4347.51C5314.38 4340.52 5290.25 4343.95 5266.27 4344.1C5185.95 4337.88 5104.99 4338.28 5025.73 4320.96C5006.98 4317.78 4979.88 4319.09 4979.38 4295.69C4978.87 4271.45 5006.99 4271.42 5024.92 4269.97C5062.59 4266.94 5100.05 4259.58 5138.1 4262.04C5169.46 4261.74 5200.98 4266.11 5232.08 4258.56C5244.68 4255.92 5257.42 4256 5270.19 4256.5C5391.76 4254.07 5513.42 4252.1 5634.83 4247.89C5751.43 4243.85 5868.3 4248.67 5984.65 4238.05C6082.06 4238.35 6179.25 4232.77 6276.48 4227.16C6390.31 4220.59 6503.8 4210.57 6617.02 4197.26C6633.36 4195.34 6649.74 4193.11 6665.51 4184.83C6475.63 4152.96 6284.19 4138.38 6091.86 4133.13C5989.86 4126.94 5887.74 4123.47 5785.73 4117.56C5742 4115.03 5698.16 4114.46 5654.54 4109.91C5620.3 4111.02 5586.46 4107.6 5553.13 4099.98C5534.49 4095.71 5510.07 4094.22 5509.93 4069.1C5509.79 4043.81 5533.82 4041.77 5552.84 4038.49C5597.99 4030.68 5643.91 4029.85 5689.43 4028.07C5767.06 4025.03 5844.93 4029.61 5922.47 4021.88C5955.58 4020.95 5988.71 4021.48 6021.83 4021.62C6160.3 4022.21 6298.09 4013.34 6438.47 3993.75C6377.78 3987.45 6320.7 3979.3 6263.58 3971.61C6167.95 3958.74 6071.6 3954.42 5975.65 3945.49C5870.06 3935.67 5763.82 3935.39 5658.49 3922.43C5644.98 3920.76 5631.24 3921.43 5617.6 3922.61C5512.49 3917.41 5407.37 3912.31 5302.29 3906.59C5261.31 3904.36 5220.3 3906.71 5179.37 3905.07C5144.48 3903.68 5109.33 3903.14 5075.42 3892.83C5069.75 3885.2 5069.64 3879.5 5080.7 3877.71C5243.77 3874.93 5406.5 3884.5 5569.21 3892.63C5705.53 3899.43 5841.74 3908.86 5977.84 3919.22C6122.61 3930.23 6267.59 3940.17 6410.82 3965.72C6425.11 3968.28 6439.16 3972.7 6452.96 3977.34C6461.91 3980.34 6473.64 3983.49 6473.34 3995.06C6473.05 4006.08 6462.03 4010.13 6452.85 4013.24C6406.25 4029.04 6357.64 4033.09 6309.07 4037.08C6116.28 4052.94 5922.82 4046.04 5729.78 4053.93C5723.94 4054.17 5718.11 4054.65 5712.27 4055.02C5656.73 4058.79 5602.49 4076.44 5545.91 4069.13C5542.24 4071.48 5547.08 4077.09 5545.57 4073.48C5544.91 4071.89 5545.25 4070.9 5546.62 4070.8C5571.51 4068.87 5596.7 4066.17 5621.27 4070.32C5669.01 4078.37 5716.63 4086.71 5765.11 4088.73C5917.09 4096.6 6069.12 4103.53 6221.02 4112.62C6370.84 4121.59 6520.87 4129.7 6668.59 4158.94C6687.82 4162.74 6717.79 4163.26 6718.24 4185.67C6718.68 4208.23 6688.94 4209.51 6669.69 4214.04C6573.32 4236.72 6474.62 4240.52 6376.48 4246.9C6092.1 4265.38 5807.32 4273.71 5522.4 4278.96C5373.24 4281.71 5223.99 4284.69 5074.96 4296.54C5132.35 4310.07 5191.11 4312.63 5249.39 4316C5416.91 4325.66 5584.64 4331.76 5752.18 4341.08C5833.9 4345.63 5915.78 4350.07 5996.68 4364.01C6004.35 4365.34 6012.1 4366.68 6019.49 4369.02C6033.47 4373.46 6056.52 4371.91 6055.16 4390.85C6053.92 4408.08 6031.27 4408.3 6016.54 4410.8C5951.02 4421.93 5884.6 4424.4 5818.43 4427.85C5408.05 4449.24 4997.28 4456.38 4586.43 4455.62C4313.19 4455.12 4039.89 4452.09 3766.87 4439.56C3652.99 4434.33 3538.93 4429.45 3426.03 4411.76C3411.73 4409.52 3397.76 4404.96 3383.77 4401C3377.03 4399.1 3370.54 4395.3 3369.98 4387.62C3369.25 4377.77 3377.94 4374.6 3384.95 4372.11C3415.46 4361.31 3447.43 4356.91 3479.35 4353.19C3609.26 4338.06 3739.87 4331.94 3870.36 4324.59C3949.24 4320.14 4028.06 4315.24 4106.48 4305.34C4128.78 4296.49 4152.47 4299.25 4175.95 4297.17C4152.63 4293.75 4129.18 4307.51 4106.51 4295.02Z" fill="#C12E62"/>
<path d="M3515.01 3896.58C3509.4 3892.21 3503.79 3887.84 3498.17 3883.47C3505.39 3879.36 3502.51 3874.38 3499.98 3868.77C3483.24 3831.78 3464.54 3795.65 3453.03 3756.05C3396.19 3789.51 3354.17 3775.25 3328.33 3715.26C3318.17 3691.68 3312.33 3666.51 3314.62 3641.14C3322.94 3548.8 3308.58 3458.76 3292.74 3368.24C3255.39 3154.77 3290.09 2949.67 3370.3 2750.58C3376.03 2736.34 3384.93 2723.13 3385.75 2707.12C3418.94 2700.55 3405.84 2726.27 3409.18 2740.56C3409.31 2746.48 3408.82 2752.7 3405.28 2757.35C3392.71 2773.84 3392.46 2790.96 3401.27 2809.02C3385.77 2869.16 3364.27 2927.54 3353.53 2989.05C3334.87 3095.92 3332.57 3203.21 3340.44 3311.03C3346.83 3390.39 3368.5 3468.02 3366.55 3548.41C3365.91 3574.76 3360.49 3600.55 3360.38 3626.84C3360.28 3652.36 3363.53 3677.25 3372.99 3701.05C3375.77 3706.12 3377.12 3712.64 3382.05 3715.8C3392.94 3722.8 3400.2 3738.17 3416.87 3732.68C3432.11 3727.67 3435.41 3713.86 3438.97 3700.59C3444.27 3680.84 3444.26 3659.89 3452.29 3640.77C3454.95 3634.43 3458.37 3626.68 3465.84 3627.13C3473.49 3627.59 3474.9 3636.15 3477.13 3642.51C3483.31 3660.13 3483.29 3678.91 3487.26 3697.02C3501.63 3762.61 3535.25 3820.29 3560.95 3881.19C3583.67 3926.42 3594.27 3973.7 3582.54 4025.65C3597.89 4020.96 3603.75 4008.98 3612.67 4000.56C3639.06 3957.39 3647.54 3907.75 3645.86 3860.23C3642.44 3762.89 3673.25 3680.51 3733.61 3606.8C3765.46 3569.34 3803.16 3538.61 3844.87 3512.99C3914.58 3470.18 3990.12 3487.03 4037.17 3553.62C4090.06 3628.47 4103.83 3712.01 4095.41 3801.04C4091.25 3819.12 4089.07 3837.61 4087.21 3855.96C4082.15 3905.75 4119.66 3940.46 4169.11 3933.08C4234.62 3923.3 4273.22 3866.03 4265.55 3789.17C4260.45 3738.09 4261.81 3688.13 4283.04 3639.95C4294.88 3613.09 4310.76 3589.92 4337.03 3576.78C4399.79 3545.37 4461.24 3511.97 4521.68 3476.1C4583.83 3439.22 4645.75 3461.21 4680.42 3525.82C4692.92 3549.11 4702.39 3573.66 4706.45 3600C4711.35 3631.75 4717.25 3663.34 4723.89 3694.79C4726.53 3707.25 4730.74 3719.14 4738.11 3729.75C4758.48 3759.06 4789.38 3758.32 4800.21 3725.03C4825.94 3645.94 4883.1 3589.66 4934.8 3529.09C4963.85 3506.81 4984.8 3477.61 5004.63 3447.46C5016.52 3429.39 5030.9 3413.36 5048.12 3400.54C5058.69 3392.67 5071.79 3384.15 5080.94 3403.6C5060.23 3417.31 5060.75 3445.68 5041.73 3460.62C5012.54 3480.77 5002.75 3515.75 4980.09 3541.05C4931.55 3595.26 4881.37 3648.44 4852.01 3716.73C4848.95 3723.84 4845 3730.54 4842.36 3737.91C4822.79 3792.54 4786.39 3807.07 4735.85 3780.45C4729.84 3777.29 4723.92 3773.9 4718.46 3769.78C4703.35 3758.02 4695.76 3741.98 4690.07 3724.04C4678.73 3688.23 4673.08 3650.84 4659.2 3615.79C4650.74 3578.86 4632.09 3547.45 4608.46 3518.17C4595.55 3502.17 4581.39 3497.84 4562.28 3503.72C4501.95 3522.25 4448.93 3554.44 4398.1 3590.76C4393.37 3594.15 4388.94 3597.94 4383.92 3600.98C4311.51 3644.85 4289.61 3693.99 4305.3 3777.32C4307.82 3790.74 4309.5 3804.29 4312.02 3817.72C4314.21 3829.41 4315.01 3841.7 4308.99 3852.1C4274.65 3911.44 4229.82 3958.62 4158.71 3970.84C4104.5 3980.16 4053.26 3937.23 4047.42 3879.71C4046.24 3868.08 4046.76 3856.33 4046.14 3844.61C4051.23 3792.76 4057.47 3740.92 4042.83 3689.53C4049.41 3666.02 4040.24 3647.89 4023.41 3632.21C4013.29 3622.77 4006.11 3611.57 4001.6 3598.23C3986.05 3552.28 3945.92 3531.45 3897.71 3544.19C3874.85 3550.24 3853.78 3560.89 3835.59 3575.71C3803.87 3601.54 3768.29 3626.93 3749.56 3662.05C3725.99 3706.26 3698.05 3750.67 3698.56 3805.33C3699.07 3859.46 3706.55 3914.55 3686.53 3967.33C3681.73 3979.98 3679.19 3993.75 3668.22 4003.22C3651.21 4007.78 3648.37 4022.57 3644.36 4036.57C3633.43 4051.96 3619.55 4063.9 3602.45 4071.78C3562.72 4090.1 3528.68 4066.18 3532.39 4022.64C3533.29 4012.01 3536.95 4001.74 3536.65 3990.96C3538.07 3968.68 3530.06 3948.94 3520.83 3929.3C3516.06 3919.14 3507.57 3909.12 3515.01 3896.58Z" fill="#980A3B"/>
<path d="M3643.94 4031.38C3636.99 4013.61 3640.18 4001.93 3661.95 4001.42C3664.61 4002.64 3667.83 4003.31 3669.74 4005.39C3716.46 4056.19 3777.29 4063.39 3841.5 4062.76C3932.29 4061.87 4023.32 4058.53 4113.85 4063.58C4227.11 4069.89 4339.98 4056.43 4453.02 4062.75C4482.15 4062.17 4511.28 4062.16 4540.41 4062.7C4583.1 4064.51 4625.83 4061.28 4668.48 4063.4C4720.2 4066.38 4771.57 4059.66 4823.13 4057.38C4889.06 4054.46 4938.28 4024.8 4971.83 3968.64C5024.46 3880.55 5075.09 3791.32 5094.87 3689.01C5103.76 3643 5107.18 3596.16 5089.56 3550.76C5083.38 3534.82 5075.96 3520.03 5054.41 3522.28C5039.58 3523.83 5038.66 3513 5040.33 3502.97C5042.94 3487.18 5039.88 3471.89 5038.68 3456.41C5045.5 3445.32 5055.33 3435.7 5056.24 3421.68C5057.21 3406.57 5067.22 3403.58 5079.75 3403.76C5102.19 3395.83 5109.04 3414.5 5116.62 3427.62C5133.87 3457.49 5142.38 3490.89 5147.21 3524.71C5153.96 3572.04 5171.88 3614.69 5196.87 3654.72C5212.83 3680.29 5225.54 3680.89 5241.31 3657.88C5242.39 3651.03 5243.09 3644.14 5241.08 3637.51C5219.95 3568.09 5228.94 3498.81 5241.03 3429.3C5259.08 3325.56 5272.84 3221.52 5270.51 3115.65C5269.02 3048.21 5263.57 2981.55 5250.1 2915.49C5246.61 2898.37 5241.49 2881.41 5242.58 2863.61C5264.42 2810.74 5240.33 2764.26 5218.89 2719.26C5205.59 2691.35 5200.81 2662 5192.32 2633.3C5190.03 2625.56 5189.01 2615.17 5201.92 2613.1C5256.65 2730.15 5296.3 2851.8 5314.35 2980.09C5336.37 3136.58 5324.04 3290.95 5288.43 3444.36C5273.87 3507.04 5263.03 3570.63 5284.75 3634.59C5288.79 3646.48 5288.64 3659.23 5286.27 3672.16C5277.94 3717.5 5240.87 3736.15 5199.05 3716.46C5179.57 3707.28 5168.37 3690.13 5150.76 3671.19C5136.91 3745.7 5104.45 3810.13 5080.71 3877.72C5075.44 3880.03 5074.47 3884.83 5073.73 3889.76C5067.2 3927.99 5041.34 3956.23 5022.92 3988.39C4973.21 4082.42 4895.84 4126.76 4789.03 4122.07C4733.56 4119.63 4677.85 4123.08 4622.33 4121.32C4527.7 4118.32 4433.46 4128 4338.91 4127.99C4260.91 4127.98 4183.04 4114.98 4105.3 4122.31C4016.52 4130.68 3928.22 4117.77 3839.7 4121.62C3808.31 4122.98 3777.42 4117.8 3746.67 4112.89C3712.05 4107.36 3681.73 4092.23 3658.59 4065C3650.43 4055.41 3641.8 4045.63 3643.94 4031.38Z" fill="#790329"/>
<path d="M5201.92 2613.1C5196.77 2645.31 5206.12 2676.16 5220.81 2702.54C5240.5 2737.88 5248.47 2776.19 5260.32 2813.59C5265.72 2830.65 5256.91 2845.69 5249.01 2860.27C5233.86 2856.88 5235.05 2842.71 5231.95 2832.46C5197.01 2717.07 5147.76 2608.14 5086.19 2504.6C5074.65 2485.19 5061.8 2467.13 5045.31 2451.57C5028 2435.21 5015.47 2415.64 5008.81 2392.55C5004.33 2370.49 4990.5 2351.8 4986.04 2329.7C4986.69 2312.36 4995.35 2303.93 5012.98 2305.58C5028.63 2318.18 5029.04 2337.95 5035.33 2354.79C5041.88 2372.3 5049.17 2388.7 5063.48 2401.45C5090.32 2425.37 5111.19 2421.99 5129.07 2390.72C5134.49 2381.24 5136.7 2370.9 5139.07 2360.51C5151.24 2305.51 5131.64 2256.64 5108.97 2208.78C5063.09 2111.91 5011.58 2018.06 4955.07 1926.96C4924.23 1877.23 4896.85 1825.78 4879.32 1769.59C4879.58 1674.85 4846.12 1591.44 4794.59 1513.7C4776.92 1487.06 4758.83 1460.59 4743.34 1432.52C4718.8 1392.92 4705.4 1350.34 4708.34 1303.27C4709.08 1291.36 4704.09 1280.64 4700.1 1269.79C4690.47 1245.6 4683.21 1220.4 4669.68 1197.84C4573.06 1027.72 4493.75 849.704 4426.05 666.31C4409.5 621.479 4391.61 577.091 4368.98 534.813C4364.42 526.298 4359.57 517.508 4362.05 507.09C4369.5 499.066 4372.31 491.045 4367.62 479.546C4363.71 469.946 4360.06 457.608 4375.11 451.847C4435.39 539.502 4463.1 641.653 4501.72 738.802C4565.46 899.179 4642.11 1053.1 4727.25 1202.96C4752.79 1247.92 4772.87 1293.73 4757.49 1347.14C4753.58 1360.72 4759.74 1371.82 4766.44 1382.72C4796 1430.81 4825.84 1478.74 4855.13 1526.99C4894.1 1591.17 4919.37 1659.51 4922.45 1735.7C4924.06 1775.67 4945.58 1809.63 4964.7 1843.51C5030.2 1959.58 5098.76 2074.02 5153.06 2196.05C5176.94 2249.72 5198.71 2303.98 5185.61 2364.93C5178.15 2399.65 5162.75 2429.94 5130.98 2447.39C5115.55 2455.86 5120.76 2462.05 5126.76 2471.77C5154.84 2517.26 5181.83 2563.35 5201.92 2613.1Z" fill="#890234"/>
<path d="M4375.12 451.846C4366.09 465.674 4373.49 476.607 4379.63 489.24C4386.76 503.926 4382.15 512.327 4364.19 504.497C4345.83 501.928 4341.85 484.425 4332.37 473.008C4318.66 456.518 4306.62 438.623 4287.38 427.745C4249.75 406.472 4209.56 417.314 4184.11 456.883C4158.55 496.616 4144.23 541.388 4130.48 586.053C4121.02 616.749 4110.93 647.301 4103.14 678.522C4088.85 724.668 4074.63 770.823 4062.15 817.496C4008.33 1005.73 3955.99 1194.39 3897.33 1381.19C3871.94 1462.02 3844.92 1542.35 3814.45 1621.44C3779.15 1706.73 3746.85 1793.31 3706.14 1876.36C3681.75 1926.14 3652.97 1973.58 3628.9 2023.46C3618.18 2045.68 3609.09 2068.99 3630.65 2090.83C3651.9 2107.24 3672.88 2101.8 3692.79 2088.95C3717.46 2073.02 3737.38 2051.78 3755.1 2028.5C3758.03 2024.65 3760.07 2020.15 3762.98 2016.28C3768.83 2008.48 3775.41 1998.33 3786.01 2002.24C3799.11 2007.07 3791.03 2018.45 3789.65 2027.36C3774.69 2067.21 3751.29 2100.7 3715.89 2125.15C3701.81 2129.49 3689.55 2136.94 3677.98 2146.03C3627.15 2185.96 3573.58 2222.33 3526.47 2267.13C3516.61 2276.51 3504.05 2299.06 3483.64 2278.45C3509.48 2240.21 3546.99 2212.93 3577.27 2178.85C3582.44 2173.04 3588.13 2167.53 3594.28 2162.78C3616 2146.01 3627.94 2133.12 3599.33 2107.31C3567.85 2078.93 3568.42 2039.5 3588.26 2002.33C3631.32 1921.68 3672.3 1840.03 3708.27 1755.94C3797.45 1547.47 3863.36 1331.11 3925.5 1113.52C3980.68 920.274 4034.72 726.7 4089.96 533.467C4100.37 497.045 4114.11 461.674 4135.82 429.914C4188.77 352.481 4276.42 344.196 4342.52 410.978C4354.79 423.376 4367.58 435.579 4375.12 451.846Z" fill="#93053C"/>
<path d="M3483.64 2278.45C3489.92 2280.53 3495.56 2283.93 3502.36 2277.89C3523.93 2258.79 3544.79 2237.68 3567.47 2221.32C3615.4 2186.75 3655.84 2140.52 3713.99 2120.85C3718.1 2136.65 3705.35 2143.09 3696.35 2150.67C3652.71 2187.45 3609.72 2224.88 3570.85 2266.8C3506.47 2327.82 3444.93 2391.15 3408.95 2474.2C3388.14 2522.24 3365.09 2569.95 3372.08 2624.85C3369.21 2666.16 3401.29 2658.15 3424.89 2662.16C3454.23 2696.06 3445.27 2731.06 3404.5 2741.99C3394.4 2732.44 3414.87 2706.46 3385.75 2707.12C3328.23 2684.44 3307.11 2633.17 3324.05 2559.12C3349.11 2449.5 3408.28 2359.41 3483.64 2278.45Z" fill="#A40846"/>
<path d="M5765.12 4088.73C5690.1 4088.98 5615.96 4079.44 5541.72 4069.15C5598.32 4059.54 5655.01 4053.72 5712.27 4055.02C5704.26 4062.86 5694.06 4058.96 5684.81 4060.17C5677.79 4061.08 5667.15 4057.92 5667.57 4069.58C5667.9 4078.73 5677.37 4076.06 5683.57 4077.56C5710.39 4084.03 5738.75 4079.11 5765.12 4088.73Z" fill="#F8D0EB"/>
<path d="M4106.51 4295.02C4131.94 4295.02 4157.36 4295.02 4182.79 4295.02C4157.3 4299.51 4132.69 4309.71 4106.49 4305.34C4106.49 4301.9 4106.5 4298.46 4106.51 4295.02Z" fill="#F183AF"/>
<path d="M5138.31 4270.4C5095.71 4271.61 5053.29 4274.99 5011.18 4281.48C5000.34 4283.15 4983.37 4282.77 4983.74 4296.3C4984.09 4309.24 5001.87 4307.23 5012.18 4311.18C5016.51 4312.85 5021.8 4312.02 5026.66 4312.33C5022.64 4335.76 5011.02 4354.98 4994.02 4371.34C4962.67 4378.56 4931.98 4368.21 4900.9 4368.22C4718.7 4368.25 4536.42 4365 4354.33 4369.52C4250.38 4372.1 4146.29 4376.31 4042.38 4381.43C4029.89 4381.57 4013.17 4388.01 4012.02 4367.07C4010.93 4347.38 4025.68 4333.29 4044.16 4332.31C4055.42 4331.7 4067.05 4335.17 4077.95 4329.73C4131.83 4320.07 4187.67 4320.22 4243.79 4298.42C4216.93 4279.12 4189.1 4279.36 4163.21 4278.11C4079.63 4274.1 3995.82 4274.4 3912.27 4269.86C3790.6 4263.23 3668.79 4268 3547.2 4263.08C3487.84 4260.68 3428.5 4260.62 3369.17 4258.67C3347.84 4250.07 3325.16 4244.92 3305.48 4232.06C3292.29 4223.43 3277.42 4229.11 3263.14 4229.33C3242.79 4229.63 3238.2 4222.37 3247.44 4206.45C3261.68 4201.64 3276.48 4201.97 3290.97 4203.03C3432.79 4213.43 3575.17 4213.14 3716.89 4225.39C3720.77 4225.73 3724.68 4226.03 3728.57 4225.93C3853.36 4222.86 3977.9 4236.27 4102.68 4231.83C4171.02 4229.39 4239.06 4239.65 4307.13 4237.31C4484.48 4231.22 4661.98 4236.35 4839.18 4230.54C4966.72 4226.36 5094.47 4229.93 5221.82 4220.06C5254.65 4217.52 5287.47 4208.96 5320.49 4218.56C5337.67 4233.75 5329.72 4242.62 5312.54 4248.56C5297.35 4253.81 5280.19 4253.43 5267.02 4264.5C5255.53 4264.76 5244.05 4265.03 5232.56 4265.3C5201.45 4272.65 5169.41 4262.95 5138.31 4270.4Z" fill="#FC91B2"/>
<path d="M5020.48 3978.18C5038.23 3948.7 5055.98 3919.23 5073.73 3889.76C5255.35 3898.76 5437.28 3900.87 5618.71 3914.17C5675.73 3913.15 5719.02 3946.4 5763.14 3974.91C5804.24 4001.47 5845.58 4021.37 5895.94 4017.4C5906.04 4016.61 5920.13 4013.97 5923.2 4030.59C5811.51 4034.6 5699.81 4038.4 5588.13 4042.83C5570.76 4043.52 5553.28 4046.07 5536.26 4049.7C5526.34 4051.81 5513.53 4054.65 5513.3 4068.34C5513.06 4082.32 5526.3 4085.02 5535.94 4087.24C5574.52 4096.14 5613.52 4102.84 5653.4 4101.72C5656.44 4109.19 5653.35 4114.94 5648 4119.81C5641.51 4125.71 5628.28 4127.27 5634.96 4141.28C5640.8 4153.53 5649.35 4161.78 5663.63 4162.8C5674.3 4163.57 5685.05 4162.66 5695.64 4164.29C5703.24 4165.47 5712.42 4166.25 5713.72 4175.8C5715.11 4186.03 5705.91 4188.16 5698.57 4190.19C5683.52 4194.34 5668.29 4198.18 5653.15 4189.98C5617.3 4181.73 5581.48 4187.66 5545.56 4188.9C5418.85 4193.28 5292.2 4201.36 5165.3 4197.44C5160.4 4197.28 5155.62 4196.22 5151.05 4194.56C5134.5 4183.64 5146.2 4176.37 5155.57 4172.5C5196.58 4155.56 5237.16 4137.49 5280.66 4127.11C5310.53 4119.98 5341.24 4113.74 5364.27 4090.57C5390.55 4065.15 5388.83 4054.98 5355.11 4042.64C5299.76 4022.38 5241.49 4016.61 5183.56 4009.97C5141.08 4005.1 5098.64 3999.78 5055.98 3996.35C5042.78 3995.29 5025.85 3996.67 5020.48 3978.18Z" fill="#F98DAD"/>
<path d="M5003.68 4364.34C4988 4336.69 5022.13 4331.05 5026.66 4312.32C5106.08 4328.24 5186.99 4329.01 5267.3 4335.77C5290.51 4342.67 5314.84 4333.8 5338.03 4340.86C5347.56 4341.11 5357.09 4341.37 5366.62 4341.62C5377.16 4360.64 5362.62 4367.35 5349.71 4370.07C5318.21 4376.7 5288.85 4389.67 5258.14 4398.53C5241.28 4403.39 5218.11 4399.77 5213.31 4427.28C5211.82 4435.84 5197.79 4431.46 5189.5 4431.69C5129.53 4433.37 5069.48 4428.96 5009.56 4434.18C4725.6 4434.14 4441.61 4436.05 4157.69 4432.81C4077.88 4431.9 3997.77 4432.99 3918.05 4428.1C3801.59 4420.94 3684.87 4418.37 3568.61 4406.89C3521.32 4402.22 3473.49 4402.79 3426.58 4393.45C3421.31 4392.4 3413.17 4394.47 3413.39 4386.12C3413.56 4379.39 3420.32 4377.63 3426.37 4377.02C3486.29 4370.94 3546.12 4363.89 3606.13 4359.03C3747.67 4347.57 3889.91 4346.39 4031.16 4330.35C4046.58 4328.6 4062.34 4329.86 4077.95 4329.73C4073.06 4335.69 4065.54 4337.19 4059.66 4335.03C4026.69 4322.88 4027.12 4355.13 4018.32 4369.4C4012.83 4378.3 4030.42 4373.66 4037.3 4376.05C4078.08 4371.76 4118.82 4376.74 4159.56 4377.12C4218.98 4377.67 4278.38 4383.47 4337.73 4384.04C4506.63 4385.66 4675.56 4385.77 4844.45 4383.99C4905.62 4383.35 4966.87 4378.45 5028.18 4375.46C5019.3 4372.58 5009.91 4372.25 5003.68 4364.34Z" fill="#F778A0"/>
<path d="M5366.69 4096.04C5344.75 4124.65 5310.56 4126.87 5279.73 4135.62C5247.08 4144.88 5213.71 4153.1 5184.74 4170.56C5171.51 4178.52 5151.65 4170 5144.19 4188.7C5113.84 4205.74 5079.57 4202.23 5047.44 4203.22C4711.22 4213.55 4374.86 4212.22 4038.58 4208.85C3889.63 4207.35 3740.54 4202.97 3591.61 4197.5C3534.17 4195.39 3476.77 4192.84 3419.28 4192.16C3404.61 4191.99 3390.06 4190.28 3376.68 4183.57C3367.55 4175.43 3358.78 4166.93 3356.02 4154.26C3357.43 4150.31 3364.36 4146.94 3358.8 4142.11C3353.68 4137.68 3347.01 4134.74 3340.54 4133.19C3310.83 4126.02 3290.48 4108.93 3279.89 4079.95C3273.27 4061.84 3259.57 4053.31 3240.23 4054.05C3213.29 4047.52 3184.58 4053.3 3158.28 4042.29C3161.17 4025.77 3175.5 4028.78 3185.69 4027.92C3280.49 4019.94 3369.79 3988.86 3460.43 3963.43C3465.12 3962.11 3469.86 3960.84 3474.38 3959.04C3481.46 3956.21 3490.58 3954.44 3489.6 3944.25C3488.75 3935.36 3481.04 3931.74 3473.54 3929.11C3461.61 3924.94 3448.73 3923.46 3437.66 3916.91C3431.9 3913.5 3425.36 3910.18 3427.25 3901.43L3427.39 3901.54C3454.44 3894.4 3482.43 3903.24 3509.52 3896.72C3511.35 3896.47 3513.18 3896.43 3515.01 3896.58C3523.89 3927.59 3550.59 3953.02 3543.96 3988.9C3538.37 4003.7 3524.56 4003.82 3512.38 4005.93C3472.95 4012.75 3433.13 4017.28 3394.14 4026.59C3376.98 4030.69 3360.02 4035.59 3344.96 4044.98C3324.69 4057.63 3324.73 4070.04 3345.4 4081.65C3365.17 4092.77 3387.08 4098.24 3409.26 4102.16C3526.7 4122.88 3645.35 4131.84 3764.23 4138.88C4057.71 4156.27 4351.57 4153.15 4645.16 4148.97C4856.47 4145.96 5068.64 4146.1 5278.17 4108.88C5307.42 4103.69 5335.59 4088.97 5366.69 4096.04Z" fill="#F999B5"/>
<path d="M3240.07 4212.42C3245.23 4222.56 3253.98 4226.38 3264.13 4222.68C3309.08 4206.29 3335.6 4242.58 3369.17 4258.67C3225.91 4259.83 3082.82 4254.18 2939.71 4248.5C2875.47 4245.95 2811.17 4244.53 2746.91 4242.46C2634.08 4238.81 2521.8 4230.2 2409.49 4219.27C2346.67 4213.16 2283.51 4210.32 2221.17 4199.81C2207.46 4197.5 2192.57 4195.91 2177.45 4179.09C2410.07 4136.03 2640.5 4125.87 2871.19 4118.37C2868.71 4141.78 2845.26 4142.09 2832.18 4153.87C2819.93 4159.5 2805.78 4158.77 2790.78 4166.3C2834.28 4180.14 2877.14 4180.57 2919.14 4185.13C3015.85 4195.62 3113.03 4200.12 3210.22 4203.84C3220.79 4204.25 3231.93 4203.3 3240.07 4212.42Z" fill="#F76E9B"/>
<path d="M5659.39 4188.64C5676.83 4189.65 5692.76 4183.84 5714.54 4178.2C5696.56 4167.72 5682.05 4171.86 5668.53 4171.36C5644.45 4170.46 5621.06 4152.38 5617.15 4130.16C5615.37 4119.98 5623.29 4118.5 5629.81 4118.93C5643.09 4119.79 5649.24 4112.5 5653.4 4101.71C5749.38 4106.88 5845.37 4112.1 5941.36 4117.19C5991.85 4119.86 6042.35 4122.29 6092.84 4124.83C6096.22 4135.62 6088.87 4142.68 6081.49 4145.45C6040.75 4160.77 6025.55 4198.83 6003.63 4230.84C5999.17 4237.35 5995.02 4243.48 5987.66 4246.77C5886.65 4255.79 5785.26 4250.45 5684.17 4254.54C5545.15 4260.17 5406.08 4261.58 5267.02 4264.5C5271.44 4242.28 5290.7 4243.96 5306.06 4242.1C5318.52 4240.6 5327.09 4238.75 5325.77 4224C5334.29 4212.75 5346.98 4210.28 5359.56 4210.06C5451.86 4208.47 5542.67 4191 5634.5 4184.44C5643.38 4183.8 5651.88 4182.5 5659.39 4188.64Z" fill="#F779A2"/>
<path d="M3427.25 3901.43C3438.56 3913.75 3454.19 3917.12 3469.34 3918.81C3487.25 3920.8 3500.25 3929.25 3502.59 3945.84C3505.35 3965.4 3486.87 3963.5 3474.39 3967.3C3415.13 3985.36 3353.45 3997.03 3295.7 4016.79C3249.56 4032.58 3201.35 4021.34 3158.28 4042.29C3015.8 4038.25 2873.32 4034.21 2730.84 4030.17C2729.87 4013.29 2744.15 4011.25 2754.74 4005.65C2794.39 3984.7 2837.9 3974.48 2879.98 3960.18C2918.18 3947.18 2954.74 3929.47 2994.19 3919.93C3138.47 3912.08 3282.56 3899.67 3427.25 3901.43Z" fill="#F885A8"/>
<path d="M5987.66 4246.77C5995.37 4220.84 6017.25 4203.22 6027.14 4177.98C6033.32 4162.23 6050.44 4153.19 6066.82 4146.29C6077.47 4141.79 6087.74 4136.29 6092.85 4124.83C6190.07 4125.01 6286.79 4133.78 6383.65 4140.89C6473.65 4147.49 6563.15 4157.71 6652.22 4171.6C6666.03 4173.76 6689.33 4169.92 6690.27 4187.29C6690.82 4197.46 6666.22 4198.08 6652.33 4200.53C6574.83 4214.22 6496.1 4216.43 6418.14 4225.17C6285.63 4240.01 6152.64 4241.37 6019.79 4247.37C6009.11 4247.85 5998.37 4247 5987.66 4246.77Z" fill="#F65994"/>
<path d="M5923.2 4030.59C5908.4 4019.05 5891.23 4025.49 5875.31 4025.2C5844.38 4024.64 5816.5 4017.32 5789.98 4000.66C5748.21 3974.42 5704.56 3951.17 5662.86 3924.83C5648.49 3915.75 5631.28 3925.92 5618.71 3914.16C5703.08 3919.39 5787.46 3924.45 5871.81 3929.89C5933.91 3933.89 5995.97 3938.6 6058.07 3942.6C6181.21 3950.55 6303.47 3966.1 6425.38 3984.71C6432.71 3985.83 6439.65 3989.48 6446.72 3995.86C6273.63 4030.5 6098.49 4031.56 5923.2 4030.59Z" fill="#F66A9D"/>
<path d="M5009.56 4434.18C5024.72 4423.75 5041.79 4429.57 5057.87 4429.29C5107.6 4428.41 5157.35 4428.97 5211.02 4428.97C5192.56 4407.55 5203.61 4402.63 5222.89 4399.06C5266.69 4390.93 5306.62 4368.78 5351.19 4362.68C5361.86 4361.22 5368.19 4353.57 5366.62 4341.62C5483.18 4346.04 5599.81 4348.47 5716.17 4357.65C5782.97 4362.91 5849.92 4366.33 5916.8 4370.61C5949.27 4372.68 5981.31 4377.03 6019.24 4387.31C5978.74 4404.14 5942.4 4399.88 5907.74 4403.94C5853.8 4410.26 5798.95 4408.35 5744.61 4411.81C5574.67 4422.62 5404.56 4426.75 5234.37 4430.91C5159.41 4432.74 5084.5 4433.42 5009.56 4434.18Z" fill="#F76699"/>
<path d="M2994.19 3919.93C2989.54 3924.79 2985.43 3933.12 2980.15 3933.95C2927.07 3942.32 2881.85 3973.3 2829.58 3984.61C2794.05 3992.29 2760.17 4007.25 2730.83 4030.17C2563.63 4035.81 2325.01 4016.32 2282.29 3992.56C2330.21 3978.25 2378.23 3973.58 2425.69 3966.73C2562.1 3947.02 2699.76 3939.38 2836.86 3926.44C2889.05 3921.51 2941.73 3921.94 2994.19 3919.93Z" fill="#F76699"/>
<path d="M2835.96 4147.79C2840.64 4129.54 2864.55 4134.28 2871.19 4118.37C2872.98 4118.07 2874.77 4118.06 2876.57 4118.33C2885.79 4113.69 2896.57 4113.22 2904.62 4117.36C2935.75 4133.31 2966.82 4123.98 2997.89 4119.2C3008.44 4117.58 3018.91 4115.58 3029.53 4116.13C3073.23 4118.4 3116.1 4113.83 3158.14 4101.63C3185.13 4100.66 3211.96 4098.13 3237.81 4089.96C3247.65 4086.85 3259.76 4083.85 3261.88 4071.68C3264.82 4054.84 3244.35 4063.93 3240.23 4054.05C3258.45 4046.25 3276.17 4051.9 3281.26 4068.53C3293.89 4109.84 3328.52 4120.89 3361.9 4134.94C3368.68 4137.8 3379.92 4137.66 3377.31 4148.08C3374.9 4157.74 3363.96 4152.05 3356.99 4153.91C3345.37 4164.92 3331.56 4160.82 3318.16 4159.57C3230.9 4151.37 3143.51 4146.02 3055.83 4145.23C3023.61 4144.94 2992.03 4154.05 2959.7 4150.98C2929.9 4149.45 2900.88 4159.41 2871.01 4156.94C2858.77 4155.93 2845.8 4157.92 2835.96 4147.79Z" fill="#F885A8"/>
<path d="M3158.14 4101.63C3129 4118.35 3098.17 4127.86 3064.08 4124.45C3024.09 4120.44 2985.5 4132.38 2946.11 4135.19C2932.03 4136.19 2916.84 4140.54 2906.27 4125.41C2898.7 4114.58 2886.59 4120.31 2876.57 4118.33C2880.05 4116.78 2883.47 4114.01 2887.01 4113.85C2977.38 4109.61 3067.76 4105.64 3158.14 4101.63Z" fill="#F76E9B"/>
<path d="M5138.31 4270.4C5169.2 4259.02 5201.13 4266.98 5232.55 4265.29C5201.62 4275.75 5169.76 4269.31 5138.31 4270.4Z" fill="#F779A2"/>
<path d="M3509.52 3896.72C3482.67 3907.3 3454.77 3899.88 3427.4 3901.54C3454.32 3892.33 3482.12 3897.88 3509.52 3896.72Z" fill="#F885A8"/>
<path d="M5338.03 4340.86C5314.47 4338.91 5290.21 4346.77 5267.3 4335.77C5290.9 4337.23 5315.06 4330.73 5338.03 4340.86Z" fill="#F76699"/>
<path d="M4452.88 4071.72C4393.5 4071.69 4334.02 4069.53 4274.75 4072.05C4120.37 4078.62 3966.09 4067.49 3811.74 4071.22C3769.86 4072.23 3728.95 4065.64 3693.7 4038.29C3680.18 4027.79 3668.83 4016.93 3661.95 4001.42C3680.99 3972.33 3689.39 3939.72 3690.98 3905.61C3692.38 3875.51 3692.28 3845.24 3691.02 3815.12C3689.74 3784.62 3697.17 3757.39 3707.82 3728.52C3738.96 3644.06 3796.54 3585.12 3874.06 3544.5C3919.63 3520.62 3964.57 3530.2 3996.06 3565.31C4000.46 3570.22 4006.62 3576.4 4006.58 3581.96C4006.44 3606.39 4022.12 3620.71 4037.38 3635.89C4051.31 3649.75 4060.68 3665.07 4048.55 3685.05C4035.69 3684.39 4024.6 3702.03 4014.39 3694.49C4003.35 3686.34 4015.37 3671.07 4014.67 3658.67C4013.23 3633.61 3978.54 3609.26 3949.01 3609.32C3882.22 3609.46 3836.48 3644.37 3798.61 3694.55C3790.31 3705.54 3784.55 3714.8 3796.75 3727.5C3806.27 3737.41 3807.65 3748.63 3788.55 3745.8C3769.12 3742.92 3765.41 3753.29 3763.02 3768.66C3754.34 3824.58 3786.4 3874.68 3839.55 3887.96C3854.88 3891.79 3858.87 3877.62 3868.1 3871.77C3872.91 3868.73 3877.92 3863.6 3883.75 3867.82C3889.58 3872.03 3887.76 3879.08 3884.48 3883.58C3866.53 3908.23 3884.19 3915.46 3902.83 3922.49C3906.48 3923.87 3910.14 3925.22 3913.69 3926.83C3956.82 3946.34 3989.67 3936.27 4017.05 3896.42C4024.19 3886.04 4021.12 3881.16 4011.98 3875.78C4007.2 3872.97 4000.41 3869.42 4002.68 3862.79C4005.53 3854.47 4014.5 3854.89 4020.06 3857.91C4034.79 3865.89 4042.46 3851.14 4053.86 3849.11C4051.41 3881.54 4058.76 3911.33 4080.44 3936.02C4109.1 3968.66 4153.01 3972.81 4200.08 3951.81C4245.9 3931.36 4273.39 3892.71 4300.16 3854.01C4316.82 3829.93 4302.44 3802.31 4296.41 3777.86C4285.5 3733.58 4294.25 3693.72 4312.83 3654.15C4321.9 3634.83 4336.98 3622.04 4354.08 3610.05C4396.8 3580.09 4440.5 3551.72 4486.17 3526.55C4502.06 3517.79 4519.67 3512.06 4536.69 3505.43C4590.24 3484.55 4591.82 3483.47 4625.87 3528.23C4644.9 3553.25 4664.39 3580.07 4664.06 3614.58C4663.32 3615.21 4662.43 3616.5 4661.86 3616.37C4625.05 3608.03 4592.27 3616.01 4558.08 3632.62C4531.96 3645.3 4506.42 3655.22 4495.52 3683.76C4491.43 3694.48 4485.69 3694.84 4477.98 3692.02C4460.49 3685.62 4448.61 3695.26 4435.6 3704.36C4406.58 3724.65 4383.26 3750.72 4361.72 3778.1C4338.42 3807.7 4329.79 3841.54 4342.58 3878.73C4323.1 3885.78 4323.23 3903.32 4320.91 3919.46C4319.54 3928.97 4323.39 3939.71 4317 3947.91C4302.34 3966.74 4289.91 3983.95 4316.27 4004.22C4323.93 4010.11 4315.63 4017.63 4307.89 4015.7C4286.98 4010.48 4280.9 4025.87 4270.33 4042.31C4287.2 4038.34 4301.76 4033.99 4316.52 4037.89C4348.95 4037.65 4381.35 4030.92 4413.66 4040.36C4431.51 4045.57 4448.93 4049.8 4452.88 4071.72Z" fill="#833538"/>
<path d="M4939.54 3532.9C4909.53 3575.95 4868.16 3609.8 4841.29 3655.56C4828.38 3677.55 4817.05 3699.9 4809.66 3724.24C4804.17 3742.33 4793.54 3757.33 4774.39 3759.04C4754.69 3760.81 4739.5 3749.88 4730.07 3731.62C4709.09 3691.05 4708.15 3645.89 4699.83 3602.41C4703.64 3595.54 4707.3 3587.81 4716.89 3589.15C4726.51 3590.49 4727.77 3599.15 4729.67 3606.65C4736.12 3632.24 4735.87 3658.85 4741.29 3684.61C4743.94 3697.2 4745.68 3712.15 4761.39 3712.96C4777.86 3713.82 4776.76 3697.49 4778.48 3687.01C4788.34 3626.86 4815.66 3572.32 4832.68 3514.5C4848.71 3464.85 4857.54 3412.82 4881.55 3365.77C4903.72 3337.04 4912.79 3301.25 4933.28 3271.36C4961.38 3230.38 4988.61 3189.04 5028.45 3158.04C5041.33 3148.01 5049.17 3133.96 5051.81 3118.6C5062.74 3054.97 5097.3 3000.97 5123.59 2943.91C5140.37 2907.48 5151.06 2871.99 5148.24 2831.94C5146.12 2801.93 5149.26 2771.74 5145.58 2741.61C5144.5 2732.83 5137.6 2715.4 5159.93 2720.07C5177.2 2740.88 5183.71 2766.84 5192.88 2791.24C5247.44 2936.53 5269.93 3086.14 5254.03 3241.29C5244.12 3338.07 5234.85 3434.92 5223.94 3531.6C5221.29 3555.1 5226.66 3578.17 5226.73 3601.45C5223.12 3614.09 5225.61 3626.15 5229.6 3638.41C5231.74 3644.98 5231.53 3653.41 5223.49 3655.6C5216.44 3657.52 5210.39 3651.88 5206.87 3645.9C5195.42 3626.5 5187.55 3605.59 5183.49 3583.41C5173.53 3529.02 5170.5 3473.55 5153.98 3420.12C5134.98 3358.66 5131.06 3355.62 5071.93 3381.66C5051.23 3390.78 5032.26 3403.07 5019.83 3422.53C4998.29 3456.24 4969.97 3484.22 4944.79 3514.86C4941.75 3518.55 4923.84 3522.3 4939.54 3532.9Z" fill="#D5376B"/>
<path d="M4452.88 4071.72C4421.44 4040.13 4382.31 4039.97 4342.22 4045.37C4331.67 4046.79 4321.48 4051.87 4312.28 4042.42C4320.02 4032.76 4330.32 4031.98 4341.43 4034.03C4335.78 4032.16 4330.12 4029.95 4329.76 4022.98C4329.43 4016.48 4335.19 4014.4 4339.61 4014.8C4371.35 4017.72 4394.3 3996.45 4421.17 3986.05C4429.6 3982.79 4440.91 3974.35 4446.35 3986.68C4450.34 3995.75 4438.67 4000.92 4431.29 4005.23C4418.87 4012.49 4405.47 4018.04 4389.45 4027.25C4438.32 4038.92 4483.88 4036.28 4529.04 4033.1C4547.46 4031.8 4565.07 4024.07 4563.86 3998.38C4563.03 3980.77 4577.56 3983.41 4586.5 3988.14C4609.03 4000.07 4623.36 3990.63 4636.18 3973.12C4643.79 3962.72 4652.68 3953.27 4665.55 3950.07C4711.76 3938.57 4739.5 3902.44 4771.12 3871.56C4781.5 3861.44 4768.81 3859.63 4764.29 3854.6C4757.19 3846.72 4730.67 3843.43 4757.4 3826.35C4762.45 3823.13 4754.18 3818.88 4752.33 3814.98C4744.34 3798.16 4725.64 3793.35 4713.96 3780.64C4713.3 3774.08 4715.99 3769.52 4722.09 3767C4734.47 3772.23 4746.77 3777.66 4759.24 3782.65C4788.23 3794.24 4824.52 3776.13 4833.32 3746.45C4851.32 3685.7 4886.37 3634.53 4928.21 3588.56C4959.6 3554.06 4990.17 3519.39 5012.74 3478.51C5018.99 3467.18 5028.21 3461.62 5038.68 3456.41C5062.07 3473.18 5045.97 3495.13 5045.84 3515.06C5072.25 3507.55 5086.05 3515.2 5096.46 3544.51C5117.76 3604.46 5111.99 3664.53 5094.89 3724.11C5066.27 3823.78 5017.91 3913.49 4959.06 3998.59C4926.02 4046.36 4878.85 4060.96 4826.63 4064.97C4776.39 4068.83 4726.07 4075.27 4675.42 4071.36C4645.85 4064.42 4617.9 4045.82 4585.31 4064.76C4572.95 4071.94 4555.38 4065.99 4540.9 4071.41C4511.56 4071.51 4482.22 4071.62 4452.88 4071.72Z" fill="#7E3536"/>
<path d="M5366.69 4096.04C5292.19 4118.87 5215.58 4129.19 5138.23 4136.31C4999.66 4149.06 4860.73 4151.3 4721.75 4155.62C4484.61 4163 4247.54 4160.08 4010.49 4157.67C3890.83 4156.45 3770.84 4153.33 3651.54 4141.29C3564.58 4132.51 3477.02 4127.48 3391.56 4107.34C3373.68 4103.13 3356.65 4095.48 3338.96 4090.31C3325.07 4086.25 3317.83 4077.86 3316.31 4063.53C3314.7 4048.41 3325.25 4043.94 3335.94 4038.31C3382.55 4013.72 3434.18 4009.74 3484.73 4001.12C3504.6 3997.73 3525.36 3998.51 3543.96 3988.9C3544.77 3998.59 3543.63 4007.76 3540.89 4017.35C3535.8 4035.15 3538.52 4052.41 3554.47 4064.18C3569.29 4075.12 3584.58 4072.21 3600.9 4064.94C3618.38 4057.15 3627.76 4040.12 3643.94 4031.37C3682.09 4100.42 3748.79 4111.99 3817.34 4111.6C3905.01 4111.11 3992.38 4119.36 4080.3 4114.55C4153.12 4110.57 4226.47 4117.68 4299.57 4117.36C4466.41 4116.62 4633.26 4112.25 4800.07 4113.45C4897.37 4114.15 4965.64 4072.55 5012.49 3990.17C5014.86 3986 5017.81 3982.16 5020.49 3978.17C5054.36 3996.02 5092.16 3989.95 5128.04 3994.92C5196.04 4004.34 5264.76 4008.78 5331.59 4025.8C5341.9 4028.43 5351.97 4032.16 5361.91 4036.01C5376.24 4041.57 5393.62 4045.42 5395.71 4063.94C5397.94 4083.77 5379.14 4087.74 5366.69 4096.04Z" fill="#CB3B6E"/>
<path d="M4839.32 3515.09C4839.87 3529.13 4833.93 3541.47 4828.67 3553.87C4809.39 3599.32 4794.28 3645.87 4785.28 3694.64C4783.35 3705.11 4788.03 3726.29 4766.94 3725.1C4746.51 3723.94 4734.52 3713.2 4733.39 3689.71C4732.1 3662.95 4724.49 3636.53 4722.8 3609.76C4721.11 3583 4709.99 3596.72 4699.83 3602.41C4690.13 3561.4 4678.87 3520.85 4644.89 3492.31C4614.22 3466.55 4575.67 3450.17 4535.42 3476.1C4471.61 3517.2 4404.03 3551.24 4336.83 3586.28C4287.72 3611.89 4278.84 3664.27 4272.27 3713.66C4266.66 3755.85 4276.61 3798.51 4271.88 3841.3C4265.14 3902.28 4196.41 3954.56 4136.76 3941.54C4103.32 3934.24 4079.5 3906.58 4078.9 3870.24C4078.52 3847.29 4081 3824.08 4088.93 3802.01C4101.45 3790.31 4103.66 3774.11 4103.72 3758.98C4103.83 3726.4 4115.91 3695.82 4117.3 3663.58C4117.62 3656.18 4118.31 3645.55 4127.56 3645.19C4136.53 3644.83 4138.22 3655.38 4140.33 3662.61C4151.33 3700.35 4149.2 3739.97 4156.58 3778.27C4159.95 3795.73 4164.05 3812.71 4176.78 3825.98C4182.07 3831.5 4188.05 3838.25 4196.77 3834.21C4203.94 3830.9 4203.58 3822.81 4203.85 3816.15C4205.39 3778.23 4202.68 3740.23 4209.33 3702.39C4213.74 3677.31 4218.83 3652.65 4227.88 3628.88C4245.08 3581.67 4276.96 3548.5 4322.73 3527.75C4343.09 3518.52 4363.49 3509.37 4384.5 3501.91C4422.44 3488.45 4456.88 3469.16 4488.31 3444.12C4503.57 3431.97 4520.7 3422.76 4538.18 3414.18C4547.75 3409.56 4557.16 3404.6 4566.92 3400.39C4629.36 3373.46 4656.64 3381.57 4693.66 3438.03C4696.83 3442.87 4699.9 3447.79 4702.58 3452.91C4716.74 3479.65 4726.31 3508.33 4737.49 3536.35C4751.8 3572.22 4754.31 3572.82 4786.16 3548.99C4797.84 3540.25 4809.68 3531.73 4819.73 3520.93C4824.79 3515.49 4830.22 3508.31 4839.32 3515.09Z" fill="#F04E7F"/>
<path d="M4053.86 3849.11C4045.11 3869.85 4045.11 3869.85 4006.82 3863.05C4038.24 3885.51 4038.25 3885.52 4008.66 3915.35C4003.17 3920.88 3998.38 3927.74 3991.84 3931.47C3969.09 3944.46 3946.48 3965.36 3920.03 3937.32C3917.55 3934.69 3913.19 3933.72 3909.58 3932.26C3863.01 3913.37 3863 3913.38 3881.59 3871.21C3880.79 3871.06 3879.89 3870.58 3879.2 3870.79C3863.05 3875.71 3861.98 3907.31 3843.56 3899.26C3815.65 3887.06 3786.03 3870.93 3767.03 3848.2C3744.89 3821.71 3749.61 3785.09 3757.89 3751.59C3764.79 3723.68 3783.28 3738 3801.72 3741.46C3764.39 3722.22 3780.18 3703.59 3797.04 3683.93C3820.47 3656.59 3844.28 3627.34 3877.74 3614.81C3918.19 3599.65 3962.06 3593.99 4002.47 3619.37C4032.49 3638.23 4024.09 3665.64 4013.86 3696.99C4026.7 3686.47 4032.21 3662.38 4048.55 3685.06C4069.87 3739.11 4059.07 3794.2 4053.86 3849.11Z" fill="#985045"/>
<path d="M4235.96 3626.24C4215.21 3687.79 4210.43 3751.27 4212.44 3815.69C4212.81 3827.53 4217.15 3842.6 4200.25 3847.83C4184.96 3852.56 4176.78 3840.5 4168.86 3831.2C4145.17 3803.42 4145.43 3768.29 4142.85 3734.87C4140.63 3705.93 4135.23 3678 4127.16 3650.04C4129.51 3690.21 4109.84 3727.09 4111.92 3767.37C4112.59 3780.27 4111.46 3800.49 4088.93 3802.01C4092.9 3719.18 4085.58 3639.09 4037.5 3567.38C3986.67 3491.58 3915.82 3476.21 3839.3 3525.31C3802.18 3549.13 3770.71 3579.51 3738.79 3609.45C3661.57 3677.71 3638.31 3767.32 3641.58 3865.37C3643.26 3915.45 3629.06 3961.05 3615.08 4007.42C3613.35 4009.76 3612.01 4012.59 3609.81 4014.37C3598.92 4023.19 3590.41 4043.37 3576.01 4036.71C3565.18 4031.7 3577.83 4014.56 3579.47 4002.8C3585.35 3960.42 3570.41 3922.36 3555.99 3884.11C3557.05 3879.68 3559.83 3876.49 3563.31 3873.79C3574.83 3863.67 3564.83 3853.6 3561.87 3844.84C3549.52 3808.32 3558.08 3778.25 3581.09 3747.59C3609.15 3710.19 3613.69 3663.75 3618.78 3618.51C3620.06 3607.09 3617.87 3595.12 3624.91 3584.76C3682.33 3577.48 3727.54 3545.5 3776.83 3518.26C3815.48 3496.91 3859.59 3475.19 3907.26 3471.3C3917.96 3470.42 3928.53 3469.08 3939.25 3470.94C3959.13 3474.39 3978.52 3484.75 3989.72 3453.04C3995.49 3436.71 4015.64 3446.47 4026.76 3456.85C4054.67 3482.9 4084.24 3510.91 4096.75 3545.69C4117.24 3602.66 4159.65 3613.71 4210.15 3617.54C4219.35 3618.23 4230.29 3614.71 4235.96 3626.24Z" fill="#F5638F"/>
<path d="M4722.09 3767C4720.15 3770.89 4718.21 3774.79 4716.27 3778.68C4713.7 3783.78 4715.44 3791.37 4709.87 3794.39C4678.85 3811.16 4661.45 3843.01 4632.94 3862.83C4613.68 3876.22 4596.42 3880.56 4573.39 3871.77C4524.81 3853.22 4483.33 3822.66 4442.25 3797.97C4444.99 3798.93 4449.26 3803.84 4454.85 3806.49C4469.64 3813.5 4467.19 3822.65 4456.72 3830.73C4432.08 3849.74 4407.08 3868.42 4380.6 3884.77C4366.95 3893.2 4352.69 3892.74 4341.86 3878.25C4320.76 3851.53 4328.06 3803.65 4358.12 3768.94C4382.29 3741.03 4407.69 3714.35 4438 3693.09C4445.62 3687.74 4454.73 3675.68 4462.71 3680.16C4490.25 3695.62 4490.94 3669.07 4501.85 3658.07C4517.64 3642.16 4534.3 3627.52 4558.5 3626.39C4563.27 3626.17 4570.45 3626.68 4572.36 3623.94C4599.56 3585.16 4632.64 3608.5 4664.06 3614.58C4684.3 3644.4 4683.77 3680.77 4694.6 3713.6C4701.13 3733.39 4708.86 3751.27 4722.09 3767Z" fill="#9A5046"/>
<path d="M3404.5 2741.99C3442.55 2710.96 3444.9 2700.34 3421.45 2665.56C3420.6 2661.43 3421.59 2657.6 3424.65 2654.92C3471.29 2614.17 3494.92 2557.07 3529.41 2507.7C3531.64 2504.5 3533.3 2500.92 3535.48 2497.69C3544.69 2484.03 3553.22 2465.27 3572.42 2469.69C3594.48 2474.77 3586.99 2496.7 3587.23 2511.95C3587.75 2544.07 3587.71 2576.15 3584.63 2608.38C3581.74 2638.75 3591.63 2668.11 3618.71 2684.71C3644.54 2700.53 3673.13 2696.49 3699.56 2681.87C3738.42 2660.36 3769.25 2628.63 3801.92 2599.5C3879.93 2529.94 3962.71 2466.45 4046.61 2404.36C4073.56 2384.41 4104.24 2376.3 4137.85 2382.74C4144.56 2384.03 4151.33 2385.63 4155.15 2392.28C4152.8 2400.82 4152.24 2408.15 4161.74 2413.87C4168.47 2417.92 4177.34 2423.09 4170.26 2433.93C4160.34 2439.19 4151.19 2434.76 4142.21 2431.31C4111.8 2419.64 4085.74 2427.26 4060.47 2446.38C3985.11 2503.38 3913.94 2565.35 3842.84 2627.43C3801.82 2663.26 3761.41 2699.58 3712.54 2725.33C3614.05 2777.23 3543.39 2703.97 3537.66 2621.23C3536.45 2603.81 3537.45 2586.28 3537.3 2561.98C3516.01 2617.43 3488.83 2662.58 3462.25 2708.07C3445.71 2736.32 3424.56 2761.75 3411.09 2791.92C3408.85 2796.94 3405.93 2802.69 3398.31 2800.57C3384.65 2799.94 3381.71 2792.68 3386.72 2781.15C3392.43 2768 3398.55 2755.04 3404.5 2741.99Z" fill="#BC1750"/>
<path d="M4939.54 3532.9C4925.21 3526.2 4924.99 3546.04 4907 3545.89C4926.11 3525.58 4937.65 3501.65 4955.05 3488.52C4979.51 3470.08 4994.22 3445.58 5009.44 3422.18C5036.66 3380.3 5081.79 3372.72 5121.48 3354.28C5132.99 3348.92 5136.59 3359.86 5140.56 3367.15C5163.14 3408.56 5171.89 3454.09 5179.34 3499.95C5186.6 3544.62 5186.4 3590.81 5207.59 3632.63C5211.52 3640.38 5213.08 3649.09 5223.34 3651.65C5231.99 3636.55 5204.84 3624.48 5219.9 3609.19C5236.28 3624.48 5245.51 3643.35 5248.07 3665.55C5230.63 3693.04 5209.55 3692.26 5191.65 3662.66C5164.94 3618.48 5144.82 3571.84 5138.15 3519.9C5134.32 3490.06 5125.61 3461.24 5112.24 3434.15C5105.35 3420.18 5097.47 3406.5 5079.75 3403.76C5066.45 3391.6 5057.44 3401.15 5047.4 3409.48C5023.88 3429.01 5006.78 3454.21 4991.29 3479.49C4977.59 3501.86 4958.42 3516.73 4939.54 3532.9Z" fill="#B7194D"/>
<path d="M3368.74 3708.67C3347.15 3675.29 3349 3637.54 3353.5 3601.37C3361.93 3533.59 3353.77 3467.24 3343.48 3400.77C3338.87 3370.97 3333.24 3341.34 3332.51 3311.09C3341.15 3302.87 3341.77 3284.72 3360.29 3288.71C3372.94 3330.69 3372.24 3375.03 3383.22 3417.28C3388.15 3443.3 3399.22 3468.37 3392.12 3496.15C3389.49 3506.43 3400.28 3490.78 3401.29 3498.99C3450.82 3552.83 3439.5 3615.71 3427.54 3678.44C3425.36 3689.89 3419.37 3700.32 3411.22 3709.11C3396.89 3724.58 3382.68 3729.96 3368.74 3708.67Z" fill="#EB6288"/>
<path d="M3356.41 3286.97C3349.64 3296.19 3351.71 3314.16 3332.51 3311.08C3323.63 3243.59 3324.49 3175.71 3329.4 3108.21C3337.07 3002.49 3358.82 2899.41 3398.31 2800.57C3415.5 2767.74 3432.99 2735.1 3456.51 2706.18C3468.6 2701.08 3472.03 2708.67 3474.18 2718.18C3474.75 2727.35 3470.79 2735.17 3466.56 2742.86C3405.28 2854.25 3384 2976.1 3371 3100.56C3365.74 3151.03 3366.71 3201.38 3365.76 3251.82C3365.53 3264.12 3367.85 3277.49 3356.41 3286.97Z" fill="#F886B1"/>
<path d="M3368.74 3708.67C3388.15 3727.17 3400.26 3712.66 3410.53 3698.18C3438.1 3659.31 3433.66 3557.97 3403.08 3519.76C3397.42 3512.69 3399.31 3505.07 3398.24 3497.58C3390.44 3480.09 3403.21 3472.54 3414.94 3466.4C3428.36 3459.38 3439.29 3466.62 3447.53 3477.3C3458.38 3491.38 3462.52 3508.51 3467.5 3525.13C3479.69 3565.83 3485.38 3608.11 3497.42 3648.84C3513.04 3713.94 3535.83 3776.77 3557.82 3839.87C3562.11 3852.17 3571.46 3864.18 3562.68 3878.27C3560.45 3880.22 3558.22 3882.17 3555.99 3884.11C3514.41 3804.24 3475.21 3723.52 3469 3624.02C3449.95 3656.56 3452.74 3686.46 3444.43 3713.34C3436.43 3739.21 3411.98 3755.06 3397.21 3740.79C3387.48 3731.39 3370.22 3726.06 3368.74 3708.67Z" fill="#DC2B63"/>
<path d="M3615.08 4007.42C3619.54 3950.92 3636.61 3896.43 3635.02 3838.36C3634.15 3806.87 3633.45 3772.49 3644.53 3740.65C3663.01 3687.52 3689.03 3640.02 3738.79 3609.45C3726.63 3640.56 3701.76 3663.52 3686.09 3692.78C3665.66 3730.9 3656.43 3770.8 3656.76 3812.75C3657.18 3865.57 3649.66 3917.1 3636.9 3967.91C3633.3 3982.23 3631.37 3999.3 3615.08 4007.42Z" fill="#D82362"/>
<path d="M5248.07 3665.55C5238.49 3646.86 5225 3630.12 5219.9 3609.19C5207.52 3516.72 5226.38 3426.1 5238.09 3335.39C5265.35 3124.27 5247.46 2919.86 5156.56 2724.84C5155.76 2723.12 5155.74 2721.05 5155.35 2719.15C5148.93 2716.1 5144.2 2711.23 5141.25 2704.9C5102.54 2622.02 5053.85 2544.33 5014.42 2461.79C5008.56 2443.62 4996.96 2427.58 4993.8 2408.5C4990.53 2388.71 4997.04 2383.46 5014.61 2390.61C5026.88 2435.12 5068.84 2457.97 5090.83 2495.93C5156.32 2608.95 5211.16 2726.24 5244.52 2852.95C5245.22 2855.6 5247.48 2857.84 5249.01 2860.27C5266.41 2945.99 5278.86 3032.05 5279.86 3119.98C5281.14 3231.4 5265.32 3340.62 5246.66 3449.83C5236.5 3509.35 5227.94 3569.04 5248.69 3628.42C5252.92 3640.51 5252.83 3653.25 5248.07 3665.55Z" fill="#E86C8E"/>
<path d="M4540.9 4071.41C4561.07 4058.77 4585.6 4056.14 4607.22 4048.44C4625.65 4041.88 4656.65 4051.21 4675.43 4071.36C4630.58 4071.38 4585.74 4071.39 4540.9 4071.41Z" fill="#833538"/>
<path d="M5014.62 2390.62C4995.89 2383.74 4996.7 2395.59 5000.37 2406.87C5006.32 2425.14 5013.95 2442.86 5020.87 2460.8C4997.15 2489.06 5004.17 2523.73 5003.09 2555.86C5001.98 2588.92 4997.84 2621.88 4999.07 2655.02C4999.14 2656.95 4999.24 2659.75 4998.08 2660.67C4974.9 2678.88 4972.8 2709.29 4956.84 2731.64C4937.95 2726.78 4945.86 2708.87 4940.16 2697.6C4925.63 2614.14 4899.01 2534.66 4860.61 2455.25C4844.19 2482.24 4834.06 2509.09 4819.92 2533.77C4796.67 2569.76 4772.1 2604.5 4739.38 2632.93C4682.39 2682.44 4616.49 2705.73 4541.19 2702.93C4464.86 2702.56 4400.26 2667.36 4336.35 2631.86C4298.84 2611.03 4261.55 2589.92 4222.95 2571.17C4141.44 2531.58 4063.25 2536.49 3987.27 2586.79C3938.26 2619.24 3896.26 2660.14 3850.22 2696.11C3811.83 2726.11 3773.81 2756.63 3729.51 2778.11C3643.13 2819.99 3575.74 2807.98 3510.66 2738.36C3504.06 2731.31 3498.54 2722.89 3488.39 2720.3C3481.89 2719.68 3475.51 2722.67 3468.98 2721.02C3469.43 2712.21 3464.83 2707.64 3456.51 2706.19C3483.78 2654.66 3513.69 2604.49 3536.03 2550.44C3536.55 2549.19 3539.13 2548.8 3544.7 2546.08C3544.7 2571.66 3544.19 2595.41 3544.8 2619.14C3546.27 2676.18 3584.98 2727.89 3633.9 2734.72C3674.95 2740.45 3709.96 2721.71 3742.48 2699.4C3808.46 2654.11 3863.7 2595.89 3925.64 2545.71C3970.17 2509.63 4014.97 2473.9 4059.45 2437.76C4088.11 2414.47 4118.7 2411.73 4151.8 2427.1C4157.83 2429.91 4164.81 2430.67 4171.35 2432.38C4194.34 2433.3 4210.5 2448.78 4227.93 2460.39C4283.04 2497.11 4334.34 2539.45 4391.76 2572.8C4427.24 2593.41 4463.81 2610.62 4505 2618.29C4574.01 2631.14 4634.67 2611.54 4689.96 2573.17C4760.03 2524.55 4803.84 2454.3 4842.44 2380.16C4859.05 2348.25 4875.74 2315.6 4908.05 2295.89C4945.01 2273.36 4974.99 2285.76 4988.49 2328.31C4970.65 2339.47 4969.54 2316.72 4958.98 2314.28C4968.05 2319.22 4971.29 2333.65 4985.58 2332.03C4987.75 2329.68 4989.76 2329.81 4991.61 2332.4C5000.36 2351.38 5011.89 2369.26 5014.62 2390.62Z" fill="#E14F7F"/>
<path d="M5144.89 2361.6C5145.73 2378.13 5138.31 2391.37 5129.02 2404.34C5110.94 2429.58 5089.51 2432.82 5065.25 2413.74C5031.15 2386.91 5024.37 2347.24 5015.05 2308.68C5008.26 2304.47 5004.02 2298.08 4999.38 2291.74C4969.59 2250.98 4921.09 2246.07 4882.63 2279.29C4852.22 2305.57 4836.07 2341.64 4817.69 2375.76C4785.44 2435.65 4745.71 2488.85 4693.18 2532.63C4666.39 2554.96 4636.15 2569.73 4603.81 2581.01C4592.73 2584.87 4581.04 2587.24 4570.15 2579.53C4566.71 2563.48 4579.76 2561.26 4589.63 2557.09C4602.69 2551.59 4616.67 2547.9 4625.02 2534.99C4700.28 2501.4 4735.87 2435.75 4766.56 2364.44C4789.99 2310.02 4814.69 2255.11 4867.27 2220.42C4879.27 2212.5 4880.01 2201.89 4874.28 2189.79C4863.46 2166.93 4855.71 2142.6 4841.26 2121.48C4822.21 2077.03 4795.69 2036.38 4775.41 1992.55C4759.52 1959.04 4747.66 1924.07 4737.39 1888.5C4733.5 1877.45 4730.83 1866.1 4728.54 1854.65C4725.6 1839.94 4729.01 1828.07 4742.38 1819.36C4759.72 1808.05 4772.08 1792.06 4784.36 1775.43C4814.72 1734.28 4819.25 1692.4 4793.59 1647.57C4787.74 1637.35 4784.82 1625.88 4785.63 1613.91C4786.15 1606.27 4785.87 1596.88 4794.73 1594.29C4803.77 1591.64 4808.77 1599.63 4812.64 1606.25C4833.92 1642.58 4849.24 1681.38 4858.65 1722.41C4864.3 1747.04 4869.65 1771.74 4875.06 1796.4C4884.33 1851.52 4911.41 1898.9 4942.04 1944.03C4986.9 2010.1 5030.55 2076.67 5061.68 2150.58C5073.09 2177.68 5091.94 2200.37 5105.57 2226.14C5122.61 2258.35 5134.67 2292.03 5134.09 2329.02C5133.9 2341.44 5138.64 2351.62 5144.89 2361.6Z" fill="#D53267"/>
<path d="M4675.42 1195.52C4690.84 1216.49 4698.3 1240.84 4705.21 1265.43C4708.76 1283.32 4713.97 1300.76 4713.7 1319.47C4712.88 1376.39 4674.8 1405.09 4621.53 1388.03C4605.1 1382.77 4588.76 1377.26 4571.18 1371.05C4583.57 1389.28 4584 1409.76 4586.4 1429.72C4588.11 1443.84 4583.86 1454.64 4568.67 1458.56C4555.73 1460.51 4546.8 1452.97 4537.44 1445.79C4476.62 1399.16 4430.54 1339.03 4384.25 1279.07C4363.42 1248.56 4344.85 1216.65 4326.25 1184.79C4319.77 1173.69 4308.97 1162.53 4318.13 1147.58C4333.63 1146.12 4339.75 1158.53 4347.85 1167.85C4401.86 1230 4463.85 1282.97 4534.74 1327.84C4411.66 1096.7 4353.02 844.807 4292.52 593.514C4284.93 560.257 4276.86 527.09 4270.31 493.632C4267.67 480.196 4256.93 461.049 4272.84 453.816C4286.23 447.726 4293.21 467.825 4301.69 477.573C4348.26 531.1 4370.38 597.277 4394.89 661.874C4459.31 831.636 4531.87 997.594 4620.16 1156.46C4637.17 1187.07 4650.92 1219.41 4669.45 1253.5C4676.05 1232.39 4659.91 1211.91 4675.42 1195.52Z" fill="#E65081"/>
<path d="M4675.42 1195.52C4669.08 1219.52 4692.91 1244.88 4671.51 1269.57C4660.81 1263.9 4660.45 1252.06 4655.94 1243.43C4619.42 1173.5 4583.72 1103.14 4547.29 1033.16C4471.23 887.019 4414.87 732.489 4354.1 579.859C4335.53 533.216 4306.02 494.433 4270.34 457.848C4280.31 502.667 4290.27 547.486 4300.23 592.305C4294.6 596.845 4287.48 595.821 4284.61 591.076C4269.94 566.837 4242.5 560.656 4221.73 545.18C4202.77 531.056 4198.14 532.517 4194.06 556.54C4182.49 624.672 4173.95 693.231 4168.59 762.211C4160.41 843.218 4167.17 924.705 4159.92 1005.71C4157.42 1010.8 4154.62 1015.52 4147.68 1014.29C4134.77 996.762 4140.89 976.467 4139.36 957.281C4139.95 935.564 4142.34 913.766 4136.8 892.268C4135.12 883.979 4135.1 875.674 4136.59 867.366C4146.79 825.548 4132.44 784.85 4130.82 743.633C4130.81 740.712 4131.29 737.8 4132.13 735.004C4145.43 712.928 4141.86 691.046 4131.06 669.476C4118.28 668.674 4118.31 684.092 4108.65 687.028C4098.17 689.14 4099.51 679.759 4096.54 674.568C4111.61 619.272 4128.45 564.535 4148.6 510.861C4156.15 490.759 4165.57 471.62 4177.31 453.517C4212.83 398.728 4269.24 392.316 4314.5 440.066C4333.07 459.648 4347.75 482.908 4364.2 504.496C4467.67 734.959 4546.12 976.691 4675.42 1195.52Z" fill="#F17798"/>
<path d="M4868.98 1798.95C4855.27 1756.54 4851.56 1711.51 4834.53 1669.89C4824.3 1644.89 4812.94 1620.7 4795.62 1593.63C4790.83 1613.7 4790.54 1628.76 4799.3 1641.99C4847.48 1714.65 4802.58 1778.36 4756.17 1818.18C4735.66 1835.78 4731.79 1848.85 4739.99 1870.67C4742.03 1876.12 4743.65 1881.72 4745.47 1887.25C4693.07 1908.92 4642.33 1903 4592.73 1878.14C4586.1 1855.54 4603.84 1856.79 4616.34 1855.89C4639.59 1854.23 4662.99 1855.18 4685.53 1847.39C4716.25 1836.78 4721.16 1829.82 4714.29 1798.11C4696.16 1714.33 4670.54 1632.74 4640.84 1552.37C4635.58 1538.12 4625.62 1524.61 4631.26 1507.92C4641.4 1495.24 4655.9 1499.33 4668.98 1498.44C4678.63 1497.78 4688.38 1498.36 4697.85 1495.87C4724.35 1488.9 4729.28 1479.28 4719.33 1454.11C4713.98 1440.58 4706.24 1428.13 4701.15 1414.53C4698.61 1407.72 4693.24 1399.03 4702.1 1393.73C4710.17 1388.91 4716.54 1395.93 4722.28 1401.07C4732.37 1410.12 4739.65 1421.95 4750.7 1430.06C4784.25 1483.47 4818.64 1536.29 4847.73 1592.45C4876.76 1648.47 4884.95 1708.28 4885.68 1770C4879.87 1779.51 4889.91 1798.16 4868.98 1798.95Z" fill="#DC4173"/>
<path d="M4569.98 2577.79C4618.35 2577.06 4655.84 2552.39 4692.02 2523.67C4756.12 2472.8 4794.67 2403.32 4832.75 2333.43C4843.99 2312.81 4856.58 2293.59 4873.58 2277.13C4923.58 2228.7 4990.4 2243.44 5015.06 2308.68C5000.84 2310.26 4990.58 2315.74 4991.61 2332.39C4989.7 2332.09 4987.79 2331.89 4985.86 2331.8L4986.13 2332.13C4965.28 2285.42 4931.3 2278.16 4895.66 2314.25C4862.28 2348.05 4844.38 2392.13 4821.8 2432.86C4786.15 2497.14 4740.26 2552.28 4677.62 2590.78C4578.47 2651.73 4480.2 2638.7 4386.25 2578.03C4313.57 2531.1 4242.91 2481.03 4171.35 2432.37C4168.01 2420.6 4156.49 2419.02 4147.98 2413.71C4143.19 2410.72 4137.02 2407.75 4139.51 2401.12C4141.9 2394.78 4149.06 2396.98 4154.36 2396.18C4169.82 2387.17 4182.39 2397.51 4195.21 2402.96C4244 2423.67 4284.46 2457.76 4327.13 2487.92C4395.68 2536.36 4465.82 2577.97 4554.21 2571.63C4560.1 2571.2 4565.73 2573.15 4569.98 2577.79Z" fill="#A80B43"/>
<path d="M4750.7 1430.06C4729.31 1427.71 4721.55 1406.51 4699.84 1391.97C4711.91 1419.74 4718.89 1442.75 4731.28 1462.34C4743.4 1481.51 4733.15 1487.23 4719.78 1495.68C4692.8 1512.73 4663.11 1503.59 4634.62 1505.91C4610.52 1497 4589.69 1482.24 4568.1 1468.78C4564.24 1464.38 4561.2 1459.69 4562.85 1453.42C4577.3 1451.88 4581.42 1445.53 4579.6 1429.96C4576.73 1405.34 4568.35 1382.91 4552.4 1354.88C4583.52 1366 4606.39 1374.6 4629.56 1382.34C4666.52 1394.68 4708.91 1365.55 4710.1 1325.77C4710.69 1305.73 4706.97 1285.55 4705.2 1265.43C4713.45 1275.71 4717.07 1288.05 4716.33 1300.58C4713.53 1347.68 4726 1390.42 4750.7 1430.06Z" fill="#D52F65"/>
<path d="M4868.98 1798.95C4879.56 1792.19 4877.4 1778.08 4885.68 1770C4917.02 1856.64 4968.41 1932.57 5014.27 2011.5C5058.77 2088.09 5099.68 2166.63 5133.87 2248.42C5149.02 2284.64 5157.37 2322.31 5144.88 2361.6C5131 2362.27 5126.08 2355.39 5126.7 2341.93C5129.28 2285.84 5106.42 2239.25 5076.28 2193.27C5051.99 2156.22 5035.52 2114.06 5015.47 2074.21C4983.97 2011.58 4937.65 1958.23 4904.34 1896.63C4887.55 1865.6 4873.57 1834.12 4868.98 1798.95Z" fill="#E2527D"/>
<path d="M3626.89 2097.92C3608 2083.28 3605.64 2064.02 3613.13 2043.19C3618.35 2028.67 3624.59 2014.29 3632.24 2000.93C3698.36 1885.39 3751.15 1763.77 3798.35 1639.55C3800.69 1633.38 3804.4 1627.73 3807.47 1621.84C3834.23 1628.62 3838.3 1634.96 3830.82 1659.42C3825.75 1675.99 3818.2 1691.84 3816.42 1709.33C3803.03 1760.55 3777.49 1806.57 3753.11 1852.9C3735.93 1885.56 3717.12 1917.44 3696.5 1948.18C3691.21 1956.08 3684.93 1964.03 3686.55 1976.62C3701.67 1979.6 3708.71 1967.41 3716.43 1959.12C3747.79 1925.44 3771.22 1886.12 3794.06 1846.47C3799.37 1837.25 3803.13 1826.97 3812.27 1820.43C3824.79 1816.11 3832.98 1807.17 3840.11 1796.32C3844.98 1788.89 3850.11 1775.68 3861.39 1783.22C3870.78 1789.5 3864.95 1801.26 3860.41 1809.71C3842.57 1842.91 3825.28 1876.37 3802.69 1906.85C3788.39 1926.14 3770.62 1943.22 3761.86 1966.34C3759.78 1971.82 3759.7 1977.7 3759 1983.48C3739.37 2025.53 3709.9 2059.9 3675.55 2090.49C3660.89 2103.55 3644.45 2104.23 3626.89 2097.92Z" fill="#F888AC"/>
<path d="M3808.96 1711.69C3807.45 1694.61 3814.24 1678.7 3821.5 1664.94C3832.88 1643.4 3826.16 1631.64 3807.47 1621.84C3848.97 1501.76 3890.4 1381.66 3925.72 1259.55C3968.6 1111.32 4012.16 963.299 4055.43 815.187C4072.53 821.154 4062.87 839.425 4071.25 849.459C4064.89 903.342 4043.91 953.657 4033 1006.45C4030.29 1019.59 4026.42 1032.62 4022.4 1045.5C4017.73 1074.37 4007.22 1101.79 4001.51 1130.4C3995.44 1146.05 3991.19 1162.08 3991.31 1179.06C3939.14 1337.53 3899.48 1499.95 3841.35 1656.52C3834.02 1676.26 3833.89 1701.71 3808.96 1711.69Z" fill="#F99EBE"/>
<path d="M3567.8 2258.79C3604.72 2218.46 3646.71 2183.65 3688.1 2148.18C3697.65 2139.99 3708.25 2132.69 3714 2120.85C3744.82 2095.11 3767.48 2063.2 3784.68 2027.17C3808.84 2028.82 3811.27 2033.22 3806.23 2066.04C3792.31 2109.78 3762.97 2140.74 3725.48 2165.84C3705.57 2179.17 3683.07 2190.12 3670.53 2212.41C3649.45 2231.45 3627.6 2249.4 3600.67 2259.89C3593.41 2261.9 3587.58 2267.32 3580.39 2269.13C3572.39 2271.15 3564.79 2270.98 3567.8 2258.79Z" fill="#EC4C83"/>
<path d="M3796.67 2068.29C3801.88 2051.9 3812.7 2033.88 3784.68 2027.17C3785.23 2020.62 3785.77 2014.06 3786.44 2006.15C3773.51 2007.39 3770.45 2018.01 3765.09 2026.35C3746.58 2055.13 3722.84 2079.01 3694.09 2097.31C3672.39 2111.12 3649.43 2114.63 3626.89 2097.92C3649.93 2099.97 3667.61 2090.4 3683.47 2074.22C3711.35 2045.77 3735.47 2014.65 3755.21 1980.1C3755.69 1971.18 3758.87 1965.76 3769.06 1969.42C3773.98 1977.5 3777.86 1985.49 3787.88 1990.11C3827.14 2008.22 3833.62 2039.21 3806.8 2075.27C3800.99 2076.47 3799.33 2071.65 3796.67 2068.29Z" fill="#DB2B68"/>
<path d="M4066.06 843.907C4048.7 839.451 4067.26 821.693 4055.43 815.187C4069.13 768.314 4082.84 721.441 4096.54 674.569C4100.15 678.37 4103.76 682.17 4107.38 685.97C4109.91 689.074 4111.72 692.687 4111.14 696.621C4104.07 744.688 4087.2 790.25 4074.92 836.989C4073.93 840.739 4069.82 842.603 4066.06 843.907Z" fill="#FA86A6"/>
<path d="M4569.98 2577.79C4478.37 2589.92 4403.52 2551.19 4331.61 2501.08C4275.22 2461.78 4223.72 2413.73 4154.36 2396.18C4120.54 2380.54 4087.9 2385.86 4058.57 2405.83C3987.92 2453.91 3922.7 2509.18 3855.95 2562.42C3807.36 2601.17 3765.81 2648.14 3713.26 2682.31C3680.51 2703.6 3645.98 2712.9 3612.75 2690C3580.87 2668.04 3572.79 2634.36 3578.13 2595.12C3582.56 2562.53 3580.08 2528.96 3580.05 2495.82C3580.04 2487.82 3583.68 2476.59 3571.44 2474C3561.27 2471.85 3555.11 2480.53 3550.54 2487.45C3532.91 2514.19 3515.58 2541.18 3499.42 2568.82C3478.23 2605.06 3456.83 2640.87 3421.45 2665.56C3414.84 2665.66 3407.89 2664.48 3401.67 2666.1C3377.71 2672.34 3365.7 2666.12 3370.26 2639.16C3370.7 2636.54 3366.44 2633.12 3364.35 2630.08C3415.33 2626.53 3424.41 2585.85 3435.89 2548.21C3450.36 2500.73 3467.18 2454.6 3498.12 2414.87C3507.68 2402.6 3518.49 2391.56 3529.4 2380.54C3543.87 2366.61 3561.51 2359.1 3580.89 2355.07C3612.76 2357.41 3636.89 2377.04 3643.21 2409.81C3649.26 2441.18 3654.8 2472.63 3648.49 2505.38C3644.6 2525.55 3638.54 2550.53 3660.94 2564.22C3683.1 2577.76 3702.33 2561.77 3719.38 2549.36C3793.27 2495.58 3876.63 2455.48 3943.72 2391.67C3965.48 2370.97 3993.6 2358.1 4022.84 2348.8C4044.85 2341.8 4066.43 2340.72 4088.99 2345.63C4152.79 2359.54 4211.24 2384.62 4262.57 2425.54C4276.26 2436.46 4290.5 2446.74 4305.32 2456.16C4338.01 2478.85 4372.6 2497.92 4408.62 2514.94C4466.2 2542.14 4525.63 2546.58 4587.37 2535.34C4601.02 2532.86 4615.55 2525.17 4628.85 2537.13C4627.64 2552.69 4614.8 2555.3 4603.66 2560.11C4592.02 2565.15 4576.98 2563.87 4569.98 2577.79Z" fill="#EE497F"/>
<path d="M3533.48 2385.21C3472.75 2441.38 3454.09 2518.99 3427.4 2592.6C3414.18 2629.05 3400.76 2636.45 3364.35 2630.08C3356.13 2553.97 3391.32 2490.48 3425.02 2427.2C3460.27 2361.02 3514.27 2309.93 3567.8 2258.81C3570.81 2268.36 3575.8 2266.53 3582.5 2262.14C3586.91 2259.26 3588.86 2248.58 3597.56 2256.12C3594.79 2282.99 3565.33 2286.8 3554.17 2306.42C3525.65 2327.01 3526.82 2355.39 3533.48 2385.21Z" fill="#F57A9D"/>
<path d="M2835.96 4147.79C2877.3 4151.54 2918.08 4142.62 2959.24 4142.4C2965.61 4156.74 2979.41 4156.69 2991.58 4157.7C3060.3 4163.42 3129.15 4167.54 3198.1 4168.04C3248.65 4168.41 3299.23 4169.65 3349.77 4166.94C3356.59 4166.57 3363.45 4166.22 3369.07 4171.27C3381.43 4179.82 3395.81 4182.9 3410.11 4182.63C3479.23 4181.3 3548.13 4187.44 3617.12 4188.36C3739.76 4190.01 3862.47 4192.15 3984.95 4196.06C4271.43 4205.21 4557.87 4200.24 4844.26 4198.61C4943.99 4198.05 5044.51 4200 5144.19 4188.7C5215.29 4188.69 5286.6 4192.06 5357.45 4187.82C5448.55 4182.37 5539.74 4181.85 5630.83 4177.74C5640.79 4177.29 5655.52 4170.57 5659.4 4188.64C5548.57 4204.05 5437.18 4214.11 5325.77 4224C5180.93 4229.98 5036.16 4236.29 4891.1 4237.54C4836.91 4238.01 4782.28 4240.81 4727.87 4241.32C4603.22 4242.47 4478.51 4245.95 4353.97 4245.77C4212.81 4245.56 4071.44 4245.03 3930.36 4239.97C3860.3 4237.46 3790.16 4239.48 3720.29 4235.12C3593.24 4227.19 3466.18 4220.64 3338.92 4216.83C3306.1 4215.85 3273.14 4211.91 3240.07 4212.42C3038.67 4210.8 2810.33 4189.13 2767.55 4166.55C2787.81 4147.52 2813.47 4152.89 2835.96 4147.79Z" fill="#FABDCE"/>
<path d="M5003.68 4364.34C5024.32 4362.95 5043.68 4367.97 5063.13 4379.71C5043.16 4382.38 5023.26 4386.48 5003.21 4387.48C4823.09 4396.45 4642.81 4392.86 4462.58 4394.43C4369.98 4395.24 4277.68 4389.44 4185.24 4387.24C4135.86 4386.07 4086.61 4379.95 4037.3 4376.06C4041.34 4370.73 4047.17 4370.26 4053.08 4370.5C4119.23 4373.1 4185.15 4367.91 4251.09 4364.47C4464.13 4353.33 4677.31 4361.3 4890.4 4358.57C4928.38 4358.09 4965.61 4368.9 5003.68 4364.34Z" fill="#FBB8C9"/>
<path d="M3369.07 4171.27C3354.04 4175.68 3338.75 4176.79 3323.06 4177.21C3221.71 4179.93 3120.58 4173.24 3019.36 4170.65C3001.03 4170.18 2982.7 4166.93 2964.52 4164.03C2946.98 4161.23 2950.92 4152.08 2959.24 4142.4C3074.79 4130.48 3190.02 4139.94 3305.24 4148.08C3322.51 4149.3 3339.31 4155.68 3356.99 4153.91C3357.4 4162.22 3376.96 4157.2 3369.07 4171.27Z" fill="#FAEEF3"/>
<path d="M4341.86 3878.25C4360.84 3887.11 4375.74 3882.51 4391.85 3868.76C4413.1 3850.63 4437.5 3836.19 4462.88 3818.54C4447.75 3808.31 4434.02 3799.02 4413.31 3785C4445.49 3787.13 4463.2 3802.47 4480.64 3813.73C4513.55 3834.99 4547.56 3852.95 4583.68 3867.7C4595.65 3872.58 4606.02 3874.42 4615.97 3864.87C4637.61 3844.12 4668.04 3833.49 4680.8 3801.76C4685.09 3791.08 4709.59 3795.25 4716.28 3778.68C4749.58 3780.33 4752.8 3817.29 4778.19 3827.76C4769.95 3842.41 4760.02 3834.34 4752.24 3832.93C4748.79 3837.43 4751.33 3839.46 4753.57 3840.8C4765.22 3847.74 4783.78 3852 4787.27 3861.74C4793.33 3878.6 4767.87 3875.53 4762.12 3886.02C4740.22 3926.03 4704.6 3946.17 4662.75 3958.09C4649.99 3961.72 4645.71 3973.56 4638.79 3982.58C4623.11 4002.98 4606.06 4012.17 4582.93 3993.42C4580.14 3991.17 4575.83 3990.79 4567.75 3988C4575.05 4004.11 4575.99 4018.08 4563.22 4027.13C4552.24 4034.91 4540.27 4042.28 4525.86 4042.28C4475.48 4042.27 4424.91 4045.36 4371.88 4032.8C4392.33 4010.58 4422.92 4006.91 4448.37 3984.97C4404.78 3992.38 4378.1 4031.66 4335.63 4020.58C4346.56 4047.75 4323.1 4038.38 4312.28 4042.42C4293.73 4041.13 4276.78 4049.81 4257.84 4050.5C4276.66 4037.17 4268.47 3988.5 4316.61 4010.98C4275.98 3991.1 4288.96 3971.29 4309.25 3947.24C4320.73 3933.65 4314.49 3912.26 4316.58 3894.76C4319.1 3873.57 4326.77 3873.6 4341.86 3878.25Z" fill="#89403B"/>
<path d="M4956.56 2730.44C4963.15 2719.94 4961.93 2708.17 4962.8 2696.54C4963.69 2684.56 4955.37 2665.05 4983.3 2672.61C4993.19 2675.29 4991.41 2659.8 4991.73 2651.68C4993.88 2597.94 4995.3 2544.16 4998.01 2490.45C4998.71 2476.57 4995.85 2457.14 5020.88 2460.8C5065.6 2546.96 5115.27 2630.55 5155.36 2719.14C5149.72 2723.21 5149.82 2729.04 5150.7 2734.95C5163.38 2820.04 5161.84 2902.67 5116.24 2980.04C5089.18 3025.96 5068.21 3074.96 5057.26 3127.65C5054.62 3140.34 5049.4 3152.14 5039.04 3160.21C4976.08 3209.24 4935.86 3274.69 4903.51 3346.01C4899.58 3354.67 4896.63 3364.6 4886.41 3368.77C4874.84 3355.38 4881.64 3341.01 4885.2 3327.52C4900.26 3270.5 4909.46 3212.38 4919.28 3154.33C4926.46 3104.26 4934.63 3054.34 4942.55 3004.41C4954.99 2926.09 4957.62 2847.81 4948.82 2769.02C4947.33 2755.73 4945.66 2741.61 4956.56 2730.44Z" fill="#E14479"/>
<path d="M4927.07 3157.67C4917.74 3220.15 4905.98 3282.13 4890.22 3343.34C4888.1 3351.6 4887.64 3360.28 4886.42 3368.77C4870.72 3417.54 4855.02 3466.32 4839.32 3515.09C4816.84 3532.76 4794.11 3550.12 4771.98 3568.22C4756.05 3581.25 4745.62 3576.45 4738.76 3559.23C4725.19 3525.17 4712.09 3490.92 4698.79 3456.74C4703.19 3449.76 4710.41 3446.39 4717.48 3443.51C4794.39 3412.2 4828.78 3344.59 4853.51 3273.59C4866.36 3236.73 4886.52 3203.95 4899.29 3167.56C4903.36 3155.98 4913.39 3148.54 4927.07 3157.67Z" fill="#ED648D"/>
<path d="M4235.96 3626.24C4203.76 3629 4173.48 3616.33 4141.83 3614.52C4126.13 3613.62 4118.28 3603.2 4112.53 3589.74C4091.98 3541.68 4059.91 3501.63 4024 3464.37C4017.3 3457.43 4010.71 3448.84 3999.39 3451.66C3985.47 3455.13 3990.68 3467.27 3990.25 3476.06C3989.66 3488.42 3985.3 3490.92 3973.71 3486.78C3924.7 3469.25 3881.16 3483.61 3834.45 3502.6C3791.02 3520.27 3752.13 3541.72 3714.34 3568.79C3689.9 3586.29 3657.63 3587.26 3627.06 3585.71C3617.38 3577.04 3616.81 3564.69 3615.85 3553.42C3608.57 3467.89 3584.3 3385.13 3574.98 3299.94C3573.07 3282.45 3571.06 3265.16 3572.82 3247.62C3574.23 3238.92 3577.39 3230.72 3581 3222.77C3587.28 3208.94 3596.82 3206.84 3611.92 3210.47C3722.32 3236.98 3831.93 3267.25 3944.66 3283.1C3958.41 3285.03 3971.76 3282.97 3984.95 3278.71C3995.74 3275.23 4006.24 3274.26 4012.46 3286.84C4015.69 3294.92 4014.53 3303.74 4016.38 3312.09C4018.64 3322.25 4023.55 3330.76 4035.44 3328.9C4046.64 3327.14 4046.27 3317.26 4046.24 3308.57C4046.21 3300.97 4043.79 3293.5 4044.84 3285.8C4053.54 3263.69 4072.18 3266.4 4089.21 3269.92C4104.7 3273.11 4119.7 3275 4135.36 3272.6C4166.27 3267.87 4187.51 3282.32 4202.46 3307.88C4206.87 3315.42 4210.86 3323.12 4216.3 3330.08C4241.23 3362 4259.2 3361.81 4284.88 3328.99C4317.42 3301.76 4353.67 3296.08 4393.25 3310.57C4406.88 3315.56 4419.4 3323.12 4433.09 3327.92C4438.38 3330.33 4442.62 3334.73 4448.01 3336.85C4463.55 3342.98 4468.25 3334.9 4465.39 3321.38C4462.43 3307.36 4451.44 3298.47 4440.73 3289.96C4409.54 3265.18 4372.43 3259.06 4334.23 3256.39C4317.72 3251.14 4293.01 3256.16 4291.6 3230.19C4290.26 3205.46 4308.71 3192.2 4329.23 3183.45C4346.42 3176.11 4364.4 3172.94 4383.31 3178.29C4413.71 3186.91 4440.78 3178.69 4465.65 3160.52C4483.71 3147.31 4500.64 3132.66 4518.56 3119.26C4539.91 3103.3 4561.1 3088.5 4590.33 3094.91C4605.37 3098.21 4612.31 3085.12 4620.79 3076.07C4641.71 3076.27 4638.06 3095.71 4644.97 3106.89C4644.8 3120.1 4647.58 3132.55 4654.92 3143.78C4655.37 3160.87 4664.67 3171.56 4679.82 3178.02C4707.98 3195.81 4736.35 3213.09 4769.52 3220.24C4778.69 3233.77 4771.44 3242.97 4760.1 3248.69C4735.01 3261.34 4716.38 3281.43 4697.9 3301.4C4660.97 3341.28 4617.39 3371.94 4569.96 3397.68C4558.78 3403.74 4547.91 3410.28 4540.56 3421.18C4519.59 3431.53 4499.93 3443.73 4481.62 3458.53C4443.99 3488.95 4398.67 3504.31 4354.27 3521.37C4301.8 3541.53 4257 3570.53 4235.96 3626.24Z" fill="#FC8DAB"/>
<path d="M4540.56 3421.18C4542.78 3406.02 4553.72 3397.9 4565.85 3391.58C4616.85 3364.99 4661.63 3330.59 4700.63 3288.27C4716.91 3270.61 4732.74 3251.81 4756.58 3243.2C4765.89 3239.84 4770.5 3233.22 4768.96 3223.02C4772.21 3217.51 4777.89 3215.81 4783.42 3214.06C4847.83 3193.73 4877 3146.05 4885.6 3082.41C4907.98 3011.1 4905.81 2939.52 4888.18 2867.75C4889.16 2857.19 4890.82 2846.62 4889.92 2835.97C4887.33 2804.92 4884.63 2774.58 4914.08 2751.91C4922.81 2745.19 4922.51 2730.79 4925.61 2719.61C4928.55 2708.97 4929.02 2695.78 4944.92 2695.11C4957.17 2704.12 4944.67 2721.3 4956.56 2730.43C4955.23 2772.26 4962.93 2813.51 4963.37 2855.42C4964.44 2957.97 4942.27 3057.32 4927.08 3157.67C4918.01 3157.75 4907.4 3158.22 4905.46 3168.59C4898.11 3207.87 4867.5 3236.7 4861.38 3277.7C4854.14 3326.19 4813.9 3358.96 4790.42 3399.74C4768.3 3438.15 4733.96 3445.43 4698.79 3456.74C4688.81 3443.73 4679.72 3429.91 4668.68 3417.88C4641.82 3388.62 4625.39 3385.37 4588.58 3400.43C4572.45 3407.03 4556.56 3414.24 4540.56 3421.18Z" fill="#F3779A"/>
<path d="M3579.92 3245.77C3581.54 3318.4 3598 3388.87 3611.38 3459.75C3619.25 3501.46 3623.64 3543.49 3627.06 3585.7C3631.41 3638.09 3614.26 3686.63 3600.98 3736C3596.77 3751.67 3581.41 3756.03 3574.07 3768.93C3556.83 3799.24 3562.76 3827.7 3574.8 3856.96C3579.71 3868.91 3587.31 3882.9 3562.67 3878.27C3540.1 3810.97 3513.43 3745.02 3496.61 3675.85C3494.55 3667.4 3493.31 3658.76 3491.7 3650.21C3488.01 3643.79 3488.84 3638.8 3496.18 3635.86C3512.2 3637.48 3511.19 3651.81 3514.72 3662C3523.29 3686.76 3530.82 3711.88 3554.2 3733.63C3531.69 3656.03 3517.77 3580.06 3491.78 3511.02C3491.69 3512.05 3491.31 3517.08 3487.54 3520.97C3471.86 3522.88 3474.37 3509.72 3472.75 3501.65C3467.01 3473.02 3455.33 3446.6 3444.28 3419.9C3436.78 3401.77 3425.54 3393.77 3405.94 3404.84C3398.47 3409.05 3389.26 3417.87 3381.67 3404.01C3370.81 3369.95 3371.54 3335.68 3375.53 3300.4C3381.72 3245.51 3374.98 3189.92 3383.32 3134.83C3390.01 3090.7 3395.27 3046.36 3404.51 3002.65C3406.5 2993.21 3408.04 2983.44 3415.41 2976.18C3432.52 2969.9 3432.53 2984.88 3437.43 2993.81C3439.67 2999 3442.2 3004.07 3445.97 3008.39C3460.41 3020.88 3465.08 3037.23 3464.34 3055.6C3463.46 3077.47 3466.78 3098.72 3477.78 3117.64C3505.67 3165.58 3524.22 3218.4 3556.83 3266.39C3565.4 3262.05 3562.89 3248.46 3572.09 3244.84C3574.88 3243.67 3577.49 3243.99 3579.92 3245.77Z" fill="#FCAABD"/>
<path d="M3421.52 2975.99C3404.27 3026.42 3401.53 3079.55 3392.48 3131.51C3381.26 3195.9 3391.35 3261.37 3381.59 3325.86C3377.34 3353.97 3384.6 3381.9 3387.2 3409.88C3389.86 3420.65 3388.96 3427.46 3375.55 3420.32C3367.02 3376.18 3358.07 3332.1 3356.41 3286.97C3359.99 3224.98 3356 3162.93 3362.35 3100.78C3375.94 2967.72 3399.56 2838.1 3468.98 2721C3474.77 2718.09 3480.56 2715.16 3486.35 2712.24C3493.31 2718.42 3493.78 2726.75 3494.06 2735.16C3492.19 2760.59 3483.71 2784.41 3475.44 2808.19C3460.44 2851.28 3448.35 2895.17 3437.85 2939.54C3434.75 2952.64 3432.69 2966.41 3421.52 2975.99Z" fill="#FAF3F5"/>
<path d="M3375.55 3420.32C3383.99 3421.92 3386.01 3416.36 3387.2 3409.88C3393.14 3404.94 3398.49 3398.95 3405.13 3395.26C3422.56 3385.57 3436.92 3385.18 3447.23 3407.04C3464.54 3443.76 3476.41 3482.05 3485.58 3521.36C3500.66 3559.14 3509.72 3597.58 3498.31 3638.24C3493.3 3640.68 3492.46 3645.42 3491.7 3650.21C3474.69 3609.76 3472.97 3565.33 3458.85 3524.13C3455.7 3514.95 3454.02 3505.22 3450.32 3496.31C3445.55 3484.84 3441.66 3469.57 3426.77 3469.62C3410.61 3469.67 3401.13 3481.45 3398.24 3497.58C3394.35 3497.44 3386.23 3512.36 3387.24 3496.24C3388.91 3469.73 3381.27 3445.32 3375.55 3420.32Z" fill="#F7799D"/>
<path d="M3579.92 3245.77C3577.98 3245.76 3576.04 3245.75 3574.11 3245.74C3566.08 3238.51 3565.8 3228.48 3564.68 3218.88C3558.08 3161.83 3551.02 3104.8 3553.43 3047.17C3553.6 2997.74 3556.88 2948.26 3551.43 2898.93C3549.55 2890.8 3549.29 2882.61 3550.85 2874.42C3557.47 2859.09 3555.36 2844.43 3548.76 2829.41C3544.81 2820.42 3542.54 2809.39 3554.36 2804.15C3565.88 2799.04 3573.12 2807.16 3577.27 2816.44C3607.55 2884.02 3667.2 2921.9 3724.7 2961.52C3739.39 2971.65 3743.5 2984.38 3747.13 3000.02C3752.42 3022.86 3750.89 3050.17 3779.69 3060.67C3798.72 3075.34 3799.38 3099.38 3809.35 3118.67C3820.58 3152.96 3846.88 3175.37 3874.26 3195.16C3906.05 3218.14 3941.41 3213.7 3973.24 3194.48C4009.5 3172.58 4033.37 3140.18 4041.1 3097.41C4042.79 3085.26 4045.42 3073.61 4057.51 3067.1C4068.63 3065.67 4070.14 3056.73 4072.4 3048.22C4075.89 3035.04 4080.08 3022.08 4084.3 3009.11C4091.34 2987.5 4104.28 2975.12 4127.47 2971.37C4153.37 2967.18 4178.6 2959.49 4204.68 2955.34C4230.96 2951.17 4251.74 2936.82 4272.58 2918.75C4312.23 2884.39 4338.48 2839.72 4372.86 2801.56C4385.49 2787.55 4393.11 2770.4 4400.64 2753.67C4417.25 2716.76 4444.78 2702.23 4484.64 2704.33C4503.21 2705.31 4523.87 2710.96 4540.58 2695.89C4655.34 2698.33 4738.51 2644.5 4799.56 2550.91C4804.23 2543.76 4806.74 2534.64 4815.45 2530.55C4831.73 2532.17 4826.41 2543.23 4824.25 2552.01C4822.15 2560.57 4817.51 2568.5 4812.01 2575.15C4785.86 2606.74 4793.88 2645.13 4790.27 2681.13C4789.25 2691.29 4799.25 2695.36 4804.85 2701.8C4821.65 2721.11 4819.78 2734.24 4797.9 2752.34C4794 2752.26 4798.91 2752.99 4795.01 2752.77C4702.85 2747.7 4649.83 2786.47 4627.33 2877.13C4613.83 2931.5 4607.95 2986.37 4623.85 3041.67C4626.95 3052.46 4632.07 3064.17 4623.07 3075.07C4622.06 3101.28 4607.38 3110.13 4584.03 3102.56C4568.99 3097.69 4557.21 3100.96 4545.84 3109.45C4520.2 3128.6 4494.98 3148.32 4469.39 3167.55C4442.44 3187.81 4413.57 3195.63 4379.63 3185.87C4352.9 3178.18 4327.87 3185.53 4308.21 3206.11C4300.94 3213.71 4293.62 3222.22 4298.13 3234.51C4302.5 3246.4 4312.51 3245.41 4322.37 3245.97C4326.87 3246.22 4331.24 3248.95 4335.67 3250.55C4325.48 3262.73 4309.85 3262.65 4296.5 3267.03C4273.7 3274.51 4255.28 3288.33 4238.66 3304.41C4223.74 3318.83 4226.8 3326.75 4248.47 3336.48C4262.06 3336.9 4274.34 3324.84 4288.62 3332.28C4273.64 3367.15 4242.19 3370.46 4216.87 3344.02C4198.91 3325.27 4197.25 3293.06 4167.21 3285.02C4166.38 3284.8 4165.84 3283.65 4165.03 3283.13C4154.19 3276.23 4056.27 3280.27 4048.1 3287.93C4035.72 3296.36 4022.23 3296.86 4008.2 3293.55C4006.32 3281.7 3999.62 3278.12 3989.89 3284.9C3971.95 3297.4 3952.8 3292.55 3933.73 3290.43C3848 3280.9 3766.33 3252.6 3682.11 3236.24C3655.71 3231.11 3627.66 3233.81 3604.86 3215.47C3596.83 3209.01 3592.47 3214.68 3589.48 3221.46C3585.97 3229.42 3583.08 3237.66 3579.92 3245.77Z" fill="#FD99B4"/>
<path d="M3778.42 3064.03C3759.65 3067.1 3749.75 3056.51 3749.34 3040.13C3748.03 2987.71 3711.87 2962.39 3674.76 2935C3632.38 2903.71 3588.69 2872.15 3570.89 2818.23C3568.79 2811.89 3564.48 2804.35 3556.12 2808.55C3547.85 2812.71 3552.55 2819.9 3554.8 2826.28C3559.96 2840.9 3573.84 2855.32 3556.65 2870.9C3554.74 2870.35 3551.98 2869.71 3551.65 2868.26C3540.42 2819.1 3505.58 2781.56 3486.77 2736.15C3486.63 2728.18 3486.49 2720.21 3486.35 2712.24C3501.86 2701.64 3504.78 2719.02 3509 2724.9C3565.15 2803.04 3646.4 2810.56 3726.71 2771.21C3783.99 2743.15 3832.13 2701.72 3880.45 2660.94C3914.63 2632.09 3948.25 2602.72 3985.98 2578.33C4062.72 2528.72 4142.15 2522.17 4223.92 2563.66C4282.79 2593.53 4340.03 2626.68 4399.19 2655.95C4443.49 2677.86 4489.64 2696.12 4540.59 2695.89C4540.6 2704.17 4539.71 2711.87 4528.88 2712.41C4524.02 2712.65 4519.01 2713.4 4514.3 2712.56C4451.96 2701.41 4419.79 2730.78 4390.1 2785.02C4365.55 2829.88 4334.79 2874.83 4291.94 2909.5C4267.24 2929.48 4247.55 2956.82 4214.8 2962.07C4185.06 2966.84 4156.17 2974.77 4126.73 2979.83C4107.47 2983.13 4098.86 2990.83 4092.84 3008.81C4086.99 3026.31 4080.86 3043.55 4077.97 3061.77C4075.87 3074.99 4071.35 3080.36 4059.88 3068.85C4048.17 3052.89 4058.09 3036.88 4060.25 3021.14C4070.22 2948.29 4059.54 2879.52 4020.93 2816.16C4008.09 2795.08 3990.95 2777.74 3969.83 2764.9C3932.41 2742.14 3892.42 2745 3858.33 2772.25C3827.91 2796.57 3804.8 2826.56 3793.45 2863.9C3777.46 2916.52 3769.71 2970.13 3780.01 3025.25C3782.39 3037.93 3789.91 3051.6 3778.42 3064.03Z" fill="#FDA9BF"/>
<path d="M4798.83 2747.7C4817.16 2727.28 4812.99 2711.48 4789.26 2699.17C4783.72 2696.29 4775.43 2694.68 4777.63 2685.1C4787.88 2640.49 4780.03 2590.71 4816.15 2553.35C4821.92 2547.38 4825.64 2537.83 4815.46 2530.55C4829.07 2500.9 4842.68 2471.25 4858.86 2436.01C4901.4 2521.41 4934.37 2604.39 4944.92 2695.11C4935.97 2702.53 4934.83 2712.82 4932.77 2723.53C4928.97 2743.27 4925.81 2763.76 4904.6 2774.73C4895.16 2779.61 4894.4 2787.98 4896.04 2799.41C4899.13 2821.03 4902.39 2843.47 4893.64 2865C4884.34 2861.61 4881.26 2852.89 4877.47 2845.19C4861.2 2812.14 4838.6 2784.6 4808.41 2763.29C4803.29 2759.68 4795.54 2756.84 4798.83 2747.7Z" fill="#FA8FAB"/>
<path d="M4985.86 2331.8C4985.54 2339.65 4982.98 2342.75 4976.15 2336.24C4964.34 2324.99 4952.58 2313.68 4942.44 2300.5C4962.92 2303.18 4969.35 2324.77 4986.13 2332.13C4986.13 2332.13 4985.86 2331.8 4985.86 2331.8Z" fill="#A80B43"/>
<path d="M4628.85 2537.14C4603.12 2540.94 4577.5 2545.82 4551.65 2548.37C4454.57 2557.94 4375.56 2514.8 4300.46 2460.85C4305.3 2454.88 4312.72 2453.38 4318.41 2456.13C4332.85 2463.11 4345.1 2456.96 4357.92 2452.17C4410.94 2477.39 4464.09 2498.91 4525.45 2494.5C4584.55 2490.25 4625.69 2453.9 4624.22 2394.71C4622.92 2342.94 4613.6 2292.03 4585.2 2246.8C4581.45 2232.38 4583.93 2216.89 4577.62 2202.88C4571.35 2186.68 4573.64 2173.98 4592.47 2169.12C4668.61 2149.44 4744.15 2127 4822.73 2118.45C4830.43 2117.61 4838.27 2116.92 4845.54 2120.88C4869.78 2144.07 4874.17 2177.11 4887.53 2205.69C4890.75 2212.57 4887.09 2216.54 4881.45 2219.76C4819.5 2255.17 4796.26 2318.2 4768.34 2377.99C4743.62 2430.91 4719.61 2484.21 4668.14 2518.41C4655.68 2526.69 4641.46 2529.93 4628.85 2537.14Z" fill="#F17398"/>
<path d="M4593.95 1874.85C4643.29 1893.23 4694.2 1892.46 4745.47 1887.24C4753.55 1923.47 4769.27 1957.1 4781.11 1992.05C4791.06 2011.72 4783.79 2026.9 4769.72 2041.56C4718.66 2094.82 4655.48 2124.99 4583.9 2137.54C4532.28 2146.6 4479.66 2148 4427.46 2152.52C4415.06 2153.59 4402.09 2154.19 4390.49 2147.41C4384.36 2140.92 4389.56 2137.4 4394.14 2133.76C4453.59 2086.56 4480.41 2024.05 4480.98 1949.12C4481.14 1926.75 4483.04 1904.62 4493.01 1883.99C4517.25 1868.42 4545.8 1869.27 4572.57 1863.45C4581.81 1861.43 4588.95 1867.02 4593.95 1874.85Z" fill="#F4769C"/>
<path d="M4388.34 2144.17C4476.9 2140.18 4566.2 2141.47 4651.16 2110.1C4698.34 2092.68 4738.04 2064.24 4772.26 2027.45C4782.38 2016.58 4780.38 2004.37 4781.1 1992.05C4803.91 2034.33 4831.35 2074.29 4845.53 2120.88C4781.08 2133.82 4715.9 2143.32 4652.61 2161.84C4635.88 2166.73 4618.89 2171.49 4601.68 2173.79C4579.39 2176.77 4578.03 2187.7 4586.71 2204.6C4582.65 2256.46 4552.43 2280.71 4510.6 2265.69C4494.17 2259.79 4483.84 2247.34 4475.26 2232.97C4460.86 2194.11 4460.85 2193.45 4417.58 2194.31C4389.51 2194.87 4361.13 2189.87 4333.36 2198.01C4307.34 2201.42 4281.2 2199.87 4255.13 2200.31C4236.47 2198.81 4217.76 2199.73 4199.09 2199.61C4132.47 2197.29 4068.54 2186.75 4017.02 2138.98C3979.64 2104.17 3947.62 2065.37 3927.15 2017.92C3922.13 2006.28 3917.04 1994.68 3912.8 1982.75C3909.89 1974.56 3905.21 1964.01 3914.28 1958.75C3923.99 1953.12 3929.91 1964.19 3934.76 1970.4C4006.96 2062.9 4106.01 2105.02 4218.38 2122.51C4265.98 2129 4313.92 2131.41 4361.67 2135.86C4371.16 2136.75 4381.08 2136.16 4388.34 2144.17Z" fill="#EC5282"/>
<path d="M4154.21 1008.08C4153.88 924.101 4152.79 840.108 4160.16 756.314C4171.42 740.16 4180.59 747.602 4184.89 760.577C4204.95 820.955 4241.78 872.849 4268.8 929.645C4288.07 970.163 4298.14 1013.81 4308.69 1057.19C4309.84 1061.9 4312.24 1067.78 4310.01 1071.44C4293.46 1098.73 4308.31 1123.03 4316.33 1148.02C4334.09 1194.63 4367.58 1232.42 4388.73 1277.12C4395.02 1287.65 4395.91 1297.91 4384.5 1305.19C4362.6 1319.16 4356.72 1342.63 4350.71 1364.7C4333.72 1427.11 4309.79 1486.59 4280.37 1544C4273.68 1557.05 4267.73 1570.37 4262.3 1583.96C4244.22 1629.23 4246.73 1638.71 4288.59 1665.44C4323.24 1687.57 4360.99 1703.62 4399.68 1717.41C4410.65 1721.32 4422.21 1724.12 4431.12 1732.5C4443.68 1757.71 4422.27 1760.37 4408.05 1763.83C4353.71 1777.06 4298.87 1776.25 4244.4 1764.05C4225.89 1759.9 4205.66 1758.47 4192.6 1741.35C4170.2 1706.57 4174.39 1678.98 4212.97 1658.44C4226.59 1651.19 4223.09 1639.07 4214.2 1628.8C4133.18 1535.24 4110.35 1422.56 4103.6 1303.24C4100.46 1247.7 4097.53 1192.27 4098.92 1136.77C4101.18 1047.21 4105.5 957.708 4114.79 868.539C4116.71 850.039 4115.23 831.473 4116.62 813.022C4117.45 802.081 4114.88 788.661 4130.44 784.506C4147.69 810.26 4141.88 839.343 4142.43 867.509C4142.43 875.302 4142.44 883.095 4142.45 890.889C4150 911.908 4140.48 934.385 4147.96 955.41C4148.12 974.851 4148.29 994.292 4148.45 1013.73C4160.54 1055.06 4155.53 1097.81 4162.07 1132.37C4160.08 1095.84 4152.94 1052.11 4154.21 1008.08Z" fill="#FD99B4"/>
<path d="M4316.33 1148.02C4302.28 1127.07 4274.8 1109.16 4302.37 1079.27C4309.41 1071.64 4301.61 1062.44 4300.18 1054.23C4286.17 973.524 4247.58 902.722 4208.62 832.316C4197.3 811.857 4185.47 792.196 4180.58 768.939C4178.48 758.955 4175.96 745.864 4160.16 756.313C4168.26 684.158 4175.38 611.913 4188.62 540.381C4193.12 516.028 4204.2 517.396 4217.31 530.345C4231.02 543.891 4245.91 553.209 4264.41 557.649C4283.02 562.112 4277.88 591.477 4300.23 592.304C4361.96 849.799 4422.95 1107.54 4550.98 1343.9C4511.11 1327.35 4479.46 1301.34 4447.83 1275.3C4405.7 1240.6 4366.15 1203.35 4332.27 1160.32C4328.24 1155.21 4321.71 1152.07 4316.33 1148.02Z" fill="#FA86A6"/>
<path d="M4423.66 1734.36C4369.15 1713.96 4314.58 1694.27 4266.56 1659.54C4242.56 1642.18 4237.94 1624.03 4248.47 1597.59C4274.25 1532.86 4310.14 1472.61 4331.08 1405.6C4338.52 1381.78 4340.19 1356.02 4353.92 1333.94C4362.16 1320.7 4361.31 1301.66 4383.21 1298.15C4391.08 1296.89 4387.63 1284.56 4388.73 1277.13C4429.65 1322.3 4464.69 1372.7 4510.18 1413.81C4526.53 1428.59 4541.98 1444.64 4562.86 1453.42C4565.55 1457.2 4568.25 1460.99 4570.95 1464.78C4541.5 1489.76 4533.86 1525.9 4520.78 1559.74C4503.95 1603.32 4478.59 1642.67 4452.26 1681.16C4440.79 1697.91 4429.57 1714.67 4423.66 1734.36Z" fill="#F986A7"/>
<path d="M4130.57 785.372C4128.67 789.656 4125.22 793.892 4125.08 798.231C4120.41 947.515 4101.21 1096.31 4107.65 1245.92C4112 1346.74 4120.59 1447.13 4164.66 1540.58C4179.73 1572.53 4199.14 1601.01 4223.99 1626.02C4238.98 1641.11 4244.77 1654.72 4218.59 1665.42C4205.53 1670.75 4203.22 1692.02 4183.06 1690.03C4177.83 1689.51 4176.54 1701.23 4183.04 1703.05C4206.89 1709.72 4199.01 1725.17 4194.95 1740C4155.3 1741.11 4125.26 1718.71 4097.62 1695.59C4051.15 1656.72 4010.6 1612.47 4001.1 1548.64C4000.36 1543.63 3993.97 1547.88 3992.73 1543.53C3984.02 1524.67 3986.26 1505.06 3990.83 1486.22C4005.08 1427.47 4005.76 1366.51 4020.67 1307.91C4022.35 1301.32 4022.91 1294.31 4022.17 1287.59C4016.04 1231.87 4028.3 1175.2 4012.88 1119.89C4008.66 1104.76 4010.73 1088.95 4015.98 1073.86C4019.59 1063.46 4021.53 1053.08 4013.85 1043.42C4031.26 976.913 4048.67 910.412 4066.07 843.909C4079.84 791.261 4093.6 738.615 4107.38 685.969C4115.57 674.995 4114.58 655.038 4135.85 656.864C4139.6 682.133 4148.47 707.359 4136.49 732.76C4136.33 734.647 4136.29 736.536 4136.38 738.429C4129.63 753.481 4144.37 771.191 4130.57 785.372Z" fill="#FCBCCA"/>
<path d="M4130.57 785.372C4132.91 769.775 4125.06 752.916 4136.38 738.43C4141.05 781.331 4156.59 823.725 4142.42 867.509C4138.47 840.13 4134.52 812.751 4130.57 785.372Z" fill="#FA86A6"/>
<path d="M4154.21 1008.08C4156 1011.36 4159.46 1014.73 4159.32 1017.93C4157.46 1059.27 4164.06 1100.25 4164.1 1141.61C4153.69 1099.55 4150.48 1056.72 4148.45 1013.74C4150.37 1011.85 4152.29 1009.96 4154.21 1008.08Z" fill="#FA86A6"/>
<path d="M4136.49 732.76C4136.28 707.461 4136.07 682.161 4135.86 656.863C4146.82 676.352 4148.7 697.593 4148.12 719.372C4147.91 727.278 4144.43 731.827 4136.49 732.76Z" fill="#FA86A6"/>
<path d="M4147.96 955.41C4136.16 934.753 4145.12 912.325 4142.45 890.889C4154.46 911.528 4145.44 933.961 4147.96 955.41Z" fill="#FA86A6"/>
<path d="M4001.34 1546.82C4014.22 1548.42 4008.51 1560.39 4010.93 1566.71C4044.44 1654.4 4108.47 1708.95 4194.95 1740C4265.49 1768.51 4337.92 1771.25 4411.41 1754.76C4432.11 1750.11 4431.85 1748.94 4423.66 1734.36C4419.83 1722.05 4421.03 1712.77 4429.59 1700.54C4472.86 1638.7 4516.13 1576.34 4531.76 1500.33C4536.28 1478.31 4557.74 1476.43 4570.95 1464.78C4592.72 1477.64 4618.66 1484.05 4634.62 1505.91C4636.17 1527.8 4648.65 1545.92 4655.38 1566.02C4682.79 1647.86 4709 1730.05 4726.96 1814.63C4729.99 1828.9 4726.51 1838.15 4712.61 1845.26C4684.01 1859.91 4654.03 1864.47 4622.35 1863.85C4612.43 1863.66 4597.58 1856.55 4593.94 1874.85C4558.75 1864.52 4527.18 1884.13 4493.57 1886.97C4483.89 1896.37 4471.52 1899.68 4458.81 1900.19C4389.66 1902.96 4320.49 1905.06 4253.18 1884.3C4188.94 1869.74 4140.84 1829.8 4096.31 1784.22C4048.3 1723.5 4012.01 1657.15 3998.76 1579.87C3996.85 1568.73 3991.94 1557.16 4001.34 1546.82Z" fill="#F16B97"/>
<path d="M4101.76 1780.78C4145.17 1820.34 4187.77 1861.16 4247.64 1875.32C4266.03 1900.29 4264.67 1921.43 4238.13 1935.24C4207.21 1951.34 4201.8 1975.29 4206.76 2005.27C4209.36 2020.96 4206.88 2036.09 4204.23 2051.34C4200.68 2071.81 4199.19 2090.2 4219.33 2105.74C4233.11 2116.38 4229.65 2123.22 4212.68 2126.9C4105.62 2114.69 4013.62 2072.62 3941.88 1990.39C3933.63 1980.92 3925.49 1971.34 3913.25 1957.11C3933.07 2029.65 3970.97 2084.18 4018.43 2133.02C4003.29 2145.8 3984.81 2142.46 3968.02 2141.04C3915.95 2136.64 3863.8 2132.96 3811.93 2126.82C3799.04 2108.8 3816.22 2100.49 3825.07 2091.38C3855.38 2060.19 3868.64 2023.83 3865.31 1980.47C3861.71 1933.67 3837.81 1920.98 3797.24 1944.94C3786.29 1951.41 3779.31 1962.75 3767.39 1967.73C3763.33 1971.86 3759.27 1975.98 3755.22 1980.1C3748.94 1965.59 3756.75 1955.1 3765.12 1944.6C3798.25 1903.06 3828.05 1859.31 3851.62 1811.6C3855.59 1803.57 3864.04 1796.06 3858.27 1784.57C3840.3 1793.65 3844.82 1828.21 3814.86 1822.53C3809.07 1812.8 3813.37 1803.59 3817.18 1794.94C3842.11 1738.38 3865.28 1681.15 3885.57 1622.74C3888.39 1614.64 3891.04 1605.97 3900.7 1602.89C3919.73 1604.26 3919.67 1619.32 3921.62 1632.59C3931.93 1702.9 3953.99 1768.38 3998.88 1824.87C4008.05 1836.4 4016.97 1847.7 4030.58 1854.21C4051.74 1864.35 4062.13 1860.74 4070.83 1838.43C4078.85 1817.89 4098.4 1803.69 4101.76 1780.78Z" fill="#FCAABF"/>
<path d="M3901.91 1605.23C3872.89 1677.67 3843.87 1750.1 3814.85 1822.53C3787.64 1873 3759.83 1923.07 3720.41 1965.48C3717.11 1969.03 3713.87 1972.75 3710.1 1975.77C3701.34 1982.83 3691.67 1995.84 3680.56 1987.76C3666.76 1977.71 3678.22 1964.13 3684.58 1954.37C3729.22 1885.89 3767.17 1813.89 3799.84 1739.05C3803.67 1730.27 3805.95 1720.82 3808.96 1711.68C3837.5 1659.28 3853.06 1601.76 3871.36 1545.68C3911.11 1423.84 3942.59 1299.41 3984.39 1178.16C3990.13 1169.13 3987.97 1156.98 3995.93 1148.8C4017.95 1136.52 4023.16 1138.75 4024.41 1161.62C4025.05 1173.41 4021.84 1184.81 4018.89 1196.1C3985.87 1322.44 3953.21 1448.88 3917.1 1574.39C3913.89 1585.57 3911.96 1597.41 3901.91 1605.23Z" fill="#FBF6F6"/>
<path d="M3901.91 1605.23C3927.07 1512.03 3952.45 1418.88 3977.32 1325.59C3991.25 1273.35 4004.45 1220.9 4017.74 1168.48C4019.6 1161.15 4022.76 1151.74 4015.79 1146.74C4007.41 1140.73 4003.06 1152.73 3996.02 1154.67C3990.97 1146.83 3992.03 1138.94 3995.84 1131.03C3994.69 1100.35 4013.65 1073.81 4013.85 1043.41C4031.75 1047.67 4026.38 1062.27 4023.7 1071.81C4017.65 1093.34 4022.78 1113.64 4023.99 1134.84C4027.92 1203.6 4036.47 1271.9 4021.97 1341.56C4011.01 1394.21 4006.91 1448.61 3996.76 1501.87C3994.06 1516 3990.53 1532.86 4001.35 1546.82C4010.14 1635.4 4048.8 1711.15 4101.76 1780.78C4104.38 1797.94 4108.29 1815.09 4086.02 1823.81C4079.81 1826.25 4079.17 1834.57 4077.74 1841.5C4072.15 1868.58 4059.84 1874.05 4034.19 1864.98C3999.43 1852.7 3985.76 1820.44 3968.1 1793.81C3935.5 1744.63 3920.72 1688.01 3914.09 1629.58C3912.94 1619.42 3912.43 1610.16 3901.91 1605.23Z" fill="#FBC9D4"/>
<path d="M3995.84 1131.03C3995.9 1138.91 3995.96 1146.79 3996.02 1154.67C3994.61 1163.72 3991.74 1172.05 3984.39 1178.16C3983.52 1161.31 3984.75 1144.97 3995.84 1131.03Z" fill="#FCBCCA"/>
<path d="M3550.13 2302.07C3561.08 2281.74 3585.06 2274.85 3597.56 2256.12C3620.84 2240.45 3644.11 2224.77 3667.38 2209.1C3688.48 2185.11 3717.88 2173.44 3744.26 2157.25C3752.75 2154.19 3761.25 2151.22 3770.12 2149.37C3813.26 2141.9 3855.93 2130.59 3900.27 2132.87C3917.49 2133.75 3939.4 2131.36 3945.78 2150.39C3952.3 2169.84 3933.39 2182.14 3919.45 2191.9C3858.46 2234.56 3791.34 2262.7 3716.62 2268.78C3679.35 2271.82 3645.67 2281.05 3618.5 2307.9C3598.12 2328.03 3574.68 2318.27 3552.16 2314.36C3547.07 2313.47 3547.31 2306.84 3550.13 2302.07Z" fill="#FBD9E0"/>
<path d="M3745.19 2163.24C3719.26 2178.53 3693.32 2193.81 3667.39 2209.1C3672.21 2184.26 3695.99 2178.78 3712.5 2166.8C3748.71 2140.51 3784.28 2114.57 3796.67 2068.29C3798.84 2070.49 3801.02 2072.69 3803.2 2074.89C3807.22 2107.79 3783.31 2126.15 3765.28 2147.53C3759.72 2154.13 3750.31 2155.98 3745.19 2163.24Z" fill="#C92957"/>
<path d="M3745.19 2163.24C3765.24 2134.26 3794.41 2111.26 3803.2 2074.89C3812.32 2061.55 3814.7 2046.51 3815.03 2030.72C3815.44 2011.22 3808.2 1998.31 3787.1 1997.78C3765.41 1997.24 3760.21 1986.78 3767.39 1967.74C3778.92 1944.38 3814.78 1920.29 3836.46 1923.18C3853.24 1925.4 3864.38 1935.6 3868.44 1952.89C3880.56 2004.4 3872.87 2051.19 3836.12 2091.21C3826.95 2101.21 3817.58 2111.03 3808.3 2120.94C3802.37 2141.66 3782.6 2146.21 3767.32 2156.01C3759.95 2158.42 3752.57 2160.83 3745.19 2163.24Z" fill="#F3608D"/>
<path d="M3767.32 2156.01C3776.69 2139.31 3795.22 2133.3 3808.3 2120.94C3878.65 2119.81 3947.94 2136.88 4018.44 2133.02C4069.85 2175.22 4130.68 2189.22 4195.25 2191.98C4214.68 2195.88 4234.11 2195.81 4253.54 2192.02C4280.79 2191.7 4308.04 2191.39 4335.29 2191.07C4343.5 2187.08 4351.28 2187.88 4361.76 2192.28C4350.04 2211.14 4333 2214.27 4316.01 2216.24C4287.12 2219.58 4258.34 2223.59 4229.06 2223.71C4202.48 2223.81 4195.31 2231.71 4198.93 2257.72C4202.09 2280.49 4197.72 2304.44 4209.69 2326.09C4214.2 2334.25 4211.75 2343.16 4204.57 2349.96C4193.82 2357.04 4183.75 2352.13 4174.2 2347.43C4079.87 2301.09 3996.49 2318.83 3922.5 2390.43C3858.91 2451.97 3778.47 2490.47 3710.44 2545.97C3697.91 2556.19 3681.22 2560.08 3666.3 2551.8C3649.92 2542.71 3656.41 2526.23 3658.23 2512.09C3663.44 2471.5 3660.12 2432.24 3640.56 2395.46C3623.9 2364.12 3605.36 2353.63 3579.72 2360.75C3563.95 2368.23 3546.33 2372.22 3533.48 2385.21C3518.34 2369.78 3516.75 2336.3 3530.98 2319.78C3536.62 2313.24 3543.71 2307.94 3550.14 2302.08C3568.71 2303.98 3588.32 2326.92 3605.16 2308.03C3645.12 2263.19 3699.33 2264.48 3751.3 2255.36C3818.38 2243.59 3879.03 2216.31 3930.83 2171.26C3948.11 2156.24 3946.64 2147.44 3922.31 2142.16C3880.81 2133.16 3841.55 2145.39 3801.76 2151.95C3790.25 2153.85 3779.02 2156.34 3767.32 2156.01Z" fill="#FDBACA"/>
<path d="M3579.72 2360.75C3602.48 2335.29 3618.86 2355.29 3632.13 2370.62C3668.55 2412.7 3673.54 2463.32 3665.8 2516.11C3664.27 2526.51 3657.08 2538.86 3667.3 2545.83C3678.26 2553.3 3693.18 2550.23 3703.05 2541.99C3770.82 2485.38 3851.98 2447.2 3916.23 2385.67C3994.69 2310.52 4078.59 2290.22 4181.91 2342.75C4187.88 2345.79 4194.58 2347.41 4200.94 2349.68C4243.41 2363.51 4276.11 2393.45 4311.52 2418.48C4326.28 2428.91 4348.35 2432.72 4353.21 2454.97C4351.36 2466.67 4349.66 2478.44 4333.17 2468.26C4323.16 2462.09 4312.19 2459.67 4300.46 2460.85C4282.29 2447.88 4263.95 2435.15 4246 2421.89C4195.7 2384.71 4138.87 2361.55 4077.96 2351.52C4022.5 2342.39 3977.3 2371.82 3938.24 2405.99C3894 2444.69 3846.12 2477.26 3796.42 2507.91C3762.53 2528.81 3730.54 2553.02 3695.61 2571.89C3662.92 2589.56 3638.82 2572.2 3638.77 2534.37C3638.75 2519.84 3642.15 2505.03 3642.21 2491.1C3642.37 2451.22 3647.89 2409.11 3615.8 2375.88C3605.51 2365.22 3594.36 2359.58 3579.72 2360.75Z" fill="#F784A4"/>
<path d="M4553.51 3865.46C4498.86 3870.42 4454.84 3890.52 4408.43 3902.15C4400.73 3904.08 4391.56 3907.11 4387.18 3899.08C4381.32 3888.33 4394.45 3887.47 4399.25 3883.05C4419.01 3864.83 4445.14 3854.48 4462.02 3832.47C4468.8 3823.64 4477.09 3825.93 4485.57 3830.38C4506.01 3841.11 4526.58 3851.58 4553.51 3865.46Z" fill="#9A5046"/>
<path d="M4798.83 2747.7C4845.77 2774.41 4873.68 2816.49 4893.64 2865C4917.36 2939.2 4917.57 3013.23 4891.96 3087.05C4882.27 3117.15 4868.53 3145.01 4843.59 3165.43C4768.8 3226.68 4675.78 3201.57 4640.38 3110.94C4634.61 3098.98 4628.84 3087.03 4623.08 3075.07C4605.51 3012.38 4600.79 2949.32 4616.83 2885.48C4630.27 2831.95 4655.72 2786.2 4702.33 2754.69C4732.78 2734.1 4765.96 2740.53 4798.83 2747.7Z" fill="#251529"/>
<path d="M4247.07 3344.49C4230.51 3348.84 4225.26 3337.11 4219.92 3325.44C4214.31 3313.17 4224.73 3308.27 4230.96 3301.62C4259.35 3271.3 4295.01 3255.78 4335.67 3250.55C4374.68 3249.18 4410.59 3258.68 4442.2 3281.97C4450.73 3288.25 4458.84 3295.5 4465.68 3303.55C4476.16 3315.89 4484.51 3331.12 4470.09 3344.56C4455.17 3358.48 4443.82 3345.99 4434.11 3334.24C4367.61 3287.31 4332.57 3286.96 4266.87 3332.09C4260.48 3336.48 4254.48 3341.66 4247.07 3344.49Z" fill="#2B1224"/>
<path d="M4640.38 3110.94C4660.98 3136.49 4679.14 3164.45 4709.52 3180.27C4757.25 3205.12 4814.67 3191.73 4852.96 3144.93C4867.63 3127.01 4879.05 3106.43 4891.96 3087.06C4887.68 3157.78 4835.47 3215.5 4768.96 3223.01C4730.36 3225.76 4704.08 3200.88 4675.43 3181.29C4665.75 3170.83 4653.7 3161.97 4651.83 3146.25C4643.94 3135.8 4634.53 3125.84 4640.38 3110.94Z" fill="#C64070"/>
<path d="M4247.07 3344.49C4277.93 3301.83 4320.7 3286.04 4371.38 3292.84C4397.79 3296.38 4421.01 3308.63 4434.11 3334.24C4423.99 3334.24 4415.02 3330.28 4406.58 3325.41C4365.67 3301.79 4326.65 3307.98 4288.62 3332.29C4274.77 3336.35 4260.92 3340.42 4247.07 3344.49Z" fill="#C5436B"/>
<path d="M4008.2 3293.55C4020.43 3284.06 4034.23 3285.69 4048.11 3287.93C4053.31 3295.32 4055.69 3303.41 4055.48 3312.56C4055.18 3326.33 4052.59 3338.4 4035.88 3339.69C4019.68 3340.95 4009.91 3332.69 4007.74 3316.83C4006.7 3309.24 4007.97 3301.32 4008.2 3293.55Z" fill="#FBF4F6"/>
<path d="M4651.83 3146.25C4660.37 3157.48 4672.45 3166.32 4675.43 3181.29C4657.65 3176.29 4646.23 3167 4651.83 3146.25Z" fill="#FD99B4"/>
<path d="M3486.77 2736.16C3519.49 2776.19 3548.16 2818.31 3556.64 2870.9C3556.65 2878.67 3556.66 2886.44 3556.66 2894.21C3562.66 2933.51 3557.64 2973.07 3559.5 3012.46C3560.04 3023.85 3556.56 3035.63 3562.33 3046.59C3558.6 3113.43 3572.63 3179.21 3574.11 3245.74C3572.22 3251.2 3570.24 3256.64 3568.47 3262.14C3566.07 3269.58 3573.41 3282.19 3560.62 3283.58C3552.23 3284.5 3550.09 3273.39 3546.59 3266.74C3522.74 3221.37 3499.39 3175.74 3475.27 3130.52C3462.19 3105.99 3454.08 3080.63 3456.96 3052.52C3458.68 3035.7 3453.29 3022.06 3439.17 3012.27C3443.54 3003.31 3455.18 3000.91 3458.37 2990.84C3460.54 2983.97 3461.85 2976.18 3455.11 2972.29C3446.03 2967.05 3443.63 2975.42 3441.48 2981.92C3439.37 2988.27 3439.54 2995.62 3432.99 2999.85C3424.26 2994.25 3431.16 2981.16 3421.53 2975.99C3435.34 2899.81 3461.92 2827.19 3483.4 2753.14C3485.01 2747.62 3485.67 2741.82 3486.77 2736.16Z" fill="#FCB9C8"/>
<path d="M3498.31 3638.24C3494.07 3599.28 3489.83 3560.32 3485.59 3521.36C3486.32 3513.09 3487.05 3504.82 3487.79 3496.55C3525.85 3575.72 3541.28 3660.2 3560.16 3743.76C3516.98 3719.85 3514.98 3675.11 3498.31 3638.24Z" fill="#FAEEF3"/>
<path d="M3432.99 2999.85C3433.14 2996.95 3433.17 2994.05 3433.45 2991.17C3434.69 2978.53 3429 2962.11 3448.94 2959.05C3458.57 2957.57 3466.34 2962.05 3467.88 2972.51C3470.27 2988.68 3469.2 3003.88 3450.61 3010.61C3447.06 3011.89 3443 3011.74 3439.17 3012.26C3437.11 3008.13 3435.05 3003.99 3432.99 2999.85Z" fill="#FAF2F5"/>
<path d="M3778.42 3064.03C3766.47 3004.07 3763.64 2944.18 3778.57 2884.19C3789.4 2840.61 3809.82 2802.53 3843.11 2772.23C3888.73 2730.69 3947.32 2730.47 3993.3 2771.55C4036.62 2810.26 4056.31 2860.61 4066.87 2916.76C4076.61 2968.54 4068.9 3018.48 4059.88 3068.85C4053.09 3077.51 4047.54 3086.68 4048.03 3098.28C4033.52 3131.7 4016.33 3162.5 3982.61 3181.34C3924.31 3213.92 3858.88 3199.82 3820.7 3144.76C3815.21 3136.85 3809.97 3128.69 3804.73 3120.57C3793.98 3102.65 3791.8 3080.73 3778.42 3064.03Z" fill="#241529"/>
<path d="M3804.74 3120.57C3818.4 3124.47 3822.03 3138.24 3830.35 3147.26C3888.3 3210.08 3965.08 3207.6 4017.46 3140.37C4028.11 3126.7 4037.86 3112.33 4048.03 3098.28C4034.91 3169.78 3971.28 3231.05 3901.82 3214.69C3854.01 3203.43 3820.58 3169.02 3804.74 3120.57Z" fill="#C44B77"/>
<path d="M3562.33 3046.59C3550.31 3024.77 3558.02 3001.22 3556.89 2978.54C3555.49 2950.49 3556.62 2922.32 3556.66 2894.21C3568.61 2916.05 3560.95 2939.59 3562.07 2962.28C3563.45 2990.32 3562.35 3018.48 3562.33 3046.59Z" fill="#FDA9BF"/>
<path d="M4166.09 2841.89C4180.99 2844.85 4188.71 2852.24 4189.26 2865.79C4189.89 2881.61 4183.06 2892.76 4166.5 2893.48C4150.25 2894.18 4144.36 2880.95 4144.03 2868.31C4143.66 2854.17 4156.24 2847.84 4166.09 2841.89Z" fill="#FAEFF1"/>
<path d="M4353.21 2454.97C4302.45 2419.87 4251.69 2384.78 4200.94 2349.68C4203.38 2343.45 4210.07 2335.7 4205.09 2330.67C4181.25 2306.62 4196.76 2275.81 4189.86 2248.84C4183.41 2223.61 4198.43 2213.77 4222.94 2214.63C4262.89 2216.02 4302.46 2212.25 4341.28 2202.34C4345.8 2201.19 4349.91 2198.42 4354.74 2196.15C4348.59 2188.58 4341.27 2192.9 4335.29 2191.07C4378.1 2180.09 4421.62 2188.18 4464.78 2186.42C4475.64 2185.97 4475.91 2194.68 4475.97 2202.85C4476.05 2212.37 4473.97 2222.4 4481.36 2230.52C4501.86 2277.18 4540.24 2285.54 4576.59 2251.2C4580.16 2247.82 4583.64 2244.65 4588.86 2244.47C4616.61 2268.81 4619.04 2304.51 4625.82 2336.49C4631.83 2364.84 4636.88 2394.63 4629 2425.13C4619.28 2462.75 4585.44 2497.58 4546.72 2501.43C4477 2508.38 4411.86 2494.84 4353.21 2454.97Z" fill="#FDA8BD"/>
<path d="M4588.86 2244.47C4576.42 2271.11 4556.38 2285.55 4526.38 2279.58C4500.25 2274.38 4483.55 2258.66 4481.37 2230.54C4495.91 2251.98 4514.19 2266.17 4542.05 2261.58C4574.36 2256.25 4577.78 2228.25 4586.71 2204.59C4588.95 2217.81 4592.66 2230.94 4588.86 2244.47Z" fill="#AD1341"/>
<path d="M4212.68 2126.9C4229.4 2123.38 4222.81 2112.79 4215.05 2109.93C4187.81 2099.91 4188.71 2079.22 4195.62 2058.95C4206.66 2026.56 4191.11 1993.86 4200.07 1961.36C4203.65 1948.35 4208.7 1941.02 4220.18 1935.79C4256.15 1919.39 4258.45 1913.95 4247.65 1875.32C4328.83 1895.94 4410.9 1897.85 4493.58 1886.96C4492.76 1965.75 4486.18 2042.53 4434.67 2108.43C4421.58 2125.17 4408.39 2138.17 4388.34 2144.17C4329.41 2142.23 4270.29 2142.22 4212.68 2126.9Z" fill="#FC91AE"/>
<path d="M4545.31 2177.67C4543.03 2191.74 4537.98 2204.06 4523.51 2206.04C4511 2207.75 4507.06 2196.93 4507.1 2186.65C4507.16 2172.5 4513.67 2161.98 4529.26 2161.26C4540.36 2160.76 4543.6 2169.15 4545.31 2177.67Z" fill="#F6E1E9"/>
<path d="M4253.54 2192.02C4234.1 2200.34 4214.67 2200.44 4195.25 2191.98C4214.68 2191.99 4234.11 2192.01 4253.54 2192.02Z" fill="#FDA8BD"/>
<path d="M4698.35 2851.64C4699.21 2804.26 4720.57 2776.47 4753.25 2776.27C4772.3 2776.15 4787.34 2783.54 4797.71 2799.05C4817.19 2828.14 4822.44 2859.77 4810.81 2893.15C4803.05 2915.39 4789.51 2932.95 4764.01 2935.02C4738.52 2937.09 4722.65 2921.68 4710.62 2901.45C4700.93 2885.15 4697.13 2867.34 4698.35 2851.64Z" fill="#FBFCFC"/>
<path d="M4861.83 2870.78C4862.72 2885.39 4856.07 2890.25 4846.18 2889.76C4834.44 2889.18 4833.69 2879.82 4833.85 2870.74C4834.04 2860.64 4838.91 2853.42 4849.32 2854.38C4860.36 2855.4 4860.18 2865.96 4861.83 2870.78Z" fill="#E9E6EA"/>
<path d="M3984.47 2861.46C3985.63 2877.89 3981.47 2893.59 3972.09 2907.78C3948.24 2943.86 3904.35 2944.39 3881.1 2908.12C3864.2 2881.75 3858.63 2852.76 3867.31 2821.91C3873.41 2800.23 3884.53 2782.32 3908.02 2777.28C3933.62 2771.79 3953.02 2782.46 3967.85 2803.52C3980.08 2820.9 3985.52 2839.85 3984.47 2861.46Z" fill="#FBFBFC"/>
<path d="M3821.23 2865.85C3831.93 2866.81 3835.34 2874.59 3836.7 2883.43C3838.41 2894.55 3833.34 2903.01 3822.31 2904.36C3811.58 2905.67 3807.73 2897.37 3807.32 2887.76C3806.88 2877.38 3809.74 2868.91 3821.23 2865.85Z" fill="#E5E1E7"/>
</g>
<defs>
<clipPath id="clip0_4_126">
<rect width="8530" height="4781" fill="white"/>
</clipPath>
</defs>
</svg>
