<svg width="14761" height="14761" viewBox="0 0 14761 14761" fill="none" xmlns="http://www.w3.org/2000/svg">
<g clip-path="url(#clip0_4_357)">
<path d="M7325.13 11768.5C4881.94 11768.5 2438.75 11768.4 -4.43275 11769.4C-42.441 11769.4 -51.0121 11760.9 -50.9983 11722.9C-49.9617 8996.09 -49.9617 6269.33 -51 3542.56C-51.0138 3504.55 -42.441 3495.99 -4.43448 3496C4885.32 3496.99 9775.07 3496.99 14664.8 3496C14702.8 3495.99 14711.4 3504.55 14711.4 3542.56C14710.3 6269.33 14710.3 8996.09 14711.4 11722.9C14711.4 11760.9 14702.8 11769.4 14664.8 11769.4C12218.3 11768.4 9771.69 11768.5 7325.13 11768.5Z" fill="#FCFCFC"/>
<path d="M7106.24 10676.2C6603.27 10653.6 6099.8 10653.9 5596.57 10643.6C5090.07 10633.1 4583.6 10620 4078.81 10572.7C3988.16 10564.2 3897.32 10555.2 3808.76 10532.3C3790.91 10527.7 3773.56 10520.7 3756.48 10513.6C3743.9 10508.4 3730.87 10500.6 3731.01 10485.3C3731.15 10469.9 3744.98 10463.3 3757.38 10457.6C3821.42 10428.7 3890.76 10421.1 3958.97 10412.2C4327.65 10363.8 4698.86 10347.8 5069.83 10329.3C5228.28 10321.5 5387.05 10318.8 5544.78 10299.7C5553.86 10298.6 5565.22 10302.3 5575.03 10283.1C5533.19 10279.1 5494.4 10273.3 5455.47 10272.1C5168.45 10263.7 4881.33 10258.3 4594.39 10247.7C4390.43 10240.1 4185.65 10239.2 3984.06 10200.2C3953.12 10194.2 3907.12 10190.9 3906.08 10157.9C3904.93 10121.6 3951.98 10122 3981.92 10115C4150.12 10075.9 4322.02 10063.6 4493.19 10046.7C4884.75 10008 5277.55 9987.46 5670.45 9969.03C5788.54 9963.49 5906.8 9961.4 6024.99 9957.87C6034.88 9957.57 6045.39 9955.66 6053.52 9964.06C6062.16 9973.51 6090.34 9960.33 6082.38 9989.03C6078.09 9992.59 6073.27 9995.08 6067.92 9996.63C6023.8 10004.6 5978.45 9992.59 5934.59 10005.3C5928.8 10007.1 5922.95 10008.3 5916.95 10009.2C5672.42 10012.5 5428.51 10028.7 5184.5 10042.1C5056.63 10045 4928.93 10052.9 4801.57 10063.7C4578.28 10082.5 4354.7 10099.2 4132.93 10133C4088.47 10139.8 4044.1 10147 3999.86 10157.5C4241.58 10192.8 4485.12 10199 4728.81 10203.8C4971.79 10208.4 5214.65 10216.1 5457.45 10225.1C5506.35 10240.8 5559.42 10230.8 5608.04 10248.8C5626.78 10257.4 5654.38 10257.6 5654.1 10286.4C5653.83 10314 5630.97 10326.1 5608.93 10333.8C5561.49 10350.5 5512.07 10356.8 5461.72 10355.2C5341.97 10362 5222.22 10368.6 5102.54 10376.5C5062.66 10379.1 5022.33 10369.1 4982.85 10381.1C4976.87 10382.8 4970.76 10383.8 4964.57 10384.2C4584.41 10400.8 4204.13 10416.1 3828.03 10484.1C3872.44 10507.6 3921 10509.7 3967.9 10513.2C4156.21 10526.8 4343.65 10550 4532.45 10558.7C4844.03 10573 5155.56 10585.2 5467.49 10590.7C5588.7 10592.9 5710.12 10596.7 5831.5 10598.5C6101.14 10600 6370.66 10607.8 6640.28 10610.7C6821.93 10612.6 7003.54 10629.3 7185.57 10628.6C7221.19 10628.5 7256.17 10634.6 7290.65 10642.6C7311.78 10647.6 7338.6 10652.6 7339.74 10678.7C7340.95 10706 7313.42 10710.1 7292.84 10715.3C7215.79 10734.9 7136.67 10741.3 7058.03 10750.6C6938.15 10750.1 6819.9 10772 6700.18 10776.1C6599.16 10779.5 6498.21 10787.7 6397.15 10792.6C6250.9 10799.6 6105.3 10813.4 5960.35 10835.2C6123.41 10851.8 6286.79 10859.9 6449.7 10873C6698.88 10893 6948.87 10883.6 7197.95 10901C7221.55 10902.7 7245.22 10902 7268.85 10902C7734.87 10902.3 8200.9 10901.3 8666.91 10902.3C8798.32 10901.2 8929.45 10907.3 9061.2 10895.4C9200.45 10882.8 9341.02 10889.1 9481.07 10883.9C9769.36 10873.3 10057.3 10857.8 10345.1 10837.4C9995.23 10797.4 9643.5 10787 9292.16 10770.7C9273.8 10770.5 9255.38 10771.2 9237.3 10767.1C9196.43 10755 9154.67 10760.9 9113.18 10761.2C8974.19 10750.4 8834.09 10751.1 8696.94 10721.1C8664.49 10715.6 8617.59 10717.9 8616.73 10677.4C8615.83 10635.5 8664.5 10635.4 8695.52 10632.9C8760.71 10627.6 8825.54 10614.9 8891.39 10619.2C8945.65 10618.6 9000.2 10626.2 9054.02 10613.1C9075.83 10608.6 9097.86 10608.7 9119.96 10609.6C9330.34 10605.4 9540.87 10602 9750.96 10594.7C9952.75 10587.7 10155 10596 10356.3 10577.7C10524.9 10578.2 10693.1 10568.5 10861.3 10558.8C11058.3 10547.4 11254.7 10530.1 11450.6 10507.1C11478.9 10503.7 11507.2 10499.9 11534.5 10485.5C11206 10430.4 10874.7 10405.2 10541.9 10396.1C10365.3 10385.4 10188.6 10379.4 10012.1 10369.1C9936.42 10364.8 9860.55 10363.8 9785.07 10355.9C9725.83 10357.8 9667.27 10351.9 9609.59 10338.7C9577.33 10331.3 9535.07 10328.8 9534.83 10285.3C9534.59 10241.5 9576.17 10238 9609.08 10232.3C9687.22 10218.8 9766.67 10217.4 9845.45 10214.3C9979.78 10209 10114.5 10216.9 10248.7 10203.6C10306 10202 10363.3 10202.9 10420.7 10203.1C10660.3 10204.1 10898.7 10188.8 11141.7 10154.9C11036.6 10144 10937.9 10129.9 10839 10116.6C10673.5 10094.3 10506.8 10086.8 10340.7 10071.4C10158 10054.4 9974.18 10053.9 9791.91 10031.5C9768.53 10028.6 9744.75 10029.7 9721.15 10031.8C9539.25 10022.8 9357.35 10014 9175.51 10004.1C9104.59 10000.2 9033.63 10004.3 8962.8 10001.4C8902.42 9999.03 8841.6 9998.09 8782.91 9980.25C8773.1 9967.05 8772.92 9957.19 8792.06 9954.09C9074.25 9949.28 9355.85 9965.84 9637.41 9979.9C9873.31 9991.68 10109 10008 10344.5 10025.9C10595.1 10045 10845.9 10062.2 11093.8 10106.4C11118.5 10110.8 11142.8 10118.5 11166.7 10126.5C11182.2 10131.7 11202.5 10137.1 11202 10157.2C11201.5 10176.2 11182.4 10183.2 11166.5 10188.6C11085.9 10216 11001.8 10223 10917.7 10229.9C10584.1 10257.3 10249.3 10245.4 9915.28 10259C9905.17 10259.4 9895.08 10260.3 9884.97 10260.9C9788.86 10267.4 9695 10298 9597.09 10285.3C9590.74 10289.4 9599.12 10299.1 9596.51 10292.9C9595.35 10290.1 9595.94 10288.4 9598.32 10288.2C9641.38 10284.9 9684.98 10280.2 9727.5 10287.4C9810.11 10301.3 9892.52 10315.8 9976.42 10319.3C10239.4 10332.9 10502.5 10344.9 10765.3 10360.6C11024.6 10376.1 11284.2 10390.1 11539.9 10440.7C11573.1 10447.3 11625 10448.2 11625.8 10487C11626.5 10526 11575.1 10528.3 11541.8 10536.1C11375 10575.3 11204.2 10581.9 11034.4 10593C10542.3 10624.9 10049.5 10639.4 9556.4 10648.4C9298.29 10653.2 9040.01 10658.4 8782.12 10678.9C8881.43 10702.3 8983.12 10706.7 9083.96 10712.5C9373.86 10729.3 9664.11 10739.8 9954.04 10755.9C10095.4 10763.8 10237.1 10771.5 10377.1 10795.6C10390.4 10797.9 10403.8 10800.2 10416.6 10804.3C10440.8 10812 10480.7 10809.3 10478.3 10842.1C10476.2 10871.9 10437 10872.3 10411.5 10876.6C10298.1 10895.8 10183.2 10900.1 10068.7 10906.1C9358.53 10943.1 8647.7 10955.5 7936.73 10954.2C7463.89 10953.3 6990.96 10948 6518.5 10926.4C6321.43 10917.3 6124.06 10908.9 5928.68 10878.2C5903.93 10874.4 5879.76 10866.5 5855.55 10859.6C5843.89 10856.3 5832.66 10849.8 5831.68 10836.5C5830.42 10819.4 5845.46 10813.9 5857.59 10809.6C5910.39 10791 5965.71 10783.3 6020.94 10776.9C6245.76 10750.7 6471.77 10740.1 6697.58 10727.4C6834.09 10719.7 6970.48 10711.2 7106.19 10694.1C7144.78 10678.8 7185.77 10683.6 7226.4 10680C7186.05 10674 7145.46 10697.8 7106.24 10676.2Z" fill="#C1C12E"/>
<path d="M6082.66 9986.74C6072.95 9979.18 6063.23 9971.62 6053.52 9964.06C6066 9956.95 6061.03 9948.32 6056.65 9938.62C6027.68 9874.61 5995.32 9812.08 5975.41 9743.56C5877.05 9801.46 5804.32 9776.77 5759.61 9672.97C5742.03 9632.16 5731.93 9588.6 5735.88 9544.72C5750.28 9384.91 5725.44 9229.1 5698.03 9072.46C5633.39 8703.06 5693.43 8348.14 5832.23 8003.6C5842.16 7978.96 5857.56 7956.11 5858.98 7928.4C5916.41 7917.04 5893.75 7961.54 5899.52 7986.27C5899.74 7996.52 5898.91 8007.28 5892.77 8015.33C5871.02 8043.87 5870.58 8073.49 5885.83 8104.75C5859 8208.82 5821.8 8309.83 5803.22 8416.27C5770.93 8601.22 5766.95 8786.88 5780.57 8973.46C5791.62 9110.8 5829.13 9245.13 5825.74 9384.25C5824.64 9429.84 5815.26 9474.46 5815.08 9519.96C5814.9 9564.13 5820.52 9607.19 5836.9 9648.38C5841.7 9657.16 5844.05 9668.44 5852.57 9673.91C5871.41 9686.02 5883.97 9712.62 5912.83 9703.12C5939.21 9694.45 5944.9 9670.54 5951.07 9647.59C5960.24 9613.41 5960.23 9577.15 5974.13 9544.06C5978.73 9533.1 5984.64 9519.69 5997.57 9520.47C6010.81 9521.26 6013.24 9536.07 6017.1 9547.07C6027.81 9577.58 6027.77 9610.06 6034.64 9641.42C6059.5 9754.92 6117.68 9854.73 6162.16 9960.1C6201.47 10038.4 6219.82 10120.2 6199.51 10210.1C6226.07 10202 6236.22 10181.2 6251.66 10166.7C6297.33 10092 6311.99 10006.1 6309.1 9923.84C6303.17 9755.39 6356.49 9612.84 6460.94 9485.29C6516.05 9420.45 6581.29 9367.29 6653.47 9322.95C6774.1 9248.86 6904.83 9278.03 6986.25 9393.25C7077.78 9522.78 7101.6 9667.34 7087.03 9821.4C7079.82 9852.7 7076.06 9884.7 7072.84 9916.45C7064.08 10002.6 7129 10062.7 7214.57 10049.9C7327.93 10033 7394.72 9933.88 7381.44 9800.87C7372.62 9712.47 7374.98 9626.02 7411.72 9542.64C7432.2 9496.16 7459.68 9456.08 7505.15 9433.33C7613.75 9378.98 7720.09 9321.18 7824.69 9259.11C7932.22 9195.28 8039.37 9233.35 8099.37 9345.14C8121 9385.46 8137.39 9427.94 8144.41 9473.52C8152.89 9528.46 8163.11 9583.13 8174.61 9637.55C8179.16 9659.11 8186.45 9679.68 8199.21 9698.04C8234.46 9748.77 8287.93 9747.49 8306.67 9689.87C8351.2 9553.02 8450.11 9455.63 8539.58 9350.8C8589.85 9312.26 8626.09 9261.72 8660.42 9209.55C8681 9178.28 8705.88 9150.54 8735.68 9128.35C8753.97 9114.73 8776.63 9099.99 8792.46 9133.64C8756.62 9157.38 8757.53 9206.47 8724.61 9232.32C8674.1 9267.2 8657.16 9327.72 8617.95 9371.51C8533.95 9465.31 8447.11 9557.33 8396.31 9675.51C8391.01 9687.82 8384.17 9699.42 8379.61 9712.16C8345.74 9806.7 8282.76 9831.84 8195.29 9785.79C8184.9 9780.32 8174.65 9774.45 8165.2 9767.32C8139.06 9746.97 8125.92 9719.22 8116.08 9688.16C8096.46 9626.2 8086.67 9561.49 8062.66 9500.85C8048.01 9436.93 8015.75 9382.58 7974.86 9331.92C7952.51 9304.23 7928.01 9296.74 7894.93 9306.9C7790.54 9338.97 7698.78 9394.67 7610.83 9457.53C7602.64 9463.39 7594.98 9469.95 7586.28 9475.22C7460.99 9551.13 7423.09 9636.16 7450.23 9780.37C7454.6 9803.59 7457.51 9827.04 7461.86 9850.27C7465.66 9870.51 7467.05 9891.77 7456.63 9909.77C7397.19 10012.5 7319.61 10094.1 7196.57 10115.3C7102.75 10131.4 7014.09 10057.1 7003.98 9957.55C7001.94 9937.42 7002.83 9917.08 7001.77 9896.81C7010.57 9807.09 7021.37 9717.38 6996.04 9628.45C7007.43 9587.76 6991.55 9556.4 6962.43 9529.25C6944.92 9512.93 6932.5 9493.54 6924.69 9470.45C6897.79 9390.94 6828.34 9354.9 6744.91 9376.95C6705.35 9387.4 6668.9 9405.84 6637.42 9431.48C6582.53 9476.18 6520.95 9520.12 6488.55 9580.9C6447.76 9657.4 6399.41 9734.24 6400.3 9828.84C6401.17 9922.5 6414.12 10017.8 6379.47 10109.2C6371.16 10131.1 6366.77 10154.9 6347.78 10171.3C6318.34 10179.2 6313.43 10204.8 6306.49 10229C6287.58 10255.6 6263.57 10276.3 6233.97 10289.9C6165.21 10321.6 6106.31 10280.2 6112.73 10204.9C6114.3 10186.5 6120.63 10168.7 6120.1 10150.1C6122.57 10111.5 6108.69 10077.3 6092.73 10043.4C6084.47 10025.8 6069.79 10008.4 6082.66 9986.74Z" fill="#98980A"/>
<path d="M6305.77 10220C6293.74 10189.3 6299.26 10169 6336.93 10168.2C6341.54 10170.3 6347.1 10171.4 6350.41 10175C6431.26 10262.9 6536.52 10275.4 6647.64 10274.3C6804.76 10272.8 6962.27 10267 7118.93 10275.7C7314.92 10286.6 7510.25 10263.4 7705.86 10274.3C7756.28 10273.3 7806.69 10273.3 7857.09 10274.2C7930.97 10277.3 8004.91 10271.7 8078.71 10275.4C8168.21 10280.6 8257.11 10268.9 8346.33 10265C8460.42 10260 8545.6 10208.6 8603.66 10111.4C8694.73 9959 8782.35 9804.59 8816.57 9627.55C8831.96 9547.92 8837.87 9466.88 8807.38 9388.31C8796.68 9360.73 8783.85 9335.14 8746.56 9339.03C8720.89 9341.71 8719.31 9322.96 8722.19 9305.6C8726.72 9278.29 8721.41 9251.83 8719.34 9225.04C8731.14 9205.85 8748.15 9189.21 8749.72 9164.94C8751.41 9138.8 8768.72 9133.61 8790.4 9133.93C8829.24 9120.21 8841.09 9152.52 8854.2 9175.22C8884.06 9226.9 8898.79 9284.7 8907.14 9343.23C8918.83 9425.13 8949.84 9498.93 8993.08 9568.21C9020.7 9612.47 9042.7 9613.5 9069.99 9573.68C9071.86 9561.82 9073.07 9549.91 9069.58 9538.43C9033.03 9418.3 9048.58 9298.41 9069.51 9178.12C9100.73 8998.61 9124.55 8818.57 9120.51 8635.36C9117.94 8518.65 9108.51 8403.3 9085.2 8288.98C9079.16 8259.35 9070.3 8230.01 9072.18 8199.21C9109.98 8107.72 9068.29 8027.28 9031.19 7949.41C9008.17 7901.11 8999.9 7850.33 8985.2 7800.66C8981.24 7787.27 8979.48 7769.28 9001.82 7765.71C9096.52 7968.26 9165.15 8178.76 9196.38 8400.78C9234.49 8671.58 9213.15 8938.71 9151.52 9204.19C9126.34 9312.65 9107.57 9422.69 9145.15 9533.37C9152.14 9553.96 9151.9 9576.02 9147.79 9598.38C9133.38 9676.86 9069.23 9709.12 8996.86 9675.04C8963.14 9659.17 8943.76 9629.49 8913.29 9596.71C8889.32 9725.65 8833.15 9837.13 8792.06 9954.1C8782.95 9958.1 8781.28 9966.4 8779.99 9974.94C8768.69 10041.1 8723.94 10090 8692.06 10145.6C8606.04 10308.3 8472.16 10385.1 8287.32 10376.9C8191.33 10372.7 8094.93 10378.7 7998.86 10375.6C7835.09 10370.5 7672.02 10387.2 7508.4 10387.2C7373.42 10387.2 7238.67 10364.7 7104.14 10377.4C6950.5 10391.8 6797.7 10369.5 6644.53 10376.2C6590.21 10378.5 6536.75 10369.6 6483.55 10361.1C6423.63 10351.5 6371.16 10325.3 6331.12 10278.2C6317 10261.6 6302.07 10244.7 6305.77 10220Z" fill="#797903"/>
<path d="M9001.82 7765.71C8992.92 7821.44 9009.1 7874.84 9034.52 7920.48C9068.58 7981.63 9082.37 8047.93 9102.88 8112.65C9112.23 8142.16 9096.98 8168.2 9083.3 8193.44C9057.09 8187.57 9059.16 8163.04 9053.79 8145.3C8993.33 7945.62 8908.1 7757.12 8801.56 7577.94C8781.58 7544.36 8759.34 7513.11 8730.82 7486.17C8700.85 7457.87 8679.18 7424 8667.64 7384.06C8659.9 7345.88 8635.97 7313.53 8628.24 7275.29C8629.38 7245.27 8644.36 7230.69 8674.87 7233.55C8701.95 7255.35 8702.66 7289.56 8713.55 7318.7C8724.87 7349.01 8737.48 7377.39 8762.25 7399.46C8808.7 7440.84 8844.82 7435 8875.76 7380.88C8885.13 7364.48 8888.96 7346.59 8893.06 7328.6C8914.13 7233.43 8880.2 7148.87 8840.97 7066.04C8761.59 6898.4 8672.45 6736 8574.66 6578.35C8521.28 6492.29 8473.9 6403.26 8443.56 6306.02C8444.02 6142.08 8386.12 5997.74 8296.95 5863.22C8266.38 5817.11 8235.06 5771.31 8208.26 5722.73C8165.79 5654.21 8142.6 5580.52 8147.69 5499.07C8148.97 5478.45 8140.33 5459.9 8133.44 5441.14C8116.78 5399.27 8104.2 5355.67 8080.79 5316.62C7913.6 5022.24 7776.34 4714.18 7659.19 4396.82C7630.55 4319.24 7599.6 4242.43 7560.43 4169.27C7552.54 4154.53 7544.16 4139.32 7548.44 4121.3C7561.34 4107.41 7566.2 4093.53 7558.09 4073.63C7551.32 4057.02 7545.01 4035.67 7571.05 4025.7C7675.36 4177.38 7723.31 4354.15 7790.13 4522.27C7900.44 4799.8 8033.08 5066.15 8180.41 5325.49C8224.61 5403.29 8259.35 5482.57 8232.74 5574.99C8225.97 5598.49 8236.63 5617.7 8248.23 5636.56C8299.38 5719.78 8351.02 5802.71 8401.72 5886.21C8469.14 5997.27 8512.88 6115.54 8518.2 6247.37C8521 6316.54 8558.23 6375.31 8591.33 6433.95C8704.67 6634.81 8823.3 6832.84 8917.27 7044.01C8958.6 7136.88 8996.28 7230.78 8973.6 7336.25C8960.69 7396.33 8934.05 7448.76 8879.07 7478.95C8852.36 7493.61 8861.38 7504.31 8871.77 7521.14C8920.35 7599.86 8967.06 7679.62 9001.82 7765.71Z" fill="#898902"/>
<path d="M7571.05 4025.7C7555.43 4049.63 7568.24 4068.55 7578.86 4090.41C7591.21 4115.82 7583.23 4130.36 7552.16 4116.81C7520.38 4112.36 7513.5 4082.07 7497.08 4062.32C7473.36 4033.78 7452.52 4002.81 7419.23 3983.99C7354.12 3947.18 7284.56 3965.94 7240.52 4034.41C7196.29 4103.17 7171.51 4180.65 7147.71 4257.94C7131.35 4311.06 7113.88 4363.93 7100.41 4417.96C7075.68 4497.81 7051.08 4577.68 7029.47 4658.45C6936.33 4984.18 6845.76 5310.66 6744.25 5633.9C6700.33 5773.78 6653.57 5912.79 6600.84 6049.66C6539.74 6197.26 6483.85 6347.07 6413.41 6490.79C6371.2 6576.93 6321.4 6659.02 6279.74 6745.35C6261.19 6783.79 6245.45 6824.14 6282.78 6861.93C6319.54 6890.32 6355.86 6880.92 6390.3 6858.68C6433 6831.1 6467.46 6794.35 6498.13 6754.07C6503.2 6747.41 6506.73 6739.63 6511.76 6732.91C6521.89 6719.42 6533.28 6701.86 6551.61 6708.62C6574.29 6716.98 6560.31 6736.68 6557.92 6752.1C6532.04 6821.06 6491.53 6879 6430.27 6921.32C6405.92 6928.83 6384.69 6941.73 6364.67 6957.45C6276.71 7026.55 6184.01 7089.49 6102.49 7167.01C6085.43 7183.24 6063.7 7222.27 6028.37 7186.6C6073.09 7120.43 6138 7073.21 6190.41 7014.25C6199.35 7004.19 6209.19 6994.65 6219.83 6986.44C6257.41 6957.42 6278.09 6935.1 6228.57 6890.45C6174.1 6841.33 6175.08 6773.1 6209.42 6708.78C6283.94 6569.21 6354.85 6427.92 6417.1 6282.4C6571.42 5921.66 6685.47 5547.25 6793 5170.71C6888.5 4836.3 6982.01 4501.33 7077.59 4166.94C7095.61 4103.91 7119.38 4042.7 7156.96 3987.74C7248.58 3853.75 7400.26 3839.41 7514.65 3954.98C7535.89 3976.43 7558.01 3997.55 7571.05 4025.7Z" fill="#939305"/>
<path d="M6028.37 7186.6C6039.25 7190.2 6048.99 7196.07 6060.77 7185.63C6098.09 7152.58 6134.19 7116.05 6173.45 7087.74C6256.37 7027.91 6326.35 6947.91 6426.99 6913.88C6434.11 6941.21 6412.03 6952.35 6396.47 6965.47C6320.95 7029.12 6246.55 7093.9 6179.28 7166.44C6067.88 7272.04 5961.38 7381.62 5899.12 7525.34C5863.11 7608.47 5823.22 7691.04 5835.31 7786.03C5830.36 7857.53 5885.87 7843.67 5926.71 7850.6C5977.48 7909.27 5961.97 7969.84 5891.41 7988.75C5873.94 7972.22 5909.36 7927.26 5858.98 7928.4C5759.43 7889.17 5722.9 7800.44 5752.2 7672.29C5795.57 7482.59 5897.96 7326.69 6028.37 7186.6Z" fill="#A4A408"/>
<path d="M9976.42 10319.3C9846.61 10319.7 9718.31 10303.2 9589.84 10285.4C9687.78 10268.7 9785.88 10258.7 9884.98 10260.9C9871.1 10274.5 9853.47 10267.7 9837.45 10269.8C9825.31 10271.4 9806.9 10265.9 9807.62 10286.1C9808.19 10301.9 9824.57 10297.3 9835.3 10299.9C9881.72 10311.1 9930.8 10302.6 9976.42 10319.3Z" fill="#F8E8D0"/>
<path d="M7106.24 10676.2C7150.24 10676.2 7194.23 10676.2 7238.23 10676.2C7194.13 10684 7151.55 10701.7 7106.2 10694.1C7106.21 10688.1 7106.22 10682.2 7106.24 10676.2Z" fill="#F1B083"/>
<path d="M8891.74 10633.6C8818.03 10635.7 8744.62 10641.6 8671.75 10652.8C8653 10655.7 8623.63 10655 8624.27 10678.5C8624.88 10700.8 8655.64 10697.4 8673.48 10704.2C8680.98 10707.1 8690.13 10705.7 8698.53 10706.2C8691.59 10746.7 8671.47 10780 8642.05 10808.3C8587.8 10820.8 8534.69 10802.9 8480.91 10802.9C8165.62 10803 7850.19 10797.3 7535.08 10805.2C7355.2 10809.6 7175.07 10816.9 6995.26 10825.8C6973.66 10826 6944.72 10837.1 6942.72 10800.9C6940.84 10766.8 6966.36 10742.5 6998.33 10740.8C7017.83 10739.7 7037.94 10745.7 7056.81 10736.3C7150.06 10719.6 7246.68 10719.8 7343.8 10682.1C7297.32 10648.7 7249.16 10649.1 7204.36 10647C7059.72 10640 6914.69 10640.6 6770.11 10632.7C6559.56 10621.2 6348.76 10629.5 6138.37 10621C6035.64 10616.8 5932.95 10616.7 5830.29 10613.3C5793.37 10598.4 5754.13 10589.5 5720.07 10567.3C5697.25 10552.4 5671.51 10562.2 5646.8 10562.6C5611.58 10563.1 5603.64 10550.5 5619.63 10523C5644.28 10514.6 5669.88 10515.2 5694.95 10517C5940.37 10535 6186.76 10534.5 6432 10555.7C6438.72 10556.3 6445.48 10556.8 6452.22 10556.7C6668.16 10551.4 6883.68 10574.6 7099.61 10566.9C7217.87 10562.7 7335.61 10580.4 7453.4 10576.4C7760.3 10565.8 8067.47 10574.7 8374.11 10564.7C8594.81 10557.4 8815.88 10563.6 9036.26 10546.5C9093.08 10542.1 9149.87 10527.3 9207.01 10543.9C9236.74 10570.2 9222.98 10585.6 9193.24 10595.8C9166.95 10604.9 9137.26 10604.3 9114.48 10623.4C9094.6 10623.9 9074.72 10624.3 9054.84 10624.8C9001 10637.5 8945.57 10620.7 8891.74 10633.6Z" fill="#FCBC91"/>
<path d="M8687.85 10127.9C8718.56 10076.9 8749.28 10025.9 8779.99 9974.94C9094.28 9990.51 9409.11 9994.17 9723.06 10017.2C9821.74 10015.4 9896.66 10073 9973 10122.3C10044.1 10168.2 10115.7 10202.7 10202.8 10195.8C10220.3 10194.5 10244.7 10189.9 10250 10218.6C10056.7 10225.6 9863.41 10232.2 9670.16 10239.8C9640.09 10241 9609.84 10245.4 9580.39 10251.7C9563.23 10255.4 9541.06 10260.3 9540.66 10284C9540.25 10308.2 9563.15 10312.8 9579.83 10316.7C9646.59 10332.1 9714.08 10343.7 9783.09 10341.7C9788.37 10354.7 9783.01 10364.6 9773.75 10373C9762.52 10383.2 9739.64 10386 9751.19 10410.2C9761.29 10431.4 9776.1 10445.7 9800.8 10447.4C9819.26 10448.8 9837.88 10447.2 9856.19 10450C9869.34 10452 9885.24 10453.4 9887.48 10469.9C9889.89 10487.6 9873.97 10491.3 9861.26 10494.8C9835.22 10502 9808.86 10508.7 9782.66 10494.5C9720.64 10480.2 9658.64 10490.5 9596.49 10492.6C9377.21 10500.2 9158.05 10514.2 8938.45 10507.4C8929.98 10507.1 8921.7 10505.3 8913.79 10502.4C8885.16 10483.5 8905.39 10470.9 8921.62 10464.2C8992.57 10434.9 9062.8 10403.6 9138.08 10385.7C9189.76 10373.3 9242.91 10362.5 9282.76 10322.4C9328.24 10278.4 9325.27 10260.9 9266.92 10239.5C9171.14 10204.4 9070.3 10194.5 8970.04 10183C8896.54 10174.5 8823.1 10165.3 8749.28 10159.4C8726.43 10157.6 8697.13 10159.9 8687.85 10127.9Z" fill="#F9B98D"/>
<path d="M8658.77 10796.2C8631.64 10748.3 8690.71 10738.6 8698.54 10706.2C8835.98 10733.7 8975.98 10735.1 9114.97 10746.8C9155.12 10758.7 9197.23 10743.3 9237.36 10755.6C9253.85 10756 9270.34 10756.4 9286.83 10756.9C9305.08 10789.8 9279.91 10801.4 9257.57 10806.1C9203.07 10817.6 9152.26 10840 9099.1 10855.4C9069.94 10863.8 9029.83 10857.5 9021.53 10905.1C9018.95 10919.9 8994.68 10912.3 8980.32 10912.7C8876.55 10915.7 8772.64 10908 8668.94 10917C8177.55 10917 7686.13 10920.3 7194.8 10914.7C7056.69 10913.1 6918.06 10915 6780.11 10906.5C6578.57 10894.1 6376.6 10889.7 6175.41 10869.8C6093.58 10861.7 6010.81 10862.7 5929.64 10846.6C5920.51 10844.8 5906.43 10848.3 5906.8 10833.9C5907.09 10822.2 5918.8 10819.2 5929.27 10818.1C6032.95 10807.6 6136.5 10795.4 6240.35 10787C6485.27 10767.2 6731.42 10765.1 6975.85 10737.4C7002.54 10734.3 7029.81 10736.5 7056.81 10736.3C7048.36 10746.6 7035.33 10749.2 7025.17 10745.5C6968.11 10724.4 6968.86 10780.2 6953.62 10804.9C6944.12 10820.3 6974.57 10812.3 6986.48 10816.5C7057.04 10809 7127.53 10817.7 7198.04 10818.3C7300.86 10819.2 7403.65 10829.3 7506.36 10830.3C7798.63 10833.1 8090.97 10833.3 8383.23 10830.2C8489.08 10829.1 8595.07 10820.6 8701.16 10815.4C8685.81 10810.5 8669.54 10809.9 8658.77 10796.2Z" fill="#F7B078"/>
<path d="M9286.95 10331.9C9248.99 10381.4 9189.83 10385.3 9136.47 10400.4C9079.97 10416.4 9022.22 10430.6 8972.09 10460.9C8949.21 10474.6 8914.84 10459.9 8901.93 10492.3C8849.41 10521.7 8790.1 10515.7 8734.5 10517.4C8152.68 10535.3 7570.6 10532.9 6988.69 10527.1C6730.92 10524.5 6472.93 10516.9 6215.21 10507.5C6115.82 10503.8 6016.48 10499.4 5917 10498.2C5891.62 10497.9 5866.44 10495 5843.29 10483.4C5827.48 10469.3 5812.3 10454.6 5807.53 10432.6C5809.96 10425.8 5821.97 10420 5812.34 10411.6C5803.48 10404 5791.93 10398.9 5780.75 10396.2C5729.32 10383.8 5694.11 10354.2 5675.78 10304.1C5664.32 10272.7 5640.63 10258 5607.16 10259.2C5560.54 10247.9 5510.86 10257.9 5465.34 10238.9C5470.34 10210.3 5495.14 10215.5 5512.77 10214C5676.83 10200.2 5831.35 10146.4 5988.21 10102.4C5996.33 10100.1 6004.52 10098 6012.34 10094.8C6024.61 10089.9 6040.38 10086.9 6038.69 10069.2C6037.21 10053.9 6023.88 10047.6 6010.89 10043C5990.25 10035.8 5967.96 10033.3 5948.8 10021.9C5938.83 10016 5927.52 10010.3 5930.79 9995.14L5931.04 9995.33C5977.85 9982.97 6026.28 9998.26 6073.15 9986.99C6076.32 9986.56 6079.49 9986.48 6082.66 9986.74C6098.03 10040.4 6144.23 10084.4 6132.75 10146.5C6123.09 10172.1 6099.19 10172.3 6078.1 10176C6009.88 10187.8 5940.96 10195.6 5873.49 10211.7C5843.8 10218.8 5814.45 10227.3 5788.39 10243.6C5753.31 10265.4 5753.38 10286.9 5789.14 10307C5823.36 10326.2 5861.28 10335.7 5899.66 10342.5C6102.89 10378.4 6308.22 10393.9 6513.93 10406C7021.79 10436.1 7530.3 10430.7 8038.36 10423.5C8404.03 10418.3 8771.19 10418.5 9133.78 10354.1C9184.39 10345.1 9233.14 10319.7 9286.95 10331.9Z" fill="#F9C099"/>
<path d="M5606.88 10533.3C5615.8 10550.9 5630.94 10557.5 5648.51 10551.1C5726.31 10522.7 5772.19 10585.5 5830.29 10613.3C5582.37 10615.3 5334.76 10605.6 5087.1 10595.7C4975.95 10591.3 4864.68 10588.9 4753.47 10585.3C4558.22 10579 4363.93 10564.1 4169.58 10545.2C4060.87 10534.6 3951.58 10529.7 3843.68 10511.5C3819.96 10507.5 3794.2 10504.7 3768.03 10475.6C4170.58 10401.1 4569.34 10383.5 4968.53 10370.5C4964.24 10411 4923.67 10411.6 4901.03 10432C4879.83 10441.7 4855.35 10440.5 4829.39 10453.5C4904.66 10477.4 4978.83 10478.2 5051.51 10486.1C5218.87 10504.2 5387.04 10512 5555.23 10518.5C5573.51 10519.2 5592.79 10517.5 5606.88 10533.3Z" fill="#F7AB6E"/>
<path d="M9793.47 10492.1C9823.65 10493.9 9851.22 10483.8 9888.9 10474.1C9857.78 10455.9 9832.67 10463.1 9809.29 10462.2C9767.6 10460.7 9727.13 10429.4 9720.38 10390.9C9717.28 10373.3 9731 10370.8 9742.27 10371.5C9765.25 10373 9775.9 10360.4 9783.1 10341.7C9949.2 10350.7 10115.3 10359.7 10281.4 10368.5C10368.8 10373.1 10456.2 10377.3 10543.5 10381.7C10549.4 10400.4 10536.7 10412.6 10523.9 10417.4C10453.4 10443.9 10427.1 10509.8 10389.2 10565.2C10381.5 10576.4 10374.3 10587.1 10361.5 10592.7C10186.7 10608.3 10011.3 10599.1 9836.34 10606.2C9595.78 10615.9 9355.11 10618.4 9114.48 10623.4C9122.12 10585 9155.45 10587.9 9182.04 10584.7C9203.59 10582.1 9218.42 10578.9 9216.14 10553.3C9230.89 10533.9 9252.85 10529.6 9274.61 10529.2C9434.34 10526.5 9591.48 10496.2 9750.39 10484.9C9765.75 10483.8 9780.46 10481.5 9793.47 10492.1Z" fill="#F7B179"/>
<path d="M5930.79 9995.14C5950.36 10016.5 5977.4 10022.3 6003.63 10025.2C6034.62 10028.7 6057.12 10043.3 6061.17 10072C6065.95 10105.8 6033.96 10102.5 6012.36 10109.1C5909.82 10140.4 5803.08 10160.6 5703.14 10194.8C5623.29 10222.1 5539.87 10202.6 5465.34 10238.9C5218.78 10231.9 4972.22 10224.9 4725.66 10217.9C4723.99 10188.7 4748.7 10185.2 4767.02 10175.5C4835.64 10139.2 4910.93 10121.6 4983.74 10096.8C5049.85 10074.3 5113.12 10043.7 5181.39 10027.2C5431.06 10013.6 5680.4 9992.09 5930.79 9995.14Z" fill="#F8B485"/>
<path d="M10361.5 10592.7C10374.9 10547.9 10412.7 10517.4 10429.9 10473.7C10440.5 10446.4 10470.2 10430.8 10498.5 10418.9C10516.9 10411.1 10534.7 10401.6 10543.6 10381.7C10711.8 10382 10879.2 10397.2 11046.8 10409.5C11202.5 10420.9 11357.4 10438.6 11511.5 10462.7C11535.4 10466.4 11575.7 10459.7 11577.4 10489.8C11578.3 10507.4 11535.8 10508.5 11511.7 10512.7C11377.6 10536.4 11241.4 10540.2 11106.5 10555.4C10877.2 10581 10647 10583.4 10417.1 10593.8C10398.7 10594.6 10380.1 10593.1 10361.5 10592.7Z" fill="#F69E59"/>
<path d="M10250 10218.6C10224.4 10198.7 10194.7 10209.8 10167.1 10209.3C10113.6 10208.3 10065.3 10195.7 10019.4 10166.8C9947.17 10121.4 9871.64 10081.2 9799.47 10035.6C9774.6 10019.9 9744.82 10037.5 9723.06 10017.2C9869.06 10026.2 10015.1 10035 10161.1 10044.4C10268.5 10051.3 10375.9 10059.4 10483.4 10066.4C10696.5 10080.1 10908 10107.1 11119 10139.2C11131.7 10141.2 11143.7 10147.5 11155.9 10158.5C10856.4 10218.5 10553.3 10220.3 10250 10218.6Z" fill="#F6A86A"/>
<path d="M8668.94 10917.1C8695.18 10899 8724.72 10909.1 8752.54 10908.6C8838.6 10907.1 8924.69 10908 9017.57 10908C8985.62 10871 9004.75 10862.5 9038.11 10856.3C9113.9 10842.2 9182.99 10803.9 9260.12 10793.3C9278.59 10790.8 9289.55 10777.6 9286.83 10756.9C9488.53 10764.5 9690.37 10768.7 9891.73 10784.6C10007.3 10793.7 10123.2 10799.6 10238.9 10807C10295.1 10810.6 10350.5 10818.2 10416.2 10835.9C10346.1 10865.1 10283.2 10857.7 10223.2 10864.7C10129.9 10875.7 10035 10872.4 9940.93 10878.3C9646.87 10897 9352.48 10904.2 9057.97 10911.4C8928.26 10914.6 8798.63 10915.7 8668.94 10917.1ZM5181.39 10027.2C5173.34 10035.6 5166.23 10050 5157.09 10051.4C5065.24 10065.9 4986.99 10119.5 4896.53 10139.1C4835.06 10152.4 4776.43 10178.3 4725.66 10217.9C4436.31 10227.7 4023.39 10194 3949.46 10152.8C4032.39 10128.1 4115.48 10120 4197.61 10108.1C4433.67 10074 4671.88 10060.8 4909.14 10038.4C4999.44 10029.9 5090.61 10030.6 5181.39 10027.2Z" fill="#F7A666"/>
<path d="M4907.58 10421.5C4915.68 10389.9 4957.04 10398.1 4968.53 10370.5C4971.63 10370 4974.74 10370 4977.85 10370.5C4993.8 10362.4 5012.46 10361.6 5026.4 10368.8C5080.27 10396.4 5134.03 10380.3 5187.79 10372C5206.05 10369.2 5224.17 10365.7 5242.55 10366.7C5318.17 10370.6 5392.35 10362.7 5465.1 10341.6C5511.8 10339.9 5558.24 10335.5 5602.97 10321.4C5620 10316 5640.95 10310.8 5644.62 10289.8C5649.71 10260.6 5614.29 10276.3 5607.16 10259.2C5638.69 10245.7 5669.35 10255.5 5678.15 10284.3C5700.01 10355.8 5759.93 10374.9 5817.71 10399.2C5829.44 10404.2 5848.89 10403.9 5844.38 10422C5840.2 10438.7 5821.27 10428.8 5809.21 10432.1C5789.11 10451.1 5765.2 10444 5742.01 10441.8C5591.02 10427.7 5439.78 10418.4 5288.06 10417C5232.29 10416.5 5177.65 10432.3 5121.7 10427C5070.14 10424.3 5019.92 10441.6 4968.23 10437.3C4947.04 10435.6 4924.61 10439 4907.58 10421.5Z" fill="#F8B485"/>
<path d="M5465.1 10341.6C5414.67 10370.5 5361.33 10387 5302.33 10381.1C5233.13 10374.1 5166.35 10394.8 5098.19 10399.7C5073.82 10401.4 5047.53 10408.9 5029.24 10382.7C5016.15 10364 4995.18 10373.9 4977.85 10370.5C4983.86 10367.8 4989.78 10363 4995.91 10362.7C5152.3 10355.4 5308.7 10348.5 5465.1 10341.6Z" fill="#F7AB6E"/>
<path d="M8891.74 10633.6C8945.19 10613.9 9000.46 10627.7 9054.83 10624.8C9001.29 10642.9 8946.16 10631.7 8891.74 10633.6Z" fill="#F7B179"/>
<path d="M6073.15 9986.99C6026.7 10005.3 5978.41 9992.46 5931.04 9995.33C5977.64 9979.4 6025.74 9988.99 6073.15 9986.99Z" fill="#F8B485"/>
<path d="M9237.36 10755.6C9196.59 10752.2 9154.6 10765.8 9114.96 10746.8C9155.8 10749.3 9197.62 10738 9237.36 10755.6Z" fill="#F7A666"/>
<path d="M7705.62 10289.8C7602.86 10289.8 7499.95 10286 7397.38 10290.4C7130.22 10301.8 6863.25 10282.5 6596.14 10289C6523.67 10290.7 6452.88 10279.3 6391.88 10232C6368.47 10213.8 6348.83 10195 6336.93 10168.2C6369.89 10117.8 6384.42 10061.4 6387.16 10002.4C6389.59 9950.27 6389.42 9897.9 6387.23 9845.78C6385.02 9793 6397.88 9745.87 6416.3 9695.91C6470.2 9549.77 6569.83 9447.77 6703.98 9377.48C6782.85 9336.16 6860.62 9352.72 6915.11 9413.49C6922.73 9421.98 6933.37 9432.68 6933.32 9442.3C6933.06 9484.58 6960.2 9509.35 6986.6 9535.62C7010.71 9559.6 7026.93 9586.12 7005.94 9620.7C6983.69 9619.55 6964.49 9650.07 6946.82 9637.02C6927.72 9622.92 6948.52 9596.5 6947.3 9575.05C6944.82 9531.67 6884.78 9489.54 6833.69 9489.65C6718.11 9489.88 6638.95 9550.29 6573.42 9637.14C6559.06 9656.16 6549.09 9672.18 6570.2 9694.15C6586.68 9711.3 6589.07 9730.73 6556.02 9725.82C6522.38 9720.83 6515.96 9738.78 6511.83 9765.39C6496.81 9862.14 6552.3 9948.84 6644.26 9971.82C6670.8 9978.46 6677.7 9953.93 6693.68 9943.81C6702 9938.54 6710.66 9929.67 6720.75 9936.97C6730.83 9944.26 6727.69 9956.45 6722.01 9964.25C6690.96 10006.9 6721.51 10019.4 6753.78 10031.6C6760.09 10034 6766.42 10036.3 6772.56 10039.1C6847.21 10072.9 6904.05 10055.4 6951.43 9986.47C6963.78 9968.5 6958.47 9960.05 6942.65 9950.74C6934.39 9945.88 6922.63 9939.74 6926.56 9928.27C6931.5 9913.87 6947.01 9914.6 6956.64 9919.82C6982.12 9933.64 6995.4 9908.11 7015.13 9904.59C7010.89 9960.72 7023.6 10012.3 7061.13 10055C7110.72 10111.5 7186.7 10118.7 7268.15 10082.3C7347.45 10046.9 7395.02 9980.05 7441.35 9913.08C7470.18 9871.41 7445.28 9823.62 7434.86 9781.31C7415.97 9704.67 7431.11 9635.7 7463.27 9567.23C7478.97 9533.79 7505.06 9511.66 7534.64 9490.9C7608.57 9439.05 7684.21 9389.97 7763.22 9346.41C7790.73 9331.25 7821.2 9321.34 7850.65 9309.86C7943.32 9273.74 7946.05 9271.86 8004.97 9349.31C8037.91 9392.61 8071.64 9439.04 8071.07 9498.75C8069.78 9499.83 8068.24 9502.07 8067.25 9501.85C8003.55 9487.41 7946.83 9501.22 7887.66 9529.96C7842.46 9551.91 7798.27 9569.08 7779.42 9618.46C7772.34 9637.01 7762.39 9637.64 7749.05 9632.76C7718.78 9621.68 7698.23 9638.35 7675.71 9654.1C7625.5 9689.22 7585.15 9734.34 7547.87 9781.71C7507.55 9832.93 7492.61 9891.5 7514.75 9955.86C7481.04 9968.05 7481.27 9998.41 7477.25 10026.3C7474.88 10042.8 7481.54 10061.4 7470.49 10075.6C7445.11 10108.2 7423.61 10137.9 7469.23 10173C7482.48 10183.2 7468.11 10196.2 7454.73 10192.9C7418.53 10183.8 7408.01 10210.5 7389.73 10238.9C7418.92 10232 7444.11 10224.5 7469.66 10231.3C7525.77 10230.9 7581.84 10219.2 7637.75 10235.5C7668.64 10244.6 7698.79 10251.9 7705.62 10289.8Z" fill="#838335"/>
<path d="M8547.77 9357.4C8495.84 9431.9 8424.25 9490.47 8377.75 9569.66C8355.41 9607.71 8335.8 9646.39 8323.02 9688.52C8313.52 9719.82 8295.13 9745.77 8262 9748.74C8227.9 9751.79 8201.62 9732.88 8185.29 9701.29C8148.99 9631.07 8147.36 9552.92 8132.97 9477.68C8139.56 9465.79 8145.9 9452.41 8162.48 9454.73C8179.14 9457.06 8181.32 9472.05 8184.59 9485.02C8195.77 9529.31 8195.32 9575.35 8204.71 9619.94C8209.29 9641.71 8212.3 9667.58 8239.49 9668.99C8268 9670.47 8266.09 9642.22 8269.06 9624.08C8286.12 9520 8333.41 9425.62 8362.85 9325.57C8390.6 9239.63 8405.88 9149.6 8447.43 9068.19C8485.79 9018.48 8501.49 8956.54 8536.95 8904.82C8585.57 8833.89 8632.69 8762.36 8701.63 8708.71C8723.93 8691.36 8737.49 8667.05 8742.06 8640.46C8760.98 8530.35 8820.77 8436.92 8866.27 8338.16C8895.32 8275.12 8913.81 8213.71 8908.93 8144.4C8905.27 8092.48 8910.69 8040.22 8904.32 7988.1C8902.46 7972.9 8890.52 7942.73 8929.16 7950.82C8959.04 7986.83 8970.32 8031.75 8986.17 8073.98C9080.59 8325.39 9119.51 8584.29 9092 8852.78C9074.85 9020.26 9058.81 9187.86 9039.93 9355.16C9035.34 9395.81 9044.63 9435.74 9044.76 9476.02C9038.51 9497.89 9042.81 9518.78 9049.72 9539.98C9053.43 9551.35 9053.07 9565.95 9039.14 9569.73C9026.96 9573.05 9016.48 9563.3 9010.38 9552.95C8990.58 9519.37 8976.96 9483.2 8969.93 9444.81C8952.69 9350.69 8947.44 9254.7 8918.86 9162.24C8885.98 9055.88 8879.19 9050.61 8776.88 9095.69C8741.05 9111.47 8708.23 9132.73 8686.71 9166.41C8649.45 9224.75 8600.43 9273.17 8556.86 9326.18C8551.6 9332.57 8520.61 9339.06 8547.77 9357.4Z" fill="#D57D37"/>
<path d="M7705.62 10289.8C7651.22 10235.2 7583.51 10234.9 7514.12 10244.2C7495.88 10246.7 7478.23 10255.5 7462.32 10239.1C7475.7 10222.4 7493.53 10221 7512.76 10224.6C7502.99 10221.4 7493.19 10217.5 7492.57 10205.5C7491.99 10194.2 7501.96 10190.6 7509.62 10191.3C7564.54 10196.4 7604.25 10159.6 7650.75 10141.6C7665.35 10135.9 7684.92 10121.3 7694.32 10142.7C7701.24 10158.4 7681.04 10167.3 7668.26 10174.8C7646.76 10187.3 7623.59 10196.9 7595.87 10212.9C7680.43 10233.1 7759.26 10228.5 7837.42 10223C7869.29 10220.7 7899.77 10207.4 7897.67 10162.9C7896.23 10132.4 7921.39 10137 7936.85 10145.2C7975.83 10165.8 8000.64 10149.5 8022.82 10119.2C8035.99 10101.2 8051.37 10084.8 8073.65 10079.3C8153.61 10059.4 8201.61 9996.89 8256.34 9943.45C8274.29 9925.92 8252.34 9922.8 8244.5 9914.09C8232.23 9900.45 8186.34 9894.76 8232.58 9865.22C8241.33 9859.63 8227.02 9852.28 8223.82 9845.53C8209.99 9816.44 8177.62 9808.1 8157.41 9786.12C8156.28 9774.76 8160.93 9766.87 8171.49 9762.51C8192.91 9771.56 8214.19 9780.95 8235.78 9789.59C8285.94 9809.65 8348.74 9778.3 8363.96 9726.95C8395.11 9621.82 8455.77 9533.27 8528.17 9453.71C8582.49 9394.01 8635.4 9334.01 8674.44 9263.28C8685.27 9243.67 8701.22 9234.05 8719.34 9225.04C8759.81 9254.05 8731.95 9292.04 8731.74 9326.53C8777.44 9313.53 8801.32 9326.76 8819.33 9377.48C8856.18 9481.23 8846.21 9585.19 8816.61 9688.28C8767.08 9860.76 8683.4 10016 8581.56 10163.3C8524.39 10245.9 8442.76 10271.2 8352.39 10278.1C8265.46 10284.8 8178.37 10296 8090.73 10289.2C8039.55 10277.2 7991.2 10245 7934.8 10277.8C7913.41 10290.2 7883 10279.9 7857.94 10289.3C7807.17 10289.5 7756.39 10289.6 7705.62 10289.8Z" fill="#7E7E35"/>
<path d="M9286.94 10331.9C9158.03 10371.4 9025.46 10389.3 8891.61 10401.6C8651.81 10423.7 8411.4 10427.5 8170.89 10435C7760.54 10447.8 7350.28 10442.7 6940.08 10438.6C6733.01 10436.4 6525.36 10431 6318.92 10410.2C6168.44 10395 6016.92 10386.3 5869.03 10351.5C5838.09 10344.2 5808.61 10330.9 5778.01 10322C5753.98 10315 5741.44 10300.4 5738.81 10275.7C5736.03 10249.5 5754.28 10241.8 5772.78 10232C5853.44 10189.5 5942.79 10182.6 6030.25 10167.6C6064.64 10161.8 6100.57 10163.1 6132.75 10146.5C6134.15 10163.3 6132.18 10179.1 6127.43 10195.7C6118.63 10226.5 6123.34 10256.4 6150.95 10276.8C6176.59 10295.7 6203.04 10290.7 6231.28 10278.1C6261.53 10264.6 6277.77 10235.1 6305.77 10220C6371.78 10339.5 6487.21 10359.5 6605.83 10358.8C6757.54 10358 6908.73 10372.3 7060.88 10363.9C7186.89 10357 7313.82 10369.4 7440.32 10368.8C7729.03 10367.5 8017.76 10360 8306.43 10362C8474.8 10363.2 8592.94 10291.3 8674.01 10148.7C8678.12 10141.5 8683.22 10134.8 8687.85 10127.9C8746.47 10158.8 8811.89 10148.3 8873.98 10156.9C8991.65 10173.2 9110.56 10180.9 9226.21 10210.4C9244.05 10214.9 9261.48 10221.4 9278.68 10228C9303.48 10237.6 9333.55 10244.3 9337.17 10276.4C9341.04 10310.7 9308.5 10317.5 9286.94 10331.9Z" fill="#CBCB3B"/>
<path d="M8374.34 9326.58C8375.3 9350.88 8365.03 9372.23 8355.93 9393.69C8322.55 9472.34 8296.4 9552.9 8280.83 9637.29C8277.49 9655.41 8285.59 9692.06 8249.09 9690C8213.74 9688 8192.99 9669.41 8191.03 9628.75C8188.81 9582.46 8175.64 9536.73 8172.71 9490.4C8169.79 9444.11 8150.55 9467.85 8132.96 9477.69C8116.17 9406.72 8096.69 9336.56 8037.89 9287.17C7984.81 9242.58 7918.11 9214.24 7848.45 9259.12C7738.04 9330.24 7621.09 9389.13 7504.8 9449.78C7419.81 9494.1 7404.44 9584.74 7393.08 9670.2C7383.37 9743.21 7400.59 9817.03 7392.4 9891.08C7380.75 9996.61 7261.81 10087.1 7158.58 10064.5C7100.71 10051.9 7059.49 10004 7058.45 9941.16C7057.8 9901.46 7062.09 9861.28 7075.81 9823.09C7097.49 9802.84 7101.31 9774.81 7101.4 9748.63C7101.6 9692.26 7122.5 9639.33 7124.91 9583.54C7125.46 9570.73 7126.65 9552.34 7142.66 9551.71C7158.18 9551.1 7161.11 9569.35 7164.76 9581.87C7183.8 9647.16 7180.11 9715.73 7192.89 9782C7198.71 9812.23 7205.81 9841.61 7227.83 9864.57C7237 9874.13 7247.34 9885.81 7262.43 9878.82C7274.83 9873.08 7274.22 9859.08 7274.68 9847.55C7277.34 9781.93 7272.66 9716.18 7284.17 9650.7C7291.8 9607.3 7300.61 9564.63 7316.27 9523.49C7346.02 9441.8 7401.2 9384.39 7480.4 9348.49C7515.64 9332.52 7550.94 9316.68 7587.3 9303.78C7652.95 9280.48 7712.55 9247.09 7766.93 9203.77C7793.33 9182.74 7822.99 9166.8 7853.23 9151.97C7869.8 9143.96 7886.08 9135.38 7902.96 9128.1C8011.02 9081.5 8058.22 9095.52 8122.28 9193.23C8127.78 9201.61 8133.08 9210.13 8137.72 9218.98C8162.22 9265.25 8178.79 9314.88 8198.13 9363.37C8222.9 9425.45 8227.24 9426.48 8282.36 9385.24C8302.57 9370.11 8323.07 9355.37 8340.46 9336.69C8349.21 9327.27 8358.61 9314.86 8374.34 9326.58Z" fill="#F0964E"/>
<path d="M7015.13 9904.59C6999.98 9940.48 6999.98 9940.48 6933.72 9928.72C6988.09 9967.59 6988.11 9967.6 6936.91 10019.2C6927.42 10028.8 6919.12 10040.7 6907.8 10047.1C6868.43 10069.6 6829.31 10105.8 6783.54 10057.3C6779.24 10052.7 6771.69 10051 6765.46 10048.5C6684.86 10015.8 6684.85 10015.8 6717.01 9942.85C6715.63 9942.58 6714.08 9941.76 6712.89 9942.12C6684.94 9950.63 6683.09 10005.3 6651.21 9991.38C6602.9 9970.27 6551.65 9942.35 6518.77 9903.02C6480.45 9857.18 6488.63 9793.81 6502.96 9735.83C6514.89 9687.54 6546.9 9712.32 6578.8 9718.3C6514.2 9685.01 6541.53 9652.78 6570.7 9618.76C6611.25 9571.45 6652.46 9520.83 6710.35 9499.14C6780.35 9472.91 6856.27 9463.12 6926.19 9507.04C6978.15 9539.67 6963.62 9587.11 6945.91 9641.35C6968.13 9623.15 6977.66 9581.46 7005.94 9620.71C7042.82 9714.24 7024.14 9809.57 7015.13 9904.59Z" fill="#989845"/>
<path d="M7330.26 9518.92C7294.35 9625.44 7286.06 9735.28 7289.54 9846.77C7290.18 9867.25 7297.69 9893.33 7268.44 9902.38C7242 9910.57 7227.84 9889.69 7214.13 9873.61C7173.14 9825.53 7173.58 9764.73 7169.13 9706.91C7165.27 9656.82 7155.94 9608.5 7141.97 9560.11C7146.04 9629.63 7112.01 9693.45 7115.6 9763.15C7116.75 9785.48 7114.81 9820.46 7075.82 9823.09C7082.69 9679.76 7070.03 9541.16 6986.82 9417.07C6898.86 9285.9 6776.25 9259.3 6643.84 9344.26C6579.59 9385.49 6525.14 9438.06 6469.91 9489.88C6336.28 9608 6296.02 9763.07 6301.69 9932.74C6304.59 10019.4 6280.02 10098.3 6255.83 10178.5C6252.83 10182.6 6250.5 10187.5 6246.71 10190.6C6227.86 10205.8 6213.13 10240.8 6188.22 10229.2C6169.48 10220.6 6191.37 10190.9 6194.2 10170.6C6204.37 10097.2 6178.53 10031.4 6153.57 9965.17C6155.41 9957.51 6160.22 9951.97 6166.24 9947.31C6186.17 9929.79 6168.87 9912.37 6163.74 9897.21C6142.37 9834.01 6157.2 9781.98 6197 9728.92C6245.56 9664.19 6253.42 9583.84 6262.22 9505.54C6264.44 9485.79 6260.66 9465.07 6272.84 9447.14C6372.19 9434.55 6450.43 9379.2 6535.73 9332.07C6602.62 9295.12 6678.95 9257.53 6761.44 9250.8C6779.96 9249.29 6798.24 9246.97 6816.8 9250.19C6851.19 9256.16 6884.75 9274.09 6904.14 9219.21C6914.13 9190.95 6948.99 9207.84 6968.23 9225.8C7016.52 9270.87 7067.69 9319.35 7089.34 9379.54C7124.8 9478.12 7198.19 9497.25 7285.59 9503.87C7301.5 9505.07 7320.44 9498.98 7330.26 9518.92Z" fill="#F5A363"/>
<path d="M8171.49 9762.51C8168.13 9769.24 8164.78 9775.98 8161.42 9782.71C8156.96 9791.55 8159.97 9804.69 8150.33 9809.9C8096.66 9838.93 8066.54 9894.03 8017.21 9928.34C7983.88 9951.51 7954.02 9959.02 7914.16 9943.8C7830.09 9911.71 7758.32 9858.83 7687.22 9816.1C7691.97 9817.76 7699.36 9826.25 7709.03 9830.83C7734.62 9842.97 7730.39 9858.8 7712.27 9872.78C7669.62 9905.69 7626.37 9938.02 7580.54 9966.31C7556.92 9980.89 7532.25 9980.09 7513.51 9955.02C7476.99 9908.78 7489.62 9825.92 7541.64 9765.86C7583.46 9717.56 7627.42 9671.4 7679.87 9634.6C7693.05 9625.35 7708.82 9604.48 7722.63 9612.23C7770.28 9638.99 7771.48 9593.03 7790.37 9574C7817.69 9546.48 7846.52 9521.15 7888.4 9519.18C7896.65 9518.8 7909.07 9519.68 7912.39 9514.95C7959.45 9447.84 8016.69 9488.23 8071.07 9498.75C8106.08 9550.34 8105.18 9613.28 8123.92 9670.1C8135.21 9704.34 8148.59 9735.29 8171.49 9762.51Z" fill="#9A9A46"/>
<path d="M5891.41 7988.75C5957.26 7935.05 5961.33 7916.67 5920.75 7856.48C5919.28 7849.34 5921 7842.7 5926.29 7838.08C6006.99 7767.55 6047.88 7668.74 6107.57 7583.3C6111.43 7577.78 6114.31 7571.58 6118.08 7565.99C6134.02 7542.35 6148.77 7509.88 6182 7517.54C6220.18 7526.33 6207.21 7564.27 6207.64 7590.67C6208.54 7646.25 6208.45 7701.77 6203.14 7757.53C6198.13 7810.1 6215.25 7860.9 6262.11 7889.62C6306.81 7917 6356.28 7910.01 6402.01 7884.7C6469.26 7847.48 6522.61 7792.58 6579.14 7742.17C6714.14 7621.79 6857.39 7511.93 7002.58 7404.49C7049.22 7369.97 7102.3 7355.92 7160.47 7367.07C7172.08 7369.3 7183.79 7372.07 7190.4 7383.58C7186.33 7398.35 7185.37 7411.04 7201.82 7420.95C7213.45 7427.95 7228.81 7436.89 7216.55 7455.65C7199.39 7464.75 7183.56 7457.08 7168.02 7451.12C7115.38 7430.92 7070.29 7444.12 7026.56 7477.2C6896.15 7575.84 6772.99 7683.07 6649.97 7790.51C6578.97 7852.51 6509.05 7915.36 6424.48 7959.92C6254.04 8049.73 6131.77 7922.96 6121.84 7779.77C6119.75 7749.63 6121.49 7719.3 6121.23 7677.24C6084.39 7773.19 6037.36 7851.34 5991.35 7930.04C5962.73 7978.94 5926.13 8022.94 5902.83 8075.15C5898.95 8083.84 5893.9 8093.78 5880.71 8090.12C5857.08 8089.03 5851.99 8076.47 5860.65 8056.52C5870.53 8033.76 5881.13 8011.32 5891.41 7988.75Z" fill="#BCBC17"/>
<path d="M8547.77 9357.4C8522.98 9345.81 8522.6 9380.14 8491.48 9379.87C8524.54 9344.74 8544.5 9303.33 8574.62 9280.61C8616.95 9248.69 8642.41 9206.3 8668.74 9165.8C8715.84 9093.33 8793.94 9080.22 8862.61 9048.3C8882.55 9039.03 8888.76 9057.96 8895.64 9070.57C8934.71 9142.23 8949.86 9221.03 8962.75 9300.38C8975.31 9377.69 8974.96 9457.61 9011.64 9529.98C9018.43 9543.39 9021.14 9558.47 9038.88 9562.89C9053.85 9536.76 9006.87 9515.89 9032.93 9489.42C9061.29 9515.88 9077.25 9548.54 9081.68 9586.95C9051.5 9634.52 9015.02 9633.17 8984.05 9581.95C8937.83 9505.5 8903.01 9424.79 8891.47 9334.91C8884.85 9283.27 8869.76 9233.39 8846.63 9186.51C8834.7 9162.34 8821.07 9138.67 8790.4 9133.93C8767.39 9112.88 8751.8 9129.41 8734.44 9143.82C8693.72 9177.62 8664.14 9221.23 8637.33 9264.98C8613.62 9303.68 8580.45 9329.43 8547.77 9357.4Z" fill="#B7B719"/>
<path d="M5829.54 9661.57C5792.17 9603.8 5795.39 9538.49 5803.17 9475.89C5817.76 9358.59 5803.63 9243.77 5785.83 9128.76C5777.85 9077.19 5768.1 9025.92 5766.84 8973.56C5781.79 8959.34 5782.87 8927.92 5814.91 8934.83C5836.8 9007.48 5835.6 9084.22 5854.6 9157.33C5863.13 9202.34 5882.28 9245.73 5869.99 9293.81C5865.45 9311.59 5884.12 9284.51 5885.86 9298.71C5971.57 9391.88 5951.98 9500.7 5931.29 9609.25C5927.51 9629.07 5917.15 9647.11 5903.05 9662.33C5878.26 9689.09 5853.67 9698.41 5829.54 9661.57Z" fill="#EB9F62"/>
<path d="M5808.19 8931.82C5796.49 8947.78 5800.06 8978.88 5766.85 8973.55C5751.47 8856.75 5752.97 8739.29 5761.45 8622.49C5774.74 8439.54 5812.36 8261.17 5880.71 8090.11C5910.45 8033.31 5940.72 7976.83 5981.43 7926.78C6002.34 7917.95 6008.28 7931.09 6012 7947.55C6012.99 7963.42 6006.14 7976.95 5998.82 7990.25C5892.77 8183.01 5855.94 8393.88 5833.46 8609.24C5824.34 8696.59 5826.02 8783.71 5824.39 8871C5823.99 8892.28 5828 8915.42 5808.19 8931.82Z" fill="#F8B486"/>
<path d="M5829.54 9661.57C5863.13 9693.59 5884.09 9668.47 5901.86 9643.41C5949.57 9576.15 5941.89 9400.78 5888.97 9334.66C5879.18 9322.43 5882.44 9309.24 5880.59 9296.28C5867.08 9266.01 5889.19 9252.95 5909.49 9242.33C5932.72 9230.17 5951.62 9242.7 5965.88 9261.19C5984.66 9285.54 5991.83 9315.19 6000.44 9343.95C6021.53 9414.38 6031.38 9487.55 6052.21 9558.04C6079.25 9670.68 6118.69 9779.41 6156.74 9888.6C6164.15 9909.89 6180.34 9930.67 6165.14 9955.06C6161.29 9958.43 6157.43 9961.8 6153.57 9965.17C6081.62 9826.94 6013.78 9687.26 6003.04 9515.08C5970.07 9571.38 5974.9 9623.13 5960.51 9669.65C5946.67 9714.41 5904.37 9741.84 5878.81 9717.15C5861.97 9700.89 5832.1 9691.66 5829.54 9661.57Z" fill="#DC792B"/>
<path d="M6255.83 10178.5C6263.54 10080.8 6293.08 9986.49 6290.33 9886C6288.83 9831.49 6287.61 9772.01 6306.78 9716.91C6338.77 9624.97 6383.79 9542.76 6469.9 9489.87C6448.86 9543.7 6405.83 9583.43 6378.7 9634.07C6343.36 9700.04 6327.38 9769.08 6327.95 9841.68C6328.68 9933.08 6315.67 10022.2 6293.58 10110.2C6287.36 10135 6284.01 10164.5 6255.83 10178.5Z" fill="#D87323"/>
<path d="M9081.68 9586.95C9065.1 9554.6 9041.76 9525.64 9032.94 9489.42C9011.51 9329.41 9044.14 9172.59 9064.41 9015.62C9111.59 8650.27 9080.62 8296.55 8923.32 7959.07C8921.94 7956.1 8921.9 7952.51 8921.24 7949.21C8910.12 7943.95 8901.95 7935.51 8896.83 7924.57C8829.84 7781.13 8745.59 7646.7 8677.36 7503.87C8667.21 7472.42 8647.14 7444.67 8641.68 7411.65C8636.02 7377.4 8647.27 7368.31 8677.69 7380.7C8698.92 7457.71 8771.54 7497.26 8809.59 7562.94C8922.91 7758.52 9017.82 7961.49 9075.55 8180.77C9076.75 8185.35 9080.66 8189.22 9083.31 8193.43C9113.42 8341.77 9134.96 8490.69 9136.7 8642.86C9138.91 8835.65 9111.53 9024.67 9079.25 9213.65C9061.66 9316.64 9046.85 9419.94 9082.75 9522.69C9090.07 9543.62 9089.91 9565.67 9081.68 9586.95Z" fill="#E8A36C"/>
<path d="M7857.94 10289.3C7892.84 10267.4 7935.29 10262.9 7972.7 10249.5C8004.6 10238.2 8058.24 10254.3 8090.74 10289.2C8013.14 10289.2 7935.54 10289.3 7857.94 10289.3Z" fill="#838335"/>
<path d="M8677.69 7380.7C8645.29 7368.8 8646.69 7389.3 8653.04 7408.83C8663.34 7440.44 8676.55 7471.1 8688.52 7502.16C8647.47 7551.06 8659.63 7611.05 8657.75 7666.65C8655.83 7723.86 8648.67 7780.9 8650.79 7838.25C8650.91 7841.58 8651.09 7846.43 8649.08 7848.02C8608.96 7879.54 8605.34 7932.15 8577.71 7970.83C8545.03 7962.43 8558.72 7931.44 8548.85 7911.94C8523.71 7767.5 8477.64 7629.97 8411.2 7492.55C8382.77 7539.25 8365.24 7585.72 8340.77 7628.43C8300.55 7690.71 8258.03 7750.82 8201.4 7800.02C8102.78 7885.69 7988.74 7926 7858.43 7921.16C7726.35 7920.52 7614.56 7859.6 7503.97 7798.17C7439.07 7762.12 7374.53 7725.59 7307.74 7693.15C7166.68 7624.63 7031.38 7633.13 6899.9 7720.18C6815.09 7776.33 6742.41 7847.1 6662.73 7909.36C6596.31 7961.26 6530.51 8014.08 6453.84 8051.25C6304.36 8123.72 6187.74 8102.94 6075.12 7982.47C6063.7 7970.26 6054.15 7955.69 6036.59 7951.21C6025.35 7950.15 6014.3 7955.31 6003.01 7952.46C6003.78 7937.21 5995.82 7929.3 5981.43 7926.79C6028.62 7837.63 6080.38 7750.8 6119.04 7657.27C6119.93 7655.11 6124.4 7654.43 6134.03 7649.73C6134.03 7693.99 6133.15 7735.1 6134.2 7776.16C6136.74 7874.87 6203.74 7964.35 6288.4 7976.17C6359.43 7986.08 6420.01 7953.66 6476.28 7915.04C6590.47 7836.68 6686.05 7735.92 6793.23 7649.09C6870.29 7586.66 6947.83 7524.82 7024.8 7462.28C7074.4 7421.98 7127.34 7417.24 7184.6 7443.84C7195.04 7448.69 7207.12 7450.02 7218.44 7452.97C7258.22 7454.56 7286.19 7481.36 7316.34 7501.45C7411.72 7564.99 7500.49 7638.25 7599.86 7695.97C7661.25 7731.63 7724.53 7761.41 7795.81 7774.68C7915.23 7796.92 8020.2 7763.01 8115.89 7696.61C8237.15 7612.47 8312.94 7490.91 8379.74 7362.61C8408.49 7307.38 8437.37 7250.88 8493.29 7216.78C8557.24 7177.79 8609.13 7199.25 8632.49 7272.88C8601.61 7292.19 8599.69 7252.82 8581.42 7248.59C8597.11 7257.15 8602.73 7282.13 8627.45 7279.31C8631.2 7275.25 8634.68 7275.47 8637.89 7279.96C8653.03 7312.79 8672.98 7343.74 8677.69 7380.7Z" fill="#E18F4F"/>
<path d="M8903.13 7330.49C8904.59 7359.09 8891.75 7382.01 8875.68 7404.44C8844.38 7448.13 8807.3 7453.74 8765.32 7420.71C8706.3 7374.29 8694.58 7305.63 8678.45 7238.91C8666.7 7231.63 8659.37 7220.57 8651.34 7209.59C8599.78 7139.07 8515.85 7130.57 8449.3 7188.06C8396.67 7233.54 8368.72 7295.95 8336.92 7355C8281.11 7458.63 8212.36 7550.7 8121.46 7626.46C8075.1 7665.1 8022.78 7690.66 7966.8 7710.18C7947.64 7716.86 7927.4 7720.95 7908.56 7707.61C7902.61 7679.84 7925.19 7675.99 7942.27 7668.79C7964.87 7659.27 7989.06 7652.88 8003.5 7630.54C8133.74 7572.42 8195.34 7458.8 8248.45 7335.41C8288.98 7241.23 8331.73 7146.21 8422.71 7086.18C8443.48 7072.48 8444.76 7054.12 8434.84 7033.17C8416.12 6993.61 8402.71 6951.51 8377.7 6914.97C8344.74 6838.04 8298.86 6767.7 8263.75 6691.85C8236.26 6633.86 8215.73 6573.35 8197.97 6511.79C8191.23 6492.68 8186.62 6473.03 8182.66 6453.21C8177.57 6427.77 8183.46 6407.23 8206.59 6392.15C8236.6 6372.59 8257.99 6344.92 8279.24 6316.12C8331.78 6244.92 8339.62 6172.44 8295.21 6094.88C8285.09 6077.19 8280.04 6057.34 8281.44 6036.63C8282.34 6023.41 8281.85 6007.15 8297.19 6002.67C8312.83 5998.09 8321.47 6011.92 8328.18 6023.36C8365.01 6086.25 8391.51 6153.39 8407.8 6224.39C8417.57 6267 8426.83 6309.74 8436.2 6352.43C8452.24 6447.8 8499.09 6529.8 8552.11 6607.89C8629.73 6722.22 8705.27 6837.43 8759.14 6965.33C8778.89 7012.22 8811.51 7051.49 8835.09 7096.07C8864.57 7151.82 8885.45 7210.1 8884.44 7274.11C8884.11 7295.61 8892.32 7313.22 8903.13 7330.49Z" fill="#D57A32"/>
<path d="M8090.73 5312.62C8117.4 5348.9 8130.32 5391.04 8142.27 5433.59C8148.42 5464.55 8157.44 5494.72 8156.97 5527.1C8155.56 5625.6 8089.65 5675.27 7997.46 5645.75C7969.04 5636.65 7940.77 5627.1 7910.35 5616.36C7931.78 5647.91 7932.52 5683.34 7936.68 5717.89C7939.63 5742.32 7932.28 5761.02 7905.99 5767.79C7883.6 5771.18 7868.16 5758.13 7851.96 5745.71C7746.71 5665 7666.97 5560.95 7586.86 5457.18C7550.82 5404.4 7518.69 5349.17 7486.5 5294.05C7475.28 5274.83 7456.59 5255.52 7472.44 5229.66C7499.26 5227.12 7509.86 5248.6 7523.86 5264.72C7617.33 5372.28 7724.6 5463.93 7847.28 5541.59C7634.29 5141.6 7532.83 4705.71 7428.13 4270.85C7414.98 4213.3 7401.03 4155.9 7389.68 4098.01C7385.13 4074.76 7366.54 4041.62 7394.07 4029.11C7417.24 4018.57 7429.32 4053.35 7444 4070.22C7524.59 4162.84 7562.86 4277.36 7605.27 4389.15C7716.75 4682.92 7842.32 4970.1 7995.1 5245.02C8024.53 5297.99 8048.33 5353.96 8080.4 5412.94C8091.82 5376.42 8063.88 5340.98 8090.73 5312.62Z" fill="#E69250"/>
<path d="M8090.73 5312.62C8079.75 5354.14 8120.98 5398.03 8083.96 5440.75C8065.44 5430.93 8064.82 5410.45 8057.02 5395.51C7993.82 5274.5 7932.03 5152.75 7869 5031.64C7737.38 4778.76 7639.84 4511.34 7534.68 4247.22C7502.54 4166.51 7451.49 4099.39 7389.75 4036.08C7406.99 4113.64 7424.23 4191.2 7441.47 4268.76C7431.72 4276.61 7419.41 4274.84 7414.44 4266.63C7389.05 4224.69 7341.57 4213.99 7305.62 4187.21C7272.82 4162.77 7264.8 4165.3 7257.74 4206.87C7237.73 4324.77 7222.95 4443.41 7213.66 4562.78C7199.52 4702.96 7211.21 4843.97 7198.67 4984.15C7194.33 4992.96 7189.5 5001.12 7177.48 4998.99C7155.14 4968.66 7165.74 4933.54 7163.08 4900.34C7164.1 4862.76 7168.23 4825.04 7158.66 4787.84C7155.74 4773.49 7155.71 4759.12 7158.29 4744.75C7175.94 4672.38 7151.1 4601.95 7148.31 4530.63C7148.29 4525.57 7149.12 4520.53 7150.57 4515.7C7173.59 4477.49 7167.41 4439.63 7148.72 4402.3C7126.6 4400.91 7126.65 4427.59 7109.93 4432.67C7091.8 4436.33 7094.13 4420.1 7088.98 4411.11C7115.05 4315.42 7144.2 4220.7 7179.07 4127.82C7192.14 4093.03 7208.44 4059.92 7228.75 4028.59C7290.22 3933.78 7387.83 3922.68 7466.17 4005.31C7498.29 4039.2 7523.7 4079.45 7552.16 4116.81C7731.22 4515.62 7866.97 4933.93 8090.73 5312.62Z" fill="#FFA45C"/>
<path d="M8425.68 6356.83C8401.94 6283.44 8395.53 6205.52 8366.06 6133.51C8348.36 6090.23 8328.69 6048.38 8298.73 6001.54C8290.43 6036.26 8289.93 6062.33 8305.1 6085.21C8388.47 6210.96 8310.78 6321.2 8230.47 6390.11C8194.96 6420.57 8188.28 6443.18 8202.46 6480.95C8205.99 6490.37 8208.8 6500.07 8211.94 6509.64C8121.27 6547.13 8033.47 6536.89 7947.63 6493.87C7936.16 6454.76 7966.85 6456.92 7988.49 6455.37C8028.72 6452.49 8069.21 6454.15 8108.23 6440.66C8161.38 6422.3 8169.87 6410.26 8157.99 6355.38C8126.61 6210.39 8082.27 6069.2 8030.89 5930.13C8021.78 5905.47 8004.54 5882.1 8014.31 5853.21C8031.85 5831.27 8056.94 5838.35 8079.59 5836.8C8096.28 5835.66 8113.15 5836.67 8129.54 5832.36C8175.4 5820.3 8183.93 5803.66 8166.71 5760.1C8157.45 5736.69 8144.06 5715.13 8135.25 5691.6C8130.85 5679.82 8121.57 5664.78 8136.9 5655.61C8150.85 5647.26 8161.89 5659.42 8171.81 5668.32C8189.27 5683.97 8201.87 5704.43 8220.99 5718.48C8279.05 5810.9 8338.56 5902.31 8388.91 5999.49C8439.14 6096.43 8453.31 6199.93 8454.57 6306.74C8444.52 6323.19 8461.9 6355.47 8425.68 6356.83Z" fill="#DC8541"/>
<path d="M7908.27 7704.6C7991.97 7703.34 8056.83 7660.64 8119.45 7610.94C8230.36 7522.92 8297.09 7402.68 8362.99 7281.74C8382.43 7246.07 8404.22 7212.8 8433.63 7184.31C8520.15 7100.51 8635.78 7126.01 8678.46 7238.91C8653.85 7241.64 8636.09 7251.13 8637.89 7279.95C8634.59 7279.42 8631.27 7279.08 8627.93 7278.92L8628.4 7279.5C8592.32 7198.66 8533.52 7186.1 8471.84 7248.54C8414.08 7307.03 8383.11 7383.32 8344.03 7453.8C8282.34 7565.04 8202.93 7660.46 8094.53 7727.09C7922.95 7832.55 7752.89 7810 7590.31 7705.02C7464.54 7623.8 7342.27 7537.17 7218.44 7452.95C7212.65 7432.59 7192.73 7429.85 7178.01 7420.67C7169.71 7415.49 7159.03 7410.35 7163.34 7398.89C7167.47 7387.91 7179.86 7391.71 7189.05 7390.33C7215.79 7374.74 7237.54 7392.64 7259.74 7402.06C7344.15 7437.89 7414.17 7496.9 7488.01 7549.08C7606.64 7632.91 7728.02 7704.91 7880.98 7693.94C7891.17 7693.21 7900.92 7696.58 7908.27 7704.6Z" fill="#A8A80B"/>
<path d="M8220.99 5718.48C8183.97 5714.41 8170.55 5677.72 8132.98 5652.57C8153.86 5700.62 8165.94 5740.44 8187.38 5774.34C8208.37 5807.51 8190.62 5817.41 8167.49 5832.03C8120.79 5861.54 8069.42 5845.71 8020.12 5849.73C7978.41 5834.31 7942.37 5808.77 7905 5785.48C7898.33 5777.86 7893.07 5769.75 7895.92 5758.89C7920.93 5756.24 7928.05 5745.25 7924.91 5718.31C7919.95 5675.7 7905.44 5636.89 7877.84 5588.39C7931.69 5607.62 7971.27 5622.51 8011.36 5635.9C8075.31 5657.26 8148.68 5606.85 8150.73 5538.01C8151.77 5503.32 8145.32 5468.41 8142.26 5433.6C8156.53 5451.38 8162.81 5472.73 8161.52 5494.41C8156.67 5575.92 8178.26 5649.88 8220.99 5718.48Z" fill="#D5782F"/>
<path d="M8425.68 6356.83C8443.98 6345.13 8440.25 6320.72 8454.58 6306.74C8508.81 6456.67 8597.73 6588.06 8677.09 6724.64C8754.11 6857.19 8824.89 6993.1 8884.07 7134.63C8910.28 7197.32 8924.72 7262.49 8903.12 7330.48C8879.1 7331.64 8870.59 7319.73 8871.66 7296.45C8876.12 7199.38 8836.56 7118.76 8784.4 7039.2C8742.37 6975.08 8713.87 6902.12 8679.18 6833.17C8624.66 6724.79 8544.51 6632.47 8486.86 6525.86C8457.82 6472.16 8433.62 6417.7 8425.68 6356.83Z" fill="#E29252"/>
<path d="M6276.27 6874.2C6243.57 6848.86 6239.48 6815.53 6252.45 6779.48C6261.48 6754.37 6272.28 6729.48 6285.52 6706.35C6399.95 6506.42 6491.29 6295.95 6572.97 6081C6577.03 6070.32 6583.44 6060.54 6588.75 6050.34C6635.05 6062.09 6642.1 6073.05 6629.16 6115.38C6620.39 6144.06 6607.32 6171.48 6604.24 6201.75C6581.07 6290.38 6536.88 6370.01 6494.69 6450.2C6464.96 6506.71 6432.4 6561.88 6396.73 6615.07C6387.57 6628.74 6376.7 6642.51 6379.5 6664.29C6405.66 6669.44 6417.85 6648.35 6431.21 6634.01C6485.48 6575.72 6526.02 6507.68 6565.55 6439.07C6574.74 6423.12 6581.24 6405.33 6597.06 6394C6618.72 6386.53 6632.9 6371.06 6645.23 6352.28C6653.66 6339.43 6662.55 6316.57 6682.06 6329.62C6698.31 6340.48 6688.22 6360.83 6680.36 6375.46C6649.5 6432.9 6619.58 6490.8 6580.48 6543.55C6555.73 6576.94 6524.99 6606.49 6509.82 6646.49C6506.22 6655.98 6506.08 6666.16 6504.87 6676.15C6470.91 6748.92 6419.91 6808.4 6360.47 6861.34C6335.09 6883.94 6306.66 6885.11 6276.27 6874.2Z" fill="#F8B588"/>
<path d="M6591.33 6205.82C6588.72 6176.28 6600.46 6148.74 6613.03 6124.94C6632.72 6087.66 6621.09 6067.31 6588.76 6050.34C6660.58 5842.54 6732.26 5634.72 6793.39 5423.41C6867.59 5166.91 6942.97 4910.76 7017.84 4654.45C7047.43 4664.78 7030.72 4696.39 7045.21 4713.76C7034.22 4807 6997.9 4894.07 6979.04 4985.42C6974.34 5008.16 6967.65 5030.71 6960.68 5053.01C6952.6 5102.96 6934.42 5150.41 6924.54 5199.92C6914.04 5227 6906.68 5254.75 6906.88 5284.12C6816.6 5558.36 6747.97 5839.43 6647.38 6110.37C6634.7 6144.52 6634.48 6188.56 6591.33 6205.82Z" fill="#F9C39E"/>
<path d="M6174.01 7152.58C6237.9 7082.79 6310.56 7022.54 6382.19 6961.16C6398.71 6947 6417.06 6934.36 6427 6913.88C6480.34 6869.33 6519.55 6814.11 6549.31 6751.76C6591.12 6754.62 6595.32 6762.23 6586.61 6819.04C6562.51 6894.72 6511.74 6948.29 6446.87 6991.72C6412.41 7014.8 6373.48 7033.75 6351.79 7072.32C6315.31 7105.27 6277.49 7136.33 6230.9 7154.49C6218.32 7157.97 6208.24 7167.34 6195.8 7170.48C6181.96 7173.96 6168.8 7173.67 6174.01 7152.58Z" fill="#EC934C"/>
<path d="M6570.06 6822.92C6579.08 6794.56 6597.81 6763.37 6549.32 6751.76C6550.26 6740.42 6551.21 6729.09 6552.36 6715.39C6529.99 6717.54 6524.7 6735.92 6515.42 6750.35C6483.39 6800.15 6442.31 6841.47 6392.55 6873.14C6355 6897.04 6315.27 6903.11 6276.26 6874.2C6316.13 6877.75 6346.73 6861.18 6374.17 6833.18C6422.42 6783.94 6464.15 6730.1 6498.32 6670.31C6499.15 6654.87 6504.64 6645.5 6522.28 6651.82C6530.8 6665.81 6537.51 6679.64 6554.86 6687.64C6622.79 6718.97 6634 6772.61 6587.6 6835C6577.54 6837.08 6574.67 6828.74 6570.06 6822.92Z" fill="#DB792B"/>
<path d="M7036.25 4704.15C7006.19 4696.44 7038.31 4665.71 7017.84 4654.45C7041.55 4573.34 7065.27 4492.23 7088.98 4411.11C7095.23 4417.69 7101.48 4424.27 7107.73 4430.84C7112.11 4436.22 7115.25 4442.47 7114.25 4449.28C7102.01 4532.45 7072.82 4611.3 7051.57 4692.18C7049.86 4698.67 7042.75 4701.89 7036.25 4704.15Z" fill="#FAB586"/>
<path d="M7908.27 7704.6C7749.74 7725.59 7620.21 7658.58 7495.77 7571.86C7398.18 7503.85 7309.07 7420.7 7189.04 7390.33C7130.51 7363.27 7074.04 7372.48 7023.28 7407.02C6901.01 7490.24 6788.15 7585.88 6672.64 7678.01C6588.57 7745.07 6516.66 7826.33 6425.72 7885.47C6369.05 7922.32 6309.3 7938.41 6251.79 7898.79C6196.63 7860.79 6182.65 7802.49 6191.89 7734.59C6199.56 7678.19 6195.25 7620.1 6195.2 7562.76C6195.19 7548.9 6201.49 7529.48 6180.31 7525C6162.71 7521.27 6152.05 7536.29 6144.15 7548.28C6113.63 7594.55 6083.64 7641.25 6055.67 7689.09C6019.01 7751.8 5981.98 7813.76 5920.75 7856.49C5909.31 7856.67 5897.29 7854.62 5886.53 7857.42C5845.06 7868.21 5824.27 7857.46 5832.17 7810.81C5832.94 7806.28 5825.55 7800.36 5821.95 7795.08C5910.17 7788.95 5925.88 7718.55 5945.74 7653.41C5970.78 7571.26 5999.88 7491.43 6053.44 7422.67C6069.98 7401.43 6088.67 7382.33 6107.56 7363.27C6132.61 7339.16 6163.13 7326.15 6196.67 7319.19C6251.82 7323.24 6293.57 7357.2 6304.51 7413.92C6314.97 7468.2 6324.57 7522.62 6313.64 7579.29C6306.91 7614.21 6296.42 7657.43 6335.19 7681.12C6373.54 7704.55 6406.82 7676.87 6436.31 7655.41C6564.18 7562.34 6708.43 7492.95 6824.53 7382.52C6862.19 7346.7 6910.84 7324.44 6961.45 7308.34C6999.53 7296.23 7036.88 7294.35 7075.92 7302.86C7186.32 7326.92 7287.47 7370.33 7376.29 7441.14C7399.99 7460.04 7424.63 7477.82 7450.28 7494.12C7506.84 7533.39 7566.7 7566.39 7629.04 7595.84C7728.68 7642.91 7831.51 7650.59 7938.35 7631.15C7961.98 7626.85 7987.13 7613.54 8010.13 7634.25C8008.03 7661.16 7985.81 7665.68 7966.55 7674.02C7946.39 7682.74 7920.37 7680.52 7908.27 7704.6Z" fill="#EE9249"/>
<path d="M6114.61 7371.35C6009.53 7468.55 5977.23 7602.84 5931.04 7730.22C5908.17 7793.3 5884.95 7806.11 5821.94 7795.09C5807.71 7663.39 5868.61 7553.52 5926.94 7444.01C5987.93 7329.48 6081.37 7241.08 6174 7152.6C6179.22 7169.14 6187.85 7165.98 6199.45 7158.38C6207.08 7153.38 6210.45 7134.91 6225.51 7147.96C6220.71 7194.46 6169.74 7201.04 6150.43 7235C6101.06 7270.63 6103.09 7319.74 6114.61 7371.35Z" fill="#F5B07A"/>
<path d="M4907.58 10421.5C4979.11 10427.9 5049.68 10412.5 5120.91 10412.1C5131.93 10436.9 5155.82 10436.9 5176.87 10438.6C5295.79 10448.5 5414.93 10455.6 5534.26 10456.5C5621.73 10457.1 5709.26 10459.3 5796.71 10454.6C5808.51 10454 5820.38 10453.4 5830.11 10462.1C5851.5 10476.9 5876.39 10482.2 5901.12 10481.7C6020.74 10479.4 6139.97 10490.1 6259.36 10491.7C6471.57 10494.5 6683.94 10498.2 6895.87 10505C7391.63 10520.8 7887.31 10512.2 8382.9 10509.4C8555.48 10508.4 8729.42 10511.8 8901.93 10492.3C9024.97 10492.2 9148.36 10498.1 9270.96 10490.7C9428.6 10481.3 9586.41 10480.4 9744.05 10473.3C9761.28 10472.5 9786.76 10460.9 9793.48 10492.1C9601.7 10518.8 9408.94 10536.2 9216.15 10553.3C8965.5 10563.7 8714.98 10574.6 8463.96 10576.8C8370.19 10577.6 8275.65 10582.4 8181.49 10583.3C7965.78 10585.3 7749.98 10591.3 7534.45 10591C7290.18 10590.6 7045.54 10589.7 6801.42 10581C6680.17 10576.6 6558.8 10580.1 6437.89 10572.6C6218.02 10558.9 5998.16 10547.5 5777.94 10540.9C5721.14 10539.2 5664.1 10532.4 5606.88 10533.3C5258.35 10530.5 4863.22 10493 4789.19 10453.9C4824.26 10421 4868.66 10430.3 4907.58 10421.5Z" fill="#FAD6BD"/>
<path d="M8658.77 10796.2C8694.48 10793.8 8727.99 10802.5 8761.65 10822.8C8727.09 10827.4 8692.66 10834.5 8657.96 10836.2C8346.26 10851.8 8034.29 10845.6 7722.41 10848.3C7562.17 10849.7 7402.45 10839.6 7242.47 10835.8C7157.03 10833.8 7071.79 10823.2 6986.47 10816.5C6993.45 10807.2 7003.54 10806.4 7013.78 10806.8C7128.24 10811.4 7242.33 10802.4 7356.44 10796.4C7725.09 10777.1 8094 10790.9 8462.75 10786.2C8528.47 10785.4 8592.89 10804.1 8658.77 10796.2Z" fill="#FBD3B8"/>
<path d="M5830.12 10462.1C5804.11 10469.7 5777.64 10471.6 5750.49 10472.4C5575.11 10477.1 5400.1 10465.5 5224.95 10461C5193.23 10460.2 5161.5 10454.6 5130.04 10449.6C5099.69 10444.7 5106.51 10428.9 5120.9 10412.1C5320.87 10391.5 5520.27 10407.9 5719.65 10422C5749.54 10424.1 5778.6 10435.1 5809.21 10432.1C5809.92 10446.4 5843.76 10437.7 5830.12 10462.1Z" fill="#FAF5EE"/>
<path d="M7513.51 9955.02C7546.35 9970.36 7572.13 9962.4 7600.01 9938.6C7636.78 9907.22 7679 9882.24 7722.93 9851.7C7696.75 9833.99 7672.99 9817.91 7637.15 9793.66C7692.83 9797.34 7723.49 9823.88 7753.66 9843.37C7810.61 9880.16 7869.46 9911.25 7931.96 9936.76C7952.68 9945.21 7970.63 9948.39 7987.85 9931.88C8025.3 9895.97 8077.95 9877.56 8100.03 9822.66C8107.46 9804.18 8149.86 9811.4 8161.43 9782.71C8219.05 9785.57 8224.64 9849.53 8268.57 9867.65C8254.31 9893 8237.13 9879.04 8223.67 9876.61C8217.7 9884.38 8222.08 9887.91 8225.97 9890.22C8246.13 9902.23 8278.23 9909.6 8284.29 9926.45C8294.77 9955.63 8250.7 9950.31 8240.76 9968.47C8202.86 10037.7 8141.22 10072.6 8068.8 10093.2C8046.72 10099.5 8039.31 10120 8027.33 10135.6C8000.21 10170.9 7970.69 10186.8 7930.66 10154.3C7925.85 10150.4 7918.38 10149.8 7904.4 10144.9C7917.04 10172.8 7918.67 10197 7896.57 10212.7C7877.56 10226.1 7856.85 10238.9 7831.91 10238.9C7744.73 10238.9 7657.22 10244.2 7565.45 10222.5C7600.84 10184 7653.77 10177.7 7697.81 10139.7C7622.39 10152.5 7576.21 10220.5 7502.72 10201.3C7521.64 10248.3 7481.05 10232.1 7462.32 10239.1C7430.22 10236.9 7400.88 10251.9 7368.1 10253.1C7400.68 10230 7386.51 10145.8 7469.82 10184.7C7399.5 10150.3 7421.96 10116 7457.08 10074.4C7476.93 10050.9 7466.14 10013.9 7469.76 9983.59C7474.12 9946.92 7487.39 9946.97 7513.51 9955.02Z" fill="#989845"/>
<path d="M8577.24 7968.76C8588.64 7950.6 8586.53 7930.22 8588.03 7910.1C8589.57 7889.37 8575.18 7855.6 8623.5 7868.69C8640.62 7873.33 8637.53 7846.51 8638.09 7832.47C8641.81 7739.47 8644.26 7646.41 8648.95 7553.46C8650.16 7529.44 8645.21 7495.82 8688.53 7502.16C8765.93 7651.26 8851.88 7795.91 8921.24 7949.2C8911.48 7956.25 8911.66 7966.34 8913.18 7976.57C8935.13 8123.81 8932.46 8266.79 8853.55 8400.7C8806.73 8480.15 8770.44 8564.95 8751.49 8656.13C8746.92 8678.09 8737.89 8698.5 8719.96 8712.47C8611.01 8797.32 8541.4 8910.58 8485.42 9034C8478.63 9048.98 8473.53 9066.16 8455.84 9073.37C8435.81 9050.21 8447.58 9025.35 8453.75 9002C8479.8 8903.33 8495.73 8802.74 8512.72 8702.3C8525.15 8615.65 8539.28 8529.27 8552.99 8442.86C8574.5 8307.34 8579.07 8171.87 8563.83 8035.53C8561.26 8012.52 8558.36 7988.09 8577.24 7968.76Z" fill="#E18944"/>
<path d="M8526.2 8708.08C8510.05 8816.19 8489.71 8923.46 8462.43 9029.37C8458.75 9043.66 8457.97 9058.69 8455.85 9073.37C8428.68 9157.78 8401.52 9242.18 8374.34 9326.58C8335.45 9357.17 8296.11 9387.2 8257.82 9418.53C8230.26 9441.07 8212.2 9432.76 8200.34 9402.97C8176.86 9344.02 8154.18 9284.75 8131.16 9225.61C8138.77 9213.52 8151.27 9207.71 8163.51 9202.72C8296.61 9148.54 8356.1 9031.54 8398.91 8908.66C8421.14 8844.88 8456.03 8788.16 8478.13 8725.2C8485.17 8705.15 8502.53 8692.27 8526.2 8708.08Z" fill="#EDA064"/>
<path d="M7330.26 9518.92C7274.53 9523.69 7222.13 9501.78 7167.36 9498.64C7140.19 9497.09 7126.61 9479.05 7116.65 9455.76C7081.1 9372.59 7025.59 9303.29 6963.45 9238.82C6951.87 9226.8 6940.46 9211.94 6920.87 9216.82C6896.77 9222.83 6905.79 9243.83 6905.05 9259.04C6904.03 9280.43 6896.48 9284.76 6876.43 9277.58C6791.62 9247.25 6716.28 9272.1 6635.45 9304.98C6560.28 9335.54 6492.99 9372.67 6427.59 9419.5C6385.29 9449.79 6329.46 9451.46 6276.56 9448.79C6259.81 9433.78 6258.82 9412.41 6257.16 9392.92C6244.56 9244.91 6202.56 9101.69 6186.44 8954.26C6183.13 8924.01 6179.65 8894.09 6182.71 8863.73C6185.14 8848.67 6190.61 8834.49 6196.86 8820.73C6207.72 8796.79 6224.23 8793.17 6250.36 8799.44C6441.4 8845.32 6631.09 8897.7 6826.17 8925.12C6849.96 8928.47 6873.06 8924.9 6895.87 8917.54C6914.56 8911.5 6932.73 8909.83 6943.49 8931.59C6949.08 8945.58 6947.07 8960.85 6950.28 8975.29C6954.18 8992.87 6962.68 9007.61 6983.26 9004.38C7002.63 9001.34 7001.99 8984.24 7001.94 8969.21C7001.89 8956.06 6997.7 8943.13 6999.53 8929.8C7014.58 8891.54 7046.83 8896.23 7076.3 8902.31C7103.1 8907.85 7129.07 8911.11 7156.16 8906.97C7209.66 8898.78 7246.41 8923.78 7272.28 8968C7279.92 8981.06 7286.81 8994.38 7296.22 9006.43C7339.38 9061.65 7370.46 9061.33 7414.91 9004.53C7471.21 8957.41 7533.94 8947.59 7602.44 8972.66C7626.02 8981.29 7647.69 8994.39 7671.37 9002.69C7680.53 9006.86 7687.88 9014.47 7697.19 9018.14C7724.08 9028.74 7732.22 9014.77 7727.28 8991.38C7722.14 8967.1 7703.13 8951.73 7684.59 8936.99C7630.63 8894.12 7566.41 8883.53 7500.3 8878.91C7471.72 8869.83 7428.97 8878.51 7426.53 8833.57C7424.21 8790.78 7456.15 8767.83 7491.65 8752.68C7521.4 8739.98 7552.52 8734.49 7585.24 8743.76C7637.85 8758.67 7684.69 8744.45 7727.72 8713C7758.98 8690.15 7788.27 8664.8 7819.28 8641.61C7856.23 8613.98 7892.89 8588.38 7943.48 8599.47C7969.51 8605.18 7981.51 8582.53 7996.19 8566.86C8032.4 8567.21 8026.07 8600.85 8038.03 8620.21C8037.74 8643.06 8042.55 8664.61 8055.25 8684.03C8056.03 8713.6 8072.12 8732.11 8098.34 8743.29C8147.08 8774.07 8196.17 8803.97 8253.56 8816.36C8269.43 8839.77 8256.88 8855.68 8237.26 8865.58C8193.84 8887.48 8161.6 8922.24 8129.62 8956.79C8065.72 9025.81 7990.31 9078.86 7908.23 9123.4C7888.88 9133.9 7870.08 9145.22 7857.35 9164.07C7821.06 9181.98 7787.05 9203.09 7755.37 9228.7C7690.25 9281.34 7611.82 9307.93 7534.98 9337.45C7444.19 9372.34 7366.66 9422.52 7330.26 9518.92Z" fill="#FCBA8D"/>
<path d="M7857.36 9164.07C7861.19 9137.83 7880.13 9123.79 7901.12 9112.85C7989.36 9066.84 8066.86 9007.31 8134.35 8934.08C8162.52 8903.52 8189.91 8870.99 8231.17 8856.08C8247.29 8850.26 8255.25 8838.81 8252.6 8821.15C8258.23 8811.62 8268.05 8808.67 8277.62 8805.65C8389.07 8770.47 8439.55 8687.97 8454.44 8577.83C8493.17 8454.43 8489.41 8330.56 8458.91 8206.37C8460.6 8188.09 8463.46 8169.81 8461.92 8151.37C8457.42 8097.65 8452.75 8045.14 8503.72 8005.91C8518.82 7994.28 8518.31 7969.36 8523.67 7950.01C8528.77 7931.6 8529.58 7908.79 8557.08 7907.62C8578.29 7923.22 8556.65 7952.95 8577.24 7968.75C8574.94 8041.13 8588.26 8112.51 8589.02 8185.03C8590.87 8362.5 8552.51 8534.42 8526.21 8708.08C8510.51 8708.22 8492.16 8709.03 8488.8 8726.97C8476.09 8794.94 8423.12 8844.84 8412.53 8915.78C8400 8999.69 8330.37 9056.41 8289.74 9126.96C8251.46 9193.43 8192.03 9206.04 8131.16 9225.61C8113.9 9203.1 8098.16 9179.18 8079.05 9158.36C8032.58 9107.73 8004.14 9102.11 7940.45 9128.16C7912.53 9139.58 7885.04 9152.07 7857.36 9164.07Z" fill="#F3AE77"/>
<path d="M6194.99 8860.53C6197.78 8986.21 6226.27 9108.17 6249.42 9230.82C6263.05 9303 6270.65 9375.73 6276.56 9448.78C6284.09 9539.42 6254.41 9623.43 6231.43 9708.85C6224.13 9735.97 6197.56 9743.53 6184.87 9765.84C6155.02 9818.29 6165.29 9867.54 6186.12 9918.17C6194.62 9938.86 6207.77 9963.07 6165.14 9955.06C6126.08 9838.6 6079.92 9724.46 6050.81 9604.77C6047.25 9590.16 6045.11 9575.2 6042.32 9560.4C6035.93 9549.3 6037.36 9540.66 6050.06 9535.58C6077.8 9538.38 6076.05 9563.18 6082.15 9580.8C6096.99 9623.65 6110.01 9667.12 6150.48 9704.77C6111.53 9570.48 6087.43 9439.02 6042.46 9319.54C6042.31 9321.32 6041.64 9330.03 6035.13 9336.76C6007.99 9340.06 6012.34 9317.29 6009.54 9303.32C5999.6 9253.78 5979.37 9208.05 5960.26 9161.86C5947.28 9130.49 5927.82 9116.65 5893.92 9135.79C5880.99 9143.09 5865.05 9158.34 5851.91 9134.37C5833.12 9075.41 5834.39 9016.13 5841.28 8955.06C5852 8860.08 5840.33 8763.88 5854.77 8668.56C5866.35 8592.19 5875.44 8515.46 5891.44 8439.81C5894.89 8423.48 5897.55 8406.57 5910.3 8394.01C5939.9 8383.14 5939.92 8409.07 5948.41 8424.51C5952.29 8433.5 5956.66 8442.27 5963.19 8449.74C5988.17 8471.36 5996.25 8499.66 5994.97 8531.45C5993.46 8569.28 5999.19 8606.06 6018.23 8638.8C6066.49 8721.77 6098.6 8813.16 6155.03 8896.21C6169.86 8888.7 6165.51 8865.19 6181.43 8858.92C6186.26 8856.9 6190.78 8857.45 6194.99 8860.53Z" fill="#FCCBAA"/>
<path d="M5920.88 8393.68C5891.02 8480.95 5886.29 8572.88 5870.62 8662.8C5851.21 8774.23 5868.66 8887.52 5851.78 8999.13C5844.42 9047.77 5856.98 9096.11 5861.49 9144.52C5866.09 9163.16 5864.53 9174.94 5841.33 9162.59C5826.56 9086.21 5811.08 9009.92 5808.2 8931.82C5814.39 8824.55 5807.5 8717.18 5818.49 8609.63C5842.01 8379.37 5882.87 8155.06 6003 7952.43C6013.03 7947.39 6023.05 7942.33 6033.07 7937.26C6045.1 7947.95 6045.92 7962.38 6046.41 7976.93C6043.17 8020.93 6028.48 8062.16 6014.17 8103.3C5988.23 8177.88 5967.31 8253.82 5949.14 8330.6C5943.77 8353.28 5940.2 8377.1 5920.88 8393.68Z" fill="#FAF7F3"/>
<path d="M5841.33 9162.59C5855.93 9165.35 5859.42 9155.74 5861.48 9144.52C5871.76 9135.97 5881.03 9125.61 5892.5 9119.22C5922.67 9102.45 5947.53 9101.78 5965.36 9139.6C5995.32 9203.14 6015.85 9269.41 6031.73 9337.44C6057.82 9402.81 6073.49 9469.32 6053.76 9539.69C6045.09 9543.9 6043.64 9552.11 6042.32 9560.4C6012.88 9490.41 6009.91 9413.53 5985.47 9342.22C5980.02 9326.34 5977.12 9309.51 5970.71 9294.08C5962.46 9274.23 5955.73 9247.82 5929.97 9247.89C5901.99 9247.98 5885.6 9268.36 5880.59 9296.28C5873.86 9296.03 5859.8 9321.86 5861.56 9293.95C5864.45 9248.08 5851.22 9205.85 5841.33 9162.59Z" fill="#F7B179"/>
<path d="M6194.99 8860.53C6191.63 8860.51 6188.28 8860.49 6184.92 8860.48C6171.03 8847.96 6170.54 8830.61 6168.62 8814C6157.19 8715.27 6144.97 8616.59 6149.15 8516.85C6149.43 8431.31 6155.11 8345.7 6145.68 8260.33C6142.43 8246.26 6141.97 8232.09 6144.68 8217.91C6156.13 8191.39 6152.49 8166.02 6141.06 8140.02C6134.22 8124.47 6130.29 8105.38 6150.76 8096.31C6170.68 8087.48 6183.21 8101.52 6190.41 8117.59C6242.8 8234.52 6346.02 8300.07 6445.52 8368.64C6470.95 8386.17 6478.06 8408.2 6484.33 8435.26C6493.49 8474.78 6490.83 8522.04 6540.67 8540.21C6573.62 8565.6 6574.76 8607.2 6592.01 8640.59C6611.44 8699.91 6656.96 8738.71 6704.33 8772.95C6759.34 8812.71 6820.53 8805.04 6875.61 8771.77C6938.36 8733.88 6979.68 8677.8 6993.05 8603.8C6995.98 8582.77 7000.53 8562.6 7021.44 8551.35C7040.68 8548.86 7043.3 8533.39 7047.21 8518.67C7053.26 8495.87 7060.49 8473.44 7067.81 8450.99C7079.99 8413.6 7102.37 8392.18 7142.5 8385.68C7187.33 8378.43 7230.98 8365.12 7276.12 8357.95C7321.59 8350.73 7357.55 8325.89 7393.62 8294.63C7462.23 8235.17 7507.66 8157.87 7567.15 8091.84C7589 8067.59 7602.2 8037.91 7615.22 8008.96C7643.96 7945.09 7691.61 7919.94 7760.58 7923.58C7792.72 7925.27 7828.47 7935.05 7857.39 7908.97C8055.97 7913.2 8199.89 7820.04 8305.54 7658.09C8313.62 7645.71 8317.96 7629.93 8333.04 7622.85C8361.22 7625.65 8352.01 7644.79 8348.28 7659.99C8344.64 7674.8 8336.6 7688.53 8327.09 7700.03C8281.84 7754.7 8295.72 7821.12 8289.47 7883.43C8287.71 7901.01 8305.01 7908.06 8314.71 7919.2C8343.77 7952.62 8340.53 7975.34 8302.68 8006.66C8295.93 8006.51 8304.42 8007.78 8297.67 8007.41C8138.2 7998.63 8046.44 8065.72 8007.5 8222.6C7984.15 8316.69 7973.97 8411.64 8001.48 8507.34C8006.84 8526.01 8015.72 8546.27 8000.14 8565.13C7998.39 8610.5 7972.98 8625.81 7932.58 8612.71C7906.55 8604.27 7886.16 8609.94 7866.49 8624.63C7822.12 8657.77 7778.48 8691.9 7734.2 8725.17C7687.57 8760.22 7637.61 8773.76 7578.86 8756.87C7532.6 8743.57 7489.29 8756.28 7455.27 8791.89C7442.7 8805.05 7430.03 8819.78 7437.83 8841.04C7445.39 8861.62 7462.71 8859.91 7479.77 8860.87C7487.57 8861.31 7495.13 8866.03 7502.79 8868.8C7485.16 8889.88 7458.12 8889.74 7435.01 8897.31C7395.55 8910.25 7363.68 8934.18 7334.92 8961.99C7309.1 8986.96 7314.4 9000.67 7351.89 9017.5C7375.41 9018.22 7396.66 8997.37 7421.37 9010.24C7395.46 9070.57 7341.03 9076.3 7297.21 9030.54C7266.14 8998.1 7263.26 8942.35 7211.27 8928.45C7209.84 8928.06 7208.9 8926.07 7207.51 8925.18C7188.75 8913.24 7019.3 8920.24 7005.16 8933.49C6983.74 8948.07 6960.39 8948.94 6936.11 8943.21C6932.87 8922.71 6921.27 8916.51 6904.43 8928.24C6873.39 8949.87 6840.24 8941.48 6807.24 8937.81C6658.89 8921.31 6517.56 8872.35 6371.82 8844.03C6326.14 8835.16 6277.6 8839.83 6238.14 8808.1C6224.24 8796.92 6216.7 8806.73 6211.53 8818.46C6205.46 8832.24 6200.46 8846.48 6194.99 8860.53Z" fill="#FDC199"/>
<path d="M6538.49 8546.03C6506.01 8551.34 6488.88 8533.01 6488.17 8504.67C6485.9 8413.96 6423.32 8370.15 6359.11 8322.74C6285.77 8268.59 6210.16 8213.98 6179.35 8120.67C6175.73 8109.71 6168.26 8096.65 6153.8 8103.93C6139.49 8111.13 6147.62 8123.57 6151.51 8134.61C6160.44 8159.9 6184.46 8184.86 6154.71 8211.83C6151.4 8210.86 6146.63 8209.77 6146.06 8207.26C6126.63 8122.18 6066.34 8057.22 6033.79 7978.65C6033.55 7964.85 6033.31 7951.06 6033.07 7937.26C6059.91 7918.92 6064.95 7949 6072.26 7959.18C6169.42 8094.39 6310.03 8107.41 6449 8039.32C6548.12 7990.76 6631.42 7919.06 6715.04 7848.49C6774.18 7798.57 6832.38 7747.75 6897.66 7705.54C7030.46 7619.68 7167.91 7608.35 7309.41 7680.15C7411.29 7731.85 7510.34 7789.2 7612.71 7839.85C7689.38 7877.78 7769.24 7909.37 7857.4 7908.97C7857.42 7923.3 7855.88 7936.63 7837.14 7937.55C7828.73 7937.97 7820.05 7939.26 7811.91 7937.81C7704.03 7918.53 7648.36 7969.34 7596.98 8063.21C7554.49 8140.83 7501.27 8218.63 7427.12 8278.63C7384.38 8313.2 7350.3 8360.5 7293.64 8369.6C7242.17 8377.85 7192.16 8391.57 7141.22 8400.32C7107.9 8406.04 7092.99 8419.36 7082.58 8450.47C7072.45 8480.75 7061.85 8510.59 7056.85 8542.11C7053.21 8565 7045.4 8574.3 7025.55 8554.37C7005.28 8526.75 7022.44 8499.04 7026.18 8471.8C7043.44 8345.74 7024.95 8226.74 6958.15 8117.1C6935.92 8080.62 6906.27 8050.62 6869.71 8028.39C6804.95 7989.01 6735.76 7993.96 6676.77 8041.12C6624.13 8083.2 6584.13 8135.09 6564.49 8199.71C6536.82 8290.77 6523.41 8383.53 6541.24 8478.92C6545.35 8500.86 6558.37 8524.52 6538.49 8546.03Z" fill="#FDCBA9"/>
<path d="M8304.28 7998.63C8336.01 7963.29 8328.79 7935.96 8287.72 7914.64C8278.14 7909.67 8263.8 7906.88 8267.6 7890.31C8285.33 7813.09 8271.76 7726.95 8334.25 7662.32C8344.24 7651.98 8350.67 7635.46 8333.05 7622.86C8356.61 7571.54 8380.17 7520.23 8408.17 7459.25C8481.78 7607.04 8538.84 7750.63 8557.08 7907.63C8541.61 7920.47 8539.63 7938.27 8536.07 7956.8C8529.5 7990.97 8524.02 8026.43 8487.31 8045.41C8470.98 8053.85 8469.67 8068.32 8472.5 8088.11C8477.86 8125.52 8483.5 8164.35 8468.36 8201.61C8452.25 8195.75 8446.92 8180.65 8440.36 8167.33C8412.21 8110.13 8373.11 8062.48 8320.86 8025.6C8312 8019.35 8298.59 8014.44 8304.28 7998.63Z" fill="#FABA8F"/>
<path d="M8627.93 7278.92C8627.37 7292.51 8622.94 7297.87 8611.13 7286.61C8590.69 7267.13 8570.35 7247.56 8552.8 7224.75C8588.24 7229.39 8599.36 7266.76 8628.4 7279.5C8628.4 7279.5 8627.93 7278.92 8627.93 7278.92Z" fill="#A8A80B"/>
<path d="M8010.13 7634.25C7965.61 7640.84 7921.27 7649.29 7876.54 7653.69C7708.55 7670.25 7571.83 7595.6 7441.86 7502.24C7450.24 7491.9 7463.09 7489.31 7472.92 7494.07C7497.91 7506.15 7519.12 7495.51 7541.3 7487.21C7633.05 7530.87 7725.02 7568.1 7831.2 7560.47C7933.47 7553.12 8004.67 7490.21 8002.12 7387.78C7999.88 7298.2 7983.75 7210.1 7934.6 7131.83C7928.12 7106.87 7932.4 7080.07 7921.49 7055.82C7910.63 7027.8 7914.6 7005.82 7947.18 6997.4C8078.93 6963.34 8209.66 6924.52 8345.64 6909.73C8358.97 6908.28 8372.54 6907.08 8385.11 6913.93C8427.07 6954.06 8434.65 7011.23 8457.78 7060.69C8463.35 7072.59 8457.02 7079.46 8447.26 7085.04C8340.05 7146.31 8299.83 7255.39 8251.51 7358.85C8208.75 7450.43 8167.19 7542.67 8078.12 7601.84C8056.56 7616.17 8031.95 7621.79 8010.13 7634.25Z" fill="#F1AB73"/>
<path d="M7949.73 6488.17C8035.12 6519.98 8123.22 6518.65 8211.94 6509.63C8225.92 6572.32 8253.13 6630.51 8273.61 6690.98C8290.83 6725.03 8278.25 6751.29 8253.91 6776.67C8165.54 6868.82 8056.22 6921.04 7932.35 6942.76C7843.02 6958.43 7751.96 6960.85 7661.63 6968.68C7640.18 6970.54 7617.73 6971.58 7597.66 6959.83C7587.06 6948.61 7596.05 6942.51 7603.97 6936.22C7706.85 6854.53 7753.27 6746.36 7754.24 6616.7C7754.53 6577.99 7757.81 6539.7 7775.06 6503.99C7817.02 6477.06 7866.43 6478.53 7912.74 6468.44C7928.73 6464.96 7941.08 6474.63 7949.73 6488.17Z" fill="#F4AE76"/>
<path d="M7593.94 6954.23C7747.2 6947.33 7901.71 6949.56 8048.74 6895.27C8130.38 6865.12 8199.09 6815.91 8258.31 6752.25C8275.82 6733.43 8272.36 6712.32 8273.61 6690.99C8313.07 6764.15 8360.56 6833.31 8385.1 6913.93C8273.56 6936.32 8160.77 6952.75 8051.24 6984.81C8022.3 6993.28 7992.89 7001.51 7963.12 7005.49C7924.54 7010.64 7922.2 7029.57 7937.21 7058.81C7930.2 7148.55 7877.9 7190.51 7805.5 7164.52C7777.07 7154.31 7759.2 7132.76 7744.35 7107.9C7719.44 7040.66 7719.42 7039.5 7644.55 7040.99C7595.97 7041.96 7546.85 7033.32 7498.79 7047.4C7453.77 7053.3 7408.54 7050.62 7363.41 7051.39C7331.12 7048.79 7298.76 7050.38 7266.45 7050.17C7151.15 7046.15 7040.53 7027.91 6951.38 6945.25C6886.68 6885 6831.28 6817.87 6795.86 6735.75C6787.17 6715.61 6778.37 6695.54 6771.03 6674.89C6765.99 6660.72 6757.9 6642.46 6773.58 6633.37C6790.39 6623.63 6800.64 6642.77 6809.03 6653.53C6933.97 6813.6 7105.37 6886.49 7299.83 6916.75C7382.2 6927.98 7465.16 6932.15 7547.78 6939.85C7564.2 6941.39 7581.37 6940.37 7593.94 6954.23Z" fill="#EC9652"/>
<path d="M7188.78 4988.24C7188.22 4842.92 7186.33 4697.58 7199.08 4552.57C7218.57 4524.62 7234.42 4537.5 7241.88 4559.95C7276.59 4664.43 7340.32 4754.23 7387.07 4852.52C7420.43 4922.63 7437.85 4998.17 7456.11 5073.24C7458.1 5081.39 7462.24 5091.56 7458.39 5097.9C7429.75 5145.12 7455.45 5187.16 7469.33 5230.42C7500.07 5311.07 7558.02 5376.46 7594.61 5453.82C7605.5 5472.04 7607.04 5489.79 7587.29 5502.39C7549.4 5526.57 7539.22 5567.18 7528.82 5605.37C7499.43 5713.37 7458 5816.3 7407.1 5915.64C7395.53 5938.23 7385.22 5961.29 7375.83 5984.8C7344.55 6063.14 7348.88 6079.55 7421.33 6125.8C7481.29 6164.09 7546.61 6191.87 7613.56 6215.74C7632.55 6222.5 7652.54 6227.35 7667.96 6241.84C7689.7 6285.47 7652.66 6290.08 7628.04 6296.07C7534.01 6318.95 7439.12 6317.56 7344.86 6296.44C7312.82 6289.26 7277.81 6286.79 7255.21 6257.16C7216.45 6196.97 7223.7 6149.22 7290.47 6113.68C7314.02 6101.14 7307.98 6080.17 7292.59 6062.4C7152.38 5900.49 7112.87 5705.51 7101.2 5499.02C7095.77 5402.92 7090.69 5306.99 7093.11 5210.95C7097.01 5055.97 7104.49 4901.08 7120.56 4746.78C7123.89 4714.76 7121.33 4682.63 7123.73 4650.7C7125.16 4631.77 7120.72 4608.55 7147.65 4601.36C7177.49 4645.93 7167.44 4696.25 7168.39 4744.99C7168.4 4758.48 7168.42 4771.96 7168.43 4785.45C7181.5 4821.83 7165.02 4860.72 7177.96 4897.1C7178.25 4930.75 7178.53 4964.39 7178.81 4998.03C7199.73 5069.55 7191.06 5143.53 7202.38 5203.33C7198.93 5140.11 7186.58 5064.44 7188.78 4988.24Z" fill="#FDC199"/>
<path d="M7469.33 5230.42C7445.01 5194.16 7397.45 5163.17 7445.17 5111.44C7457.34 5098.24 7443.85 5082.31 7441.39 5068.11C7417.13 4928.45 7350.35 4805.93 7282.93 4684.09C7263.34 4648.69 7242.87 4614.67 7234.41 4574.42C7230.78 4557.14 7226.41 4534.49 7199.08 4552.57C7213.1 4427.71 7225.42 4302.69 7248.32 4178.9C7256.12 4136.76 7275.29 4139.13 7297.97 4161.54C7321.7 4184.98 7347.46 4201.1 7379.49 4208.79C7411.68 4216.51 7402.78 4267.33 7441.47 4268.76C7548.28 4714.35 7653.83 5160.36 7875.38 5569.37C7806.4 5540.74 7751.62 5495.73 7696.88 5450.66C7623.98 5390.62 7555.54 5326.15 7496.91 5251.69C7489.94 5242.85 7478.63 5237.43 7469.33 5230.42Z" fill="#FAB586"/>
<path d="M7655.05 6245.06C7560.72 6209.76 7466.3 6175.69 7383.2 6115.58C7341.67 6085.54 7333.68 6054.14 7351.9 6008.39C7396.51 5896.37 7458.61 5792.11 7494.84 5676.16C7507.72 5634.93 7510.61 5590.35 7534.38 5552.14C7548.63 5529.23 7547.16 5496.28 7585.06 5490.21C7598.68 5488.03 7592.72 5466.7 7594.6 5453.83C7665.42 5532 7726.06 5619.22 7804.78 5690.35C7833.08 5715.93 7859.81 5743.7 7895.94 5758.89C7900.6 5765.45 7905.27 5772 7909.95 5778.55C7858.98 5821.78 7845.75 5884.32 7823.13 5942.89C7794 6018.31 7750.12 6086.39 7704.54 6153C7684.7 6181.99 7665.28 6210.99 7655.05 6245.06Z" fill="#F9B586"/>
<path d="M7147.88 4602.86C7144.58 4610.27 7138.61 4617.6 7138.38 4625.11C7130.29 4883.44 7097.06 5140.92 7108.22 5399.82C7115.74 5574.29 7130.61 5748.01 7206.87 5909.74C7232.94 5965.03 7266.53 6014.3 7309.53 6057.58C7335.48 6083.7 7345.49 6107.24 7300.18 6125.76C7277.58 6134.99 7273.6 6171.8 7238.7 6168.35C7229.65 6167.46 7227.42 6187.74 7238.67 6190.88C7279.93 6202.43 7266.31 6229.16 7259.28 6254.82C7190.66 6256.74 7138.68 6217.99 7090.85 6177.97C7010.44 6110.72 6940.26 6034.13 6923.83 5923.67C6922.54 5915.01 6911.49 5922.36 6909.35 5914.84C6894.28 5882.19 6898.16 5848.25 6906.06 5815.66C6930.71 5713.99 6931.88 5608.5 6957.69 5507.1C6960.6 5495.69 6961.57 5483.56 6960.29 5471.93C6949.69 5375.52 6970.89 5277.45 6944.21 5181.73C6936.91 5155.55 6940.49 5128.2 6949.57 5102.09C6955.83 5084.09 6959.19 5066.12 6945.9 5049.4C6976.02 4934.32 7006.14 4819.24 7036.25 4704.15C7060.08 4613.05 7083.91 4521.95 7107.74 4430.84C7121.91 4411.85 7120.2 4377.32 7157.02 4380.48C7163.5 4424.2 7178.84 4467.86 7158.12 4511.81C7157.83 4515.08 7157.77 4518.35 7157.93 4521.62C7146.25 4547.67 7171.75 4578.32 7147.88 4602.86Z" fill="#FCD6BC"/>
<path d="M7147.88 4602.86C7151.92 4575.87 7138.33 4546.69 7157.93 4521.63C7166 4595.86 7192.89 4669.23 7168.38 4744.99C7161.55 4697.62 7154.71 4650.24 7147.88 4602.86ZM7188.78 4988.24C7191.87 4993.93 7197.87 4999.76 7197.62 5005.3C7194.4 5076.84 7205.82 5147.75 7205.9 5219.32C7187.87 5146.55 7182.33 5072.42 7178.81 4998.04C7182.13 4994.77 7185.46 4991.51 7188.78 4988.24ZM7158.12 4511.81C7157.75 4468.03 7157.39 4424.25 7157.02 4380.48C7175.99 4414.2 7179.24 4450.96 7178.24 4488.65C7177.88 4502.33 7171.86 4510.2 7158.12 4511.81ZM7177.96 4897.1C7157.55 4861.36 7173.05 4822.55 7168.43 4785.45C7189.21 4821.17 7173.6 4859.99 7177.96 4897.1Z" fill="#FAB586"/>
<path d="M6924.25 5920.53C6946.53 5923.3 6936.64 5944.01 6940.83 5954.95C6998.82 6106.7 7109.63 6201.09 7259.28 6254.83C7381.35 6304.16 7506.68 6308.9 7633.86 6280.36C7669.69 6272.33 7669.23 6270.29 7655.05 6245.06C7648.44 6223.76 7650.51 6207.7 7665.31 6186.54C7740.19 6079.52 7815.08 5971.62 7842.12 5840.08C7849.95 5801.98 7887.08 5798.72 7909.93 5778.55C7947.62 5800.81 7992.5 5811.91 8020.12 5849.73C8022.8 5887.62 8044.4 5918.97 8056.05 5953.75C8103.48 6095.38 8148.84 6237.6 8179.92 6383.96C8185.16 6408.66 8179.14 6424.66 8155.08 6436.98C8105.58 6462.32 8053.71 6470.21 7998.89 6469.15C7981.72 6468.81 7956.02 6456.5 7949.72 6488.17C7888.83 6470.3 7834.19 6504.24 7776.04 6509.14C7759.28 6525.42 7737.88 6531.15 7715.88 6532.03C7596.21 6536.83 7476.53 6540.46 7360.05 6504.54C7248.88 6479.33 7165.64 6410.22 7088.58 6331.35C7005.51 6226.28 6942.71 6111.46 6919.77 5977.72C6916.47 5958.45 6907.97 5938.42 6924.25 5920.53Z" fill="#F1A66B"/>
<path d="M7098.01 6325.38C7173.14 6393.84 7246.85 6464.48 7350.47 6489C7382.29 6532.2 7379.93 6568.78 7334 6592.69C7280.5 6620.55 7271.14 6661.99 7279.72 6713.87C7284.21 6741.03 7279.92 6767.2 7275.34 6793.59C7269.19 6829.02 7266.62 6860.84 7301.47 6887.74C7325.32 6906.14 7319.33 6917.98 7289.95 6924.35C7104.7 6903.22 6945.5 6830.41 6821.36 6688.11C6807.06 6671.73 6792.99 6655.15 6771.81 6630.52C6806.1 6756.05 6871.68 6850.42 6953.82 6934.94C6927.61 6957.05 6895.63 6951.28 6866.58 6948.82C6776.48 6941.2 6686.24 6934.83 6596.48 6924.21C6574.17 6893.02 6603.89 6878.64 6619.21 6862.88C6671.66 6808.91 6694.6 6745.99 6688.84 6670.96C6682.62 6589.97 6641.25 6568 6571.06 6609.47C6552.1 6620.67 6540.02 6640.29 6519.39 6648.91C6512.37 6656.04 6505.35 6663.18 6498.33 6670.31C6487.47 6645.2 6500.99 6627.05 6515.48 6608.87C6572.79 6536.99 6624.37 6461.29 6665.16 6378.72C6672.03 6364.82 6686.64 6351.84 6676.66 6331.96C6645.57 6347.67 6653.39 6407.47 6601.54 6397.64C6591.52 6380.8 6598.97 6364.86 6605.56 6349.9C6648.7 6252.03 6688.8 6152.98 6723.91 6051.92C6728.78 6037.89 6733.37 6022.88 6750.09 6017.55C6783.01 6019.93 6782.92 6045.98 6786.29 6068.95C6804.14 6190.62 6842.3 6303.94 6919.99 6401.69C6935.85 6421.64 6951.29 6441.2 6974.83 6452.47C7011.46 6470.01 7029.44 6463.76 7044.5 6425.16C7058.37 6389.62 7092.19 6365.03 7098.01 6325.38Z" fill="#FCCBAA"/>
<path d="M6752.18 6021.61C6701.96 6146.95 6651.74 6272.3 6601.53 6397.64C6554.43 6484.97 6506.31 6571.63 6438.1 6645C6432.38 6651.16 6426.77 6657.58 6420.26 6662.83C6405.1 6675.03 6388.36 6697.55 6369.14 6683.56C6345.25 6666.18 6365.1 6642.67 6376.1 6625.79C6453.35 6507.28 6519.02 6382.69 6575.55 6253.18C6582.18 6237.99 6586.13 6221.63 6591.33 6205.82C6640.71 6115.14 6667.65 6015.61 6699.32 5918.55C6768.1 5707.72 6822.58 5492.39 6894.92 5282.57C6904.84 5266.94 6901.1 5245.92 6914.89 5231.76C6952.98 5210.51 6962 5214.37 6964.16 5253.95C6965.27 5274.34 6959.72 5294.08 6954.62 5313.62C6897.47 5532.25 6840.95 5751.04 6778.47 5968.23C6772.9 5987.58 6769.57 6008.07 6752.18 6021.61Z" fill="#FBF9F6"/>
<path d="M6752.18 6021.61C6795.73 5860.32 6839.63 5699.13 6882.68 5537.7C6906.79 5447.29 6929.63 5356.53 6952.61 5265.82C6955.83 5253.13 6961.32 5236.85 6949.25 5228.2C6934.75 5217.79 6927.21 5238.56 6915.03 5241.93C6906.29 5228.35 6908.13 5214.7 6914.73 5201.01C6912.73 5147.93 6945.54 5101.99 6945.89 5049.39C6976.86 5056.76 6967.58 5082.02 6962.94 5098.53C6952.47 5135.8 6961.34 5170.92 6963.44 5207.61C6970.23 5326.58 6985.03 5444.79 6959.94 5565.33C6940.97 5656.44 6933.88 5750.58 6916.31 5842.74C6911.65 5867.19 6905.54 5896.37 6924.26 5920.53C6939.46 6073.81 7006.38 6204.9 7098.01 6325.39C7102.55 6355.09 7109.32 6384.76 7070.79 6399.86C7060.03 6404.07 7058.93 6418.47 7056.45 6430.47C7046.78 6477.32 7025.48 6486.79 6981.08 6471.1C6920.94 6449.85 6897.27 6394.02 6866.72 6347.94C6810.31 6262.84 6784.72 6164.86 6773.26 6063.74C6771.27 6046.16 6770.39 6030.13 6752.18 6021.61Z" fill="#FBDDC9"/>
<path d="M6914.73 5201.01C6914.83 5214.65 6914.93 5228.29 6915.03 5241.93C6912.59 5257.58 6907.62 5271.99 6894.92 5282.57C6893.4 5253.41 6895.54 5225.14 6914.73 5201.01Z" fill="#FCD6BC"/>
<path d="M6143.43 7227.48C6162.38 7192.29 6203.88 7180.37 6225.51 7147.95C6265.78 7120.83 6306.06 7093.71 6346.34 7066.59C6382.84 7025.07 6433.71 7004.88 6479.37 6976.86C6494.06 6971.56 6508.78 6966.44 6524.12 6963.23C6598.78 6950.31 6672.61 6930.72 6749.34 6934.67C6779.14 6936.2 6817.06 6932.06 6828.1 6965C6839.38 6998.66 6806.65 7019.94 6782.53 7036.82C6676.99 7110.65 6560.84 7159.34 6431.54 7169.87C6367.04 7175.13 6308.77 7191.1 6261.74 7237.56C6226.48 7272.39 6185.91 7255.5 6146.95 7248.74C6138.13 7247.21 6138.55 7235.73 6143.43 7227.48Z" fill="#FBEED9"/>
<path d="M6480.98 6987.24C6436.1 7013.68 6391.23 7040.13 6346.34 7066.58C6354.68 7023.61 6395.84 7014.12 6424.4 6993.39C6487.07 6947.9 6548.62 6903.01 6570.06 6822.92C6573.83 6826.73 6577.6 6830.53 6581.37 6834.34C6588.31 6891.27 6546.94 6923.05 6515.75 6960.05C6506.12 6971.47 6489.85 6974.68 6480.98 6987.24Z" fill="#C9C929"/>
<path d="M6480.98 6987.24C6515.68 6937.09 6566.15 6897.28 6581.36 6834.34C6597.14 6811.26 6601.26 6785.23 6601.83 6757.91C6602.54 6724.16 6590.02 6701.82 6553.51 6700.91C6515.97 6699.97 6506.97 6681.87 6519.39 6648.92C6539.36 6608.51 6601.41 6566.82 6638.93 6571.8C6667.96 6575.66 6687.23 6593.3 6694.27 6623.22C6715.23 6712.37 6701.93 6793.33 6638.34 6862.58C6622.45 6879.88 6606.25 6896.89 6590.2 6914.03C6579.93 6949.88 6545.71 6957.76 6519.28 6974.72C6506.51 6978.9 6493.75 6983.07 6480.98 6987.24Z" fill="#F3A160"/>
<path d="M6519.28 6974.72C6535.49 6945.81 6567.55 6935.42 6590.19 6914.03C6711.92 6912.07 6831.84 6941.61 6953.83 6934.93C7042.81 7007.96 7148.06 7032.19 7259.81 7036.96C7293.42 7043.71 7327.04 7043.58 7360.66 7037.03C7407.82 7036.48 7454.98 7035.94 7502.13 7035.39C7516.33 7028.49 7529.8 7029.86 7547.94 7037.49C7527.66 7070.12 7498.17 7075.55 7468.76 7078.95C7418.78 7084.73 7368.98 7091.67 7318.3 7091.87C7272.31 7092.05 7259.91 7105.72 7266.16 7150.72C7271.64 7190.12 7264.07 7231.58 7284.79 7269.04C7292.6 7283.17 7288.35 7298.59 7275.93 7310.34C7257.32 7322.59 7239.9 7314.09 7223.37 7305.97C7060.14 7225.78 6915.85 7256.47 6787.82 7380.38C6677.77 7486.88 6538.58 7553.5 6420.84 7649.54C6399.16 7667.23 6370.28 7673.96 6344.46 7659.63C6316.12 7643.91 6327.35 7615.37 6330.49 7590.91C6339.51 7520.66 6333.76 7452.73 6299.92 7389.08C6271.09 7334.85 6239 7316.69 6194.64 7329.02C6167.34 7341.96 6136.86 7348.87 6114.61 7371.34C6088.42 7344.64 6085.66 7286.71 6110.29 7258.13C6120.05 7246.8 6132.32 7237.64 6143.44 7227.48C6175.59 7230.77 6209.51 7270.47 6238.65 7237.78C6307.82 7160.19 6401.63 7162.43 6491.55 7146.65C6607.63 7126.27 6712.59 7079.06 6802.23 7001.12C6832.14 6975.12 6829.59 6959.88 6787.49 6950.75C6715.67 6935.18 6647.72 6956.34 6578.87 6967.7C6558.95 6970.99 6539.52 6975.29 6519.28 6974.72Z" fill="#FDD5BA"/>
<path d="M6194.64 7329.02C6234.03 7284.97 6262.36 7319.57 6285.33 7346.1C6348.36 7418.91 6356.99 7506.51 6343.59 7597.87C6340.96 7615.87 6328.5 7637.24 6346.19 7649.3C6365.16 7662.23 6390.97 7656.91 6408.05 7642.65C6525.33 7544.69 6665.77 7478.63 6776.96 7372.14C6912.74 7242.1 7057.93 7206.97 7236.71 7297.87C7247.05 7303.13 7258.64 7305.93 7269.64 7309.87C7343.15 7333.79 7399.72 7385.61 7461.01 7428.92C7486.55 7446.96 7524.74 7453.56 7533.14 7492.06C7529.95 7512.31 7527 7532.67 7498.47 7515.07C7481.15 7504.38 7462.17 7500.2 7441.87 7502.24C7410.43 7479.79 7378.68 7457.77 7347.62 7434.82C7260.58 7370.48 7162.24 7330.4 7056.83 7313.05C6960.86 7297.24 6882.63 7348.17 6815.05 7407.3C6738.49 7474.27 6655.64 7530.64 6569.63 7583.68C6510.99 7619.84 6455.62 7661.74 6395.19 7694.4C6338.61 7724.97 6296.91 7694.93 6296.82 7629.46C6296.79 7604.33 6302.66 7578.68 6302.77 7554.59C6303.06 7485.57 6312.6 7412.7 6257.08 7355.21C6239.27 7336.76 6219.98 7326.99 6194.64 7329.02Z" fill="#F7B384"/>
<path d="M7879.76 9932.89C7785.19 9941.47 7709.01 9976.26 7628.7 9996.39C7615.38 9999.72 7599.5 10005 7591.93 9991.07C7581.79 9972.47 7604.52 9970.98 7612.82 9963.33C7647.01 9931.79 7692.23 9913.89 7721.45 9875.8C7733.17 9860.52 7747.53 9864.49 7762.18 9872.19C7797.56 9890.75 7833.16 9908.87 7879.76 9932.89Z" fill="#9A9A46"/>
<path d="M8304.28 7998.63C8385.5 8044.85 8433.81 8117.67 8468.36 8201.61C8509.4 8330.02 8509.77 8458.12 8465.44 8585.87C8448.67 8637.96 8424.9 8686.17 8381.75 8721.5C8252.31 8827.49 8091.34 8784.04 8030.09 8627.2C8020.1 8606.51 8010.12 8585.82 8000.14 8565.14C7969.75 8456.65 7961.59 8347.53 7989.33 8237.04C8012.6 8144.42 8056.64 8065.26 8137.29 8010.73C8189.99 7975.09 8247.4 7986.21 8304.28 7998.63Z" fill="#292915"/>
<path d="M7349.48 9031.36C7320.82 9038.88 7311.73 9018.59 7302.49 8998.39C7292.79 8977.17 7310.82 8968.69 7321.6 8957.17C7370.72 8904.7 7432.44 8877.84 7502.79 8868.81C7570.3 8866.43 7632.44 8882.86 7687.15 8923.17C7701.9 8934.04 7715.94 8946.59 7727.77 8960.51C7745.91 8981.86 7760.35 9008.22 7735.4 9031.49C7709.58 9055.57 7689.95 9033.95 7673.14 9013.62C7558.06 8932.41 7497.43 8931.81 7383.73 9009.9C7372.69 9017.49 7362.3 9026.47 7349.48 9031.36Z" fill="#2B2B12"/>
<path d="M8030.08 8627.2C8065.73 8671.42 8097.15 8719.81 8149.74 8747.18C8232.34 8790.18 8331.7 8767 8397.95 8686.03C8423.34 8655.01 8443.11 8619.4 8465.44 8585.88C8458.04 8708.26 8367.68 8808.14 8252.6 8821.15C8185.79 8825.91 8140.32 8782.84 8090.75 8748.95C8074 8730.85 8053.14 8715.51 8049.91 8688.31C8036.26 8670.23 8019.97 8652.99 8030.08 8627.2Z" fill="#C6C640"/>
<path d="M7349.48 9031.36C7402.87 8957.53 7476.88 8930.22 7564.59 8941.98C7610.29 8948.11 7650.47 8969.31 7673.14 9013.63C7655.63 9013.63 7640.11 9006.76 7625.51 8998.34C7554.72 8957.47 7487.18 8968.18 7421.37 9010.26C7397.4 9017.28 7373.44 9024.32 7349.48 9031.36Z" fill="#C5C543"/>
<path d="M6936.11 8943.22C6957.27 8926.79 6981.15 8929.61 7005.17 8933.48C7014.17 8946.27 7018.29 8960.28 7017.94 8976.11C7017.41 8999.94 7012.93 9020.81 6984.01 9023.06C6955.97 9025.24 6939.06 9010.95 6935.31 8983.5C6933.51 8970.35 6935.72 8956.66 6936.11 8943.22Z" fill="#FBF8F4"/>
<path d="M8049.91 8688.31C8064.68 8707.75 8085.59 8723.04 8090.75 8748.95C8059.98 8740.29 8040.21 8724.22 8049.91 8688.31Z" fill="#FDC199"/>
<path d="M6033.79 7978.65C6090.4 8047.92 6140.02 8120.81 6154.7 8211.83C6154.72 8225.27 6154.73 8238.71 6154.74 8252.16C6165.11 8320.17 6156.43 8388.63 6159.64 8456.79C6160.58 8476.49 6154.55 8496.88 6164.54 8515.86C6158.08 8631.51 6182.37 8745.35 6184.92 8860.48C6181.66 8869.93 6178.23 8879.33 6175.17 8888.85C6171.02 8901.72 6183.71 8923.55 6161.59 8925.96C6147.06 8927.55 6143.36 8908.33 6137.31 8896.81C6096.03 8818.31 6055.62 8739.35 6013.89 8661.09C5991.26 8618.64 5977.22 8574.75 5982.2 8526.11C5985.19 8497.01 5975.86 8473.41 5951.41 8456.46C5958.97 8440.96 5979.12 8436.79 5984.64 8419.38C5988.41 8407.49 5990.67 8394 5979.01 8387.27C5963.29 8378.2 5959.14 8392.7 5955.41 8403.95C5951.76 8414.93 5952.05 8427.65 5940.72 8434.96C5925.62 8425.28 5937.55 8402.62 5920.88 8393.68C5944.79 8261.86 5990.78 8136.18 6027.96 8008.04C6030.74 7998.49 6031.89 7988.46 6033.79 7978.65Z" fill="#FFCDAB"/>
<path d="M6053.77 9539.69C6046.43 9472.27 6039.09 9404.85 6031.74 9337.44C6033.01 9323.13 6034.28 9308.82 6035.55 9294.5C6101.42 9431.5 6128.11 9577.69 6160.78 9722.3C6086.07 9680.91 6082.6 9603.5 6053.77 9539.69Z" fill="#FAF5EE"/>
<path d="M5940.72 8434.96C5940.98 8429.96 5941.04 8424.93 5941.52 8419.95C5943.66 8398.08 5933.82 8369.66 5968.33 8364.36C5984.98 8361.81 5998.43 8369.56 6001.1 8387.65C6005.24 8415.63 6003.38 8441.94 5971.21 8453.58C5965.07 8455.8 5958.04 8455.55 5951.42 8456.44C5947.85 8449.29 5944.28 8442.13 5940.72 8434.96Z" fill="#FAF7F2"/>
<path d="M6538.49 8546.03C6517.81 8442.28 6512.91 8338.63 6538.74 8234.81C6557.49 8159.41 6592.82 8093.51 6650.42 8041.07C6729.38 7969.2 6830.76 7968.81 6910.33 8039.91C6985.29 8106.89 7019.36 8194.02 7037.64 8291.19C7054.5 8380.8 7041.15 8467.21 7025.54 8554.37C7013.79 8569.37 7004.19 8585.23 7005.04 8605.3C6979.93 8663.13 6950.18 8716.42 6891.82 8749.03C6790.93 8805.41 6677.71 8781.02 6611.64 8685.74C6602.14 8672.04 6593.08 8657.93 6584.02 8643.88C6565.4 8612.86 6561.64 8574.94 6538.49 8546.03Z" fill="#292915"/>
<path d="M6584.02 8643.88C6607.67 8650.62 6613.94 8674.44 6628.35 8690.06C6728.63 8798.76 6861.5 8794.47 6952.14 8678.14C6970.57 8654.48 6987.44 8629.62 7005.04 8605.3C6982.34 8729.03 6872.22 8835.05 6752.03 8806.74C6669.3 8787.26 6611.45 8727.71 6584.02 8643.88Z" fill="#C4C44B"/>
<path d="M6164.54 8515.86C6143.74 8478.09 6157.08 8437.35 6155.12 8398.08C6152.71 8349.56 6154.66 8300.81 6154.73 8252.16C6175.42 8289.95 6162.16 8330.68 6164.09 8369.95C6166.49 8418.48 6164.58 8467.21 6164.54 8515.86Z" fill="#FDCBA9"/>
<path d="M7209.34 8161.63C7235.12 8166.75 7248.48 8179.53 7249.43 8202.98C7250.52 8230.35 7238.71 8249.65 7210.04 8250.89C7181.93 8252.11 7171.74 8229.21 7171.16 8207.33C7170.52 8182.88 7192.29 8171.92 7209.34 8161.63Z" fill="#FFF4E3"/>
<path d="M7533.14 7492.06C7445.31 7431.33 7357.48 7370.6 7269.64 7309.87C7273.87 7299.08 7285.44 7285.66 7276.83 7276.97C7235.57 7235.35 7262.42 7182.02 7250.48 7135.36C7239.3 7091.7 7265.3 7074.68 7307.71 7076.16C7376.86 7078.57 7445.32 7072.04 7512.51 7054.89C7520.33 7052.9 7527.44 7048.11 7535.8 7044.18C7525.15 7031.08 7512.48 7038.56 7502.14 7035.39C7576.22 7016.39 7651.54 7030.39 7726.22 7027.34C7745.01 7026.57 7745.48 7041.64 7745.59 7055.77C7745.71 7072.25 7742.11 7089.6 7754.91 7103.67C7790.38 7184.4 7856.8 7198.88 7919.7 7139.44C7925.88 7133.6 7931.89 7128.11 7940.93 7127.8C7988.95 7169.91 7993.16 7231.7 8004.89 7287.03C8015.3 7336.09 8024.03 7387.65 8010.39 7440.43C7993.58 7505.53 7935.02 7565.8 7868.02 7572.47C7747.36 7584.49 7634.63 7561.06 7533.14 7492.06Z" fill="#FDCAA8"/>
<path d="M7940.93 7127.8C7919.4 7173.89 7884.72 7198.89 7832.81 7188.56C7787.6 7179.56 7758.7 7152.36 7754.92 7103.69C7780.08 7140.8 7811.72 7165.34 7859.93 7157.4C7915.84 7148.19 7921.76 7099.73 7937.22 7058.79C7941.08 7081.66 7947.51 7104.38 7940.93 7127.8Z" fill="#ADAD13"/>
<path d="M7289.96 6924.35C7318.9 6918.26 7307.49 6899.92 7294.06 6894.98C7246.93 6877.64 7248.48 6841.84 7260.43 6806.77C7279.54 6750.71 7252.63 6694.12 7268.14 6637.88C7274.34 6615.37 7283.08 6602.69 7302.94 6593.63C7365.19 6565.25 7369.16 6555.84 7350.47 6488.99C7490.96 6524.68 7632.98 6527.98 7776.05 6509.14C7774.63 6645.48 7763.25 6778.35 7674.11 6892.38C7651.46 6921.34 7628.63 6943.85 7593.94 6954.23C7491.96 6950.87 7389.66 6950.86 7289.96 6924.35Z" fill="#FCBC91"/>
<path d="M7865.57 7012.2C7861.63 7036.55 7852.89 7057.86 7827.86 7061.29C7806.2 7064.26 7799.37 7045.54 7799.45 7027.75C7799.55 7003.26 7810.82 6985.04 7837.8 6983.81C7857 6982.94 7862.61 6997.46 7865.57 7012.2Z" fill="#F6EEE1"/>
<path d="M7360.66 7037.03C7327.03 7051.43 7293.41 7051.6 7259.8 7036.96C7293.42 7036.99 7327.04 7037.01 7360.66 7037.03Z" fill="#FDCAA8"/>
<path d="M8130.41 8178.5C8131.88 8096.51 8168.86 8048.42 8225.41 8048.07C8258.36 8047.86 8284.39 8060.66 8302.35 8087.49C8336.05 8137.83 8345.15 8192.57 8325.01 8250.32C8311.58 8288.81 8288.15 8319.2 8244.03 8322.78C8199.91 8326.37 8172.45 8299.7 8151.64 8264.7C8134.87 8236.48 8128.29 8205.65 8130.41 8178.5Z" fill="#FCFCFB"/>
<path d="M8413.31 8211.61C8414.85 8236.9 8403.33 8245.31 8386.22 8244.46C8365.91 8243.45 8364.6 8227.26 8364.89 8211.55C8365.21 8194.06 8373.64 8181.57 8391.66 8183.24C8410.77 8185.01 8410.45 8203.27 8413.31 8211.61Z" fill="#EAE8E6"/>
<path d="M6895.06 8195.49C6897.05 8223.92 6889.85 8251.09 6873.62 8275.65C6832.35 8338.08 6756.4 8338.99 6716.18 8276.23C6686.92 8230.6 6677.28 8180.42 6692.3 8127.04C6702.86 8089.52 6722.1 8058.53 6762.75 8049.81C6807.05 8040.31 6840.63 8058.77 6866.29 8095.23C6887.45 8125.29 6896.87 8158.09 6895.06 8195.49Z" fill="#FCFCFB"/>
<path d="M6612.57 8203.08C6631.07 8204.74 6636.98 8218.21 6639.33 8233.5C6642.29 8252.75 6633.53 8267.39 6614.43 8269.73C6595.87 8272 6589.2 8257.63 6588.5 8240.99C6587.74 8223.03 6592.68 8208.38 6612.57 8203.08Z" fill="#E7E5E1"/>
</g>
<defs>
<clipPath id="clip0_4_357">
<rect width="14761" height="14761" fill="white"/>
</clipPath>
</defs>
</svg>
