<svg width="25" height="25" viewBox="0 0 25 25" fill="none" xmlns="http://www.w3.org/2000/svg">
<path d="M5.06317 11.0887L19.9389 11.0887C21.3511 11.0887 21.916 10.4861 21.916 8.98914L21.916 5.18548C21.916 3.6885 21.3511 3.08594 19.9389 3.08594L5.06317 3.08594C3.65092 3.08594 3.08602 3.6885 3.08602 5.18548L3.08602 8.98914C3.08602 10.4861 3.65092 11.0887 5.06317 11.0887ZM15.7774 21.9159L20.0518 21.9159C21.3794 21.9159 21.916 21.3134 21.916 19.8164L21.916 16.0127C21.916 14.5157 21.3794 13.9132 20.0518 13.9132L15.7868 13.9132C14.4499 13.9132 13.9227 14.5157 13.9227 16.0127L13.9227 19.8164C13.9133 21.3134 14.4499 21.9159 15.7774 21.9159ZM5.18556 21.9159L8.98922 21.9159C10.4862 21.9159 11.0888 21.3134 11.0888 19.8164L11.0888 16.0127C11.0888 14.5157 10.4862 13.9132 8.98922 13.9132L5.18556 13.9132C3.68857 13.9132 3.08601 14.5157 3.08601 16.0127L3.08601 19.8164C3.08601 21.3134 3.68857 21.9159 5.18556 21.9159Z" stroke="white" stroke-width="1.41225" stroke-linecap="round" stroke-linejoin="round"/>
</svg>
