<svg width="20" height="21" viewBox="0 0 20 21" fill="none" xmlns="http://www.w3.org/2000/svg">
<path d="M2.82126 9.14455L17.1019 9.14455C18.4577 9.14455 19 8.5661 19 7.12899L19 3.47748C19 2.04037 18.4577 1.46191 17.1019 1.46191L2.82127 1.46191C1.46551 1.46191 0.923201 2.04037 0.923201 3.47748L0.923201 7.12899C0.923201 8.5661 1.46551 9.14455 2.82126 9.14455ZM13.107 19.5387L17.2104 19.5387C18.4848 19.5387 19 18.9603 19 17.5232L19 13.8716C19 12.4345 18.4848 11.8561 17.2104 11.8561L13.116 11.8561C11.8325 11.8561 11.3264 12.4345 11.3264 13.8716L11.3264 17.5231C11.3174 18.9603 11.8325 19.5387 13.107 19.5387ZM2.93876 19.5387L6.59028 19.5387C8.02738 19.5387 8.60584 18.9603 8.60584 17.5231L8.60584 13.8716C8.60584 12.4345 8.02738 11.8561 6.59028 11.8561L2.93876 11.8561C1.50166 11.8561 0.923201 12.4345 0.923201 13.8716L0.9232 17.5231C0.9232 18.9603 1.50166 19.5387 2.93876 19.5387Z" stroke="#D87500" stroke-width="1.35576" stroke-linecap="round" stroke-linejoin="round"/>
</svg>
