<svg width="23" height="22" viewBox="0 0 23 22" fill="none" xmlns="http://www.w3.org/2000/svg">
<path d="M18.0171 6.84948L14.7904 3.62281C11.8937 0.735315 10.3721 1.79865 8.53872 3.62281L3.35039 8.81115C2.29622 9.86531 1.71872 10.5436 1.50789 11.2953C1.50789 11.3045 1.49872 11.3045 1.49872 11.3045V11.3503C1.12289 12.6886 2.11289 13.8253 3.35039 15.0628L6.58622 18.2803C7.74122 19.4445 8.67622 20.1686 9.71206 20.1686C10.7479 20.1686 11.6371 19.472 12.8287 18.2803L18.0171 13.1011C18.4662 12.6428 18.7962 12.267 19.0529 11.9095V11.9003H19.0621C20.2354 10.2595 19.9237 8.74698 18.0171 6.84948ZM17.0729 10.4245H17.0637C16.7887 10.3603 16.5046 10.3053 16.2204 10.2503C16.2021 10.2503 16.1837 10.2411 16.1562 10.2411C15.5146 10.122 14.8637 10.0211 14.2037 9.93865H14.1671C13.5071 9.85615 12.8379 9.79198 12.1687 9.75531H12.0954C11.5087 9.71865 10.9129 9.70031 10.3262 9.70031C9.61122 9.70031 8.89622 9.73698 8.19039 9.78281L7.85122 9.81031C7.31956 9.84698 6.78789 9.90198 6.26539 9.96615L5.84372 10.0211C5.31206 10.1036 4.78956 10.1861 4.26706 10.287C4.14789 10.3145 4.03789 10.3328 3.91872 10.3511L3.77206 10.3786C3.93706 10.1953 4.12956 10.0028 4.34039 9.79198L9.51956 4.61281C11.1879 2.96281 11.7562 2.56865 13.8096 4.61281L17.0271 7.83948C17.5221 8.32531 17.8521 8.73781 18.0537 9.09531C18.0537 9.09531 18.0537 9.10448 18.0629 9.10448C18.4479 9.77365 17.8246 10.5711 17.0729 10.4245ZM19.7037 15.4652C19.3554 15.0344 19.0529 14.6677 18.3746 14.6677C17.6962 14.6677 17.3937 15.0344 17.0546 15.4652C16.3212 16.3727 15.9912 17.3627 16.1104 18.3161C16.2479 19.4069 17.1829 20.1677 18.3746 20.1677C19.5662 20.1677 20.5012 19.4069 20.6387 18.3069C20.7579 17.3536 20.4371 16.3727 19.7037 15.4652Z" fill="white"/>
</svg>
