<?xml version="1.0" standalone="no"?>
<!DOCTYPE svg PUBLIC "-//W3C//DTD SVG 20010904//EN"
 "http://www.w3.org/TR/2001/REC-SVG-20010904/DTD/svg10.dtd">
<svg version="1.0" xmlns="http://www.w3.org/2000/svg"
 width="646.000000pt" height="696.000000pt" viewBox="0 0 646.000000 696.000000"
 preserveAspectRatio="xMidYMid meet">

<g transform="translate(0.000000,696.000000) scale(0.100000,-0.100000)"
fill="#000000" stroke="none">
<path d="M3080 6801 c-47 -10 -148 -48 -172 -66 -12 -8 -33 -11 -52 -8 -18 3
-59 -1 -92 -8 -32 -7 -66 -13 -74 -14 -33 -4 -171 -54 -226 -82 -17 -9 -42
-37 -57 -63 -15 -26 -60 -85 -101 -130 -71 -79 -83 -97 -173 -285 -7 -16 -21
-60 -29 -97 -13 -58 -22 -74 -67 -120 -29 -29 -60 -70 -70 -90 -10 -20 -22
-40 -27 -43 -15 -9 -12 -88 4 -110 7 -11 17 -36 21 -55 4 -19 16 -64 27 -100
14 -45 21 -99 23 -175 2 -98 13 -154 37 -190 4 -6 -3 -58 -14 -115 l-20 -105
23 -67 c20 -58 21 -70 10 -92 -31 -56 13 -166 163 -411 40 -64 50 -91 54 -135
2 -30 12 -85 23 -121 10 -36 19 -77 19 -90 0 -13 17 -60 38 -104 56 -116 135
-396 114 -403 -32 -10 -102 -77 -132 -124 -26 -42 -44 -58 -79 -73 -41 -17
-126 -61 -271 -142 -116 -65 -187 -103 -207 -112 -12 -6 -63 -35 -113 -65 -49
-31 -90 -53 -90 -50 0 5 -59 -26 -105 -56 -16 -11 -46 -29 -65 -40 -19 -11
-55 -36 -80 -55 -25 -18 -48 -34 -52 -34 -35 -4 -175 -135 -217 -203 -22 -37
-29 -40 -131 -51 -9 -1 -16 8 -18 20 -2 13 -10 23 -18 23 -8 0 -14 9 -14 21 0
15 -5 19 -17 15 -10 -2 -75 -12 -144 -22 l-127 -17 -5 -31 c-3 -17 -9 -46 -13
-63 -6 -29 -4 -33 15 -33 13 0 21 -6 21 -16 0 -13 8 -15 41 -12 l41 4 -6 -55
c-11 -92 -55 -130 -90 -79 l-16 23 -52 -53 c-59 -59 -59 -64 6 -117 35 -28 44
-30 115 -30 68 0 83 3 120 28 26 17 50 45 63 72 20 41 23 43 33 26 5 -11 27
-33 49 -50 42 -34 75 -38 148 -21 24 5 68 12 99 16 45 4 58 9 62 25 6 23 27
26 27 3 0 -14 8 -15 58 -10 91 11 88 8 102 94 12 79 39 156 47 136 2 -6 -3
-45 -12 -85 -19 -92 -19 -89 5 -89 12 0 20 -7 20 -16 0 -13 9 -14 56 -8 55 6
56 6 45 -14 -14 -27 -55 -39 -526 -153 -209 -50 -397 -98 -419 -105 -83 -30
-146 -99 -146 -162 0 -34 24 -92 38 -92 5 0 32 -20 61 -45 67 -58 110 -69 241
-62 127 6 219 33 283 82 55 42 66 69 41 96 -18 20 -28 20 -68 4 -17 -7 -17 -6
-5 16 7 13 12 27 11 31 -3 11 225 55 235 44 3 -3 -55 -142 -130 -308 l-135
-303 -38 -8 c-110 -24 -111 -25 -169 -102 -30 -41 -55 -78 -55 -81 0 -4 27 -4
60 0 33 4 60 3 60 -1 0 -4 -9 -19 -20 -33 -26 -34 -25 -43 5 -36 15 4 25 2 25
-4 0 -15 -153 -254 -197 -308 -40 -49 -99 -90 -143 -99 -28 -5 -30 -3 -30 25
0 47 27 101 82 158 45 48 49 56 41 81 -9 24 -15 28 -42 25 -17 -2 -31 0 -30 5
1 4 -1 20 -5 36 -7 23 -14 27 -42 27 -48 0 -148 -35 -215 -76 -73 -44 -144
-121 -176 -190 -49 -107 -27 -262 47 -332 82 -77 147 -123 194 -137 59 -18
164 -19 238 -4 77 16 228 91 297 149 91 76 145 162 256 414 55 124 104 226
108 226 4 0 71 -60 148 -132 302 -287 501 -446 597 -474 97 -30 178 -11 409
93 188 84 524 284 523 311 0 4 -9 18 -19 31 l-18 24 -59 -27 -59 -26 37 31
c37 30 37 31 23 60 -18 34 -15 33 -60 12 -19 -9 -37 -14 -40 -12 -2 3 0 21 5
40 4 19 14 59 20 90 l11 56 37 -13 c44 -16 95 -17 140 -5 38 11 39 6 18 -91
-8 -35 -17 -78 -20 -96 l-6 -34 46 27 c25 15 48 24 51 22 3 -3 0 -29 -6 -58
-6 -28 -10 -53 -9 -55 2 -1 62 33 133 76 72 44 134 81 138 82 5 2 17 46 28 98
31 154 23 140 66 124 55 -19 104 -17 169 7 59 22 139 86 149 120 8 25 27 24
43 -1 17 -28 82 -59 136 -63 68 -6 134 9 188 43 47 28 49 29 85 13 53 -22 132
-19 182 6 25 13 84 27 148 36 61 8 109 19 114 26 4 7 11 36 14 64 4 27 9 53
11 57 6 9 74 -37 91 -62 36 -51 128 -66 219 -36 27 8 96 21 154 28 l105 13 15
71 15 71 39 -29 c22 -15 45 -37 53 -47 21 -31 96 -55 145 -47 58 9 122 39 149
70 21 24 23 25 53 9 66 -35 216 -15 285 38 21 17 26 17 51 4 79 -41 194 -22
249 40 30 35 34 44 46 118 l6 39 -38 -26 c-21 -14 -40 -26 -44 -26 -5 0 -3 23
21 181 13 82 13 87 -9 132 -12 25 -37 55 -54 66 -18 11 -43 33 -57 47 -14 15
-45 36 -70 48 -96 43 -309 19 -427 -50 -44 -25 -83 -71 -83 -98 0 -25 -24 -19
-53 13 -14 16 -34 34 -43 39 -17 10 -17 14 5 84 33 100 34 107 18 78 -8 -14
-23 -53 -32 -87 l-17 -62 -47 6 c-25 3 -66 0 -91 -7 -25 -7 -70 -14 -100 -15
-102 -4 -181 -17 -195 -31 -7 -8 -17 -39 -20 -69 -4 -30 -9 -55 -11 -55 -12 0
-51 28 -67 48 -45 54 -150 72 -229 39 -33 -14 -37 -14 -44 1 -4 9 -9 166 -11
347 -3 245 -9 367 -23 474 -10 79 -16 150 -13 157 5 13 -23 178 -57 344 -11
52 -20 99 -20 103 0 11 23 -3 67 -41 36 -31 169 -122 179 -122 3 0 28 -17 57
-38 89 -66 247 -172 256 -172 5 0 19 -8 32 -19 13 -10 85 -51 159 -91 74 -39
144 -79 155 -89 11 -9 31 -22 45 -29 14 -6 48 -25 75 -42 28 -16 75 -44 106
-61 32 -19 63 -45 75 -65 87 -151 125 -221 130 -241 8 -31 17 -29 32 9 10 28
9 38 -15 87 -60 130 -120 194 -248 269 -49 29 -97 57 -105 63 -8 5 -26 14 -40
20 -14 6 -34 19 -45 29 -11 10 -53 35 -94 56 -41 21 -86 50 -100 64 -14 14
-51 41 -81 58 -30 18 -120 73 -200 122 -80 50 -152 93 -160 97 -8 3 -41 24
-73 45 -32 21 -61 38 -65 38 -4 0 -33 22 -65 49 -31 28 -66 53 -77 56 -11 3
-36 31 -56 61 -20 31 -53 73 -73 94 -53 58 -61 68 -61 79 0 6 -11 18 -25 27
-20 13 -23 21 -18 47 3 18 9 34 13 37 4 3 11 30 15 60 4 30 15 82 26 114 10
33 19 69 19 82 0 12 15 53 34 91 19 37 40 94 46 125 6 32 15 60 20 63 4 3 22
35 40 72 18 37 38 73 45 80 15 14 50 105 92 233 23 71 27 102 27 190 0 59 -5
121 -13 143 -13 38 -48 70 -71 65 -8 -2 -18 21 -27 62 -15 73 -12 179 12 355
14 107 10 203 -13 313 -4 17 -4 105 -1 195 4 122 2 170 -8 196 -19 48 -65 118
-83 126 -8 3 -31 15 -50 25 -19 11 -51 20 -70 20 -43 0 -45 2 -96 67 -54 69
-85 94 -179 143 -137 72 -176 81 -395 90 -169 7 -200 11 -235 29 -21 12 -47
21 -56 21 -9 0 -36 9 -60 19 -49 22 -193 35 -249 22z m-60 -265 c0 -6 11 -29
25 -51 l25 -40 -6 55 c-7 61 -5 62 25 5 l22 -40 -6 40 c-6 38 -6 39 7 15 24
-43 52 -84 71 -102 9 -10 17 -23 17 -30 0 -6 3 -9 6 -6 3 4 1 15 -4 25 -5 10
-12 32 -16 48 l-7 30 17 -25 c10 -14 24 -29 31 -33 7 -4 13 -12 13 -17 0 -6 8
-19 18 -29 9 -11 22 -26 28 -33 16 -19 83 -77 103 -88 14 -8 13 -9 -4 -10 -11
0 -31 7 -43 16 -29 20 -28 8 1 -18 12 -10 15 -17 7 -14 -8 3 -34 10 -57 17
-23 6 -48 17 -54 25 -6 8 -19 14 -27 14 -10 0 3 -18 33 -45 l50 -45 -40 15
c-22 9 -44 20 -49 26 -6 5 -19 9 -29 9 -17 0 -17 -2 4 -21 l24 -20 -25 6 c-14
4 -53 22 -87 41 -70 38 -82 37 -25 -1 52 -35 116 -85 109 -85 -3 0 -23 10 -44
22 l-38 22 20 -24 20 -23 -32 18 c-23 14 -29 22 -20 28 7 5 4 6 -10 2 -15 -4
-29 1 -42 14 -12 12 -25 21 -30 21 -5 0 -14 7 -21 15 -7 8 -17 15 -23 15 -6 0
7 -16 29 -35 41 -36 32 -47 -13 -17 -17 10 -24 12 -19 4 4 -8 22 -22 40 -33
17 -10 28 -19 24 -19 -12 0 -61 23 -100 47 -46 28 -48 20 -6 -24 34 -35 28
-44 -12 -16 l-25 17 19 -23 c20 -22 20 -22 0 -15 -48 18 -93 58 -136 123 -10
14 -18 21 -18 15 0 -6 9 -23 20 -37 11 -14 20 -30 20 -36 0 -6 4 -11 8 -11 5
0 22 -20 40 -45 32 -46 30 -62 -3 -25 -10 11 -23 20 -28 20 -6 0 -20 8 -31 17
-12 10 -8 3 8 -15 17 -17 27 -32 23 -32 -21 0 -89 55 -127 102 -56 68 -65 78
-51 53 23 -40 47 -75 80 -122 19 -25 28 -43 20 -38 -39 24 -88 63 -84 67 3 3
-2 5 -10 5 -22 0 -19 -7 25 -56 48 -53 50 -59 10 -31 -16 12 -34 19 -38 16 -5
-3 -20 7 -33 22 l-24 27 30 -25 c17 -13 9 -2 -16 25 -26 28 -59 73 -73 100
-15 28 -24 39 -20 25 4 -14 13 -37 20 -52 8 -15 14 -37 14 -48 0 -12 21 -47
47 -77 42 -49 45 -55 23 -48 -55 16 -180 119 -180 148 0 6 -3 8 -6 5 -3 -3 11
-38 30 -77 35 -71 35 -89 1 -51 -10 11 -23 20 -29 20 -5 0 8 -19 29 -41 22
-23 31 -37 20 -31 -58 29 -96 115 -101 226 -2 56 -1 72 5 51 8 -28 9 -28 11
15 l2 45 13 -40 c13 -39 13 -39 14 -10 l2 30 18 -34 18 -34 -4 84 -4 84 25
-45 c21 -39 24 -42 27 -22 4 21 7 19 33 -20 16 -24 25 -34 21 -23 -5 11 -10
38 -12 60 -4 40 -4 40 11 15 15 -24 15 -22 17 40 l1 65 13 -58 c15 -71 40
-104 31 -42 l-6 40 12 -32 c22 -56 37 -61 32 -12 l-4 44 16 -43 c20 -55 28
-48 14 10 -7 25 -10 56 -8 69 2 16 9 0 21 -46 16 -64 43 -135 51 -135 2 0 2
33 1 73 l-3 72 20 -45 c15 -34 21 -41 28 -30 6 8 10 10 10 4 0 -5 7 -19 15
-30 13 -17 14 -16 5 16 -18 64 -9 77 16 23 27 -60 37 -69 23 -21 -5 18 -9 42
-9 53 1 15 6 11 19 -15 26 -48 137 -167 118 -125 -23 48 -31 78 -18 71 8 -5 8
0 1 20 -15 37 -6 40 20 7 l22 -28 -6 25 c-10 52 -15 90 -12 90 2 0 13 -15 25
-32 25 -39 27 -21 6 48 -18 60 -18 59 0 44 8 -7 15 -18 15 -24z m1076 -25 c30
-33 64 -101 64 -127 0 -11 -11 2 -26 31 -15 28 -45 72 -68 99 -31 38 -35 46
-17 36 13 -7 34 -24 47 -39z m-172 4 c40 -23 71 -53 91 -85 5 -8 -13 3 -40 26
-28 22 -63 50 -79 62 -38 29 -25 28 28 -3z m-622 -65 c20 -30 51 -64 70 -75
l33 -19 -18 27 c-27 41 -20 44 18 7 19 -19 35 -31 35 -28 0 13 -44 105 -59
123 -9 11 11 -5 44 -35 34 -30 76 -64 95 -75 18 -11 44 -27 56 -35 51 -33 30
2 -48 79 -67 67 -75 77 -40 55 23 -15 42 -31 42 -35 0 -4 7 -10 16 -13 14 -5
15 -4 4 9 -20 24 -6 27 20 5 27 -24 38 -26 20 -5 -19 23 -5 30 17 8 28 -28 83
-65 83 -56 0 4 -7 17 -15 27 -27 36 -15 36 35 1 27 -19 53 -35 57 -35 5 0 43
-33 86 -73 42 -41 79 -72 80 -70 2 2 4 -4 4 -11 0 -16 -6 -14 -57 21 l-25 17
25 -28 c19 -21 6 -15 -52 24 -43 28 -87 65 -99 81 -12 17 -24 28 -26 25 -3 -3
12 -27 33 -53 58 -71 86 -113 76 -113 -5 0 -17 9 -27 20 -10 11 -23 20 -30 20
-6 0 -24 13 -40 30 -15 16 -31 28 -36 27 -4 -1 -15 7 -24 18 -16 20 -16 20 -6
-1 5 -11 28 -38 50 -60 47 -45 54 -63 14 -37 -14 9 -32 18 -40 19 -8 1 -26 11
-41 20 -15 10 -29 19 -32 19 -3 0 -10 4 -17 8 -6 4 -15 3 -18 -3 -5 -8 -12 -7
-23 2 -13 11 -15 10 -9 -4 8 -22 -6 -24 -23 -3 -6 8 -22 17 -33 21 -12 3 -31
14 -42 23 -11 8 -6 1 10 -18 17 -18 43 -39 58 -48 41 -21 27 -26 -19 -7 l-39
15 30 -25 c17 -14 26 -25 22 -26 -13 0 -66 43 -62 50 3 4 -3 14 -13 21 -15 13
-16 12 -3 -3 7 -10 10 -18 5 -18 -17 1 -67 48 -93 88 -14 22 -41 59 -59 81
-19 23 -27 38 -18 35 14 -5 15 -2 6 21 -21 55 -11 47 42 -35z m561 28 c75 -39
97 -55 134 -99 27 -33 27 -33 -18 6 -26 22 -59 47 -75 55 -44 23 -119 70 -111
70 5 0 36 -14 70 -32z m127 -166 c25 -22 42 -43 39 -46 -3 -4 -32 19 -64 49
-32 30 -62 55 -66 55 -5 0 -20 11 -35 25 -27 25 -60 37 -36 13 7 -7 12 -16 12
-22 0 -21 -22 12 -24 37 -3 24 0 23 63 -23 37 -27 87 -66 111 -88z m217 16
c-2 -13 -4 -5 -4 17 -1 22 1 32 4 23 2 -10 2 -28 0 -40z m-621 -66 c-3 -3 2
-11 12 -19 19 -16 -4 -7 -25 10 -15 11 -7 30 8 21 6 -3 8 -8 5 -12z m-69 -122
c13 0 26 7 29 15 5 12 11 12 42 -4 53 -26 92 -34 107 -21 10 8 19 8 34 1 25
-14 44 -14 36 -1 -8 12 7 13 20 1 15 -13 77 -32 70 -21 -4 6 3 7 18 1 14 -6
27 -7 30 -5 3 3 21 -2 41 -10 45 -19 46 -11 4 26 l-33 28 55 -27 c30 -14 57
-30 58 -35 2 -4 9 -8 15 -8 22 -1 97 -94 97 -121 0 -6 16 -47 35 -91 35 -80
42 -120 10 -57 -23 43 -75 115 -75 102 0 -5 3 -12 6 -16 6 -6 74 -158 74 -166
0 -2 -9 7 -20 20 -16 18 -13 8 10 -38 32 -67 35 -78 20 -68 -16 10 -12 -7 10
-43 26 -43 25 -52 -2 -17 -13 17 -22 41 -21 60 1 18 -8 42 -19 56 l-20 24 17
-28 c9 -16 14 -35 11 -43 -7 -18 6 -57 51 -159 3 -5 -5 1 -16 14 -25 28 -26
25 -6 -22 17 -42 20 -71 5 -47 -14 22 -12 8 4 -32 8 -19 12 -44 9 -56 -5 -21
19 -99 57 -185 14 -32 19 -58 15 -77 -3 -15 -2 -31 3 -34 6 -3 8 4 6 16 -4 21
-4 21 5 3 5 -12 5 -25 -2 -33 -5 -7 -7 -16 -3 -19 4 -4 11 -1 15 6 13 20 20
-19 36 -179 3 -39 40 -179 49 -188 12 -11 5 67 -9 108 -8 23 -15 63 -15 87 0
64 19 40 54 -67 25 -79 27 -93 21 -190 -4 -58 -13 -114 -19 -125 -7 -11 -16
-61 -20 -111 -8 -110 -27 -210 -54 -283 -17 -46 -21 -51 -25 -30 -3 18 -5 16
-6 -11 -1 -23 -4 -31 -10 -22 -12 19 -19 -21 -27 -147 -6 -86 -9 -101 -20 -87
-10 15 -13 12 -19 -26 -4 -24 -16 -55 -26 -69 -10 -14 -26 -53 -35 -87 -10
-34 -20 -62 -24 -62 -4 0 -10 -18 -14 -40 -3 -22 -16 -66 -28 -97 -18 -48 -23
-54 -27 -35 -5 19 -17 5 -74 -90 -131 -220 -178 -268 -309 -318 l-53 -20 25
20 25 20 -38 -15 c-21 -9 -42 -13 -48 -10 -5 4 -27 -7 -48 -24 -38 -30 -99
-61 -121 -61 -6 0 -1 15 11 33 13 17 17 27 9 21 -15 -11 -50 -15 -50 -5 0 2
10 16 23 29 l22 25 -22 -12 c-18 -9 -22 -8 -25 9 -3 17 -10 13 -58 -26 -30
-25 -68 -58 -85 -72 l-30 -27 35 -5 34 -5 -27 -12 c-15 -7 -55 -15 -91 -19
-57 -6 -66 -4 -86 16 l-23 23 26 -7 c14 -3 36 -2 49 3 13 6 19 10 13 11 -5 1
-19 4 -30 6 -11 3 -50 9 -86 13 -37 5 -73 12 -80 17 -52 31 -117 94 -155 149
-40 59 -55 69 -48 33 5 -22 4 -22 -8 -4 -7 10 -22 30 -34 45 -21 27 -104 169
-104 178 0 3 -30 58 -67 121 -37 63 -68 123 -69 131 -1 9 -13 48 -27 86 -25
70 -66 203 -87 283 -6 23 -14 42 -19 42 -25 0 -82 290 -65 333 3 9 0 27 -8 40
-9 13 -20 76 -28 157 -7 74 -17 139 -21 145 -14 15 -10 167 6 200 l13 30 2
-40 c1 -22 4 -52 6 -67 2 -16 6 -38 7 -50 2 -13 9 -35 15 -50 6 -15 14 -51 17
-80 10 -84 15 -100 29 -95 13 5 45 -107 51 -182 2 -20 7 -76 11 -126 5 -60 15
-106 31 -140 18 -39 23 -45 23 -25 0 20 2 22 10 10 7 -12 10 -8 10 15 0 34 19
57 100 117 30 23 47 38 37 35 -24 -9 -53 3 -35 14 7 5 -8 6 -37 3 -62 -8 -75
-18 -74 -58 1 -19 3 -24 6 -12 4 15 7 16 14 5 6 -10 9 -10 9 -1 0 6 6 12 13
12 6 0 25 7 41 15 16 9 31 14 33 11 2 -2 -13 -11 -34 -21 -21 -10 -48 -27 -60
-38 -29 -26 -34 -14 -31 85 2 42 -1 74 -6 71 -4 -3 -5 5 -1 17 6 20 5 21 -7 9
-15 -13 -21 -42 -8 -34 4 2 7 -9 8 -26 1 -39 -14 -28 -22 17 -4 21 -3 41 4 49
8 9 8 14 0 17 -6 2 -12 14 -14 28 -2 14 -8 38 -15 53 -6 16 -11 33 -11 38 0 5
-4 9 -9 9 -5 0 -11 14 -15 31 -4 23 -2 35 10 44 12 8 14 14 6 19 -7 4 -12 22
-13 39 -1 30 -1 30 -8 7 l-7 -25 -9 25 c-4 14 -8 58 -7 98 0 40 -3 70 -8 67
-5 -3 -7 -20 -3 -37 5 -24 3 -29 -7 -23 -8 5 -11 21 -7 46 3 22 1 39 -4 39 -5
0 -9 7 -9 16 0 9 5 12 12 8 7 -4 8 -3 4 5 -4 6 -11 9 -16 6 -18 -11 -28 101
-15 165 13 66 17 80 23 76 7 -4 9 111 3 219 l-3 60 -13 -35 -14 -35 4 40 c12
114 15 175 9 175 -4 0 -13 -8 -20 -17 -12 -17 -13 -17 -14 3 0 11 3 23 6 27
12 12 15 128 4 142 -6 7 -10 28 -9 47 3 55 0 70 -13 62 -6 -4 -9 -3 -6 2 3 5
8 18 12 29 5 13 9 16 15 7 4 -6 7 4 7 24 0 21 6 41 16 48 8 6 27 34 42 62 26
50 73 94 98 94 7 0 22 -7 32 -15 24 -18 37 -19 60 -2 16 12 16 13 -5 14 -12 1
-32 12 -43 23 l-21 21 29 -7 c16 -4 41 -13 55 -20 25 -13 61 -19 61 -10 0 3
-24 28 -52 56 -54 53 -50 57 10 13 30 -23 148 -50 161 -38 2 3 -3 5 -11 5 -9
0 -22 8 -29 17 -12 15 -12 16 6 8 11 -4 56 -9 100 -10 85 -3 86 -2 19 42 -15
10 -13 10 11 0 17 -6 36 -17 43 -24 19 -18 74 -26 113 -15 l34 9 -28 12 c-15
6 -38 20 -50 32 l-22 21 40 -18 c22 -10 69 -19 105 -21 l65 -3 -35 20 -35 21
35 -8 c19 -4 108 -6 196 -4 108 2 170 -1 185 -9 20 -9 22 -9 9 2 -8 7 -24 24
-35 37 l-20 23 39 -16 c21 -9 49 -16 63 -16z m870 -306 c23 -33 45 -78 48 -99
4 -22 12 -49 17 -60 5 -11 -9 0 -31 25 -23 25 -41 42 -41 38 0 -5 15 -39 49
-113 2 -5 -4 -1 -14 9 -25 25 -65 101 -65 123 0 10 -7 29 -16 41 -8 12 -11 22
-5 22 5 0 16 -8 23 -18 7 -10 19 -22 26 -26 10 -6 10 0 -1 26 -28 65 -40 88
-47 88 -4 0 -12 12 -19 27 l-13 28 24 -26 c12 -14 42 -52 65 -85z m41 81 c-3
-3 -9 2 -12 12 -6 14 -5 15 5 6 7 -7 10 -15 7 -18z m-2238 -9 c0 -2 -7 -7 -16
-10 -8 -3 -12 -2 -9 4 6 10 25 14 25 6z m34 -50 c-3 -9 -10 -16 -15 -16 -13 0
-100 -89 -129 -132 -13 -20 -26 -36 -27 -34 -2 2 14 37 36 79 l39 76 -30 -22
c-16 -12 -38 -36 -49 -53 -22 -36 -49 -62 -49 -47 0 20 70 99 102 114 130 63
133 64 122 35z m2273 -63 c7 -19 8 -31 3 -28 -6 4 -10 12 -10 19 0 7 -11 30
-25 50 -14 20 -25 40 -25 44 1 14 45 -53 57 -85z m-40 -2 c12 -34 20 -61 18
-61 -7 0 -75 117 -75 129 0 8 6 9 18 2 9 -5 27 -37 39 -70z m-96 -99 c8 -22 8
-23 -6 -12 -22 18 -19 7 14 -58 47 -92 71 -150 71 -171 0 -11 4 -22 9 -25 5
-3 15 -30 21 -58 7 -29 17 -62 22 -73 9 -20 9 -20 -6 -1 -9 11 -16 26 -16 34
0 7 -4 10 -10 7 -5 -3 -10 2 -10 13 0 10 -20 57 -44 105 -25 48 -48 108 -52
134 -4 25 -13 57 -20 72 -10 19 -11 27 -1 33 8 5 6 13 -10 30 -11 13 -26 34
-33 48 -9 19 -3 15 25 -14 20 -21 41 -50 46 -64z m-2206 12 c-19 -46 -19 -50
1 -33 15 12 15 10 0 -25 -8 -20 -18 -61 -22 -89 l-7 -52 20 25 c11 14 23 38
27 54 4 16 14 39 22 50 12 18 14 18 14 3 0 -10 -6 -30 -14 -45 -7 -15 -16 -49
-20 -77 l-7 -50 16 30 c21 39 35 53 35 35 0 -19 -45 -200 -64 -260 -8 -25 -22
-73 -32 -108 -9 -34 -19 -61 -21 -59 -2 2 1 46 5 98 5 52 8 96 6 98 -2 2 -8
-9 -14 -24 -15 -39 -21 -27 -10 20 5 22 10 55 10 74 0 33 -1 34 -16 15 -15
-18 -15 -18 -9 6 3 14 8 48 11 75 5 47 4 49 -10 31 -15 -19 -16 -19 -18 10 -5
75 14 131 66 197 37 47 51 48 31 1z m-112 -59 c-3 -9 -8 -14 -10 -11 -3 3 -2
9 2 15 9 16 15 13 8 -4z m2317 -190 c0 -7 6 -18 14 -24 8 -7 18 -27 22 -44 3
-18 11 -38 17 -45 11 -14 75 -164 84 -197 8 -27 -9 -10 -35 35 -31 53 -97 185
-94 188 1 1 -9 23 -22 50 -13 26 -31 65 -40 87 l-16 40 35 -39 c19 -22 35 -45
35 -51z m10 -190 c48 -103 50 -115 9 -50 -28 44 -64 135 -53 135 2 0 22 -38
44 -85z m-2175 -106 c-9 -24 -21 -61 -27 -81 -6 -21 -14 -38 -18 -38 -4 0 -15
-26 -25 -57 -15 -46 -20 -53 -26 -38 -10 27 -11 85 -1 85 4 0 21 26 37 57 17
32 36 63 43 71 6 7 13 19 14 25 0 7 2 17 3 22 2 6 4 17 5 25 2 9 4 7 7 -6 2
-11 -3 -41 -12 -65z m2440 -94 c25 -124 27 -160 15 -229 -16 -87 -59 -222 -95
-296 -81 -167 -95 -184 -95 -119 0 64 18 120 49 154 15 17 36 49 46 73 10 23
21 42 26 42 11 0 -2 81 -18 113 -7 15 -15 27 -16 27 -1 0 -2 -30 -2 -67 0 -55
-6 -79 -28 -123 -27 -54 -28 -54 -26 -20 2 19 5 39 7 44 3 6 4 34 3 63 -2 33
2 53 8 53 6 0 10 4 9 8 -5 14 34 78 53 91 18 11 19 6 19 -76 l0 -88 20 44 c24
52 26 139 4 196 -20 53 -36 127 -29 143 7 18 44 -7 50 -33z m-217 0 c-3 -3 -9
2 -12 12 -6 14 -5 15 5 6 7 -7 10 -15 7 -18z m57 -166 c3 -30 2 -47 -1 -39 -4
8 -12 29 -19 45 -8 17 -16 50 -20 75 l-6 45 20 -36 c11 -20 22 -60 26 -90z
m-2372 -224 c11 -22 23 -42 26 -45 11 -9 51 -100 51 -115 0 -7 5 -17 10 -20
14 -9 7 24 -13 62 -9 18 -17 40 -17 50 -1 16 -14 58 -34 104 -5 11 -1 18 13
22 16 4 21 0 21 -15 0 -10 -4 -16 -10 -13 -14 9 -12 -4 3 -19 24 -26 71 -89
84 -114 18 -35 31 -218 15 -208 -7 4 -12 13 -12 19 0 7 -19 39 -41 72 -22 33
-42 71 -46 85 -3 14 -16 41 -28 60 -27 44 -65 134 -64 152 0 7 5 2 11 -12 6
-14 20 -43 31 -65z m267 -146 c0 -5 -4 -9 -8 -9 -5 0 -9 7 -9 15 0 8 4 12 9 9
4 -3 8 -9 8 -15z m140 -369 c12 -7 10 -9 -8 -7 -12 0 -22 5 -22 9 0 11 12 10
30 -2z m1795 -466 c1 -14 27 -58 41 -69 7 -5 48 -58 92 -116 l79 -106 7 -104
c4 -57 16 -149 27 -204 10 -55 19 -125 19 -156 0 -30 7 -105 16 -165 11 -78
17 -208 19 -455 l3 -347 -86 -11 c-62 -8 -91 -16 -100 -28 -11 -16 -20 -10
-87 60 -63 65 -105 122 -105 142 -1 2 -18 41 -40 84 -22 44 -40 83 -40 86 0 8
-51 119 -93 203 -18 35 -39 67 -47 72 -21 11 -131 19 -124 9 3 -5 11 -9 18 -9
8 0 19 -7 26 -15 7 -8 27 -15 45 -15 50 0 59 -14 155 -230 24 -52 55 -125 70
-162 34 -81 76 -140 153 -218 l59 -58 -12 -56 c-6 -31 -15 -56 -19 -56 -4 0
-33 22 -64 49 -76 67 -134 85 -246 78 -125 -7 -240 -46 -296 -101 -27 -25 -47
-55 -51 -74 -4 -18 -10 -32 -15 -32 -5 0 -28 18 -51 40 -66 62 -101 68 -268
47 -20 -3 -79 -10 -132 -17 l-96 -12 -13 -74 c-7 -41 -16 -74 -19 -74 -3 0
-19 14 -36 31 -33 35 -94 69 -124 69 -20 0 -20 1 -4 38 8 20 22 57 31 82 8 25
19 49 24 54 5 6 9 17 9 25 0 9 12 39 25 66 14 28 25 56 25 63 0 6 4 12 10 12
5 0 31 44 56 98 25 53 49 99 53 102 3 3 12 16 18 30 53 111 129 230 147 230 6
0 44 14 85 30 40 17 109 39 154 50 99 25 210 78 260 125 21 19 41 35 45 35 6
0 63 60 128 135 43 51 194 290 194 308 0 3 18 42 39 88 22 45 38 87 36 93 -2
6 -13 40 -24 76 -10 36 -26 82 -35 102 -9 21 -16 48 -16 61 0 44 74 134 75 91z
m-109 -338 l-6 -184 -36 -64 c-20 -35 -42 -72 -48 -83 -27 -46 -66 -104 -88
-128 -13 -13 -43 -47 -67 -75 -25 -28 -49 -49 -53 -46 -4 3 -8 1 -8 -4 0 -29
-169 -132 -247 -151 -74 -18 -174 -50 -203 -65 -16 -8 -42 -17 -57 -21 -27 -6
-83 -47 -83 -60 0 -4 -8 -19 -19 -33 -24 -35 -118 -216 -161 -312 -19 -41 -40
-82 -47 -91 -15 -18 -113 -262 -113 -282 0 -38 -54 -62 -162 -71 -31 -3 -39 0
-44 18 -3 11 -24 62 -46 111 -22 50 -51 128 -65 174 -13 46 -31 95 -40 108
-18 27 -25 18 99 127 83 72 113 167 79 240 -52 109 -131 295 -131 307 0 8 -14
43 -31 79 l-30 65 -3 211 c-2 198 -1 210 14 190 9 -11 22 -34 28 -51 6 -16 24
-66 41 -110 35 -91 34 -88 21 -80 -15 9 -12 -4 14 -68 26 -65 49 -93 110 -134
53 -36 58 -43 52 -73 -7 -39 9 -58 24 -31 7 15 17 20 27 17 13 -5 14 -4 3 9
-7 9 -10 19 -6 22 7 7 56 -48 51 -57 -2 -3 10 -6 27 -7 29 -2 29 -2 -18 40
-26 23 -54 41 -62 39 -10 -3 -13 2 -9 17 3 13 0 21 -7 21 -7 0 -18 12 -25 28
-12 26 -12 26 6 10 10 -10 42 -42 71 -72 32 -32 75 -63 105 -76 29 -13 55 -27
58 -32 4 -7 9 -6 13 1 4 6 2 11 -5 11 -8 0 -9 4 0 13 8 11 6 13 -12 13 -14 -1
-21 4 -19 13 2 11 0 12 -10 4 -7 -6 -22 -7 -33 -3 -17 6 -16 8 11 14 38 8 77
-5 99 -36 10 -13 15 -16 12 -7 -5 15 -1 15 36 1 23 -8 53 -15 67 -14 15 0 19
-2 10 -5 -8 -3 -18 -11 -22 -17 -5 -8 -8 -7 -8 2 0 6 -5 12 -11 12 -5 0 -7 -4
-4 -10 3 -5 1 -10 -4 -10 -6 0 -11 -7 -11 -15 0 -8 5 -15 10 -15 6 0 10 5 10
11 0 6 9 9 19 6 14 -3 18 -1 14 9 -5 13 9 18 45 17 6 -1 12 4 12 9 0 6 7 7 16
4 8 -3 13 -2 9 3 -5 10 50 27 74 22 7 -1 10 2 6 8 -3 6 0 11 8 11 8 0 20 7 27
15 7 8 17 12 24 8 6 -3 8 -3 4 2 -14 15 25 40 63 40 20 0 35 3 33 6 -2 4 10
12 28 18 44 16 47 14 13 -9 -44 -29 -14 -24 42 6 l48 27 -45 -42 c-25 -23 -40
-40 -34 -37 7 3 17 -1 23 -8 10 -11 8 -15 -6 -19 -10 -3 1 -4 25 -3 23 2 46 7
50 11 4 4 -3 5 -15 2 -13 -3 -23 -1 -23 4 0 5 -3 8 -7 8 -20 -3 -23 3 -13 21
6 11 17 20 25 20 8 0 15 4 15 9 0 11 39 26 60 23 12 -2 13 -1 1 6 -14 10 -6
36 9 27 4 -3 10 4 13 15 3 11 13 20 24 20 17 -1 17 -1 1 -11 -18 -10 -14 -39
5 -39 6 0 19 8 30 18 15 13 21 14 24 4 4 -10 8 -10 19 -1 8 6 12 15 9 19 -3 4
10 21 28 37 31 27 85 103 73 103 -3 0 -15 -10 -27 -22 l-21 -23 16 33 c10 19
21 30 28 26 7 -5 8 -3 4 5 -5 8 0 14 13 18 12 3 21 10 21 15 0 5 -4 6 -10 3
-6 -3 -7 1 -4 9 3 9 10 13 15 10 5 -3 9 2 9 11 0 9 4 14 9 11 5 -4 8 5 6 19
-1 14 2 28 6 31 5 3 9 12 9 21 0 16 -8 16 -9 0 0 -4 -10 -17 -23 -28 -19 -15
-19 -18 -4 -12 13 4 17 2 14 -8 -3 -8 -10 -14 -16 -14 -6 0 -17 -6 -23 -12
-26 -26 -29 -12 -6 20 14 17 32 46 40 62 8 17 24 39 34 50 24 26 41 65 53 123
10 44 39 112 49 112 2 0 1 -83 -3 -184z m-1716 141 c0 -7 16 -32 35 -54 19
-23 35 -45 35 -50 0 -5 -16 -25 -36 -44 -43 -40 -73 -101 -74 -146 0 -18 17
-70 39 -115 63 -134 118 -269 136 -332 9 -32 25 -75 36 -95 10 -19 19 -39 19
-43 0 -3 25 -50 55 -103 30 -54 55 -102 55 -108 0 -6 -7 -33 -16 -61 -14 -41
-29 -62 -83 -109 -137 -118 -165 -146 -159 -152 3 -4 16 -2 27 4 19 11 22 7
36 -46 22 -80 73 -219 95 -262 5 -9 18 -35 29 -58 l20 -42 -37 -6 c-101 -17
-107 -19 -110 -50 -5 -41 -19 -55 -55 -55 -29 0 -29 1 -23 38 l6 38 -123 -16
c-67 -8 -127 -18 -133 -22 -7 -4 -15 -23 -18 -42 -6 -33 -21 -46 -53 -46 -10
0 -13 6 -9 16 3 9 9 27 12 41 l7 26 -57 -7 c-31 -4 -56 -5 -56 -3 0 3 28 38
62 79 84 100 164 225 237 367 34 66 61 123 61 126 0 4 -25 4 -55 0 l-54 -6 9
28 c22 60 125 143 180 143 11 0 20 5 20 10 0 13 -24 12 -83 -3 -34 -10 -58
-25 -87 -57 l-40 -44 -181 -27 c-99 -15 -182 -29 -183 -31 -1 -2 -12 -37 -25
-78 -13 -41 -48 -124 -79 -184 -63 -121 -76 -131 -155 -121 -39 6 -47 10 -42
24 15 41 114 187 153 226 l43 43 -45 27 c-25 15 -44 31 -41 35 3 4 -2 11 -10
14 -13 5 -8 20 25 85 29 59 44 79 55 75 8 -4 15 -10 15 -14 0 -16 65 -34 117
-33 38 1 68 10 110 32 62 34 93 39 93 16 0 -14 10 -15 63 -9 34 3 67 11 73 18
6 6 19 49 28 96 17 92 44 130 90 130 28 0 34 12 42 86 6 50 5 54 -11 48 -15
-6 -17 -3 -12 16 6 21 4 22 -36 17 -23 -4 -51 -8 -62 -11 -11 -2 -48 -7 -82
-11 -67 -7 -68 -9 -78 -79 -4 -25 -11 -46 -15 -46 -5 0 -18 14 -30 30 -27 38
-73 62 -116 62 -36 0 -42 8 -21 30 12 13 87 162 142 283 15 33 45 96 65 140
21 44 40 85 42 90 1 6 26 48 53 93 28 45 55 90 60 100 13 22 88 99 98 101 4 0
7 -5 7 -12z m-243 -259 c-19 -40 -49 -104 -67 -143 -18 -38 -49 -106 -70 -150
-21 -44 -52 -114 -70 -155 -18 -41 -36 -77 -40 -80 -4 -3 -12 -15 -18 -26 -6
-12 -24 -25 -39 -29 -16 -3 -42 -17 -60 -31 -40 -30 -48 -30 -27 1 29 45 25
76 -16 117 -25 25 -47 38 -64 38 -70 0 -122 -65 -95 -118 7 -15 15 -30 17 -34
2 -5 -3 -8 -12 -8 -10 0 -19 -18 -27 -60 l-12 -60 -29 38 c-40 50 -71 65 -122
58 -203 -26 -226 -32 -226 -62 0 -8 -4 -14 -10 -14 -5 0 -10 10 -10 21 0 20
-4 21 -47 15 -106 -15 -98 -6 -117 -111 -10 -51 -24 -102 -32 -112 -13 -16
-14 -14 -8 22 17 107 34 170 53 196 12 15 21 31 21 35 0 14 96 105 125 119 17
8 53 33 82 55 29 21 67 47 85 56 18 9 40 22 48 30 9 7 56 34 105 59 50 25 142
79 205 120 63 41 124 79 135 85 11 6 37 20 57 33 131 79 312 177 317 172 1 -2
-13 -37 -32 -77z m581 -257 c12 -17 25 -51 29 -77 6 -44 5 -46 -14 -36 -25 14
-35 26 -68 86 -15 26 -22 45 -16 42 16 -11 13 3 -8 32 -10 15 -21 37 -25 49
-5 15 5 9 36 -22 24 -24 53 -57 66 -74z m1112 46 c0 -1 -9 -20 -20 -41 -10
-22 -17 -43 -14 -48 4 -5 -9 -2 -27 8 -19 10 -38 17 -42 16 -14 -4 14 39 29
45 8 3 22 -1 31 -8 14 -12 16 -12 9 0 -5 8 -3 17 5 22 14 9 29 12 29 6z m-65
-97 c-3 -5 -11 -10 -16 -10 -6 0 -7 5 -4 10 3 6 11 10 16 10 6 0 7 -4 4 -10z
m-408 -106 c-3 -3 -12 -4 -19 -1 -8 3 -5 6 6 6 11 1 17 -2 13 -5z m-1647 -83
c16 -31 12 -50 -16 -76 -68 -63 -154 6 -89 70 31 32 89 35 105 6z m620 -43 c0
-7 -3 -29 -6 -50 -5 -31 -11 -37 -39 -42 -50 -10 -71 -41 -90 -136 -9 -47 -19
-88 -23 -91 -4 -4 -31 -10 -61 -13 -43 -6 -53 -4 -48 7 3 7 17 79 33 160 l28
146 43 7 c23 3 49 4 58 1 8 -4 27 0 42 8 34 18 63 19 63 3z m-368 -48 c11 0
36 -16 55 -35 34 -34 35 -38 31 -95 -8 -115 -93 -190 -214 -190 -52 0 -67 4
-93 26 -52 43 -52 143 0 213 35 48 144 97 187 85 8 -2 23 -4 34 -4z m-280 -60
c-5 -41 -53 -284 -56 -287 -2 -2 -26 -6 -55 -10 -61 -7 -60 -20 -23 172 l27
140 40 6 c61 10 70 7 67 -21z m-932 -12 c0 -2 -13 -72 -30 -156 -34 -180 -55
-225 -119 -259 -61 -32 -150 -32 -185 0 l-25 22 35 39 35 40 28 -17 c22 -13
36 -15 54 -8 28 11 30 16 52 119 23 111 25 106 -51 98 l-65 -7 7 38 c3 21 10
42 15 48 9 9 249 51 249 43z m715 -23 c30 -29 31 -55 8 -182 -17 -100 -15 -96
-92 -108 -39 -6 -42 -5 -38 11 14 47 30 172 24 187 -9 24 -44 21 -70 -5 -16
-16 -28 -49 -41 -113 -9 -49 -20 -93 -24 -96 -4 -4 -29 -9 -56 -13 l-49 -6 7
43 c3 23 16 94 28 159 21 114 22 116 51 122 44 9 77 7 77 -4 0 -5 15 -1 33 10
47 29 111 27 142 -5z m-346 -27 c0 -7 -12 -78 -27 -158 l-27 -145 -49 -10
c-36 -6 -51 -6 -53 2 -3 8 -15 6 -36 -8 -47 -28 -111 -25 -142 6 -30 29 -32
72 -7 195 l17 85 54 8 c30 4 55 6 57 4 2 -1 -3 -34 -11 -72 -18 -83 -19 -131
-4 -140 18 -12 67 16 78 43 5 15 15 56 22 92 18 100 18 100 112 108 9 1 17 -4
16 -10z m594 -176 c3 -4 -4 -23 -15 -42 -15 -28 -18 -30 -14 -10 3 14 6 33 6
43 0 17 15 23 23 9z m-181 -106 c-3 -15 2 -17 25 -12 78 15 115 18 110 9 -4
-6 -11 -22 -16 -36 l-10 -26 -43 19 c-24 11 -53 20 -65 20 -26 0 -35 12 -27
35 8 21 30 13 26 -9z m668 -71 c-55 -145 -230 -393 -394 -558 -135 -136 -360
-310 -521 -403 -16 -9 -13 -12 27 -23 57 -16 111 -58 403 -313 130 -114 254
-215 274 -224 63 -30 119 -29 238 5 119 34 308 105 447 170 49 23 91 40 92 38
6 -5 -114 -90 -200 -141 -104 -63 -328 -174 -446 -222 -121 -48 -205 -56 -275
-25 -100 44 -228 149 -482 393 -142 136 -241 218 -263 218 -4 0 -39 -73 -80
-162 -149 -332 -173 -378 -240 -446 -143 -147 -318 -218 -491 -201 -152 16
-229 103 -229 260 1 107 58 203 166 274 62 42 173 84 218 85 l29 0 -52 -55
c-87 -92 -113 -186 -73 -265 23 -46 66 -57 136 -35 91 30 131 68 235 225 84
127 181 295 181 315 0 3 -30 6 -67 5 -38 -1 -74 -1 -81 -1 -19 1 45 84 76 98
15 7 50 12 78 13 l51 0 81 183 c44 100 121 273 171 385 50 112 91 205 91 208
0 9 -61 3 -200 -20 -273 -46 -508 -106 -537 -138 -17 -19 -17 -21 6 -39 25
-20 41 -23 136 -20 62 1 146 21 203 48 45 21 48 13 9 -27 -38 -40 -114 -76
-187 -90 -77 -15 -225 -13 -264 4 -65 27 -82 82 -45 142 42 68 61 74 769 243
219 53 263 67 285 91 10 11 29 20 41 20 23 0 104 -28 104 -36 0 -2 -21 -32
-46 -66 -25 -34 -60 -87 -78 -118 -38 -66 -298 -641 -292 -647 7 -8 75 25 146
71 207 134 409 398 510 666 l36 95 135 21 c185 29 181 29 169 -1z m3750 -51
c60 -18 115 -65 126 -108 4 -16 -1 -72 -10 -127 -21 -128 -21 -189 0 -189 8 0
24 5 35 10 24 14 24 3 -1 -38 -24 -38 -88 -71 -141 -72 -20 0 -57 11 -83 25
l-48 25 -34 -29 c-36 -32 -117 -61 -169 -61 -76 0 -145 45 -166 108 -27 81 31
196 121 242 47 24 148 50 193 50 67 0 85 21 47 55 -42 38 -187 2 -264 -65 -30
-27 -39 -31 -47 -19 -12 19 -11 24 5 62 26 64 95 103 226 131 88 19 146 19
210 0z m-595 -98 c66 -28 74 -69 53 -289 -12 -140 -8 -154 39 -136 35 13 30
-13 -10 -48 -89 -78 -232 -63 -252 27 -5 25 16 216 31 275 9 36 -24 49 -67 26
-41 -21 -57 -65 -89 -246 -12 -66 -24 -127 -26 -136 -3 -12 -26 -19 -92 -27
-48 -6 -94 -11 -102 -11 -8 0 -40 -9 -70 -20 -31 -11 -65 -18 -75 -16 -11 2
-25 4 -32 4 -6 1 -25 13 -42 27 -37 31 -39 62 -15 232 18 124 14 139 -31 128
-54 -14 -70 -43 -94 -176 -13 -69 -29 -150 -35 -180 l-13 -55 -89 -11 c-50 -6
-92 -7 -95 -2 -3 5 -12 1 -20 -8 -38 -46 -159 -59 -218 -23 l-33 20 -22 -20
c-65 -61 -209 -84 -277 -45 -91 53 -104 164 -32 261 35 47 149 99 251 113 67
10 82 15 82 30 0 69 -167 50 -269 -30 -27 -21 -52 -36 -55 -33 -13 14 -5 62
17 94 68 101 356 153 472 85 80 -48 92 -89 65 -228 -11 -57 -20 -109 -20 -115
0 -19 34 -16 60 5 18 14 28 52 61 217 22 110 41 201 43 202 1 2 40 8 87 14 70
10 85 9 92 -3 8 -12 17 -10 55 9 50 26 134 31 176 11 59 -26 72 -81 51 -216
-25 -171 -18 -203 34 -149 17 19 30 66 60 218 l38 194 79 12 c104 15 104 15
104 -2 0 -19 10 -19 36 -1 49 34 135 44 189 22z m-3732 -329 c-56 -73 -191
-212 -198 -205 -3 3 9 36 26 74 17 38 44 97 60 131 l28 62 65 0 66 -1 -47 -61z
m1891 30 c59 -45 71 -78 71 -187 -1 -80 -5 -104 -26 -150 -34 -74 -67 -110
-125 -140 -60 -31 -151 -34 -203 -7 -19 9 -37 17 -41 17 -3 0 -17 -56 -30
-125 l-24 -125 -99 -61 c-54 -34 -101 -58 -104 -55 -3 3 29 178 71 388 42 211
76 390 76 398 0 30 18 40 94 51 59 9 80 9 85 0 6 -8 20 -6 52 9 64 30 154 24
203 -13z m-603 -73 c40 -20 87 -80 95 -120 13 -69 -2 -191 -31 -249 -64 -132
-220 -191 -332 -125 l-33 19 -5 -22 c-15 -72 -45 -222 -45 -228 0 -10 -200
-133 -206 -127 -2 3 9 77 26 166 16 88 30 165 30 170 0 6 -38 -10 -85 -34 -70
-36 -96 -44 -139 -44 -44 0 -58 4 -80 26 -14 15 -26 31 -26 37 0 6 -12 0 -27
-14 -90 -81 -156 -107 -219 -87 -25 9 -45 24 -57 46 l-20 34 48 161 c26 89 50
168 53 176 4 10 -7 12 -49 10 l-54 -4 3 35 c2 19 7 38 11 42 8 10 226 40 256
36 22 -3 21 -4 -27 -157 -27 -85 -46 -161 -44 -168 3 -7 16 -13 29 -13 28 0
112 51 125 77 6 10 22 76 36 148 14 71 30 132 34 136 7 7 184 30 189 25 2 -1
-14 -86 -34 -189 -20 -103 -34 -189 -31 -192 11 -11 141 50 149 70 4 11 20 90
35 177 30 177 16 159 142 174 44 5 62 3 62 -5 0 -8 9 -7 30 4 65 34 135 37
191 9z m-1111 -271 c0 -14 -16 -80 -35 -145 -42 -142 -40 -173 14 -219 20 -17
53 -46 73 -65 34 -31 42 -34 102 -34 59 0 69 3 129 43 l64 43 29 -23 c26 -22
37 -24 101 -20 l72 4 -6 -31 c-3 -17 -13 -70 -23 -118 -10 -49 -16 -88 -13
-88 2 0 21 12 43 26 41 27 57 27 47 0 -4 -9 -56 -30 -124 -52 -226 -70 -227
-70 -456 128 -94 83 -216 188 -269 235 -54 46 -98 87 -98 91 0 4 40 33 88 64
48 32 123 87 167 122 44 36 83 65 88 66 4 0 7 -12 7 -27z"/>
<path d="M2271 5734 c0 -11 3 -14 6 -6 3 7 2 16 -1 19 -3 4 -6 -2 -5 -13z"/>
<path d="M3720 5283 c-31 -7 -76 -11 -103 -8 -61 7 -117 -8 -148 -41 -13 -14
-23 -27 -21 -30 7 -12 0 -17 -7 -5 -8 12 -11 8 -17 -15 l-8 -29 -7 25 -7 25
-1 -27 c-1 -17 -6 -27 -13 -25 -9 1 -12 -9 -11 -28 3 -50 13 -95 21 -95 4 0
14 15 22 33 l15 32 3 -35 c4 -35 26 -70 45 -70 5 0 -1 8 -13 18 -25 20 -19 48
7 38 8 -3 11 -1 8 4 -3 6 -1 10 5 10 8 0 10 -9 6 -25 -5 -20 -3 -23 11 -18 10
3 27 14 38 23 11 10 34 25 50 35 17 9 23 11 14 4 -8 -8 -34 -30 -57 -50 l-41
-35 42 -2 c34 -1 39 1 26 10 -15 10 -14 14 10 33 14 12 38 25 54 29 25 6 27 4
27 -23 0 -16 6 -33 12 -37 9 -6 5 -10 -12 -15 -37 -9 120 -23 161 -14 19 4 55
18 81 30 27 13 50 19 54 14 3 -5 1 -9 -5 -9 -5 0 -11 -10 -13 -22 -2 -14 -9
-22 -18 -20 -8 2 -12 0 -8 -4 4 -4 -2 -22 -13 -41 -29 -46 -9 -41 37 10 21 23
42 41 46 40 5 -2 8 4 8 13 0 10 6 14 15 11 19 -8 30 10 16 27 -6 7 -8 16 -4
20 4 3 -12 24 -35 45 -65 60 -178 78 -292 45 -53 -15 -127 -27 -119 -20 2 2
47 19 99 37 86 31 106 34 205 34 95 0 114 -3 140 -21 17 -12 44 -26 62 -32 28
-9 31 -9 25 6 -15 37 -46 81 -61 86 -9 3 -23 10 -31 15 -8 6 -39 21 -68 35
-61 29 -138 32 -232 9z m197 -168 c50 -21 67 -36 52 -46 -6 -4 -34 5 -62 18
-46 23 -58 25 -146 21 -85 -4 -93 -4 -66 8 42 18 177 18 222 -1z m-4 -56 c15
-6 27 -15 27 -20 0 -9 -57 -37 -108 -53 -22 -7 -23 -6 -12 15 11 19 9 24 -9
38 -24 18 -19 31 11 31 10 0 18 4 18 10 0 6 8 6 23 0 12 -6 34 -15 50 -21z"/>
<path d="M2623 5233 c-13 -2 -23 -8 -23 -13 0 -5 -13 -11 -30 -15 -16 -4 -30
-12 -30 -18 0 -8 -3 -8 -8 1 -6 9 -18 -3 -40 -38 -18 -28 -32 -54 -32 -58 0
-3 -10 -16 -22 -29 -12 -13 -17 -23 -11 -23 6 0 13 7 17 15 3 8 9 14 13 13 16
-3 62 14 73 27 20 24 156 48 233 42 82 -7 116 -27 47 -27 -108 0 -258 -68
-281 -128 -15 -38 -6 -36 27 8 35 47 99 76 200 91 64 10 75 9 112 -10 22 -11
43 -25 47 -31 3 -5 -10 0 -30 11 -76 45 -252 5 -301 -68 -23 -34 -22 -77 3
-101 11 -11 13 -8 13 17 0 16 -5 33 -10 36 -14 8 57 65 80 65 11 0 22 -12 29
-30 l10 -31 -52 5 c-48 5 -49 5 -12 -3 81 -18 215 -14 270 8 67 27 85 30 85
13 0 -15 1 -15 16 0 15 15 13 19 -26 57 -24 23 -40 44 -37 48 8 7 58 -37 53
-46 -2 -3 10 -6 27 -7 18 -1 26 1 20 3 -7 3 -13 12 -13 20 0 13 3 13 15 3 8
-7 15 -23 15 -36 0 -13 5 -24 12 -24 15 0 1 -13 -17 -16 -8 -1 -15 3 -15 9 0
5 -3 7 -6 4 -9 -9 16 -38 27 -31 5 3 9 -5 9 -18 1 -18 2 -20 10 -8 11 20 38
220 32 243 -7 26 -26 15 -32 -19 -4 -20 -8 -25 -14 -16 -6 10 -11 9 -23 -5 -8
-10 -12 -13 -9 -6 9 16 -11 63 -38 90 -20 20 -25 21 -30 8 -3 -9 -2 -14 2 -11
5 3 9 -8 9 -24 l0 -30 -25 38 c-14 20 -26 38 -27 39 -3 5 -291 10 -312 6z
m305 -245 c3 -17 -14 -26 -67 -34 -29 -5 -34 -3 -23 7 17 18 15 26 -8 32 -11
3 -20 10 -20 17 0 7 9 14 20 17 11 3 20 9 20 14 0 15 75 -37 78 -53z m39 -4
c-3 -3 -12 -4 -19 -1 -8 3 -5 6 6 6 11 1 17 -2 13 -5z"/>
<path d="M4316 5002 c-7 -12 4 -52 15 -52 5 0 4 11 -1 24 -5 13 -6 27 -3 30 4
3 4 6 0 6 -3 0 -8 -4 -11 -8z"/>
<path d="M3920 4990 c0 -5 5 -10 11 -10 5 0 7 5 4 10 -3 6 -8 10 -11 10 -2 0
-4 -4 -4 -10z"/>
<path d="M3508 4973 c6 -2 12 -11 12 -18 0 -7 7 -16 16 -19 32 -12 37 -5 14
19 -13 14 -31 25 -39 24 -11 0 -12 -2 -3 -6z"/>
<path d="M2297 4963 c-13 -12 -7 -43 8 -43 9 0 15 9 15 25 0 24 -10 32 -23 18z"/>
<path d="M3580 4934 c0 -2 15 -11 33 -20 27 -14 30 -15 19 -2 -11 14 -52 31
-52 22z"/>
<path d="M2610 4921 c0 -5 7 -11 14 -14 10 -4 13 -1 9 9 -6 15 -23 19 -23 5z"/>
<path d="M2610 4880 c0 -5 5 -10 11 -10 5 0 7 5 4 10 -3 6 -8 10 -11 10 -2 0
-4 -4 -4 -10z"/>
<path d="M2848 4866 c-26 -19 -11 -26 19 -11 15 8 31 11 37 8 6 -3 8 -2 3 2
-13 14 -41 15 -59 1z"/>
<path d="M4297 4855 c3 -8 9 -12 14 -9 12 7 11 11 -5 17 -10 4 -13 1 -9 -8z"/>
<path d="M4336 4853 c-6 -14 -5 -15 5 -6 7 7 10 15 7 18 -3 3 -9 -2 -12 -12z"/>
<path d="M2320 4841 c0 -7 -5 -9 -12 -5 -7 5 -8 3 -3 -5 5 -9 10 -10 18 -2 6
6 8 14 4 18 -4 3 -7 1 -7 -6z"/>
<path d="M4323 4802 c0 -21 3 -28 9 -20 5 9 8 7 8 -7 0 -11 3 -31 5 -45 5 -24
5 -24 -4 -2 -6 12 -12 22 -13 22 -2 0 -4 -44 -5 -97 -1 -54 2 -92 6 -85 5 8
12 -2 21 -30 l14 -43 7 40 c14 71 10 158 -10 210 -10 28 -16 56 -13 64 2 8 0
11 -6 7 -6 -3 -12 0 -14 6 -3 7 -5 -2 -5 -20z"/>
<path d="M4251 4674 c0 -11 3 -14 6 -6 3 7 2 16 -1 19 -3 4 -6 -2 -5 -13z"/>
<path d="M3604 4623 c21 -41 20 -55 -4 -108 l-20 -43 -77 5 c-78 5 -78 5 -123
-31 -25 -20 -59 -40 -77 -45 -40 -11 -103 -3 -124 16 -19 16 -135 54 -143 46
-3 -3 -21 -7 -40 -9 -31 -3 -37 0 -42 22 -9 36 3 114 21 134 8 9 15 20 15 25
0 4 -14 -10 -31 -31 -17 -21 -34 -41 -38 -44 -15 -11 -112 -173 -107 -178 4
-3 6 0 6 6 0 7 5 12 11 12 5 0 7 -4 4 -10 -3 -5 -1 -10 5 -10 6 0 13 7 17 16
3 8 11 13 18 10 7 -2 20 3 29 13 16 17 15 19 -4 24 -11 3 -18 2 -16 -1 2 -4
-7 -15 -20 -25 -18 -14 -24 -15 -24 -4 0 16 44 59 53 52 4 -3 5 -2 2 2 -6 7
14 33 25 33 4 0 10 -12 13 -27 10 -47 30 -65 80 -70 26 -3 47 -9 47 -13 0 -4
7 -11 16 -14 8 -3 12 -2 9 4 -10 16 21 11 35 -5 15 -18 -3 -45 -29 -44 -14 0
-14 1 -1 7 8 4 16 14 18 22 3 12 1 12 -9 3 -6 -6 -18 -9 -25 -6 -8 3 -14 1
-14 -5 0 -11 -97 -55 -108 -49 -4 3 -16 1 -27 -3 -17 -6 -14 -9 17 -15 21 -4
35 -12 32 -17 -4 -6 2 -7 16 -3 21 7 21 6 5 -19 -17 -25 -17 -26 1 -20 11 4
25 14 31 22 7 9 16 13 19 9 3 -3 21 3 40 14 21 11 34 14 34 7 0 -6 9 -3 20 7
20 18 20 17 20 -21 l1 -39 19 24 20 23 0 -45 c0 -51 -14 -97 -30 -97 -6 0 -8
11 -4 28 6 26 5 26 -16 -7 -11 -18 -19 -36 -16 -39 3 -2 -8 -22 -24 -43 -31
-38 -25 -44 20 -19 14 8 29 14 33 15 4 0 12 7 17 15 9 13 10 13 10 0 0 -9 -3
-20 -7 -26 -5 -5 0 -1 10 9 14 16 17 17 17 3 0 -9 6 -13 15 -10 8 4 12 10 9
15 -3 5 0 9 5 9 6 0 11 -6 11 -12 0 -9 4 -8 10 2 9 13 11 13 20 0 8 -13 10
-12 10 3 0 9 5 17 11 17 6 0 9 -6 6 -13 -3 -8 1 -14 9 -14 8 0 14 6 14 14 0
14 12 17 24 6 4 -5 11 -8 14 -8 19 -2 91 -30 120 -47 30 -19 45 -44 20 -36 -6
2 -20 -4 -30 -14 -18 -18 -34 -19 -198 -16 -98 2 -176 -1 -173 -5 2 -4 -7 -6
-21 -3 -46 8 -66 17 -61 27 3 5 -1 6 -9 3 -11 -4 -16 0 -16 11 0 10 -4 13 -12
9 -7 -5 -1 6 14 24 15 18 25 39 22 47 -7 17 -20 19 -29 5 -4 -6 -10 -8 -14 -5
-5 2 -19 -7 -31 -20 -36 -39 -43 -30 -14 18 l27 42 -30 -27 c-16 -16 -37 -28
-47 -28 -11 0 -24 -7 -31 -16 -6 -9 -29 -18 -50 -21 -21 -2 -55 -13 -74 -24
-20 -10 -56 -26 -81 -34 l-45 -14 39 2 c33 3 36 2 20 -10 -10 -7 -23 -13 -28
-13 -6 0 -4 -5 4 -10 13 -9 12 -13 -7 -28 -29 -23 -63 -82 -63 -110 0 -19 3
-21 19 -13 18 10 18 9 0 -51 -21 -67 -20 -84 2 -40 7 15 21 38 30 52 9 14 24
38 33 53 10 16 20 26 23 23 4 -3 0 -14 -8 -23 -60 -75 -95 -220 -71 -298 l9
-30 21 40 21 40 1 -52 c0 -29 5 -53 10 -53 6 0 10 22 10 49 0 28 3 52 8 54 4
3 7 -47 7 -111 0 -99 4 -127 24 -180 13 -34 25 -61 27 -59 2 2 0 26 -5 55 -4
28 -4 49 1 46 4 -3 6 28 4 68 -3 40 -3 63 0 51 7 -31 22 -29 27 5 2 15 5 1 6
-31 1 -45 8 -72 32 -115 17 -32 32 -58 32 -59 1 0 3 45 4 100 1 71 -1 94 -7
77 -12 -33 -2 100 11 155 6 22 12 50 14 62 2 13 13 40 26 60 50 82 52 89 20
53 -39 -44 -80 -115 -86 -149 -2 -14 -14 -44 -26 -66 -13 -24 -19 -30 -15 -15
4 14 9 36 11 50 2 14 8 45 14 70 18 78 11 77 -31 -5 -30 -60 -42 -97 -48 -150
l-7 -70 -2 68 c0 44 5 82 15 105 22 51 55 114 68 132 16 21 47 78 48 87 2 17
12 39 26 56 25 29 3 19 -28 -13 -28 -29 -30 -29 -30 -9 0 19 -2 20 -17 8 -18
-15 -18 -17 3 35 14 35 -13 12 -76 -67 -34 -43 -64 -76 -66 -74 -6 6 36 82 44
80 10 -2 82 87 81 101 0 6 -4 20 -8 31 -8 19 -8 19 -19 0 -9 -16 -11 -17 -12
-4 0 17 27 39 64 52 16 6 17 5 6 -8 -10 -12 -2 -11 36 5 l49 21 -25 -27 c-25
-27 -25 -27 -2 -21 24 6 28 -3 10 -21 -8 -8 -8 -12 -1 -12 6 0 13 7 17 15 8
23 29 18 23 -5 -3 -11 -1 -18 4 -14 5 3 9 -6 9 -20 0 -14 5 -26 11 -26 6 0 9
-9 6 -20 -5 -19 -4 -20 24 -3 35 21 43 15 29 -23 -9 -23 -9 -27 1 -16 19 18
28 15 22 -7 -7 -26 14 -36 22 -11 3 11 12 20 20 20 7 0 16 7 19 16 9 24 19 10
11 -15 -4 -12 -12 -18 -21 -14 -10 4 -12 0 -8 -11 4 -9 -8 -37 -28 -68 -49
-75 -50 -77 -42 -89 4 -7 25 9 55 42 51 57 55 58 39 12 -8 -23 -8 -25 2 -13 7
8 19 16 26 17 13 3 17 -23 4 -31 -5 -3 -10 -31 -11 -63 -1 -32 -4 -67 -8 -78
-6 -17 -8 -16 -13 10 -5 25 -8 20 -14 -33 -11 -85 14 -190 61 -254 39 -55 52
-60 46 -20 l-4 27 24 -29 c14 -16 27 -45 31 -65 13 -77 2 -111 -13 -39 l-7 32
-32 -57 c-19 -33 -32 -71 -32 -91 0 -19 -5 -38 -11 -41 -5 -4 -44 -8 -85 -8
l-75 -2 26 -22 c18 -16 40 -23 73 -25 70 -2 82 0 107 20 23 18 23 18 -33 16
-32 -2 -47 -1 -36 2 12 3 30 14 40 25 9 10 25 19 34 19 9 0 25 9 35 20 10 11
23 20 28 20 6 0 2 -9 -8 -20 -10 -11 -15 -20 -11 -20 4 0 2 -9 -4 -21 -11 -19
-10 -20 12 -8 20 10 20 8 -6 -20 -17 -17 -26 -31 -22 -31 16 0 81 44 95 64 8
11 40 47 70 81 32 35 73 97 95 141 35 72 39 87 39 159 0 52 -5 92 -16 115
l-15 35 -2 -45 c-1 -25 -4 -38 -7 -30 -4 9 -13 -3 -24 -35 -13 -38 -18 -44
-19 -25 -1 14 -8 41 -15 60 -10 27 -14 30 -14 13 -1 -12 -6 -34 -12 -50 l-11
-28 -12 40 -11 39 -13 -42 c-17 -57 -32 -53 -33 11 l-1 52 -12 -33 c-15 -43
-26 -31 -26 30 0 45 -1 48 -16 34 -9 -9 -19 -38 -23 -64 l-8 -47 -12 45 c-7
25 -14 50 -17 55 -5 13 6 -111 12 -133 5 -14 4 -14 -4 -2 -5 8 -18 48 -28 89
-15 59 -20 69 -25 50 -4 -14 -7 8 -8 54 -1 45 3 77 9 77 6 0 11 -15 11 -32 1
-24 3 -27 6 -10 2 12 11 35 19 50 l15 27 -6 -35 c-3 -20 1 -55 9 -80 13 -42
14 -43 15 -14 1 17 4 46 8 65 5 28 7 30 14 14 7 -19 8 -18 8 3 1 12 5 22 11
22 5 0 10 28 12 63 l3 62 17 -50 17 -50 0 38 c1 21 -6 54 -14 74 -15 35 -15
36 2 20 12 -10 23 -13 34 -7 12 7 27 -7 68 -60 29 -38 50 -74 47 -79 -4 -6 0
-25 9 -43 l15 -33 -3 57 c-1 43 1 54 10 46 6 -5 10 -15 7 -22 -3 -7 1 -18 9
-25 12 -9 16 -6 21 20 6 33 18 33 22 1 1 -9 7 -37 12 -62 9 -42 10 -43 11 -12
1 18 5 31 10 27 15 -8 25 79 12 103 -6 11 -11 29 -10 39 0 15 2 15 11 -4 6
-12 17 -24 25 -27 19 -8 8 28 -20 65 -31 43 -16 52 28 18 l40 -31 -36 33 c-19
19 -48 44 -65 57 l-29 23 30 -6 29 -6 -19 22 c-11 13 -31 34 -45 47 l-25 24
35 -7 c19 -4 55 -8 80 -11 l45 -4 -45 25 c-25 13 -53 24 -62 25 -22 0 -23 16
-3 24 9 3 33 -5 53 -18 41 -27 117 -50 133 -41 9 6 84 -65 114 -106 11 -15 49
-93 58 -119 3 -8 6 3 6 25 0 22 -6 57 -13 78 -8 20 -10 37 -6 37 15 0 83 -75
97 -107 16 -39 29 -152 14 -118 -7 14 -10 -4 -10 -60 0 -79 0 -79 14 -46 8 18
12 37 9 43 -3 5 -3 26 1 46 6 31 9 34 15 17 5 -11 9 -33 9 -49 1 -47 15 -21
24 47 16 111 13 170 -11 211 -28 47 -28 60 -2 46 11 -6 20 -7 20 -3 0 4 5 2
12 -5 24 -24 31 -11 7 14 l-24 26 24 -7 c14 -4 21 -3 18 2 -4 6 -9 30 -12 54
-3 24 -13 55 -23 69 -19 26 -109 77 -118 67 -3 -3 13 -15 36 -27 23 -12 40
-24 37 -27 -3 -2 -16 1 -29 8 -13 7 -2 -8 25 -35 48 -49 62 -75 29 -57 -18 9
-155 31 -195 31 -19 0 -18 -3 11 -21 17 -12 32 -25 32 -31 0 -6 -13 -7 -32 -3
-48 11 -56 18 -28 26 l25 7 -27 1 c-27 1 -51 21 -26 21 9 0 9 3 -2 10 -13 9
-13 10 0 11 8 1 2 5 -15 9 -28 7 -27 7 7 5 21 -2 59 2 85 9 l48 12 -60 16
c-33 9 -95 30 -137 46 -43 17 -78 26 -78 21 0 -5 5 -9 11 -9 5 0 8 -4 4 -9 -3
-6 4 -15 16 -22 17 -9 19 -13 8 -20 -10 -6 -8 -10 11 -18 23 -9 23 -10 4 -10
-23 -1 -48 21 -37 32 3 4 -3 7 -15 7 -12 0 -22 4 -22 8 0 10 -51 37 -63 34 -4
-1 -18 3 -30 10 -37 21 -58 19 -52 -6 6 -20 5 -20 -9 -2 -8 10 -21 16 -28 13
-7 -2 -24 5 -37 17 l-24 21 12 -22 c6 -12 11 -25 11 -28 0 -13 -51 54 -66 87
-13 28 -14 29 -9 6 3 -15 1 -29 -4 -32 -17 -11 -33 25 -36 81 -3 51 -2 56 10
40 7 -10 20 -20 28 -21 8 -1 23 -8 33 -16 16 -14 17 -13 10 5 -5 11 -11 29
-14 40 -5 17 -3 18 10 7 14 -11 15 -9 13 18 -1 17 -5 33 -9 37 -9 10 -7 23 4
23 6 0 10 -6 10 -14 0 -7 8 -24 19 -37 19 -25 18 -54 -2 -42 -27 15 31 -41 74
-73 32 -23 53 -32 65 -27 13 5 15 3 9 -7 -5 -9 -4 -11 3 -6 20 12 14 28 -28
67 -22 21 -33 36 -25 33 23 -9 18 7 -12 40 l-28 30 27 -17 c15 -9 38 -17 50
-17 l23 1 -23 12 c-12 7 -19 16 -16 20 4 4 1 7 -7 7 -30 0 -42 16 -30 39 7 12
17 19 23 15 7 -4 8 1 3 16 -5 15 -4 20 4 16 6 -4 11 -2 11 3 0 6 8 11 18 11
20 0 62 39 62 58 0 16 15 15 29 -2 9 -11 9 -15 0 -18 -9 -3 -6 -11 9 -26 13
-13 19 -29 16 -39 -5 -16 -5 -16 5 -1 8 11 8 25 1 42 -5 14 -7 26 -4 26 3 0
-7 11 -22 25 -15 14 -25 27 -22 30 8 9 95 -83 112 -120 17 -36 26 -44 22 -22
-2 16 -76 149 -92 164 -7 7 -14 16 -16 20 -2 5 -18 22 -37 38 l-33 30 16 -32z
m-107 -217 c-14 -14 -27 -12 -27 5 0 7 32 18 39 13 2 -2 -3 -10 -12 -18z m-62
-16 c3 -5 1 -10 -4 -10 -6 0 -11 5 -11 10 0 6 2 10 4 10 3 0 8 -4 11 -10z m34
-13 c12 -15 12 -17 -3 -11 -9 3 -16 13 -16 22 0 8 1 13 3 11 1 -2 9 -12 16
-22z m-391 -87 c-22 -30 -35 -41 -22 -17 9 16 36 47 41 47 2 0 -6 -13 -19 -30z
m377 -30 c10 -11 16 -20 13 -20 -3 0 -13 9 -23 20 -10 11 -16 20 -13 20 3 0
13 -9 23 -20z m-161 -66 c3 -8 2 -12 -4 -9 -6 3 -10 10 -10 16 0 14 7 11 14
-7z m-15 -23 c6 -10 8 -21 5 -24 -3 -3 4 -8 15 -12 24 -7 28 -25 6 -25 -15 0
-41 38 -37 55 1 6 -4 1 -13 -9 -10 -13 -11 -23 -5 -31 7 -9 0 -12 -26 -12
l-36 0 26 14 c14 7 29 25 32 38 7 30 20 32 33 6z m-469 -161 c0 -5 -5 -10 -11
-10 -5 0 -7 5 -4 10 3 6 8 10 11 10 2 0 4 -4 4 -10z m-108 -222 c-7 -7 -12 -8
-12 -2 0 6 3 14 7 17 3 4 9 5 12 2 2 -3 -1 -11 -7 -17z m18 -69 c-7 -11 -14
-18 -17 -15 -3 3 0 12 7 21 18 21 23 19 10 -6z m-14 -134 c-18 -49 -20 -21 -4
43 10 37 14 41 16 22 1 -14 -4 -43 -12 -65z m1341 23 c-2 -13 -4 -3 -4 22 0
25 2 35 4 23 2 -13 2 -33 0 -45z m-1206 -35 c-12 -20 -14 -14 -5 12 4 9 9 14
11 11 3 -2 0 -13 -6 -23z m286 -120 c-3 -10 -5 -2 -5 17 0 19 2 27 5 18 2 -10
2 -26 0 -35z m144 -318 c-8 -36 -9 -37 -10 -10 -1 36 12 87 16 65 2 -9 -1 -33
-6 -55z m34 -73 c-6 -5 -35 -28 -65 -53 l-55 -44 32 40 c18 21 43 45 55 52 26
14 47 17 33 5z"/>
<path d="M4272 4524 c-10 -11 -10 -14 0 -14 9 0 9 -3 1 -11 -6 -6 -9 -18 -6
-25 3 -9 -1 -14 -12 -14 -9 0 -14 -3 -11 -8 9 -15 -11 -77 -24 -74 -11 2 -11
0 -1 -11 7 -9 9 -30 6 -53 -3 -22 -1 -64 4 -94 l9 -55 1 43 c0 24 5 41 10 38
4 -3 11 20 15 51 4 31 10 61 15 67 11 15 20 126 12 152 -5 19 -8 20 -19 8z"/>
<path d="M4309 4488 c-3 -22 -1 -34 4 -29 5 5 7 21 5 37 -3 27 -4 26 -9 -8z"/>
<path d="M4210 4486 c0 -2 9 -6 20 -9 11 -3 18 -1 14 4 -5 9 -34 13 -34 5z"/>
<path d="M4190 4419 c0 -13 -4 -18 -12 -13 -6 4 -8 3 -4 -4 3 -6 2 -13 -4 -17
-17 -11 -11 -24 10 -22 13 1 23 11 27 25 4 16 8 20 13 12 5 -7 9 -2 12 14 4
22 2 26 -18 26 -18 0 -24 -6 -24 -21z"/>
<path d="M2415 4401 c-3 -5 -2 -12 3 -15 5 -3 9 1 9 9 0 17 -3 19 -12 6z"/>
<path d="M3717 4371 c12 -10 20 -21 17 -24 -3 -3 3 -3 15 0 11 3 18 9 15 14
-3 5 -9 7 -14 4 -4 -3 -13 2 -20 10 -7 8 -18 15 -24 15 -6 -1 -1 -9 11 -19z"/>
<path d="M2806 4358 c3 -4 1 -8 -4 -8 -6 0 -9 -8 -8 -17 0 -10 -4 -17 -11 -16
-6 1 -14 -4 -17 -12 -3 -8 -2 -15 3 -15 12 0 41 35 41 48 0 7 5 11 11 10 6 -2
13 2 15 7 2 6 -4 11 -15 11 -11 0 -17 -4 -15 -8z"/>
<path d="M3565 4330 c27 -12 43 -12 25 0 -8 5 -22 9 -30 9 -10 0 -8 -3 5 -9z"/>
<path d="M3753 4325 c0 -8 4 -12 9 -9 4 3 8 9 8 15 0 5 -4 9 -8 9 -5 0 -9 -7
-9 -15z"/>
<path d="M3771 4303 c2 -27 15 -42 29 -33 10 7 11 10 3 10 -7 0 -13 5 -13 11
0 5 5 7 12 3 7 -4 8 -3 4 4 -8 13 -36 16 -35 5z"/>
<path d="M3811 4252 c-1 -7 -5 -11 -9 -8 -5 3 -9 -1 -9 -8 0 -8 7 -12 14 -9 8
3 19 -1 26 -9 18 -23 69 -37 158 -44 63 -6 80 -10 84 -24 3 -10 13 -21 21 -24
8 -3 12 -10 9 -16 -3 -6 8 -39 26 -75 28 -58 31 -70 24 -120 -4 -37 -3 -55 4
-55 6 0 11 7 11 16 0 8 4 13 9 10 13 -9 29 69 22 106 -6 30 -8 31 -18 13 -10
-18 -12 -16 -18 15 -3 19 -7 49 -8 65 -1 17 -10 36 -21 44 -14 11 -15 15 -5
22 11 7 11 9 -1 9 -12 0 -13 2 -1 9 10 6 4 11 -20 16 -30 7 -32 9 -14 16 22
10 -114 4 -155 -7 -17 -4 -21 -3 -12 4 10 7 5 11 -18 15 -17 4 -29 11 -25 17
4 6 -8 10 -29 10 -19 0 -37 6 -39 13 -4 9 -6 9 -6 -1z m296 -88 c-3 -3 -12 -4
-19 -1 -8 3 -5 6 6 6 11 1 17 -2 13 -5z"/>
<path d="M2730 4232 c0 -9 -7 -11 -22 -7 -19 5 -20 4 -6 -5 18 -11 48 -4 48
12 0 5 5 6 10 3 6 -3 10 -2 10 4 0 5 -9 9 -20 8 -11 -1 -20 -7 -20 -15z"/>
<path d="M2799 4218 c-19 -10 -47 -30 -63 -46 -16 -15 -41 -35 -55 -44 -34
-24 -18 -23 28 1 20 10 58 29 84 42 54 27 91 69 58 66 -10 0 -34 -9 -52 -19z"/>
<path d="M3910 4230 c-9 -6 -10 -10 -3 -10 6 0 15 5 18 10 8 12 4 12 -15 0z"/>
<path d="M4159 4223 c-8 -51 -7 -73 2 -73 5 0 7 5 3 11 -3 6 0 16 7 21 10 7
11 11 2 14 -7 3 -9 12 -6 20 3 8 2 14 -1 14 -3 0 -7 -3 -7 -7z"/>
<path d="M4183 4121 c-2 -98 9 -107 21 -16 4 28 9 64 11 80 4 24 3 26 -4 10
-8 -16 -10 -17 -10 -3 -1 9 -4 19 -8 21 -5 3 -9 -39 -10 -92z"/>
<path d="M3690 4206 c0 -8 48 -12 66 -6 13 5 5 8 -23 8 -24 0 -43 -1 -43 -2z"/>
<path d="M3320 4191 c0 -6 4 -13 10 -16 6 -3 7 1 4 9 -7 18 -14 21 -14 7z"/>
<path d="M3768 4183 c6 -2 18 -2 25 0 6 3 1 5 -13 5 -14 0 -19 -2 -12 -5z"/>
<path d="M2665 4150 c-27 -17 -46 -30 -42 -30 13 0 85 39 92 50 8 14 7 13 -50
-20z"/>
<path d="M3092 4119 c-19 -22 -37 -37 -42 -34 -5 3 -12 0 -16 -6 -4 -8 -3 -9
4 -5 17 10 15 -3 -3 -21 -9 -8 -14 -17 -12 -19 8 -8 74 30 91 54 11 14 14 22
8 18 -15 -9 -15 -1 -1 26 18 34 5 28 -29 -13z"/>
<path d="M3717 4138 c-9 -5 -7 -8 4 -8 9 0 19 -7 23 -15 3 -8 11 -15 18 -15 9
0 8 3 -2 10 -12 8 -11 10 7 10 12 0 24 4 27 9 7 11 -60 20 -77 9z"/>
<path d="M3788 4093 c6 -2 18 -2 25 0 6 3 1 5 -13 5 -14 0 -19 -2 -12 -5z"/>
<path d="M3050 3980 c18 -12 40 -13 40 -2 0 4 -12 9 -27 10 -22 1 -24 0 -13
-8z"/>
<path d="M3345 3980 c3 -5 13 -10 21 -10 8 0 14 5 14 10 0 6 -9 10 -21 10 -11
0 -17 -4 -14 -10z"/>
<path d="M3188 3973 c17 -2 47 -2 65 0 17 2 3 4 -33 4 -36 0 -50 -2 -32 -4z"/>
<path d="M2482 3963 c-36 -4 -42 -7 -31 -19 15 -18 43 -18 79 1 34 18 38 26
13 23 -10 -1 -37 -3 -61 -5z"/>
<path d="M2440 3921 c0 -5 12 -19 28 -30 24 -18 25 -20 7 -21 -19 -1 -19 -1
-2 -11 12 -7 27 -7 46 -1 34 12 90 62 69 62 -7 0 -18 -4 -23 -9 -6 -5 -26 -12
-47 -16 -29 -6 -40 -3 -57 14 -12 12 -21 17 -21 12z"/>
<path d="M3610 3806 c14 -16 38 -37 54 -48 l28 -21 -11 21 c-10 19 -43 46 -81
67 -8 5 -4 -4 10 -19z"/>
<path d="M2974 3718 c-16 -24 -30 -55 -31 -70 -1 -26 0 -26 16 -10 29 30 72
102 66 112 -11 18 -22 11 -51 -32z m-4 -49 c-7 -11 -14 -18 -17 -15 -3 3 0 12
7 21 18 21 23 19 10 -6z"/>
<path d="M3040 3740 c-6 -12 -9 -24 -7 -27 3 -2 11 5 17 17 6 12 9 24 7 27 -3
2 -11 -5 -17 -17z"/>
<path d="M3340 3690 c6 -11 13 -20 16 -20 2 0 0 9 -6 20 -6 11 -13 20 -16 20
-2 0 0 -9 6 -20z"/>
<path d="M3365 3590 c3 -40 8 -76 11 -79 3 -3 4 27 1 67 -3 40 -8 76 -11 79
-3 3 -4 -27 -1 -67z"/>
<path d="M2793 3545 c-3 -9 -3 -18 -1 -21 3 -3 8 4 11 16 6 23 -1 27 -10 5z"/>
<path d="M3052 3528 c-1 -9 -7 -18 -12 -20 -6 -2 -15 -26 -19 -53 l-9 -50 -2
45 c-1 35 -3 41 -10 25 -12 -29 -12 -157 1 -175 8 -11 9 -4 5 29 -3 30 -1 40
5 30 5 -7 9 -29 9 -47 0 -18 12 -50 26 -72 30 -45 40 -51 29 -17 -4 12 -11 90
-15 172 -3 83 -7 143 -8 133z"/>
<path d="M3751 3440 c-1 -19 -6 -53 -11 -75 -5 -22 -7 -41 -5 -43 8 -9 26 82
22 116 l-4 37 -2 -35z"/>
<path d="M2841 3424 c0 -11 3 -14 6 -6 3 7 2 16 -1 19 -3 4 -6 -2 -5 -13z"/>
<path d="M3862 3390 c0 -14 2 -19 5 -12 2 6 2 18 0 25 -3 6 -5 1 -5 -13z"/>
<path d="M3866 3333 c-10 -21 -25 -50 -32 -65 -18 -34 -18 -59 0 -52 22 8 58
92 54 126 l-3 29 -19 -38z"/>
<path d="M3901 3307 c-7 -21 -11 -40 -8 -43 7 -7 29 54 25 68 -3 7 -10 -4 -17
-25z"/>
<path d="M3790 3147 c-14 -28 -47 -76 -75 -106 -44 -47 -46 -52 -20 -38 42 21
98 74 130 122 l27 40 -27 -25 c-23 -20 -27 -21 -22 -7 11 30 20 67 16 67 -2 0
-15 -24 -29 -53z"/>
<path d="M2972 3165 c-12 -27 -51 -47 -92 -47 l-25 -1 24 -10 c18 -9 30 -7 52
6 27 15 29 15 29 -2 0 -10 -7 -24 -15 -31 -13 -11 -13 -14 1 -27 12 -13 17
-13 31 -1 14 11 16 11 9 -2 -7 -12 -5 -12 8 1 10 9 19 36 21 60 4 37 3 40 -4
14 l-9 -30 -1 35 c-2 51 -15 67 -29 35z"/>
<path d="M3635 3033 c-60 -53 -116 -105 -123 -115 -12 -17 -11 -17 15 -7 15 5
46 25 68 43 22 18 44 35 50 37 16 7 71 72 89 107 9 17 15 32 14 32 -2 -1 -52
-44 -113 -97z"/>
<path d="M2186 4578 c1 -16 10 -35 20 -42 10 -8 15 -20 11 -30 -4 -9 -2 -16 3
-16 15 0 12 28 -7 56 -12 18 -13 28 -5 33 8 4 6 10 -6 18 -16 9 -18 7 -16 -19z"/>
<path d="M3738 2846 c-17 -12 -25 -36 -12 -36 16 0 44 23 44 35 0 18 -10 19
-32 1z"/>
<path d="M2827 2824 c5 -11 10 -35 12 -54 2 -37 21 -68 21 -34 0 30 -20 93
-31 100 -8 4 -8 0 -2 -12z"/>
<path d="M3515 2820 c-3 -5 1 -10 9 -10 8 0 18 5 21 10 3 6 -1 10 -9 10 -8 0
-18 -4 -21 -10z"/>
<path d="M3471 2774 c0 -11 3 -14 6 -6 3 7 2 16 -1 19 -3 4 -6 -2 -5 -13z"/>
<path d="M3395 2750 c-16 -7 -17 -9 -3 -9 9 -1 20 4 23 9 7 11 7 11 -20 0z"/>
<path d="M3600 2753 c0 -6 8 -14 17 -17 20 -8 40 9 22 19 -8 5 -10 4 -5 -3 9
-16 -7 -15 -22 0 -8 8 -12 8 -12 1z"/>
<path d="M3025 2740 c-3 -5 -2 -10 4 -10 5 0 13 5 16 10 3 6 2 10 -4 10 -5 0
-13 -4 -16 -10z"/>
<path d="M3180 2736 c0 -2 7 -7 16 -10 8 -3 12 -2 9 4 -6 10 -25 14 -25 6z"/>
<path d="M3375 2719 l-60 -19 50 6 c28 3 55 6 61 7 6 0 11 6 11 14 0 7 -1 13
-1 12 -1 0 -28 -9 -61 -20z"/>
<path d="M3523 2700 c6 -10 15 -16 19 -14 14 9 9 22 -11 27 -17 4 -18 2 -8
-13z"/>
<path d="M3348 2683 c7 -3 16 -2 19 1 4 3 -2 6 -13 5 -11 0 -14 -3 -6 -6z"/>
<path d="M3400 2661 c0 -27 3 -31 13 -22 8 6 18 7 22 3 5 -4 4 -1 0 7 -6 11
-4 13 8 8 8 -3 20 0 26 7 8 9 3 12 -22 10 -17 -1 -35 3 -39 9 -4 7 -8 -3 -8
-22z"/>
<path d="M3088 2673 c7 -3 16 -2 19 1 4 3 -2 6 -13 5 -11 0 -14 -3 -6 -6z"/>
<path d="M2553 2295 c0 -22 2 -30 4 -17 2 12 2 30 0 40 -3 9 -5 -1 -4 -23z"/>
<path d="M1945 2538 c-30 -26 -38 -93 -14 -109 54 -34 131 52 99 110 -14 28
-52 27 -85 -1z"/>
<path d="M5855 1836 c-64 -29 -80 -48 -66 -75 23 -42 82 -38 105 7 18 35 30
92 19 92 -4 0 -30 -11 -58 -24z"/>
<path d="M4005 1571 c-76 -34 -94 -68 -50 -97 44 -29 88 5 105 81 9 41 3 43
-55 16z"/>
<path d="M3376 1575 c-73 -68 -54 -195 30 -195 35 0 91 59 100 104 17 96 -63
153 -130 91z"/>
<path d="M2814 1501 c-17 -10 -38 -34 -47 -54 -44 -93 14 -183 92 -143 78 41
95 173 25 205 -32 14 -34 14 -70 -8z"/>
<path d="M4572 6050 c0 -14 2 -19 5 -12 2 6 2 18 0 25 -3 6 -5 1 -5 -13z"/>
<path d="M4562 5280 c0 -14 2 -19 5 -12 2 6 2 18 0 25 -3 6 -5 1 -5 -13z"/>
<path d="M5632 2563 c-5 -10 -13 -34 -16 -53 -5 -30 -3 -27 14 14 19 49 21 75
2 39z"/>
<path d="M5583 2420 c-11 -30 -28 -75 -36 -100 -8 -25 -18 -54 -22 -65 -7 -18
-6 -17 13 3 19 22 21 22 26 4 13 -39 63 -75 114 -80 89 -8 152 48 152 136 0
56 -23 94 -73 122 -38 22 -83 24 -129 5 -11 -4 -17 -1 -20 12 -2 11 -11 -2
-25 -37z m164 3 c75 -35 87 -139 23 -195 -92 -84 -239 29 -182 140 18 37 70
72 105 72 11 0 35 -8 54 -17z"/>
<path d="M5640 2315 c0 -61 3 -73 14 -69 8 3 16 20 18 37 l3 32 32 -32 c43
-45 72 -44 38 1 -12 16 -12 22 0 39 14 20 10 46 -9 59 -6 4 -30 8 -53 8 l-43
0 0 -75z m81 30 c0 -5 -12 -11 -26 -13 -18 -2 -25 1 -25 13 0 12 7 15 25 13
14 -2 26 -7 26 -13z"/>
</g>
</svg>
