<?xml version="1.0" standalone="no"?>
<!DOCTYPE svg PUBLIC "-//W3C//DTD SVG 20010904//EN"
 "http://www.w3.org/TR/2001/REC-SVG-20010904/DTD/svg10.dtd">
<svg version="1.0" xmlns="http://www.w3.org/2000/svg"
 width="250.000000pt" height="242.000000pt" viewBox="0 0 250.000000 242.000000"
 preserveAspectRatio="xMidYMid meet">

<g transform="translate(0.000000,242.000000) scale(0.100000,-0.100000)"
fill="#000000" stroke="none">
<path d="M0 1210 l0 -1210 1250 0 1250 0 0 1210 0 1210 -1250 0 -1250 0 0
-1210z m1024 793 c3 -10 48 -214 101 -453 101 -453 105 -471 111 -455 2 6 49
212 104 459 55 246 103 452 106 457 5 9 147 13 156 4 2 -3 -78 -319 -179 -702
-101 -384 -183 -705 -184 -713 0 -10 -3 -9 -9 5 -11 24 -370 1386 -370 1403 0
8 25 12 79 12 67 0 80 -3 85 -17z m-281 -153 c73 -27 127 -76 168 -152 33 -61
34 -67 34 -173 0 -104 -2 -114 -33 -179 -38 -81 -96 -141 -149 -155 -21 -6
-95 -11 -166 -11 l-127 0 2 -220 3 -220 -72 0 -73 0 0 565 0 565 180 0 c155 0
186 -3 233 -20z m1250 0 c73 -27 127 -76 168 -152 33 -61 34 -67 34 -173 0
-104 -2 -114 -33 -179 -37 -78 -99 -144 -143 -153 -16 -3 -32 -10 -35 -14 -3
-5 54 -106 125 -224 l131 -215 -73 0 -72 0 -134 220 -134 220 -49 0 -48 0 0
-220 0 -220 -75 0 -75 0 0 565 0 565 180 0 c155 0 186 -3 233 -20z m-1519
-1360 c14 -5 26 -16 26 -25 0 -17 -16 -20 -25 -5 -10 16 -61 12 -84 -7 -11
-10 -24 -32 -27 -48 -12 -62 58 -106 117 -75 15 8 19 7 19 -4 0 -34 -70 -47
-119 -21 -55 28 -66 119 -18 162 36 33 68 40 111 23z m526 -67 c0 53 3 67 15
67 12 0 15 -18 15 -102 l0 -102 -75 74 -75 74 0 -73 c0 -54 -3 -72 -12 -69 -9
3 -14 36 -16 109 l-3 104 76 -75 75 -74 0 67z m980 -125 c1 -17 -26 -1 -42 25
-14 21 -25 27 -53 27 -28 0 -37 -5 -50 -30 -15 -29 -26 -36 -37 -24 -3 3 11
40 32 82 20 42 41 88 45 102 8 22 13 15 56 -75 27 -55 48 -103 49 -107z m231
192 c31 -17 22 -31 -18 -28 -54 4 -56 -23 -4 -56 44 -28 57 -55 41 -86 -19
-36 -100 -39 -114 -4 -9 24 1 30 24 16 25 -15 45 -15 58 1 14 16 6 28 -40 55
-42 26 -51 43 -38 76 13 35 52 46 91 26z m-1523 -97 c-2 -66 -7 -98 -15 -101
-10 -3 -13 21 -13 97 0 84 3 101 15 101 13 0 15 -15 13 -97z m622 88 c0 -6
-19 -11 -42 -13 -38 -3 -43 -6 -42 -28 0 -22 4 -25 38 -25 56 0 59 -23 4 -27
-40 -3 -43 -5 -43 -33 0 -28 3 -30 43 -33 62 -5 47 -25 -18 -25 l-55 0 -3 97
-3 96 61 0 c33 0 60 -4 60 -9z m214 -56 c16 -36 32 -65 35 -65 3 0 17 26 30
58 13 31 28 61 32 66 4 4 17 -35 29 -88 13 -53 20 -99 17 -102 -12 -13 -24 8
-36 61 l-13 56 -30 -63 -31 -63 -30 65 -31 65 -12 -54 c-12 -53 -28 -80 -36
-64 -6 10 34 193 42 193 3 0 18 -30 34 -65z"/>
<path d="M476 1732 c-3 -5 -4 -98 -3 -208 l2 -199 120 0 c106 0 124 3 155 22
19 12 43 36 54 53 24 41 32 142 16 200 -15 56 -72 114 -125 129 -46 13 -211
15 -219 3z"/>
<path d="M1730 1530 l0 -210 107 0 c87 0 114 4 149 21 57 27 85 74 91 152 7
84 -11 143 -56 188 -45 46 -91 59 -203 59 l-88 0 0 -210z"/>
<path d="M1872 405 c-16 -35 -16 -35 13 -35 28 0 32 17 12 44 -12 17 -14 16
-25 -9z"/>
</g>
</svg>
